<svg xmlns="http://www.w3.org/2000/svg" width="281.681" height="48" viewBox="0 0 281.681 48">
  <path fill="none" d="M52.676 15.675h230.828v16.649H52.676z"/>
  <path fill="#88C0D0" d="M53.864 15.673h.66l10.738 15.161h.044V15.673h.44v15.71h-.66l-10.737-15.16h-.044v15.16h-.44v-15.71zm18.788 4.137c3.301 0 5.083 2.838 5.083 5.918 0 3.104-1.782 5.919-5.105 5.919-3.3 0-5.083-2.815-5.083-5.919.001-3.08 1.783-5.918 5.105-5.918zm0 11.398c3.015 0 4.643-2.618 4.643-5.479 0-2.816-1.628-5.479-4.643-5.479-3.058 0-4.665 2.663-4.665 5.479.001 2.86 1.607 5.479 4.665 5.479zm7.348.175h-.44v-11.31H80v2.794h.044c.418-1.672 1.738-3.146 4.444-3.059v.44C81.386 20.096 80 22.516 80 24.98v6.403zm14.059-15.71h.44v15.71h-.44v-3.169h-.044c-.572 1.98-2.222 3.433-4.533 3.433-2.992 0-4.818-2.485-4.818-5.896 0-3.168 1.694-5.941 4.818-5.941 2.398 0 4.005 1.386 4.533 3.433h.044v-7.57zm-4.577 4.577c-3.102 0-4.378 2.883-4.378 5.501 0 2.904 1.452 5.457 4.378 5.457 2.905 0 4.577-2.53 4.577-5.457 0-3.499-1.827-5.501-4.577-5.501z"/>
  <path fill="#2E3440" d="M101.824 15.673h1.606l5.104 14.06h.044l5.062-14.06h1.584l-5.831 15.71h-1.738l-5.831-15.71zm14.673 0h1.387v2.223h-1.387v-2.223zm0 4.357h1.387v11.354h-1.387V20.03zm10.848 3.322c-.066-1.716-1.386-2.486-2.971-2.486-1.231 0-2.685.484-2.685 1.958 0 1.232 1.408 1.672 2.354 1.914l1.849.417c1.584.242 3.234 1.167 3.234 3.146 0 2.465-2.442 3.411-4.555 3.411-2.641 0-4.444-1.232-4.665-4.005h1.387c.11 1.871 1.496 2.839 3.345 2.839 1.298 0 3.103-.572 3.103-2.156 0-1.32-1.232-1.761-2.486-2.068l-1.782-.396c-1.805-.483-3.169-1.101-3.169-3.036 0-2.311 2.267-3.19 4.269-3.19 2.267 0 4.07 1.188 4.158 3.652h-1.386zm12.98 8.031h-1.276v-2.046h-.044c-.726 1.518-2.223 2.376-3.917 2.376-2.86 0-3.982-1.673-3.982-4.313v-7.37h1.387v7.394c.065 2.046.836 3.124 3.036 3.124 2.376 0 3.41-2.245 3.41-4.555V20.03h1.387v11.353zm2.485-7.877c.132-2.663 2.002-3.807 4.599-3.807 2.002 0 4.181.616 4.181 3.652v6.028c0 .529.264.837.813.837.154 0 .33-.044.44-.089v1.167a3.855 3.855 0 0 1-.902.088c-1.408 0-1.628-.792-1.628-1.98h-.044c-.969 1.475-1.958 2.311-4.137 2.311-2.091 0-3.807-1.034-3.807-3.322 0-3.19 3.103-3.301 6.095-3.653 1.145-.132 1.782-.286 1.782-1.54 0-1.871-1.342-2.333-2.971-2.333-1.716 0-2.992.792-3.036 2.641h-1.385zm7.392 1.672h-.044c-.176.33-.792.44-1.166.507-2.354.418-5.281.396-5.281 2.617 0 1.387 1.232 2.245 2.531 2.245 2.112 0 3.982-1.343 3.96-3.564v-1.805zm4.179-9.505h1.387v15.71h-1.387v-15.71zm11.133 10.539c-.065 3.234 2.267 4.225 5.127 4.225 1.65 0 4.158-.902 4.158-3.19 0-1.782-1.782-2.486-3.234-2.838l-3.498-.858c-1.849-.462-3.543-1.342-3.543-3.785 0-1.54.99-4.423 5.413-4.423 3.103 0 5.831 1.672 5.809 4.885h-1.496c-.088-2.398-2.068-3.608-4.29-3.608-2.047 0-3.939.792-3.939 3.125 0 1.474 1.101 2.09 2.377 2.398l3.828.946c2.223.594 4.071 1.563 4.071 4.136 0 1.078-.44 4.489-6.007 4.489-3.719 0-6.447-1.673-6.271-5.501h1.495zm15.091-6.182h2.311v1.166h-2.311v7.657c0 .902.132 1.43 1.122 1.496.396 0 .792-.021 1.188-.066v1.188c-.418 0-.814.044-1.232.044-1.849 0-2.486-.615-2.464-2.553v-7.767h-1.98V20.03h1.98v-3.411h1.386v3.411zm13.509 11.353h-1.276v-2.046h-.044c-.726 1.518-2.223 2.376-3.917 2.376-2.86 0-3.982-1.673-3.982-4.313v-7.37h1.387v7.394c.065 2.046.836 3.124 3.036 3.124 2.376 0 3.41-2.245 3.41-4.555V20.03h1.387v11.353zm12.606 0h-1.276v-2.156h-.044c-.594 1.474-2.398 2.486-4.049 2.486-3.454 0-5.104-2.794-5.104-6.007 0-3.212 1.65-6.007 5.104-6.007 1.694 0 3.345.858 3.939 2.486h.044v-6.513h1.386v15.711zm-5.369-.836c2.949 0 3.983-2.486 3.983-4.841s-1.034-4.841-3.983-4.841c-2.64 0-3.718 2.486-3.718 4.841s1.078 4.841 3.718 4.841zm8.029-14.874h1.387v2.223h-1.387v-2.223zm0 4.357h1.387v11.354h-1.387V20.03zm14.214 5.677c0 3.256-1.892 6.007-5.368 6.007s-5.369-2.751-5.369-6.007 1.893-6.007 5.369-6.007 5.368 2.75 5.368 6.007zm-9.351 0c0 2.42 1.319 4.841 3.982 4.841 2.662 0 3.982-2.421 3.982-4.841 0-2.42-1.32-4.841-3.982-4.841s-3.982 2.42-3.982 4.841zm29.284-5.281c-.528-2.42-2.531-3.807-4.819-3.807-4.158 0-5.919 3.477-5.919 6.909s1.761 6.909 5.919 6.909c2.904 0 4.753-2.244 5.039-5.039h1.496c-.418 3.852-2.86 6.315-6.535 6.315-4.95 0-7.415-3.895-7.415-8.185s2.465-8.186 7.415-8.186c2.971 0 5.919 1.783 6.315 5.083h-1.496zm13.904 5.281c0 3.256-1.892 6.007-5.368 6.007s-5.369-2.751-5.369-6.007 1.893-6.007 5.369-6.007 5.368 2.75 5.368 6.007zm-9.351 0c0 2.42 1.319 4.841 3.982 4.841 2.662 0 3.982-2.421 3.982-4.841 0-2.42-1.32-4.841-3.982-4.841-2.663 0-3.982 2.42-3.982 4.841zm21.407 5.676h-1.276v-2.156h-.044c-.594 1.474-2.398 2.486-4.049 2.486-3.454 0-5.104-2.794-5.104-6.007 0-3.212 1.65-6.007 5.104-6.007 1.694 0 3.345.858 3.939 2.486h.044v-6.513h1.386v15.711zm-5.369-.836c2.949 0 3.983-2.486 3.983-4.841s-1.034-4.841-3.983-4.841c-2.64 0-3.718 2.486-3.718 4.841s1.079 4.841 3.718 4.841zm8.822-4.466c.021 2.024 1.078 4.467 3.74 4.467 2.024 0 3.124-1.188 3.564-2.905h1.386c-.594 2.575-2.09 4.071-4.95 4.071-3.608 0-5.127-2.772-5.127-6.007 0-2.993 1.519-6.007 5.127-6.007 3.652 0 5.104 3.19 4.994 6.381h-8.734zm7.349-1.166c-.066-2.09-1.364-4.049-3.608-4.049-2.267 0-3.521 1.98-3.74 4.049h7.348z"/>
  <path opacity=".05" d="M36.063 4.085c5.983 4.148 9.895 11.061 9.895 18.894 0 12.691-10.284 22.979-22.98 22.979-7.833 0-14.746-3.909-18.895-9.894a23.787 23.787 0 0 0 3.862 5.075 23.418 23.418 0 0 0 15.799 6.096c12.974 0 23.491-10.519 23.491-23.49a23.407 23.407 0 0 0-6.096-15.798 23.743 23.743 0 0 0-5.076-3.862zm5.076 3.862A23.398 23.398 0 0 1 47.491 24c0 12.973-10.517 23.49-23.491 23.49a23.399 23.399 0 0 1-16.054-6.351C12.194 45.371 18.039 48 24.51 48 37.483 48 48 37.483 48 24.511c0-6.47-2.63-12.317-6.861-16.564z"/>
  <path opacity=".1" d="M41.14 7.947a23.411 23.411 0 0 1 6.097 15.798c0 12.974-10.517 23.49-23.491 23.49a23.42 23.42 0 0 1-15.8-6.096 23.402 23.402 0 0 0 16.055 6.351c12.974 0 23.49-10.518 23.49-23.49 0-6.21-2.414-11.853-6.351-16.053z"/>
  <path opacity=".2" d="M30.896 1.404c8.799 3.221 15.064 11.66 15.064 21.58 0 12.69-10.285 22.979-22.979 22.979-9.915 0-18.355-6.265-21.571-15.063 4.008 12.338 17.259 19.093 29.598 15.085a23.488 23.488 0 0 0 16.234-22.234A23.489 23.489 0 0 0 30.9 1.409l-.004-.005z"/>
  <path fill="#2E3440" d="M23.491 0c12.974 0 23.491 10.516 23.491 23.489 0 12.974-10.517 23.49-23.491 23.49S0 36.463 0 23.489C0 10.516 10.517 0 23.491 0z"/>
  <path opacity=".1" d="M39.862 6.67a23.403 23.403 0 0 1 6.097 15.798c0 12.974-10.517 23.49-23.49 23.49a23.42 23.42 0 0 1-15.8-6.096c4.268 4.382 10.224 7.117 16.821 7.117 12.974 0 23.49-10.518 23.49-23.49 0-6.599-2.734-12.552-7.118-16.819z"/>
  <path fill="#88C0D0" d="M36.489 12.914l-6.195-2.425-10.813 10.284-6.511-4.841-2.477 1.216-.002 12.695 2.464 1.209 6.506-4.838 10.84 10.275 6.189-2.416-.001-21.159zM13.588 26.212l-.003-5.434 3.095 2.698-3.092 2.736zm9.902-2.737l6.188-4.518.002 9.072-6.19-4.554z"/>
</svg>
