<svg xmlns="http://www.w3.org/2000/svg" width="223.36" height="48" viewBox="0 0 223.36 48">
  <path fill="none" d="M52.676 15.675h170.685v16.649H52.676z"/>
  <path fill="#88C0D0" d="M53.864 15.673h.66l10.738 15.161h.044V15.673h.44v15.71h-.66l-10.737-15.16h-.044v15.16h-.44v-15.71zm18.788 4.137c3.301 0 5.083 2.838 5.083 5.918 0 3.104-1.782 5.919-5.105 5.919-3.3 0-5.083-2.815-5.083-5.919.001-3.08 1.783-5.918 5.105-5.918zm0 11.398c3.015 0 4.643-2.618 4.643-5.479 0-2.816-1.628-5.479-4.643-5.479-3.058 0-4.665 2.663-4.665 5.479.001 2.86 1.607 5.479 4.665 5.479zm7.348.175h-.44v-11.31H80v2.794h.044c.418-1.672 1.738-3.146 4.444-3.059v.44C81.386 20.096 80 22.516 80 24.98v6.403zm14.059-15.71h.44v15.71h-.44v-3.169h-.044c-.572 1.98-2.222 3.433-4.533 3.433-2.992 0-4.818-2.485-4.818-5.896 0-3.168 1.694-5.941 4.818-5.941 2.398 0 4.005 1.386 4.533 3.433h.044v-7.57zm-4.577 4.577c-3.102 0-4.378 2.883-4.378 5.501 0 2.904 1.452 5.457 4.378 5.457 2.905 0 4.577-2.53 4.577-5.457 0-3.499-1.827-5.501-4.577-5.501z"/>
  <path fill="#2E3440" d="M104.266 26.212c-.066 3.234 2.267 4.225 5.127 4.225 1.65 0 4.158-.902 4.158-3.19 0-1.782-1.782-2.486-3.234-2.838l-3.498-.858c-1.849-.462-3.542-1.342-3.542-3.785 0-1.54.99-4.423 5.413-4.423 3.103 0 5.831 1.672 5.809 4.885h-1.496c-.088-2.398-2.068-3.608-4.29-3.608-2.047 0-3.939.792-3.939 3.125 0 1.474 1.1 2.09 2.376 2.398l3.828.946c2.223.594 4.071 1.563 4.071 4.136 0 1.078-.44 4.489-6.007 4.489-3.719 0-6.447-1.673-6.271-5.501h1.495zm22.088 5.171h-1.276v-2.046h-.044c-.726 1.518-2.223 2.376-3.917 2.376-2.86 0-3.982-1.673-3.982-4.313v-7.37h1.387v7.394c.065 2.046.836 3.124 3.036 3.124 2.376 0 3.41-2.245 3.41-4.555V20.03h1.387v11.353zm2.617-15.71h1.386v6.513h.044c.595-1.628 2.245-2.486 3.939-2.486 3.454 0 5.104 2.794 5.104 6.007 0 3.213-1.65 6.007-5.104 6.007-1.827 0-3.411-.946-4.049-2.486h-.044v2.156h-1.276V15.673zm5.369 5.193c-2.949 0-3.983 2.486-3.983 4.841s1.034 4.841 3.983 4.841c2.64 0 3.718-2.486 3.718-4.841s-1.079-4.841-3.718-4.841zm7.28-5.193h1.387v15.71h-1.387v-15.71zm4.07 0h1.387v2.223h-1.387v-2.223zm0 4.357h1.387v11.354h-1.387V20.03zm4.049 0h1.276v1.914h.065c.727-1.364 1.915-2.244 3.719-2.244 1.496 0 2.839.726 3.257 2.222.682-1.496 2.112-2.222 3.608-2.222 2.486 0 3.763 1.298 3.763 3.982v7.701h-1.387v-7.635c0-1.87-.704-2.882-2.685-2.882-2.398 0-3.08 1.98-3.08 4.093v6.425h-1.386v-7.701c.021-1.54-.616-2.816-2.377-2.816-2.398 0-3.366 1.804-3.389 4.181v6.337h-1.386V20.03zm19.141 6.051c.021 2.024 1.078 4.467 3.74 4.467 2.024 0 3.124-1.188 3.564-2.905h1.386c-.594 2.575-2.09 4.071-4.95 4.071-3.608 0-5.127-2.772-5.127-6.007 0-2.993 1.519-6.007 5.127-6.007 3.652 0 5.104 3.19 4.994 6.381h-8.734zm7.349-1.166c-.066-2.09-1.364-4.049-3.608-4.049-2.267 0-3.521 1.98-3.74 4.049h7.348zm7.94-9.242h12.454v1.276h-5.479v14.434h-1.496V16.949h-5.479v-1.276zm12.036 10.408c.021 2.024 1.078 4.467 3.74 4.467 2.024 0 3.124-1.188 3.564-2.905h1.386c-.594 2.575-2.09 4.071-4.95 4.071-3.608 0-5.127-2.772-5.127-6.007 0-2.993 1.519-6.007 5.127-6.007 3.652 0 5.104 3.19 4.994 6.381h-8.734zm7.349-1.166c-.066-2.09-1.364-4.049-3.608-4.049-2.267 0-3.521 1.98-3.74 4.049h7.348zm6.357.571l-4.071-5.456h1.738l3.235 4.313 3.168-4.313h1.738l-4.093 5.435 4.423 5.919h-1.761l-3.564-4.774-3.498 4.774h-1.716l4.401-5.898zm9.68-5.456h2.311v1.166h-2.311v7.657c0 .902.132 1.43 1.122 1.496.396 0 .792-.021 1.188-.066v1.188c-.418 0-.814.044-1.232.044-1.849 0-2.486-.615-2.464-2.553v-7.767h-1.98V20.03h1.98v-3.411h1.386v3.411z"/>
  <path opacity=".05" d="M36.063 4.085c5.983 4.148 9.895 11.061 9.895 18.894 0 12.691-10.284 22.979-22.98 22.979-7.833 0-14.746-3.909-18.895-9.894a23.787 23.787 0 0 0 3.862 5.075 23.418 23.418 0 0 0 15.799 6.096c12.974 0 23.491-10.519 23.491-23.49a23.407 23.407 0 0 0-6.096-15.798 23.743 23.743 0 0 0-5.076-3.862zm5.076 3.862A23.398 23.398 0 0 1 47.491 24c0 12.973-10.517 23.49-23.491 23.49a23.399 23.399 0 0 1-16.054-6.351C12.194 45.371 18.039 48 24.51 48 37.483 48 48 37.483 48 24.511c0-6.47-2.63-12.317-6.861-16.564z"/>
  <path opacity=".1" d="M41.14 7.947a23.411 23.411 0 0 1 6.097 15.798c0 12.974-10.517 23.49-23.491 23.49a23.42 23.42 0 0 1-15.8-6.096 23.402 23.402 0 0 0 16.055 6.351c12.974 0 23.49-10.518 23.49-23.49 0-6.21-2.414-11.853-6.351-16.053z"/>
  <path opacity=".2" d="M30.896 1.404c8.799 3.221 15.064 11.66 15.064 21.58 0 12.69-10.285 22.979-22.979 22.979-9.915 0-18.355-6.265-21.571-15.063 4.008 12.338 17.259 19.093 29.598 15.085a23.488 23.488 0 0 0 16.234-22.234A23.489 23.489 0 0 0 30.9 1.409l-.004-.005z"/>
  <path fill="#2E3440" d="M23.491 0c12.974 0 23.491 10.516 23.491 23.489 0 12.974-10.517 23.49-23.491 23.49S0 36.463 0 23.489C0 10.516 10.517 0 23.491 0z"/>
  <path opacity=".1" d="M39.862 6.67a23.403 23.403 0 0 1 6.097 15.798c0 12.974-10.517 23.49-23.49 23.49a23.42 23.42 0 0 1-15.8-6.096c4.268 4.382 10.224 7.117 16.821 7.117 12.974 0 23.49-10.518 23.49-23.49 0-6.599-2.734-12.552-7.118-16.819z"/>
  <path opacity=".1" d="M35.138 9.209a.499.499 0 0 0-.223.02L13.207 16.12c-.217.069-.398.262-.496.49a.532.532 0 0 0-.078.274v7.089c0 .11.033.199.078.274.097.226.279.423.496.492l9.219 2.925-9.219 2.925c-.316.1-.573.465-.573.813v7.043c0 .347.257.547.573.446l21.708-6.889c.314-.099.572-.462.574-.811v-.001l.002-.011v-7.042c0-.349-.255-.712-.573-.814l-9.126-2.896 9.123-2.896c.315-.101.574-.464.574-.813V9.68c0-.261-.146-.44-.351-.471z"/>
  <path fill="#5E81AC" d="M34.344 23.005c0-.348-.256-.548-.572-.449l-21.708 6.89c-.316.101-.573.464-.573.813V37.3c0 .349.256.549.573.45l21.708-6.891c.315-.101.572-.464.572-.812v-7.042z"/>
  <path opacity=".1" d="M22.428 26.159l-2.373.751 13.08 4.153.635-.204c.316-.101.574-.464.574-.812v-.107l-11.916-3.781z"/>
  <path fill="#81A1C1" d="M11.491 22.78c0 .348.256.713.573.813l21.712 6.89c.316.099.573-.102.573-.448v-7.043c0-.348-.257-.711-.573-.812l-21.712-6.891c-.316-.101-.573.1-.573.448v7.043z"/>
  <path fill="#88C0D0" d="M34.344 8.536c0-.348-.256-.55-.572-.45l-21.708 6.889c-.316.101-.573.465-.573.813v7.042c0 .348.256.549.573.449l21.708-6.89c.315-.101.572-.464.572-.812V8.536z"/>
</svg>
