<svg xmlns="http://www.w3.org/2000/svg" width="880" height="420" viewBox="0 0 880 420">
  <g fill="#2E3440">
    <path d="M491.493 244.6l-97.48-124.774V85.205l108.036 139.666h58.056V28.207h-97.637L441.355 7.096h139.862V244.6z"/>
    <path d="M390.135 7.096l97.478 124.769v34.621L379.58 26.822h-58.057v196.664h97.64l21.109 21.112h-139.86V7.096z"/>
  </g>
  <path d="M624.312 264.596h4.08v145.656h-4.08v-29.376c-2.993 9.582-8.195 17.317-15.606 23.202-7.414 5.884-16.354 8.826-26.826 8.826-13.601 0-24.448-5.11-32.538-15.329-8.093-10.219-12.138-23.367-12.138-39.445 0-15.529 3.979-28.611 11.935-39.238 7.955-10.627 18.869-15.943 32.741-15.943 10.879 0 19.957 2.855 27.234 8.567 7.273 5.712 12.205 13.464 14.79 23.256l.408-70.176zm-42.433 42.432c-13.33 0-23.428 5.112-30.294 15.331-6.869 10.22-10.302 22.144-10.302 35.771 0 14.312 3.5 26.339 10.506 36.079 7.003 9.744 17.034 14.615 30.09 14.615 12.919 0 23.222-4.906 30.906-14.717 7.682-9.812 11.526-21.806 11.526-35.978 0-16.078-3.81-28.614-11.424-37.609-7.617-8.995-17.951-13.492-31.008-13.492zm-87.921 103.224h-4.079V305.396h4.079v25.908c2.312-8.567 6.834-15.434 13.566-20.604 6.731-5.167 16.081-7.752 28.05-7.752v4.08c-13.602 0-23.938 4.182-31.008 12.546-7.073 8.363-10.608 18.803-10.608 31.313v59.365zm-68.135-107.304c14.688 0 26.214 5.349 34.578 16.046 8.364 10.697 12.547 23.673 12.547 38.932 0 15.262-4.218 28.238-12.648 38.936-8.434 10.697-19.992 16.043-34.68 16.043s-26.214-5.313-34.578-15.941c-8.364-10.627-12.546-23.642-12.546-39.037 0-15.259 4.182-28.234 12.546-38.932 8.363-10.698 19.956-16.047 34.781-16.047zm0 105.876c13.464 0 24.001-4.938 31.621-14.819 7.614-9.881 11.424-21.907 11.424-36.079 0-13.897-3.845-25.856-11.526-35.872-7.685-10.015-18.191-15.025-31.518-15.025-13.464 0-24.04 4.976-31.722 14.924-7.685 9.948-11.526 21.939-11.526 35.974 0 14.038 3.841 26.029 11.526 35.978 7.681 9.947 18.257 14.919 31.721 14.919zM251.608 264.596h6.12l99.552 140.55.408-140.55h4.08v145.656l-5.954-.118-99.718-140.785-.408 140.903h-4.08V264.596z" fill="#88C0D0"/>
</svg>
