<svg xmlns="http://www.w3.org/2000/svg" width="239.675" height="48" viewBox="0 0 239.675 48">
  <path opacity=".05" d="M36.063 4.086c5.983 4.148 9.895 11.061 9.895 18.894 0 12.69-10.284 22.979-22.98 22.979-7.832 0-14.745-3.908-18.895-9.894a23.716 23.716 0 0 0 3.861 5.075 23.417 23.417 0 0 0 15.799 6.096c12.975 0 23.491-10.519 23.491-23.489a23.41 23.41 0 0 0-6.096-15.799 23.647 23.647 0 0 0-5.075-3.862zm5.076 3.861A23.398 23.398 0 0 1 47.491 24c0 12.975-10.517 23.491-23.491 23.491a23.398 23.398 0 0 1-16.055-6.352C12.195 45.371 18.039 48 24.51 48 37.483 48.001 48 37.483 48 24.512c0-6.471-2.63-12.318-6.861-16.565z"/>
  <path opacity=".1" d="M41.14 7.947a23.414 23.414 0 0 1 6.097 15.799c0 12.973-10.517 23.489-23.491 23.489a23.417 23.417 0 0 1-15.799-6.096 23.394 23.394 0 0 0 16.055 6.352c12.974 0 23.49-10.519 23.49-23.491A23.4 23.4 0 0 0 41.14 7.947z"/>
  <path opacity=".2" d="M30.896 1.404c8.799 3.221 15.064 11.66 15.064 21.58 0 12.691-10.285 22.979-22.979 22.979-9.915 0-18.354-6.266-21.571-15.064 4.008 12.34 17.26 19.094 29.598 15.086A23.489 23.489 0 0 0 47.242 23.75 23.488 23.488 0 0 0 30.9 1.41l-.004-.006z"/>
  <path fill="#2E3440" d="M23.491 0c12.974 0 23.49 10.517 23.49 23.49 0 12.973-10.517 23.491-23.49 23.491C10.517 46.981 0 36.463 0 23.49 0 10.517 10.517 0 23.491 0z"/>
  <path opacity=".1" d="M39.862 6.67a23.407 23.407 0 0 1 6.097 15.799c0 12.973-10.517 23.489-23.49 23.489a23.417 23.417 0 0 1-15.8-6.094c4.268 4.381 10.225 7.117 16.821 7.117 12.974 0 23.49-10.519 23.49-23.491 0-6.599-2.734-12.552-7.118-16.82z"/>
  <path fill-opacity=".1" d="M26.55 11.748h.005c6.79 0 12.256 5.465 12.256 12.255v.005c0 6.785-5.466 12.25-12.256 12.25h-.005a12.225 12.225 0 0 1-12.251-12.25v-.005c0-6.79 5.466-12.255 12.251-12.255"/>
  <path fill-opacity=".1" d="M21.448 11.748c-6.789 0-12.256 5.465-12.256 12.255s5.467 12.255 12.256 12.255c.348 0 .678-.035 1.021-.063-6.304-.523-11.234-5.754-11.234-12.193 0-6.443 4.931-11.673 11.234-12.191-.344-.032-.674-.068-1.021-.068"/>
  <path fill="#88C0D0" d="M25.529 10.727h.004a12.23 12.23 0 0 1 12.256 12.256v.004a12.23 12.23 0 0 1-12.256 12.252h-.004a12.227 12.227 0 0 1-12.252-12.252v-.004a12.228 12.228 0 0 1 12.252-12.256"/>
  <path fill="#81A1C1" d="M20.427 10.727A12.23 12.23 0 0 0 8.171 22.983a12.23 12.23 0 0 0 12.256 12.256c.348 0 .678-.037 1.021-.064-6.303-.525-11.234-5.755-11.234-12.195 0-6.443 4.931-11.672 11.234-12.191-.344-.031-.674-.068-1.021-.068"/>
  <path fill="#D8DEE9" d="M14.391 17.875c-.3.655-.551 1.334-.734 2.043h23.746a12.536 12.536 0 0 0-.734-2.043m-23.332 4.086c-.027.343-.064.674-.064 1.021 0 .347.035.678.064 1.021h24.384c.027-.343.064-.674.064-1.021 0-.348-.036-.679-.064-1.021m-24.066 4.085c.184.71.439 1.388.734 2.042h22.278c.3-.654.555-1.332.734-2.042"/>
  <path fill="none" d="M52.675 13.405h187.083v20.649H52.675z"/>
  <path fill="#88C0D0" d="M53.863 13.673h.66l10.738 15.16h.044v-15.16h.44v15.711h-.66L54.347 14.223h-.044v15.161h-.44V13.673zm18.788 4.137c3.301 0 5.083 2.838 5.083 5.919 0 3.103-1.782 5.919-5.105 5.919-3.3 0-5.083-2.816-5.083-5.919.001-3.081 1.783-5.919 5.105-5.919zm0 11.398c3.015 0 4.643-2.619 4.643-5.479 0-2.816-1.628-5.479-4.643-5.479-3.058 0-4.665 2.663-4.665 5.479.001 2.86 1.607 5.479 4.665 5.479zm7.348.176h-.44v-11.31h.44v2.794h.044c.418-1.672 1.738-3.146 4.444-3.059v.44c-3.102-.154-4.488 2.267-4.488 4.731v6.404zm14.059-15.711h.44v15.711h-.44v-3.169h-.044c-.572 1.979-2.222 3.433-4.533 3.433-2.992 0-4.818-2.486-4.818-5.896 0-3.169 1.694-5.941 4.818-5.941 2.398 0 4.004 1.386 4.533 3.433h.044v-7.571zm-4.577 4.577c-3.102 0-4.378 2.883-4.378 5.501 0 2.904 1.452 5.457 4.378 5.457 2.905 0 4.577-2.531 4.577-5.457 0-3.499-1.827-5.501-4.577-5.501z"/>
  <path fill="#2E3440" d="M103.561 13.673h10.848v1.276h-9.352v5.677h8.758v1.276h-8.758v6.204h9.462v1.277h-10.958v-15.71zm20.791 7.921c-.374-1.694-1.408-2.729-3.212-2.729-2.663 0-3.982 2.42-3.982 4.841s1.319 4.841 3.982 4.841c1.716 0 3.124-1.344 3.3-3.235h1.387c-.374 2.729-2.156 4.401-4.687 4.401-3.477 0-5.369-2.75-5.369-6.007 0-3.256 1.893-6.007 5.369-6.007 2.42 0 4.29 1.298 4.599 3.895h-1.387zm3.43-7.921h1.387v15.711h-1.387V13.673zm4.071 0h1.387v2.223h-1.387v-2.223zm0 4.357h1.387v11.354h-1.387V18.03zm4.048 0h1.276v2.156h.044c.638-1.54 2.222-2.486 4.049-2.486 3.454 0 5.104 2.794 5.104 6.007s-1.65 6.007-5.104 6.007c-1.694 0-3.345-.859-3.939-2.486h-.044v6.357h-1.386V18.03zm5.37.836c-3.059 0-3.983 2.267-3.983 4.841 0 2.355 1.034 4.841 3.983 4.841 2.64 0 3.718-2.486 3.718-4.841-.001-2.355-1.079-4.841-3.718-4.841zm14.057 2.486c-.066-1.716-1.386-2.486-2.971-2.486-1.231 0-2.685.484-2.685 1.958 0 1.232 1.408 1.672 2.354 1.914l1.849.418c1.584.242 3.234 1.167 3.234 3.146 0 2.464-2.442 3.411-4.555 3.411-2.641 0-4.444-1.232-4.665-4.005h1.387c.11 1.87 1.496 2.839 3.345 2.839 1.298 0 3.103-.572 3.103-2.156 0-1.32-1.232-1.762-2.486-2.068l-1.782-.396c-1.805-.484-3.169-1.101-3.169-3.037 0-2.311 2.267-3.19 4.269-3.19 2.267 0 4.07 1.188 4.158 3.652h-1.386zm4.598 2.729c.021 2.023 1.078 4.467 3.74 4.467 2.024 0 3.124-1.189 3.564-2.905h1.386c-.594 2.575-2.09 4.071-4.95 4.071-3.608 0-5.127-2.773-5.127-6.007 0-2.993 1.519-6.007 5.127-6.007 3.652 0 5.104 3.19 4.994 6.381h-8.734zm7.348-1.166c-.066-2.09-1.364-4.049-3.608-4.049-2.267 0-3.521 1.98-3.74 4.049h7.348zm10.339 1.297c-.065 3.234 2.267 4.225 5.127 4.225 1.65 0 4.158-.902 4.158-3.189 0-1.783-1.782-2.487-3.234-2.839l-3.498-.858c-1.849-.462-3.543-1.342-3.543-3.785 0-1.54.99-4.423 5.413-4.423 3.103 0 5.831 1.672 5.809 4.885h-1.496c-.088-2.398-2.068-3.608-4.29-3.608-2.047 0-3.939.792-3.939 3.125 0 1.474 1.101 2.09 2.377 2.398l3.828.946c2.223.594 4.071 1.563 4.071 4.137 0 1.078-.44 4.489-6.007 4.489-3.719 0-6.447-1.672-6.271-5.502h1.495zm11.616-6.182h1.475l3.74 9.682 3.498-9.682h1.387L194.4 31.122c-.792 1.914-1.254 2.463-2.992 2.463-.551-.021-.837-.021-1.057-.109V32.31c.33.066.639.109.946.109 1.232 0 1.519-.725 1.98-1.781l.483-1.299-4.531-11.309zm11.439 0h1.387v1.958h.044c.506-1.364 2.024-2.288 3.631-2.288 3.19 0 4.158 1.672 4.158 4.378v7.306h-1.387v-7.085c0-1.958-.638-3.433-2.882-3.433-2.2 0-3.521 1.672-3.564 3.895v6.624h-1.387V18.03zm14.036 0h2.311v1.166h-2.311v7.657c0 .902.132 1.43 1.122 1.496.396 0 .792-.021 1.188-.066v1.189c-.418 0-.814.043-1.232.043-1.849 0-2.486-.615-2.464-2.551v-7.768h-1.98V18.03h1.98v-3.411h1.386v3.411zm4.18 3.476c.132-2.663 2.002-3.807 4.599-3.807 2.002 0 4.181.616 4.181 3.652v6.03c0 .527.264.836.813.836.154 0 .33-.045.44-.088v1.166a3.915 3.915 0 0 1-.902.088c-1.408 0-1.628-.793-1.628-1.98h-.044c-.969 1.475-1.959 2.311-4.137 2.311-2.091 0-3.807-1.035-3.807-3.322 0-3.191 3.103-3.301 6.095-3.653 1.145-.132 1.782-.286 1.782-1.54 0-1.871-1.342-2.333-2.971-2.333-1.716 0-2.992.792-3.036 2.641h-1.385zm7.392 1.672h-.044c-.176.33-.792.44-1.166.506-2.354.418-5.281.396-5.281 2.618 0 1.386 1.232 2.245 2.531 2.245 2.112 0 3.982-1.344 3.96-3.564v-1.805zm7.26.308l-4.07-5.457h1.737l3.235 4.313 3.168-4.313h1.738l-4.093 5.435 4.423 5.919h-1.76l-3.565-4.775-3.498 4.775h-1.716l4.401-5.897z"/>
</svg>
