<svg xmlns="http://www.w3.org/2000/svg" width="165.779" height="48" viewBox="0 0 165.779 48">
  <path fill="none" d="M52.676 15.675h113.06v16.649H52.676z"/>
  <path fill="#88C0D0" d="M53.864 15.673h.66l10.738 15.161h.044V15.673h.44v15.71h-.66l-10.737-15.16h-.044v15.16h-.44v-15.71zm18.788 4.137c3.301 0 5.083 2.838 5.083 5.918 0 3.104-1.782 5.919-5.105 5.919-3.3 0-5.083-2.815-5.083-5.919.001-3.08 1.783-5.918 5.105-5.918zm0 11.398c3.015 0 4.643-2.618 4.643-5.479 0-2.816-1.628-5.479-4.643-5.479-3.058 0-4.665 2.663-4.665 5.479.001 2.86 1.607 5.479 4.665 5.479zm7.348.175h-.44v-11.31H80v2.794h.044c.418-1.672 1.738-3.146 4.444-3.059v.44C81.386 20.096 80 22.516 80 24.98v6.403zm14.059-15.71h.44v15.71h-.44v-3.169h-.044c-.572 1.98-2.222 3.433-4.533 3.433-2.992 0-4.818-2.485-4.818-5.896 0-3.168 1.694-5.941 4.818-5.941 2.398 0 4.005 1.386 4.533 3.433h.044v-7.57zm-4.577 4.577c-3.102 0-4.378 2.883-4.378 5.501 0 2.904 1.452 5.457 4.378 5.457 2.905 0 4.577-2.53 4.577-5.457 0-3.499-1.827-5.501-4.577-5.501z"/>
  <path fill="#2E3440" d="M103.562 15.673h6.976c2.816 0 4.664 1.65 4.664 4.489s-1.848 4.489-4.664 4.489h-5.479v6.733h-1.497V15.673zm1.496 7.701h5.149c2.068 0 3.498-1.056 3.498-3.212s-1.43-3.212-3.498-3.212h-5.149v6.424zm21.296 8.009h-1.276v-2.046h-.044c-.726 1.518-2.223 2.376-3.917 2.376-2.86 0-3.982-1.673-3.982-4.313v-7.37h1.387v7.394c.065 2.046.836 3.124 3.036 3.124 2.376 0 3.41-2.245 3.41-4.555V20.03h1.387v11.353zm1.186-15.71h12.454v1.276h-5.479v14.434h-1.496V16.949h-5.479v-1.276z"/>
  <path fill="#2E3440" d="M139.772 15.673h12.454v1.276h-5.479v14.434h-1.496V16.949h-5.479v-1.276z"/>
  <path fill="#2E3440" d="M158.078 24.915l-6.183-9.242h1.782l5.171 7.965 5.148-7.965h1.782l-6.205 9.242v6.469h-1.496v-6.469z"/>
  <path opacity=".05" d="M36.063 4.085c5.983 4.148 9.895 11.061 9.895 18.894 0 12.691-10.284 22.979-22.98 22.979-7.833 0-14.746-3.909-18.895-9.894a23.787 23.787 0 0 0 3.862 5.075 23.418 23.418 0 0 0 15.799 6.096c12.974 0 23.491-10.519 23.491-23.49a23.407 23.407 0 0 0-6.096-15.798 23.743 23.743 0 0 0-5.076-3.862zm5.076 3.862A23.398 23.398 0 0 1 47.491 24c0 12.973-10.517 23.49-23.491 23.49a23.399 23.399 0 0 1-16.054-6.351C12.194 45.371 18.039 48 24.51 48 37.483 48 48 37.483 48 24.511c0-6.47-2.63-12.317-6.861-16.564z"/>
  <path opacity=".1" d="M41.14 7.947a23.411 23.411 0 0 1 6.097 15.798c0 12.974-10.517 23.49-23.491 23.49a23.42 23.42 0 0 1-15.8-6.096 23.402 23.402 0 0 0 16.055 6.351c12.974 0 23.49-10.518 23.49-23.49 0-6.21-2.414-11.853-6.351-16.053z"/>
  <path opacity=".2" d="M30.896 1.404c8.799 3.221 15.064 11.66 15.064 21.58 0 12.69-10.285 22.979-22.979 22.979-9.915 0-18.355-6.265-21.571-15.063 4.008 12.338 17.259 19.093 29.598 15.085a23.488 23.488 0 0 0 16.234-22.234A23.489 23.489 0 0 0 30.9 1.409l-.004-.005z"/>
  <path fill="#2E3440" d="M23.491 0c12.974 0 23.491 10.516 23.491 23.489 0 12.974-10.517 23.49-23.491 23.49S0 36.463 0 23.489C0 10.516 10.517 0 23.491 0z"/>
  <path opacity=".1" d="M39.862 6.67a23.403 23.403 0 0 1 6.097 15.798c0 12.974-10.517 23.49-23.49 23.49a23.42 23.42 0 0 1-15.8-6.096c4.268 4.382 10.224 7.117 16.821 7.117 12.974 0 23.49-10.518 23.49-23.49 0-6.599-2.734-12.552-7.118-16.819z"/>
  <path fill-opacity=".1" d="M11.258 12.765a.621.621 0 0 0-.542.606v11.044c0 .322.287.606.607.606h5.521v2.042h-4.085v2.043h7.437v-4.054l-2.363-2.074h-4.627a.433.433 0 0 1-.415-.414v-7.342c-.004-.191.132-.379.32-.414a.385.385 0 0 1 .096 0h11.362c.215 0 .414.203.414.414v2.937h2.074v-4.788a.626.626 0 0 0-.606-.606"/>
  <path fill-opacity=".1" d="M25.147 18.893l2.521 2.042h7.117c.216 0 .415.199.415.415v7.341a.433.433 0 0 1-.415.415H23.423a.436.436 0 0 1-.414-.415v-1.148l-2.063-1.819v4.82c0 .322.276.606.606.606h5.521v2.042h-4.085v2.043h12.256v-2.043H31.16V31.15h5.51c.322 0 .618-.283.618-.606V19.5a.63.63 0 0 0-.618-.606"/>
  <path fill-opacity=".1" d="M14.801 18.893l9.192 8.17v-5.106l7.149 3.064-10.214-8.171v3.83l-6.124-1.787"/>
  <path fill="#88C0D0" d="M10.236 11.744a.622.622 0 0 0-.542.606v11.044c0 .322.287.606.606.606h5.521v2.043h-4.085v2.042h7.437v-4.054l-2.363-2.074h-4.627a.434.434 0 0 1-.415-.414v-7.342c-.004-.191.132-.379.319-.414a.385.385 0 0 1 .096 0h11.362c.216 0 .415.203.415.414v2.937h2.074V12.35a.627.627 0 0 0-.607-.606"/>
  <path fill="#8FBCBB" d="M24.125 17.872l2.521 2.043h7.117c.216 0 .415.199.415.414v7.342a.433.433 0 0 1-.415.414h-11.36a.436.436 0 0 1-.415-.414v-1.149l-2.063-1.819v4.82c0 .322.276.606.607.606h5.521v2.043h-4.085v2.042h12.256v-2.042h-4.085v-2.043h5.51c.322 0 .618-.283.618-.606V18.478a.63.63 0 0 0-.618-.606"/>
  <path fill="#EBCB8B" d="M13.779 17.872l9.192 8.171v-5.107L30.121 24l-10.213-8.171v3.83l-6.124-1.787"/>
</svg>
