<svg xmlns="http://www.w3.org/2000/svg" width="888" height="200" viewBox="0 0 888 200">
  <path fill="none" d="M305.442 153.966h277.115v33.796H305.442z"/>
  <path fill="#88C0D0" d="M307.872 153.967h1.35l21.959 31.004h.09v-31.004h.9v32.129h-1.35l-21.959-31.004h-.09v31.004h-.9v-32.129zm38.43 8.46c6.75 0 10.395 5.805 10.395 12.104 0 6.345-3.645 12.104-10.44 12.104-6.75 0-10.395-5.76-10.395-12.104 0-6.3 3.645-12.104 10.44-12.104zm0 23.308c6.165 0 9.495-5.354 9.495-11.204 0-5.76-3.33-11.205-9.495-11.205-6.255 0-9.54 5.445-9.54 11.205 0 5.85 3.285 11.204 9.54 11.204zm15.03.361h-.9v-23.129h.9v5.715h.09c.855-3.42 3.555-6.435 9.09-6.255v.899c-6.345-.314-9.18 4.636-9.18 9.675v13.095zm28.753-32.129h.9v32.129h-.9v-6.479h-.09c-1.17 4.05-4.545 7.02-9.27 7.02-6.12 0-9.855-5.085-9.855-12.06 0-6.479 3.465-12.149 9.855-12.149 4.905 0 8.189 2.835 9.27 7.02h.09v-15.481zm-9.359 9.359c-6.345 0-8.955 5.896-8.955 11.25 0 5.939 2.97 11.159 8.955 11.159 5.939 0 9.359-5.175 9.359-11.159 0-7.154-3.734-11.25-9.359-11.25z"/>
  <path fill="#2E3440" d="M406.061 153.967h25.469v2.61h-11.205v29.519h-3.06v-29.519H406.06v-2.61zm24.615 21.284c.045 4.14 2.205 9.135 7.65 9.135 4.14 0 6.39-2.43 7.29-5.939h2.834c-1.215 5.265-4.274 8.324-10.124 8.324-7.38 0-10.485-5.67-10.485-12.284 0-6.12 3.105-12.284 10.485-12.284 7.469 0 10.44 6.524 10.215 13.049h-17.865zm15.029-2.385c-.135-4.274-2.79-8.279-7.379-8.279-4.635 0-7.2 4.05-7.65 8.279h15.029zm13.006 1.17l-8.326-11.159h3.555l6.615 8.819 6.48-8.819h3.555l-8.369 11.114 9.045 12.104h-3.602l-7.289-9.765-7.154 9.765h-3.51l9-12.059zm19.799-11.159h4.725v2.385h-4.725v15.659c0 1.845.27 2.925 2.295 3.06.811 0 1.619-.045 2.43-.135v2.43c-.855 0-1.664.09-2.52.09-3.779 0-5.084-1.26-5.039-5.22v-15.884h-4.051v-2.385h4.051v-6.975h2.834v6.975zm9.269-8.91h4.5l11.115 28.169 11.068-28.169h4.5v32.129h-3.061v-27.764h-.09l-10.979 27.764h-2.881l-11.023-27.764h-.09v27.764h-3.061v-32.129zm36.764 16.019c.271-5.444 4.096-7.784 9.406-7.784 4.094 0 8.549 1.26 8.549 7.469v12.33c0 1.08.539 1.71 1.664 1.71.316 0 .676-.09.9-.18v2.385c-.629.135-1.08.18-1.844.18-2.881 0-3.33-1.62-3.33-4.05h-.09c-1.98 3.015-4.006 4.725-8.461 4.725-4.273 0-7.783-2.114-7.783-6.795 0-6.524 6.344-6.749 12.463-7.47 2.34-.27 3.645-.585 3.645-3.149 0-3.825-2.744-4.77-6.074-4.77-3.51 0-6.119 1.619-6.209 5.399h-2.836zm15.119 3.42h-.09c-.359.675-1.619.9-2.385 1.035-4.814.854-10.799.81-10.799 5.354 0 2.835 2.52 4.59 5.174 4.59 4.32 0 8.146-2.745 8.1-7.29v-3.689zm13.006-10.529h4.725v2.385h-4.725v15.659c0 1.845.27 2.925 2.295 3.06.811 0 1.619-.045 2.43-.135v2.43c-.855 0-1.664.09-2.52.09-3.779 0-5.084-1.26-5.039-5.22v-15.884h-4.051v-2.385h4.051v-6.975h2.834v6.975zm10.484 12.374c.045 4.14 2.205 9.135 7.65 9.135 4.139 0 6.389-2.43 7.289-5.939h2.834c-1.215 5.265-4.273 8.324-10.123 8.324-7.381 0-10.484-5.67-10.484-12.284 0-6.12 3.104-12.284 10.484-12.284 7.469 0 10.439 6.524 10.215 13.049h-17.865zm15.03-2.385c-.135-4.274-2.789-8.279-7.379-8.279-4.635 0-7.201 4.05-7.65 8.279h15.029z"/>
  <g fill="#2E3440">
    <path d="M466.56 135.966l-43.392-55.545V65.009l48.091 62.172h25.844V39.636h-43.465l-9.396-9.399h62.257v105.729z"/>
    <path d="M421.44 30.237l43.393 55.541v15.41l-48.091-62.167h-25.843v87.544h43.463l9.399 9.401H381.5V30.237z"/>
  </g>
</svg>
