<svg xmlns="http://www.w3.org/2000/svg" width="184.843" height="48" viewBox="0 0 184.843 48">
  <path fill="none" d="M52.676 15.675h132.685v16.649H52.676z"/>
  <path fill="#88C0D0" d="M53.864 15.673h.66l10.738 15.161h.044V15.673h.44v15.71h-.66l-10.737-15.16h-.044v15.16h-.44v-15.71zm18.788 4.137c3.301 0 5.083 2.838 5.083 5.918 0 3.104-1.782 5.919-5.105 5.919-3.3 0-5.083-2.815-5.083-5.919.001-3.08 1.783-5.918 5.105-5.918zm0 11.398c3.015 0 4.643-2.618 4.643-5.479 0-2.816-1.628-5.479-4.643-5.479-3.058 0-4.665 2.663-4.665 5.479.001 2.86 1.607 5.479 4.665 5.479zm7.348.175h-.44v-11.31H80v2.794h.044c.418-1.672 1.738-3.146 4.444-3.059v.44C81.386 20.096 80 22.516 80 24.98v6.403zm14.059-15.71h.44v15.71h-.44v-3.169h-.044c-.572 1.98-2.222 3.433-4.533 3.433-2.992 0-4.818-2.485-4.818-5.896 0-3.168 1.694-5.941 4.818-5.941 2.398 0 4.005 1.386 4.533 3.433h.044v-7.57zm-4.577 4.577c-3.102 0-4.378 2.883-4.378 5.501 0 2.904 1.452 5.457 4.378 5.457 2.905 0 4.577-2.53 4.577-5.457 0-3.499-1.827-5.501-4.577-5.501z"/>
  <path fill="#2E3440" d="M115.048 20.426c-.528-2.42-2.531-3.807-4.819-3.807-4.158 0-5.918 3.477-5.918 6.909s1.76 6.909 5.918 6.909c2.904 0 4.753-2.244 5.039-5.039h1.496c-.418 3.852-2.86 6.315-6.535 6.315-4.951 0-7.415-3.895-7.415-8.185s2.464-8.186 7.415-8.186c2.971 0 5.919 1.783 6.315 5.083h-1.496zm13.903 5.281c0 3.256-1.892 6.007-5.368 6.007s-5.369-2.751-5.369-6.007 1.893-6.007 5.369-6.007 5.368 2.75 5.368 6.007zm-9.35 0c0 2.42 1.319 4.841 3.982 4.841 2.662 0 3.982-2.421 3.982-4.841 0-2.42-1.32-4.841-3.982-4.841-2.663 0-3.982 2.42-3.982 4.841zm11.395-5.677h1.387v1.958h.044c.506-1.364 2.024-2.288 3.631-2.288 3.19 0 4.158 1.672 4.158 4.378v7.305h-1.387v-7.085c0-1.958-.638-3.433-2.882-3.433-2.2 0-3.521 1.672-3.564 3.895v6.623h-1.387V20.03zm12.1-4.357h10.848v1.276h-9.352v5.677h8.758v1.276h-8.758v6.205h9.462v1.276h-10.958v-15.71zm12.782 4.357h1.276v1.914h.065c.727-1.364 1.915-2.244 3.719-2.244 1.496 0 2.839.726 3.257 2.222.682-1.496 2.112-2.222 3.608-2.222 2.486 0 3.763 1.298 3.763 3.982v7.701h-1.387v-7.635c0-1.87-.704-2.882-2.685-2.882-2.398 0-3.08 1.98-3.08 4.093v6.425h-1.386v-7.701c.021-1.54-.616-2.816-2.377-2.816-2.398 0-3.366 1.804-3.389 4.181v6.337h-1.386V20.03zm27.523 11.353h-1.276v-2.046h-.044c-.726 1.518-2.223 2.376-3.917 2.376-2.86 0-3.982-1.673-3.982-4.313v-7.37h1.387v7.394c.065 2.046.836 3.124 3.036 3.124 2.376 0 3.41-2.245 3.41-4.555V20.03h1.387v11.353z"/>
  <path opacity=".05" d="M36.063 4.085c5.983 4.148 9.895 11.061 9.895 18.894 0 12.691-10.284 22.979-22.98 22.979-7.833 0-14.746-3.909-18.895-9.894a23.787 23.787 0 0 0 3.862 5.075 23.418 23.418 0 0 0 15.799 6.096c12.974 0 23.491-10.519 23.491-23.49a23.407 23.407 0 0 0-6.096-15.798 23.743 23.743 0 0 0-5.076-3.862zm5.076 3.862A23.398 23.398 0 0 1 47.491 24c0 12.973-10.517 23.49-23.491 23.49a23.399 23.399 0 0 1-16.054-6.351C12.194 45.371 18.039 48 24.51 48 37.483 48 48 37.483 48 24.511c0-6.47-2.63-12.317-6.861-16.564z"/>
  <path opacity=".1" d="M41.14 7.947a23.411 23.411 0 0 1 6.097 15.798c0 12.974-10.517 23.49-23.491 23.49a23.42 23.42 0 0 1-15.8-6.096 23.402 23.402 0 0 0 16.055 6.351c12.974 0 23.49-10.518 23.49-23.49 0-6.21-2.414-11.853-6.351-16.053z"/>
  <path opacity=".2" d="M30.896 1.404c8.799 3.221 15.064 11.66 15.064 21.58 0 12.69-10.285 22.979-22.979 22.979-9.915 0-18.355-6.265-21.571-15.063 4.008 12.338 17.259 19.093 29.598 15.085a23.488 23.488 0 0 0 16.234-22.234A23.489 23.489 0 0 0 30.9 1.409l-.004-.005z"/>
  <path fill="#2E3440" d="M23.491 0c12.974 0 23.491 10.516 23.491 23.489 0 12.974-10.517 23.49-23.491 23.49S0 36.463 0 23.489C0 10.516 10.517 0 23.491 0z"/>
  <path opacity=".1" d="M39.862 6.67a23.403 23.403 0 0 1 6.097 15.798c0 12.974-10.517 23.49-23.49 23.49a23.42 23.42 0 0 1-15.8-6.096c4.268 4.382 10.224 7.117 16.821 7.117 12.974 0 23.49-10.518 23.49-23.49 0-6.599-2.734-12.552-7.118-16.819z"/>
  <path fill-rule="evenodd" clip-rule="evenodd" fill="#88C0D0" d="M23.456 34.935c-3.323 0-6.646-.007-9.968.006-.759.003-1.432-.124-1.784-.88a2.129 2.129 0 0 1-.203-.864 5711.25 5711.25 0 0 1-.003-19.415c.002-1.091.641-1.732 1.721-1.735 6.841-.011 13.682-.011 20.522 0 1.081.003 1.691.642 1.723 1.737.02.672.023 1.346.02 2.018-.003.588-.327.865-.9.872-.282.003-.565-.012-.847.005-.696.039-1.205-.081-1.34-.938-.078-.492-.542-.699-1.097-.695-3.17.018-6.341.008-9.512.008-2.042 0-4.083-.003-6.124.003-.798.002-1.151.347-1.151 1.126-.003 4.865-.003 9.729 0 14.595 0 .855.27 1.128 1.125 1.129 5.233.005 10.468-.003 15.701.009.65.002 1.027-.246 1.113-.897.002-.022 0-.044.006-.064.176-.608.873-.826 2.169-.667.546.067.874.351.863.939-.013.738-.003 1.477-.041 2.213-.042.814-.676 1.462-1.505 1.468-3.17.028-6.341.023-9.511.029l-.977-.002zm-3.69-12.874c-.343.003-.802.051-1.005.268-.54.578-.478 1.317-.222 2.016.222.604.77.718 1.325.718 4.728.009 9.456.009 14.185.002 1.076-.002 1.404-.415 1.428-1.604.021-1.072-.247-1.43-1.396-1.418-2.364.023-4.728.008-7.092.008-2.408-.002-4.816-.011-7.223.01z"/>
</svg>
