<svg xmlns="http://www.w3.org/2000/svg" width="888" height="200" viewBox="0 0 888 200">
  <path fill="none" d="M197.944 144.596h492.113v34.537H197.944z"/>
  <path fill="#88C0D0" d="M200.374 144.596h1.35l21.959 31.004h.09v-31.004h.9v32.129h-1.35l-21.959-31.004h-.09v31.004h-.9v-32.129zm38.429 8.461c6.75 0 10.395 5.805 10.395 12.104 0 6.346-3.645 12.105-10.44 12.105-6.75 0-10.395-5.76-10.395-12.105 0-6.3 3.645-12.104 10.44-12.104zm0 23.308c6.165 0 9.495-5.355 9.495-11.205 0-5.76-3.33-11.205-9.495-11.205-6.255 0-9.54 5.445-9.54 11.205.001 5.85 3.285 11.205 9.54 11.205zm15.03.36h-.9v-23.129h.9v5.715h.09c.855-3.42 3.555-6.434 9.09-6.254v.898c-6.345-.314-9.18 4.637-9.18 9.676v13.094zm28.754-32.129h.9v32.129h-.9v-6.479h-.09c-1.17 4.049-4.545 7.02-9.27 7.02-6.12 0-9.855-5.086-9.855-12.061 0-6.479 3.465-12.148 9.855-12.148 4.905 0 8.189 2.834 9.27 7.02h.09v-15.481zm-9.359 9.359c-6.345 0-8.955 5.896-8.955 11.25 0 5.939 2.97 11.16 8.955 11.16 5.939 0 9.359-5.176 9.359-11.16 0-7.154-3.735-11.25-9.359-11.25z"/>
  <path fill="#2E3440" d="M303.467 166.15c-.135 6.615 4.635 8.641 10.485 8.641 3.375 0 8.504-1.846 8.504-6.525 0-3.645-3.645-5.086-6.615-5.805l-7.155-1.756c-3.78-.943-7.245-2.744-7.245-7.738 0-3.15 2.025-9.045 11.07-9.045 6.345 0 11.924 3.42 11.879 9.988h-3.06c-.18-4.904-4.229-7.379-8.774-7.379-4.185 0-8.055 1.619-8.055 6.391 0 3.014 2.25 4.273 4.86 4.904l7.83 1.936c4.545 1.215 8.325 3.193 8.325 8.459 0 2.205-.9 9.18-12.285 9.18-7.604 0-13.185-3.42-12.824-11.25h3.06zm45.179 10.575h-2.609v-4.184h-.09c-1.485 3.104-4.545 4.859-8.01 4.859-5.85 0-8.145-3.42-8.145-8.82v-15.074h2.835v15.119c.135 4.186 1.71 6.391 6.209 6.391 4.86 0 6.975-4.59 6.975-9.314v-12.195h2.835v23.218zm5.355-32.129h2.835v13.32h.09c1.215-3.33 4.59-5.084 8.055-5.084 7.064 0 10.439 5.713 10.439 12.283s-3.375 12.285-10.44 12.285c-3.735 0-6.975-1.936-8.28-5.086h-.09v4.41h-2.609v-32.128zm10.979 10.621c-6.03 0-8.145 5.084-8.145 9.898s2.114 9.9 8.145 9.9c5.399 0 7.604-5.086 7.604-9.9s-2.204-9.898-7.604-9.898zm14.895-10.621h2.835v32.129h-2.835v-32.129zm8.325 0h2.835v4.545H388.2v-4.545zm0 8.91h2.835v23.219H388.2v-23.219zm8.28 0h2.609v3.914h.135c1.485-2.789 3.915-4.588 7.605-4.588 3.06 0 5.805 1.484 6.659 4.543 1.396-3.059 4.32-4.543 7.38-4.543 5.085 0 7.694 2.654 7.694 8.145v15.748h-2.835v-15.613c0-3.826-1.439-5.895-5.489-5.895-4.905 0-6.3 4.049-6.3 8.369v13.139h-2.835v-15.748c.045-3.15-1.26-5.76-4.859-5.76-4.905 0-6.885 3.689-6.93 8.549v12.959h-2.835v-23.219zm39.15 12.375c.045 4.139 2.204 9.135 7.649 9.135 4.14 0 6.39-2.43 7.29-5.939h2.834c-1.215 5.264-4.274 8.324-10.124 8.324-7.38 0-10.484-5.67-10.484-12.285 0-6.119 3.104-12.283 10.484-12.283 7.47 0 10.439 6.523 10.215 13.049H435.63zm15.029-2.385c-.136-4.275-2.79-8.279-7.38-8.279-4.635 0-7.2 4.049-7.649 8.279h15.029zm16.245-18.9h25.469v2.611h-11.205v29.518h-3.06v-29.518h-11.204v-2.611zm24.615 21.285c.045 4.139 2.204 9.135 7.649 9.135 4.14 0 6.39-2.43 7.29-5.939h2.834c-1.215 5.264-4.274 8.324-10.124 8.324-7.38 0-10.484-5.67-10.484-12.285 0-6.119 3.104-12.283 10.484-12.283 7.47 0 10.439 6.523 10.215 13.049h-17.864zm15.029-2.385c-.136-4.275-2.79-8.279-7.38-8.279-4.635 0-7.2 4.049-7.649 8.279h15.029zm13.005 1.17l-8.325-11.16h3.555l6.615 8.82 6.479-8.82h3.555l-8.369 11.115 9.044 12.104h-3.6l-7.289-9.764-7.155 9.764h-3.51l9-12.059zm19.8-11.16h4.725v2.385h-4.725v15.66c0 1.844.27 2.924 2.294 3.059.811 0 1.62-.045 2.431-.135v2.43c-.855 0-1.665.09-2.521.09-3.779 0-5.085-1.26-5.039-5.219v-15.885h-4.05v-2.385h4.05v-6.975h2.835v6.975zm23.308 12.644c-.135 6.615 4.635 8.641 10.484 8.641 3.375 0 8.505-1.846 8.505-6.525 0-3.645-3.645-5.086-6.614-5.805l-7.155-1.756c-3.779-.943-7.244-2.744-7.244-7.738 0-3.15 2.024-9.045 11.069-9.045 6.345 0 11.925 3.42 11.879 9.988h-3.06c-.18-4.904-4.229-7.379-8.774-7.379-4.185 0-8.055 1.619-8.055 6.391 0 3.014 2.25 4.273 4.859 4.904l7.83 1.936c4.545 1.215 8.324 3.193 8.324 8.459 0 2.205-.899 9.18-12.284 9.18-7.604 0-13.185-3.42-12.824-11.25h3.06zm23.76-12.644h3.015l7.65 19.799 7.154-19.799h2.835l-10.079 26.773c-1.62 3.916-2.565 5.041-6.12 5.041-1.125-.045-1.71-.045-2.16-.225v-2.387c.675.137 1.305.227 1.936.227 2.52 0 3.104-1.486 4.05-3.646l.989-2.654-9.27-23.129zm23.4 0h2.835v4.006h.09c1.034-2.791 4.14-4.68 7.425-4.68 6.524 0 8.504 3.418 8.504 8.953v14.939h-2.835v-14.488c0-4.006-1.305-7.02-5.895-7.02-4.5 0-7.199 3.42-7.289 7.963v13.545h-2.835v-23.218zm28.709 0h4.725v2.385h-4.725v15.66c0 1.844.27 2.924 2.294 3.059.811 0 1.62-.045 2.431-.135v2.43c-.855 0-1.665.09-2.521.09-3.779 0-5.085-1.26-5.039-5.219v-15.885h-4.05v-2.385h4.05v-6.975h2.835v6.975zm8.549 7.109c.271-5.443 4.095-7.783 9.405-7.783 4.095 0 8.549 1.26 8.549 7.469v12.33c0 1.08.54 1.709 1.665 1.709.315 0 .675-.09.9-.18v2.385c-.63.135-1.08.18-1.845.18-2.88 0-3.33-1.619-3.33-4.049h-.09c-1.98 3.014-4.005 4.725-8.46 4.725-4.274 0-7.785-2.115-7.785-6.795 0-6.525 6.346-6.75 12.465-7.471 2.34-.27 3.645-.584 3.645-3.148 0-3.826-2.744-4.77-6.074-4.77-3.51 0-6.12 1.619-6.21 5.398h-2.835zm15.119 3.42h-.09c-.359.676-1.619.9-2.385 1.035-4.814.855-10.8.811-10.8 5.355 0 2.834 2.521 4.59 5.175 4.59 4.32 0 8.146-2.746 8.1-7.291v-3.689zm14.851.631l-8.325-11.16h3.555l6.615 8.82 6.479-8.82h3.555l-8.369 11.115 9.044 12.104h-3.6l-7.289-9.764-7.155 9.764h-3.51l9-12.059z"/>
  <g fill="#2E3440">
    <path d="M466.561 126.596l-43.393-55.545V55.64l48.092 62.171h25.844V30.266h-43.465l-9.396-9.399H506.5v105.729z"/>
    <path d="M421.44 20.867l43.394 55.541v15.41L416.742 29.65h-25.844v87.545h43.465l9.399 9.401H381.5V20.867z"/>
  </g>
</svg>
