<svg xmlns="http://www.w3.org/2000/svg" width="153.921" height="48" viewBox="0 0 153.921 48">
  <path fill="none" d="M52.676 15.675h101.685v16.649H52.676z"/>
  <path fill="#88C0D0" d="M53.864 15.673h.66l10.738 15.161h.044V15.673h.44v15.71h-.66l-10.737-15.16h-.044v15.16h-.44v-15.71zm18.788 4.137c3.301 0 5.083 2.838 5.083 5.918 0 3.104-1.782 5.919-5.105 5.919-3.3 0-5.083-2.815-5.083-5.919.001-3.08 1.783-5.918 5.105-5.918zm0 11.398c3.015 0 4.643-2.618 4.643-5.479 0-2.816-1.628-5.479-4.643-5.479-3.058 0-4.665 2.663-4.665 5.479.001 2.86 1.607 5.479 4.665 5.479zm7.348.175h-.44v-11.31H80v2.794h.044c.418-1.672 1.738-3.146 4.444-3.059v.44C81.386 20.096 80 22.516 80 24.98v6.403zm14.059-15.71h.44v15.71h-.44v-3.169h-.044c-.572 1.98-2.222 3.433-4.533 3.433-2.992 0-4.818-2.485-4.818-5.896 0-3.168 1.694-5.941 4.818-5.941 2.398 0 4.005 1.386 4.533 3.433h.044v-7.57zm-4.577 4.577c-3.102 0-4.378 2.883-4.378 5.501 0 2.904 1.452 5.457 4.378 5.457 2.905 0 4.577-2.53 4.577-5.457 0-3.499-1.827-5.501-4.577-5.501z"/>
  <path fill="#2E3440" d="M104.266 26.212c-.066 3.234 2.267 4.225 5.127 4.225 1.65 0 4.158-.902 4.158-3.19 0-1.782-1.782-2.486-3.234-2.838l-3.498-.858c-1.849-.462-3.542-1.342-3.542-3.785 0-1.54.99-4.423 5.413-4.423 3.103 0 5.831 1.672 5.809 4.885h-1.496c-.088-2.398-2.068-3.608-4.29-3.608-2.047 0-3.939.792-3.939 3.125 0 1.474 1.1 2.09 2.376 2.398l3.828.946c2.223.594 4.071 1.563 4.071 4.136 0 1.078-.44 4.489-6.007 4.489-3.719 0-6.447-1.673-6.271-5.501h1.495zm12.913-10.539h1.387v15.71h-1.387v-15.71zm3.917 7.833c.132-2.663 2.002-3.807 4.599-3.807 2.002 0 4.181.616 4.181 3.652v6.028c0 .529.264.837.813.837.154 0 .33-.044.44-.089v1.167a3.86 3.86 0 0 1-.902.088c-1.408 0-1.628-.792-1.628-1.98h-.044c-.969 1.475-1.959 2.311-4.137 2.311-2.091 0-3.807-1.034-3.807-3.322 0-3.19 3.103-3.301 6.095-3.653 1.145-.132 1.782-.286 1.782-1.54 0-1.871-1.342-2.333-2.971-2.333-1.716 0-2.992.792-3.036 2.641h-1.385zm7.392 1.672h-.044c-.176.33-.792.44-1.166.507-2.354.418-5.281.396-5.281 2.617 0 1.387 1.232 2.245 2.531 2.245 2.112 0 3.982-1.343 3.96-3.564v-1.805zm12.166-1.584c-.374-1.694-1.408-2.729-3.212-2.729-2.663 0-3.982 2.42-3.982 4.841 0 2.42 1.319 4.841 3.982 4.841 1.716 0 3.124-1.343 3.3-3.235h1.387c-.374 2.729-2.156 4.401-4.687 4.401-3.477 0-5.369-2.751-5.369-6.007s1.893-6.007 5.369-6.007c2.42 0 4.29 1.298 4.599 3.895h-1.387zm3.409-7.921h1.386v9.858l6.293-5.501h1.849l-4.841 4.203 5.171 7.151h-1.738l-4.488-6.183-2.245 1.87v4.313h-1.386V15.673z"/>
  <path opacity=".1" d="M41.138 7.94a23.424 23.424 0 0 1 6.097 15.801c0 12.974-10.518 23.493-23.494 23.493a23.413 23.413 0 0 1-15.8-6.098 23.398 23.398 0 0 0 16.056 6.354c12.976 0 23.492-10.521 23.492-23.494A23.402 23.402 0 0 0 41.138 7.94z"/>
  <path opacity=".2" d="M30.891 1.396c8.802 3.222 15.068 11.661 15.068 21.583 0 12.693-10.287 22.983-22.983 22.983-9.916 0-18.356-6.268-21.572-15.066 4.008 12.34 17.261 19.095 29.601 15.087a23.493 23.493 0 0 0 16.236-22.237A23.494 23.494 0 0 0 30.897 1.401l-.006-.005z"/>
  <path opacity=".1" d="M39.862 6.663a23.418 23.418 0 0 1 6.096 15.801c0 12.976-10.518 23.494-23.493 23.494a23.415 23.415 0 0 1-15.801-6.099c4.268 4.384 10.226 7.119 16.822 7.119 12.976 0 23.493-10.52 23.493-23.493 0-6.6-2.734-12.555-7.117-16.822z"/>
  <path fill="#5E81AC" d="M41.828 26.8c-1.64.672-2.891 2.395-4.214 3.925-2.458 4.086.261 6.447 2.978 8.808l.003-.003c.771-.821 1.48-1.69 2.12-2.605l.002-.003c.32-.457.623-.926.91-1.403l.001-.003c.287-.478.554-.968.806-1.465a23.411 23.411 0 0 0 2.139-6.34h.002v-.002c-1.963-1.326-3.473-1.434-4.747-.91z"/>
  <path fill="#88C0D0" d="M10.854 37.59c-1.279.37-2.394 1.256-3.195 3.202a23.506 23.506 0 0 0 4.004 2.948v.002c.477.276.964.539 1.457.782a23.227 23.227 0 0 0 3.063 1.25c.526.172 1.055.325 1.591.46l.003.001c.536.135 1.077.25 1.625.347v.002l.003.001c1.252-3.185 1.35-6.436-2.882-8.963l-.261-.039c-1.854-.087-3.764-.466-5.408.008z"/>
  <path fill="#81A1C1" d="M15.781 23.491c-3.018.72-3.705 4.452.645 14.292.941 2.883 2.01 5.894 3.002 8.796 1.348.246 2.69.38 4.06.388.405-.002.81-.012 1.212-.033h.001a23.681 23.681 0 0 0 5.94-1.098l.008-.001a23.48 23.48 0 0 0 9.945-6.305c.059-.063.112-.132.17-.195l-2.975-8.698c-5.466-1.183-16.975-8.347-22.007-7.148v.002zM27.334.34s-.002.002-.002.005c-1.283 3.668-.295 6.69 3.059 9.033 3.826 1.106 7.594 2.064 9.047-3.086l.004-.009a23.568 23.568 0 0 0-8.778-5.136 23.536 23.536 0 0 0-3.33-.807z"/>
  <path fill="#88C0D0" d="M6.252 7.567a23.143 23.143 0 0 0-2.126 2.672 23.463 23.463 0 0 0-3.783 9.406h.01l-.003.002c2.202-.124 2.66 1.756 8.943-3.06.985-3.357-.272-6.32-3.037-9.015l-.004-.005z"/>
  <path fill="#8FBCBB" d="M16.302 1.14a26.11 26.11 0 0 0-1.318.472l-.213.09c-.403.159-.801.33-1.193.513l-.088.041A23.492 23.492 0 0 0 6.256 7.57l-.004-.006c-.023.026-.043.053-.066.078l3.005 8.792c9.076 3.24 15.88.07 21.207-7.058l.1-.191L27.482.367c-.051-.008-.1-.022-.15-.031l-.001.008A23.63 23.63 0 0 0 23.492 0l-.001.002c-.059 0-.114.005-.17.005a23.438 23.438 0 0 0-1.902.098 23.454 23.454 0 0 0-1.693.211 23.607 23.607 0 0 0-1.894.395 23.31 23.31 0 0 0-1.521.428c-.004 0-.006 0-.01.002z"/>
  <path fill="#88C0D0" d="M30.495 9.186c-1.995 7.733-.2 15.045 7.294 21.452l8.782-2.925h.002v-.002c.131-.695.23-1.394.297-2.098v-.002c.067-.704.1-1.41.104-2.119-.002-.41-.012-.816-.033-1.222a23.762 23.762 0 0 0-1.104-5.961c-.001-.002-.003-.004-.003-.008a23.473 23.473 0 0 0-6.396-10.01l.004-.009c-.042-.04-.087-.072-.128-.11l-8.819 3.014z"/>
  <path fill="#5E81AC" d="M.384 19.444c-.012.067-.03.133-.042.2h.011l-.011.004a23.519 23.519 0 0 0-.34 3.789c0 .015-.002.028-.003.043a22.704 22.704 0 0 0 .035 1.23l.001.003C.124 26.349.38 27.958.8 29.52v.002a23.54 23.54 0 0 0 3.607 7.618v.002c.474.657.983 1.293 1.524 1.902v.002c.27.304.55.601.837.894v.002c.288.29.584.574.888.851h.005l8.765-3.008c.467-9.27-1.936-16.634-7.135-21.196l-.1-.153-8.806 3.008z"/>
  <path fill="#2E3440" d="M16.424 37.784l21.363-7.147-7.294-21.453-21.307 7.25 7.233 21.35h.005z"/>
  <path opacity=".05" d="M36.061 4.078c5.984 4.148 9.895 11.063 9.895 18.896 0 12.692-10.285 22.983-22.981 22.983-7.833 0-14.748-3.911-18.896-9.897a23.76 23.76 0 0 0 3.862 5.076 23.413 23.413 0 0 0 15.801 6.098c12.975 0 23.493-10.521 23.493-23.493A23.419 23.419 0 0 0 41.138 7.94a23.709 23.709 0 0 0-5.077-3.862zm5.076 3.862a23.406 23.406 0 0 1 6.352 16.056c0 12.975-10.518 23.494-23.493 23.494A23.395 23.395 0 0 1 7.94 41.136C12.188 45.37 18.036 48 24.506 48 37.482 48 48 37.48 48 24.506c0-6.47-2.63-12.318-6.863-16.566z"/>
  <path opacity=".1" d="M24.733 32.482c-2.388 0-5.095-.988-6.215-2.04 0 0-.07-.364.375-1.395.447-1.03.905-1.496.905-1.496 1.419 1.18 3.205 1.868 5.003 1.757 1.453-.089 2.018-.61 2.018-1.54v-.046c.001-.886-.499-1.377-2.918-1.762-3.687-.587-5.35-1.789-5.35-4.943v-.045c0-2.882 2.424-4.83 5.643-4.83 2.296 0 4.42.331 6.018 1.624 0 0-.256.879-.578 1.553a9.025 9.025 0 0 1-.805 1.32c-1.396-.976-2.729-1.301-4.057-1.3-1.328 0-2.369.743-2.369 1.516v.045c0 1.044.604 1.55 3.543 1.935 3.279.427 4.826 1.911 4.826 4.68v.045c0 3.155-2.641 4.927-6.039 4.927"/>
  <path fill="#88C0D0" d="M23.711 31.46c-2.388 0-5.095-.988-6.214-2.039 0 0-.071-.364.375-1.395s.905-1.496.905-1.496c1.418 1.18 3.204 1.867 5.002 1.757 1.453-.089 2.018-.61 2.018-1.541v-.045c0-.885-.5-1.377-2.918-1.763-3.688-.587-5.35-1.788-5.35-4.942v-.045c0-2.882 2.424-4.831 5.643-4.831 2.295 0 4.42.331 6.018 1.624 0 0-.256.88-.578 1.554-.331.688-.807 1.321-.807 1.321-1.395-.977-2.728-1.301-4.056-1.301s-2.368.743-2.368 1.516v.045c0 1.044.603 1.549 3.543 1.934 3.279.427 4.826 1.912 4.826 4.681v.045c0 3.155-2.641 4.926-6.039 4.926"/>
</svg>
