<svg xmlns="http://www.w3.org/2000/svg" width="888" height="200" viewBox="0 0 888 200">
  <path fill="none" d="M189.214 144.596h509.571v34.538H189.214z"/>
  <path fill="#88C0D0" d="M191.644 144.596h1.35l21.959 31.004h.09v-31.004h.9v32.129h-1.35l-21.959-31.004h-.09v31.004h-.9v-32.129zm38.43 8.461c6.75 0 10.395 5.805 10.395 12.104 0 6.346-3.645 12.105-10.44 12.105-6.75 0-10.395-5.76-10.395-12.105 0-6.3 3.645-12.104 10.44-12.104zm0 23.308c6.165 0 9.495-5.355 9.495-11.205 0-5.76-3.33-11.205-9.495-11.205-6.255 0-9.54 5.445-9.54 11.205 0 5.85 3.285 11.205 9.54 11.205zm15.03.36h-.9v-23.129h.9v5.715h.09c.855-3.42 3.555-6.434 9.09-6.254v.898c-6.345-.314-9.18 4.637-9.18 9.676v13.094zm28.753-32.129h.9v32.129h-.9v-6.479h-.09c-1.17 4.049-4.545 7.02-9.27 7.02-6.12 0-9.855-5.086-9.855-12.061 0-6.479 3.465-12.148 9.855-12.148 4.905 0 8.189 2.834 9.27 7.02h.09v-15.481zm-9.359 9.359c-6.345 0-8.955 5.896-8.955 11.25 0 5.939 2.97 11.16 8.955 11.16 5.939 0 9.359-5.176 9.359-11.16 0-7.154-3.734-11.25-9.359-11.25z"/>
  <path fill="#2E3440" d="M316.787 154.316c-1.08-4.949-5.175-7.785-9.854-7.785-8.505 0-12.104 7.109-12.104 14.129s3.6 14.131 12.104 14.131c5.939 0 9.719-4.59 10.304-10.305h3.061c-.855 7.873-5.85 12.914-13.365 12.914-10.125 0-15.165-7.965-15.165-16.74 0-8.773 5.04-16.738 15.165-16.738 6.075 0 12.104 3.645 12.914 10.395h-3.06zm7.606-9.72h2.835v12.916h.09c1.034-2.791 4.14-4.68 7.425-4.68 6.524 0 8.504 3.418 8.504 8.953v14.939h-2.835v-14.488c0-4.006-1.305-7.02-5.895-7.02-4.5 0-7.199 3.42-7.289 7.963v13.545h-2.835v-32.128zm24.209 8.91h2.609v5.445h.09c1.44-3.734 4.59-5.939 8.775-5.76v2.834c-5.13-.27-8.64 3.51-8.64 8.326v12.373h-2.835v-23.218zm34.154 11.609c0 6.66-3.87 12.285-10.979 12.285-7.11 0-10.979-5.625-10.979-12.285s3.869-12.283 10.979-12.283c7.109 0 10.979 5.623 10.979 12.283zm-19.124 0c0 4.949 2.699 9.9 8.145 9.9 5.444 0 8.145-4.951 8.145-9.9s-2.7-9.898-8.145-9.898c-5.446 0-8.145 4.949-8.145 9.898zm23.354-11.609h2.609v3.914h.135c1.485-2.789 3.915-4.588 7.605-4.588 3.06 0 5.805 1.484 6.659 4.543 1.396-3.059 4.32-4.543 7.38-4.543 5.085 0 7.694 2.654 7.694 8.145v15.748h-2.835v-15.613c0-3.826-1.439-5.895-5.489-5.895-4.905 0-6.3 4.049-6.3 8.369v13.139h-2.835v-15.748c.045-3.15-1.26-5.76-4.859-5.76-4.905 0-6.885 3.689-6.93 8.549v12.959h-2.835v-23.219zm39.15 12.375c.045 4.139 2.204 9.135 7.649 9.135 4.14 0 6.39-2.43 7.29-5.939h2.834c-1.215 5.264-4.274 8.324-10.124 8.324-7.38 0-10.484-5.67-10.484-12.285 0-6.119 3.104-12.283 10.484-12.283 7.47 0 10.439 6.523 10.215 13.049h-17.864zm15.029-2.385c-.136-4.275-2.79-8.279-7.38-8.279-4.635 0-7.2 4.049-7.649 8.279h15.029zm21.149 2.654c-.135 6.615 4.635 8.641 10.484 8.641 3.375 0 8.505-1.846 8.505-6.525 0-3.645-3.645-5.086-6.614-5.805l-7.155-1.756c-3.779-.943-7.244-2.744-7.244-7.738 0-3.15 2.024-9.045 11.069-9.045 6.345 0 11.925 3.42 11.879 9.988h-3.06c-.18-4.904-4.229-7.379-8.774-7.379-4.185 0-8.055 1.619-8.055 6.391 0 3.014 2.25 4.273 4.859 4.904l7.83 1.936c4.545 1.215 8.324 3.193 8.324 8.459 0 2.205-.899 9.18-12.284 9.18-7.604 0-13.185-3.42-12.824-11.25h3.06zm28.036-.269c.045 4.139 2.204 9.135 7.649 9.135 4.14 0 6.39-2.43 7.29-5.939h2.834c-1.215 5.264-4.274 8.324-10.124 8.324-7.38 0-10.484-5.67-10.484-12.285 0-6.119 3.104-12.283 10.484-12.283 7.47 0 10.439 6.523 10.215 13.049H490.35zm15.029-2.385c-.136-4.275-2.79-8.279-7.38-8.279-4.635 0-7.2 4.049-7.649 8.279h15.029zm23.039-2.701c-.765-3.465-2.88-5.578-6.569-5.578-5.445 0-8.145 4.949-8.145 9.898s2.699 9.9 8.145 9.9c3.51 0 6.39-2.746 6.749-6.615h2.835c-.765 5.58-4.409 9-9.584 9-7.11 0-10.979-5.625-10.979-12.285s3.869-12.283 10.979-12.283c4.949 0 8.774 2.654 9.404 7.963h-2.835zm25.784 15.93h-2.609v-4.184h-.09c-1.485 3.104-4.545 4.859-8.01 4.859-5.85 0-8.145-3.42-8.145-8.82v-15.074h2.835v15.119c.135 4.186 1.709 6.391 6.209 6.391 4.86 0 6.975-4.59 6.975-9.314v-12.195h2.835v23.218zm5.356-23.219h2.609v5.445h.09c1.44-3.734 4.59-5.939 8.775-5.76v2.834c-5.13-.27-8.64 3.51-8.64 8.326v12.373h-2.835v-23.218zm15.03 12.375c.045 4.139 2.204 9.135 7.649 9.135 4.14 0 6.39-2.43 7.29-5.939h2.834c-1.215 5.264-4.274 8.324-10.124 8.324-7.38 0-10.484-5.67-10.484-12.285 0-6.119 3.104-12.283 10.484-12.283 7.47 0 10.439 6.523 10.215 13.049h-17.864zm15.029-2.385c-.136-4.275-2.79-8.279-7.38-8.279-4.635 0-7.2 4.049-7.649 8.279h15.029zm21.15 2.654c-.135 6.615 4.635 8.641 10.484 8.641 3.375 0 8.505-1.846 8.505-6.525 0-3.645-3.645-5.086-6.614-5.805l-7.155-1.756c-3.779-.943-7.244-2.744-7.244-7.738 0-3.15 2.024-9.045 11.069-9.045 6.345 0 11.925 3.42 11.879 9.988h-3.06c-.18-4.904-4.229-7.379-8.774-7.379-4.185 0-8.055 1.619-8.055 6.391 0 3.014 2.25 4.273 4.859 4.904l7.83 1.936c4.545 1.215 8.324 3.193 8.324 8.459 0 2.205-.899 9.18-12.284 9.18-7.604 0-13.185-3.42-12.824-11.25h3.06zm26.325-21.554h2.835v12.916h.09c1.034-2.791 4.14-4.68 7.425-4.68 6.524 0 8.504 3.418 8.504 8.953v14.939h-2.835v-14.488c0-4.006-1.305-7.02-5.895-7.02-4.5 0-7.199 3.42-7.289 7.963v13.545h-2.835v-32.128zm25.874 21.285c.045 4.139 2.204 9.135 7.649 9.135 4.14 0 6.39-2.43 7.29-5.939h2.834c-1.215 5.264-4.274 8.324-10.124 8.324-7.38 0-10.484-5.67-10.484-12.285 0-6.119 3.104-12.283 10.484-12.283 7.47 0 10.439 6.523 10.215 13.049h-17.864zm15.029-2.385c-.136-4.275-2.79-8.279-7.38-8.279-4.635 0-7.2 4.049-7.649 8.279h15.029zm6.705-18.9h2.835v32.129H684.7v-32.129zm8.325 0h2.835v32.129h-2.835v-32.129z"/>
  <g fill="#2E3440">
    <path d="M466.561 126.596l-43.393-55.545V55.64l48.092 62.171h25.844V30.266h-43.465l-9.396-9.399H506.5v105.729z"/>
    <path d="M421.44 20.867l43.394 55.541v15.41L416.742 29.65h-25.843v87.545h43.464l9.399 9.401H381.5V20.867z"/>
  </g>
</svg>
