<?xml version="1.0" encoding="UTF-8" standalone="no"?>
<!DOCTYPE svg PUBLIC "-//W3C//DTD SVG 1.1//EN" "http://www.w3.org/Graphics/SVG/1.1/DTD/svg11.dtd">
<svg width="100%" height="100%" viewBox="0 0 298 298" version="1.1" xmlns="http://www.w3.org/2000/svg" xmlns:xlink="http://www.w3.org/1999/xlink" xml:space="preserve" xmlns:serif="http://www.serif.com/" style="fill-rule:evenodd;clip-rule:evenodd;stroke-linejoin:round;stroke-miterlimit:2;">
    <g>
        <g id="XMLID_50_">
            <g>
                <path d="M148.75,81.65C185.75,81.65 215.85,111.75 215.85,148.75C215.85,185.75 185.75,215.85 148.75,215.85C111.75,215.85 81.65,185.75 81.65,148.75C81.65,111.75 111.75,81.65 148.75,81.65ZM204.85,148.75C204.85,117.82 179.69,92.65 148.75,92.65C117.82,92.65 92.65,117.82 92.65,148.75C92.65,179.68 117.82,204.85 148.75,204.85C179.69,204.85 204.85,179.68 204.85,148.75Z" style="fill:rgb(147,169,209);fill-rule:nonzero;"/>
                <path d="M174.42,253.76C176.3,255.63 178.29,257.35 180.37,258.93C174.15,269.97 162.31,277.45 148.75,277.45C135.19,277.45 123.36,269.97 117.13,258.93C119.21,257.36 121.21,255.64 123.09,253.76C128.7,248.14 132.87,241.62 135.6,234.66C139.89,235.31 144.28,235.65 148.75,235.65C153.22,235.65 157.61,235.31 161.9,234.66C164.63,241.62 168.8,248.14 174.42,253.76Z" style="fill:rgb(190,156,193);fill-rule:nonzero;"/>
                <path d="M62.84,135.63C62.19,139.91 61.85,144.29 61.85,148.75C61.85,153.21 62.19,157.59 62.84,161.87C55.77,164.65 49.28,168.88 43.75,174.42C41.86,176.31 40.15,178.3 38.58,180.38C27.53,174.15 20.05,162.31 20.05,148.75C20.05,135.19 27.53,123.36 38.57,117.13C40.15,119.21 41.87,121.2 43.75,123.08C49.28,128.62 55.77,132.85 62.84,135.63Z" style="fill:rgb(190,156,193);fill-rule:nonzero;"/>
                <path d="M180.38,38.57C178.29,40.14 176.3,41.87 174.42,43.75C168.89,49.28 164.65,55.77 161.87,62.84C157.59,62.19 153.21,61.85 148.75,61.85C144.29,61.85 139.91,62.19 135.63,62.84C132.85,55.77 128.62,49.28 123.09,43.75C121.21,41.87 119.21,40.14 117.12,38.57C123.35,27.52 135.19,20.05 148.75,20.05C162.31,20.05 174.15,27.53 180.38,38.57Z" style="fill:rgb(190,156,193);fill-rule:nonzero;"/>
                <path d="M258.93,117.13C269.97,123.36 277.45,135.19 277.45,148.75C277.45,162.31 269.97,174.15 258.92,180.38C257.36,178.3 255.65,176.31 253.76,174.42C248.22,168.88 241.73,164.65 234.66,161.87C235.31,157.59 235.65,153.21 235.65,148.75C235.65,144.29 235.31,139.91 234.66,135.63C241.73,132.85 248.22,128.62 253.76,123.08C255.64,121.2 257.36,119.21 258.93,117.13Z" style="fill:rgb(190,156,193);fill-rule:nonzero;"/>
                <path d="M239.76,57.75C246.61,64.6 250.39,73.72 250.39,83.41C250.39,93.11 246.61,102.22 239.76,109.08C236.7,112.14 233.18,114.56 229.37,116.32C220.54,94.45 203.06,76.96 181.18,68.13C182.95,64.32 185.36,60.8 188.42,57.75C195.28,50.89 204.39,47.11 214.09,47.11C223.79,47.11 232.9,50.89 239.76,57.75Z" style="fill:rgb(236,128,158);fill-rule:nonzero;"/>
                <path d="M109.08,57.75C112.14,60.8 114.56,64.32 116.33,68.13C94.45,76.96 76.96,94.45 68.13,116.32C64.33,114.56 60.81,112.14 57.75,109.08C50.89,102.22 47.12,93.11 47.12,83.41C47.12,73.72 50.89,64.6 57.75,57.75C64.6,50.89 73.72,47.11 83.42,47.11C93.11,47.11 102.23,50.89 109.08,57.75Z" style="fill:rgb(236,128,158);fill-rule:nonzero;"/>
                <path d="M116.31,229.36C114.57,233.13 112.18,236.66 109.08,239.75C102.23,246.61 93.11,250.39 83.42,250.39C73.72,250.39 64.6,246.61 57.75,239.75C43.6,225.6 43.6,202.57 57.75,188.42C60.81,185.36 64.33,182.94 68.13,181.18C76.96,203.05 94.44,220.53 116.31,229.36Z" style="fill:rgb(236,128,158);fill-rule:nonzero;"/>
                <path d="M239.76,188.42C253.91,202.57 253.91,225.6 239.76,239.75C232.9,246.61 223.79,250.39 214.09,250.39C204.39,250.39 195.28,246.61 188.42,239.75C185.32,236.66 182.93,233.13 181.19,229.36C203.06,220.53 220.54,203.05 229.37,181.18C233.18,182.94 236.7,185.36 239.76,188.42Z" style="fill:rgb(236,128,158);fill-rule:nonzero;"/>
                <path d="M148.75,112.45C168.77,112.45 185.05,128.73 185.05,148.75C185.05,168.77 168.77,185.05 148.75,185.05C128.74,185.05 112.45,168.77 112.45,148.75C112.45,128.73 128.74,112.45 148.75,112.45Z" style="fill:rgb(247,202,202);fill-rule:nonzero;"/>
                <path d="M267.87,99.44C285.36,108.95 297.25,127.48 297.25,148.75C297.25,170.02 285.34,188.55 267.84,198.06C273.5,217.16 268.81,238.7 253.76,253.76C243.16,264.35 229.07,270.19 214.09,270.19C208.58,270.19 203.19,269.39 198.05,267.86C188.54,285.35 170.02,297.25 148.75,297.25C127.49,297.25 108.97,285.35 99.46,267.86C94.32,269.39 88.93,270.19 83.42,270.19C68.43,270.19 54.34,264.35 43.75,253.76C28.7,238.7 24,217.16 29.67,198.06C12.17,188.55 0.25,170.02 0.25,148.75C0.25,127.49 12.16,108.97 29.64,99.46C28.11,94.32 27.32,88.93 27.32,83.41C27.32,68.43 33.15,54.34 43.75,43.75C54.34,33.15 68.43,27.31 83.42,27.31C88.93,27.31 94.32,28.11 99.46,29.64C108.97,12.15 127.49,0.25 148.75,0.25C170.02,0.25 188.54,12.15 198.05,29.64C203.19,28.11 208.58,27.31 214.09,27.31C229.07,27.31 243.16,33.15 253.76,43.75C264.35,54.34 270.19,68.43 270.19,83.41C270.19,88.92 269.39,94.3 267.87,99.44ZM277.45,148.75C277.45,135.19 269.97,123.36 258.93,117.13C257.36,119.21 255.64,121.2 253.76,123.08C248.22,128.62 241.73,132.85 234.66,135.63C235.31,139.91 235.65,144.29 235.65,148.75C235.65,153.21 235.31,157.59 234.66,161.87C241.73,164.65 248.22,168.88 253.76,174.42C255.65,176.31 257.36,178.3 258.92,180.38C269.97,174.15 277.45,162.31 277.45,148.75ZM250.39,83.41C250.39,73.72 246.61,64.6 239.76,57.75C232.9,50.89 223.79,47.11 214.09,47.11C204.39,47.11 195.28,50.89 188.42,57.75C185.36,60.8 182.95,64.32 181.18,68.13C203.06,76.96 220.54,94.45 229.37,116.32C233.18,114.56 236.7,112.14 239.76,109.08C246.61,102.22 250.39,93.11 250.39,83.41ZM239.76,239.75C253.91,225.6 253.91,202.57 239.76,188.42C236.7,185.36 233.18,182.94 229.37,181.18C220.54,203.05 203.06,220.53 181.19,229.36C182.93,233.13 185.32,236.66 188.42,239.75C195.28,246.61 204.39,250.39 214.09,250.39C223.79,250.39 232.9,246.61 239.76,239.75ZM215.85,148.75C215.85,111.75 185.75,81.65 148.75,81.65C111.75,81.65 81.65,111.75 81.65,148.75C81.65,185.75 111.75,215.85 148.75,215.85C185.75,215.85 215.85,185.75 215.85,148.75ZM174.42,43.75C176.3,41.87 178.29,40.14 180.38,38.57C174.15,27.53 162.31,20.05 148.75,20.05C135.19,20.05 123.35,27.52 117.12,38.57C119.21,40.14 121.21,41.87 123.09,43.75C128.62,49.28 132.85,55.77 135.63,62.84C139.91,62.19 144.29,61.85 148.75,61.85C153.21,61.85 157.59,62.19 161.87,62.84C164.65,55.77 168.89,49.28 174.42,43.75ZM180.37,258.93C178.29,257.35 176.3,255.63 174.42,253.76C168.8,248.14 164.63,241.62 161.9,234.66C157.61,235.31 153.22,235.65 148.75,235.65C144.28,235.65 139.89,235.31 135.6,234.66C132.87,241.62 128.7,248.14 123.09,253.76C121.21,255.64 119.21,257.36 117.13,258.93C123.36,269.97 135.19,277.45 148.75,277.45C162.31,277.45 174.15,269.97 180.37,258.93ZM109.08,239.75C112.18,236.66 114.57,233.13 116.31,229.36C94.44,220.53 76.96,203.05 68.13,181.18C64.33,182.94 60.81,185.36 57.75,188.42C43.6,202.57 43.6,225.6 57.75,239.75C64.6,246.61 73.72,250.39 83.42,250.39C93.11,250.39 102.23,246.61 109.08,239.75ZM116.33,68.13C114.56,64.32 112.14,60.8 109.08,57.75C102.23,50.89 93.11,47.11 83.42,47.11C73.72,47.11 64.6,50.89 57.75,57.75C50.89,64.6 47.12,73.72 47.12,83.41C47.12,93.11 50.89,102.22 57.75,109.08C60.81,112.14 64.33,114.56 68.13,116.32C76.96,94.45 94.45,76.96 116.33,68.13ZM61.85,148.75C61.85,144.29 62.19,139.91 62.84,135.63C55.77,132.85 49.28,128.62 43.75,123.08C41.87,121.2 40.15,119.21 38.57,117.13C27.53,123.36 20.05,135.19 20.05,148.75C20.05,162.31 27.53,174.15 38.58,180.38C40.15,178.3 41.86,176.31 43.75,174.42C49.28,168.88 55.77,164.65 62.84,161.87C62.19,157.59 61.85,153.21 61.85,148.75Z" style="fill:rgb(133,103,123);fill-rule:nonzero;"/>
                <path d="M148.75,92.65C179.69,92.65 204.85,117.82 204.85,148.75C204.85,179.68 179.69,204.85 148.75,204.85C117.82,204.85 92.65,179.68 92.65,148.75C92.65,117.82 117.82,92.65 148.75,92.65ZM185.05,148.75C185.05,128.73 168.77,112.45 148.75,112.45C128.74,112.45 112.45,128.73 112.45,148.75C112.45,168.77 128.74,185.05 148.75,185.05C168.77,185.05 185.05,168.77 185.05,148.75Z" style="fill:rgb(133,103,123);fill-rule:nonzero;"/>
            </g>
        </g>
    </g>
</svg>
