<svg id="ace48909-504a-4a53-928f-d9458b0a8bcb" data-name="Layer 1" xmlns="http://www.w3.org/2000/svg" width="1114.7054" height="767.3912" viewBox="0 0 1114.7054 767.3912"><title>swatches</title><path d="M386.0487,401.15363c0,129.31047-76.873,174.46086-171.7007,174.46086S42.6473,530.4641,42.6473,401.15363,214.348,107.33985,214.348,107.33985,386.0487,271.84316,386.0487,401.15363Z" transform="translate(-42.6473 -66.3044)" fill="#f2f2f2"/><polygon points="165.446 489.53 167.204 381.308 240.387 247.423 167.48 364.332 168.27 315.671 218.708 218.806 168.48 302.794 168.48 302.794 169.901 215.275 223.911 138.159 170.125 201.513 171.013 41.035 165.431 253.479 165.889 244.715 110.977 160.663 165.009 261.539 159.892 359.282 159.74 356.687 96.436 268.235 159.548 365.852 158.908 378.076 158.794 378.26 158.846 379.264 145.865 627.246 163.209 627.246 165.29 499.158 228.247 401.78 165.446 489.53" fill="#3f3d56"/><path d="M1157.3527,709.6956c0,44.73506-230.12564,124-514,124s-514-79.26494-514-124,230.12564-38,514-38S1157.3527,664.96053,1157.3527,709.6956Z" transform="translate(-42.6473 -66.3044)" fill="#3f3d56"/><path d="M1157.3527,709.6956c0,44.73506-230.12564,124-514,124s-514-79.26494-514-124,230.12564-38,514-38S1157.3527,664.96053,1157.3527,709.6956Z" transform="translate(-42.6473 -66.3044)" opacity="0.1"/><ellipse cx="600.7054" cy="643.3912" rx="514" ry="81" fill="#3f3d56"/><ellipse cx="619.4014" cy="654.89052" rx="122" ry="25.5" opacity="0.1"/><circle cx="480.39723" cy="96.06285" r="48.55464" fill="#2f2e41"/><circle cx="386.56093" cy="83.01246" r="15.49616" fill="#2f2e41" opacity="0.3"/><circle cx="408.55487" cy="49.25521" r="15.49616" fill="#2f2e41" opacity="0.5"/><circle cx="430.54882" cy="15.49796" r="15.49616" fill="#2f2e41"/><circle cx="430.54882" cy="15.49796" r="15.49616" fill="#fff" opacity="0.3"/><circle cx="479.22622" cy="329.54006" r="48.55464" fill="#ec809e"/><circle cx="443.21837" cy="417.16996" r="15.49616" fill="#ec809e" opacity="0.3"/><circle cx="416.00195" cy="387.46217" r="15.49616" fill="#ec809e" opacity="0.5"/><circle cx="388.78554" cy="357.75438" r="15.49616" fill="#ec809e"/><circle cx="388.78554" cy="357.75438" r="15.49616" fill="#fff" opacity="0.3"/><path d="M600.13444,661.53373s-.29625,17.33087-1.77752,21.92281,0,10.36889,0,10.36889l-5.62883,14.81271h19.99715s4.74007-21.62655,4.74007-23.55221-2.81441-18.21963-2.81441-18.21963Z" transform="translate(-42.6473 -66.3044)" fill="#ffb9b9"/><path d="M615.53966,707.45312s-5.03632-13.77581-26.36662,0c0,0-8.44325,12.44268-3.70318,16.294s12.88706,9.03575,19.7009,6.07321,9.48014-6.22133,10.3689-12.29454A30.52275,30.52275,0,0,0,615.53966,707.45312Z" transform="translate(-42.6473 -66.3044)" fill="#2f2e41"/><path d="M707.971,661.53373s.29626,17.33087,1.77753,21.92281,0,10.36889,0,10.36889l5.62883,14.81271H695.38015s-4.74006-21.62655-4.74006-23.55221,2.81441-18.21963,2.81441-18.21963Z" transform="translate(-42.6473 -66.3044)" fill="#ffb9b9"/><path d="M692.56574,707.45312s5.03632-13.77581,26.36662,0c0,0,8.44324,12.44268,3.70318,16.294s-12.88706,9.03575-19.70091,6.07321-9.48013-6.22133-10.36889-12.29454A30.52275,30.52275,0,0,1,692.56574,707.45312Z" transform="translate(-42.6473 -66.3044)" fill="#2f2e41"/><path d="M595.09812,335.06165s14.51645,19.99716,16.294,26.36662,12.88706,5.777,12.14642,0-20.14528-36.73552-20.14528-36.73552Z" transform="translate(-42.6473 -66.3044)" fill="#ffb9b9"/><path d="M712.41477,328.54406s-20.44154,34.66173-15.25709,38.513S722.043,336.83917,722.043,336.83917Z" transform="translate(-42.6473 -66.3044)" fill="#ffb9b9"/><path d="M693.30637,355.65131h-33.773c-6.22134,0-26.66287,1.6294-29.92167,0S614.20651,354.17,614.20651,354.17s-24.73722,56.58455-18.0715,101.76331-14.07207,201.45282-4.29568,206.19289,18.51588,10.66515,26.95912,10.9614,24.14472-3.40692,25.92224-5.92508,10.517-222.04249,10.517-222.04249,3.11067,216.56179,8.88763,221.45,22.36719,8.147,32.73608,6.51759,21.03405-7.40635,23.10783-11.25766S712.711,549.2534,712.711,549.2534s14.36833-166.93921-9.332-187.82513Z" transform="translate(-42.6473 -66.3044)" fill="#2f2e41"/><path d="M643.6838,183.67578s7.40636,24.29284-7.25822,31.25481,12.5908,63.69464,12.5908,63.69464,38.06866-48.73381,38.06866-59.399l-6.36947-6.36946s-12.44267-20.88592-8.59137-27.40351S643.6838,183.67578,643.6838,183.67578Z" transform="translate(-42.6473 -66.3044)" fill="#ffb9b9"/><path d="M643.6838,183.67578s7.40636,24.29284-7.25822,31.25481,12.5908,63.69464,12.5908,63.69464,38.06866-48.73381,38.06866-59.399l-6.36947-6.36946s-12.44267-20.88592-8.59137-27.40351S643.6838,183.67578,643.6838,183.67578Z" transform="translate(-42.6473 -66.3044)" opacity="0.1"/><path d="M654.49708,266.47881s-8.88763-23.256-7.85074-31.99545-1.42761-23.02913-5.23168-23.43879-42.90962,12.32926-46.909,14.99555-7.55448,56.8808-7.55448,56.8808l17.479,40.29056s1.48127,33.03234,9.77638,34.51361,86.65434,5.62883,89.17251,2.81442,28.29227-79.69237,28.29227-79.69237l5.777-45.03063S730.19,226.78076,722.48741,224.707s-32.588-10.96141-35.40237-11.25766-11.702,1.33314-12.44268,3.99943S654.49708,266.47881,654.49708,266.47881Z" transform="translate(-42.6473 -66.3044)" fill="#d0cde1"/><circle cx="616.96016" cy="102.4846" r="30.36605" fill="#ffb9b9"/><path d="M670.06533,112.65289c-5.68457-6.85811-17.30315-7.59963-23.81344-1.51982-1.75535,1.63928-3.14023,3.654-4.97182,5.20759a23.40678,23.40678,0,0,1-5.86506,3.377c-6.94327,3.03968-14.31634,5.1996-20.79272,9.13726s-12.15138,10.16895-12.95358,17.70585c-.42428,3.98622.53622,8.06-.193,12.0019-1.143,6.17888-6.107,10.78874-10.26257,15.50214-3.94746,4.47732-7.49927,10.85881-4.67534,16.11755,2.40206,4.47315,8.28812,5.80041,11.596,9.65227,3.81886,4.44688,3.33048,11.1786,1.43943,16.72679s-4.966,10.76134-5.74385,16.57111c-1.28037,9.56283,3.9741,18.93576,10.817,25.73734,3.13108,3.11217,6.73352,5.91827,10.96,7.19354a18.99487,18.99487,0,0,0,18.2969-4.62969,21.00048,21.00048,0,0,0,5.83743-18.12746c-.57619-3.59138-2.053-7.11635-1.66956-10.7334.78755-7.43,8.89195-12.11665,10.81237-19.33726,1.96494-7.388-2.99452-14.58366-5.91323-21.64939-3.68117-8.91156-4.20067-18.77917-4.28719-28.42072-.0495-5.516.51827-11.975,5.16707-14.94452,3.03806-1.9406,6.90344-1.72771,10.49858-1.99367,4.19187-.31011,8.363-1.36013,12.5484-.97277s8.606,2.70333,9.74289,6.75c1.27284,4.53068-1.94472,9.1309-1.91391,13.83689.0151,2.30741.81658,4.55586.83091,6.86328.04161,6.70168-6.16831,11.49165-9.6506,17.21773a23.36753,23.36753,0,0,0,1.99958,26.42684c3.54753,4.23381,8.8963,7.6958,9.51,13.1852.34428,3.07917-.95034,6.06858-1.7305,9.0671s-.90643,6.58008,1.2729,8.78244c1.47771,1.49334,3.67371,1.98533,5.75628,2.26214a44.94408,44.94408,0,0,0,16.0853-.78034,7.65428,7.65428,0,0,0,3.695-1.66845c2.6178-2.53612.9793-7.03186,2.18856-10.47025,1.1816-3.35974,4.85669-5.11289,8.30283-6.01184s7.17052-1.37272,9.98121-3.56c3.12409-2.43113,4.4937-6.62663,4.31761-10.58128s-1.70132-7.72367-3.4793-11.26048a3.653,3.653,0,0,1-.5787-2.17383c.34632-2.03821,3.25513-1.86216,5.3224-1.88721,5.45554-.06611,9.6418-5.65516,9.79278-11.109s-2.75382-10.54266-6.22266-14.75389-7.59449-7.893-10.63654-12.42218c-5.20116-7.74373-7.00787-17.62359-13.32574-24.48666a24.038,24.038,0,0,0-11.36324-6.79359c-3.34981-.91091-8.37875.22962-10.99056-2.15657-1.01981-.93172-1.45463-2.43464-2.453-3.42537-1.62273-1.6103-3.83986-2.08424-5.66064-3.38615C674.19081,120.21706,672.73739,115.87657,670.06533,112.65289Z" transform="translate(-42.6473 -66.3044)" fill="#2f2e41"/><path d="M600.13444,227.22514l-5.62883-1.185s-69.916,55.2514-73.3229,62.3615-12.5908,13.47956,6.81384,25.03348,67.2497,30.21792,67.2497,30.21792l11.10953-19.7009-54.36264-27.996s12.5908-17.77525,38.8093-13.77582Z" transform="translate(-42.6473 -66.3044)" fill="#d0cde1"/><path d="M732.56005,233.5946l4.88819,2.22191s73.61916,53.17762,64.87966,66.50906-79.84049,45.03063-79.84049,45.03063l-12.5908-19.849s.97614-.4618,2.65488-1.26375c10.60786-5.06742,49.26967-23.71634,46.96769-25.251-2.66629-1.77752-25.03348-21.62655-31.25482-22.36719S732.56005,233.5946,732.56005,233.5946Z" transform="translate(-42.6473 -66.3044)" fill="#d0cde1"/><circle cx="759.47575" cy="342.13644" r="48.55464" fill="#ff6584"/><circle cx="795.44858" cy="429.78073" r="15.49616" fill="#ff6584"/><circle cx="795.44858" cy="429.78073" r="15.49616" fill="#fff" opacity="0.3"/><circle cx="822.67686" cy="400.08382" r="15.49616" fill="#ff6584" opacity="0.5"/><circle cx="849.90515" cy="370.38691" r="15.49616" fill="#ff6584" opacity="0.3"/><path d="M1096.0487,623.18271c0,59.80585-35.54849,80.68028-79.41024,80.68028-1.01392,0-2.02784-.01069-3.03094-.032-2.03826-.04273-4.04473-.13874-6.04026-.28816-39.58253-2.78538-70.32862-24.73768-70.32862-80.36013,0-57.57544,73.61542-130.25172,79.07961-135.56642l.01068-.01068c.20271-.20277.30953-.29878.30953-.29878S1096.0487,563.38748,1096.0487,623.18271Z" transform="translate(-42.6473 -66.3044)" fill="#ec809e"/><path d="M1013.74626,694.71708l29.04915-40.57489-29.11311,45.02516-.07478,4.66365c-2.03826-.04273-4.04473-.13874-6.04026-.28816l3.12683-59.81653-.02137-.46957.05341-.0854.29885-5.64546-29.188-45.14254,29.27322,40.90572.07478,1.19526,2.35847-45.20657-24.98306-46.64732,25.29258,38.70735,2.4653-93.72149.01068-.30946v.29878l-.41635,73.91427,24.87649-29.29465L1015.806,567.89109l-.6511,40.4682,23.22227-38.83541-23.31828,44.7904-.36282,22.50721,33.71281-54.06431L1014.568,644.66545Z" transform="translate(-42.6473 -66.3044)" fill="#3f3d56"/><path d="M270.0487,703.93286c0,28.92569-17.19338,39.02181-38.40755,39.02181-.49039,0-.98078-.00516-1.46594-.01546-.98583-.02067-1.95628-.06711-2.92143-.13938-19.14449-1.34717-34.01514-11.96462-34.01514-38.867,0-27.84693,35.60483-62.99754,38.24764-65.568l.00516-.00517c.098-.09807.14971-.14451.14971-.14451S270.0487,675.0123,270.0487,703.93286Z" transform="translate(-42.6473 -66.3044)" fill="#ec809e"/><path d="M230.24231,738.53116l14.04991-19.62444-14.08085,21.77686-.03616,2.25563c-.98583-.02067-1.95628-.06711-2.92143-.13938L228.7661,713.869l-.01034-.22711.02584-.0413.14454-2.73049-14.11708-21.83363,14.15828,19.78446.03617.57809,1.1407-21.8646L218.06091,664.973l12.233,18.7212,1.19237-45.32933.00516-.14968v.14451l-.20137,35.74937,12.03176-14.16865-12.0833,17.25015-.31491,19.57284,11.23168-18.78313-11.27812,21.66333-.17548,10.88583,16.30553-26.14874L230.63976,714.3232Z" transform="translate(-42.6473 -66.3044)" fill="#3f3d56"/><path d="M937.0487,722.93286c0,28.92569-17.19338,39.02181-38.40755,39.02181-.49039,0-.98078-.00516-1.46594-.01546-.98583-.02067-1.95628-.06711-2.92143-.13938-19.14449-1.34717-34.01514-11.96462-34.01514-38.867,0-27.84693,35.60483-62.99754,38.24764-65.568l.00516-.00517c.098-.09807.14971-.14451.14971-.14451S937.0487,694.0123,937.0487,722.93286Z" transform="translate(-42.6473 -66.3044)" fill="#ec809e"/><path d="M897.24231,757.53116l14.04991-19.62444-14.08085,21.77686-.03616,2.25563c-.98583-.02067-1.95628-.06711-2.92143-.13938L895.7661,732.869l-.01034-.22711.02584-.0413.14454-2.73049-14.11708-21.83363,14.15828,19.78446.03617.57809,1.1407-21.8646L885.06091,683.973l12.233,18.7212,1.19237-45.32933.00516-.14968v.14451l-.20137,35.74937,12.03176-14.16865-12.0833,17.25015-.31491,19.57284,11.23168-18.78313-11.27812,21.66333-.17548,10.88583,16.30553-26.14874L897.63976,733.3232Z" transform="translate(-42.6473 -66.3044)" fill="#3f3d56"/></svg>