<svg id="a48982f8-6f90-42ca-afb3-d8e4a7a73152" data-name="Layer 1" xmlns="http://www.w3.org/2000/svg" width="740.8402" height="608.46573" viewBox="0 0 740.8402 608.46573"><path d="M970.41984,735.63c.22635,23.70551-149.15407,25.87775-151.9995.00153C818.194,711.92758,967.57444,709.75534,970.41984,735.63Z" transform="translate(-229.5799 -145.76713)" fill="#e6e6e6"/><polygon points="623.966 507.569 612.864 513.624 619.929 536.837 631.03 537.846 637.086 524.726 623.966 507.569" fill="#9f616a"/><polygon points="658.28 553.994 658.28 565.095 675.437 564.086 675.198 554.943 658.28 553.994" fill="#9f616a"/><polygon points="619.929 374.348 625.984 450.042 645.16 561.058 675.437 557.021 665.345 469.217 669.382 388.478 619.929 374.348" fill="#2f2e41"/><path d="M930.24821,463.59817l-72.6656,1.00922-8.074,55.50842,49.453,23.21265,12.11093,44.40673L849.50869,653.336l24.22187,30.27735s34.31431-46.42523,59.54542-72.66559,13.12018-105.97064,13.12018-105.97064Z" transform="translate(-229.5799 -145.76713)" fill="#2f2e41"/><circle cx="657.27084" cy="152.31486" r="22.20337" fill="#9f616a"/><path d="M878.77677,313.22067V335.424l15.13868,24.22186s23.21261-17.15714,18.16639-21.19412-6.05546-35.32355-6.05546-35.32355Z" transform="translate(-229.5799 -145.76713)" fill="#9f616a"/><polygon points="649.197 185.62 634.058 203.786 640.114 329.941 687.548 328.932 695.622 218.925 685.53 190.666 678.607 181.247 666.354 199.749 649.197 185.62" fill="#d0cde1"/><path d="M854.55487,396.988l-11.10169,42.38828,11.10169,42.38824-18.1664,24.22186-16.1479-76.70257s12.111-62.57309,13.12019-69.63785,3.02772-8.074,3.02772-8.074l8.074,1.00925Z" transform="translate(-229.5799 -145.76713)" fill="#2f2e41"/><polygon points="705.714 267.368 712.779 280.489 714.798 302.692 710.761 327.923 724.89 351.136 739.019 287.553 723.881 205.804 717.825 205.804 705.714 267.368" fill="#2f2e41"/><path d="M849.50868,652.32681s-14.12937,4.037-19.17565,5.0462,3.02773,20.18488,3.02773,20.18488,5.0462,26.24035,6.05546,31.28656,8.074,22.20343,17.15717,24.22186,3.02773-35.32355,3.02773-35.32355,4.037-12.1109,4.037-16.14789-6.05547-2.01849-6.05547-2.01849C841.43475,677.55789,849.50868,652.32681,849.50868,652.32681Z" transform="translate(-229.5799 -145.76713)" fill="#2f2e41"/><path d="M882.81379,730.03854c1.00925,6.05548-1.00926,6.05548,15.13867,8.074s12.11094-11.10168,12.11094-11.10168a84.8005,84.8005,0,0,0-4.037-18.16638c-3.02774-8.074-19.17564,2.01849-19.17564,2.01849S881.80455,723.98306,882.81379,730.03854Z" transform="translate(-229.5799 -145.76713)" fill="#2f2e41"/><path d="M906.05267,303.83306l.526,8.97562s6.51241-14.72671,7.52165-29.86536S897.9524,264.77694,887.86,263.7677s-27.24959,6.05545-27.24959,14.12942,18.16639,6.05548,25.23111,4.037,10.09243,15.13867,10.09243,15.13867l4.037,1.00925Z" transform="translate(-229.5799 -145.76713)" fill="#2f2e41"/><polygon points="643.24 192.767 649.197 185.62 666.354 199.749 649.197 211.86 643.24 192.767" fill="#d0cde1"/><polygon points="685.53 190.666 678.465 181.583 666.354 199.749 681.493 210.851 685.53 190.666" fill="#d0cde1"/><path d="M851.52716,411.11737l4.037,38.35128-8.07393,23.21265L842.444,494.88467s.00006,21.19415,20.18489,22.20337,37.342-63.5824,37.342-63.5824,3.02772,14.1294,5.04622,22.20337,36.33279,40.36981,36.33279,40.36981,8.07394-1.00928,15.13866-17.15716-14.12941-31.28656-14.12941-31.28656l-6.0555-21.19416,2.01849-26.24035L952.45164,351.572,910.568,329.87319l4.5416,58.03156-15.13866,45.416-22.708-100.4198-7.56933,5.55084L837.39778,351.572Z" transform="translate(-229.5799 -145.76713)" fill="#2f2e41"/><path d="M452.66437,563.76713c-1.9956-.01562-4.01416-.02929-5.99658-.09082l.06153-1.999c1.96191.06055,3.96826.08789,5.93554.08984,1.97608,0,3.98975-.03222,5.98731-.09668l.06445,1.99805C456.69709,563.73393,454.66144,563.76713,452.66437,563.76713Zm-18.019-.84472c-3.98144-.377-8.00244-.8877-11.95068-1.51758l.31543-1.97461c3.90625.62305,7.88428,1.12891,11.82373,1.502Zm36.09229-.02149-.19043-1.99023c3.938-.377,7.91552-.8877,11.82177-1.5166l.31836,1.97461C478.73859,562.00444,474.71809,562.52006,470.73762,562.90092Zm-59.87256-3.77832c-3.89844-.88379-7.8208-1.90722-11.65772-3.041l.5669-1.918c3.7959,1.12207,7.67627,2.13379,11.5332,3.00781Zm83.64844-.0498-.44434-1.94922c3.86572-.88184,7.74512-1.89844,11.52978-3.02246l.56934,1.918C502.3426,557.15483,498.42121,558.18217,494.5135,559.0728Zm-106.74512-6.77637c-3.76172-1.38184-7.52539-2.90332-11.18652-4.52344l.80957-1.82812c3.62158,1.60156,7.34472,3.10742,11.0664,4.47461Zm129.833-.07812-.69141-1.877c3.69873-1.3623,7.40918-2.86719,11.02783-4.47265l.81153,1.82812C525.09064,549.31987,521.34016,550.84135,517.60139,552.21831Zm-151.88721-9.67969c-3.54-1.84766-7.0752-3.83985-10.50635-5.91992l1.03711-1.71094c3.395,2.05957,6.89209,4.0293,10.39453,5.85742Zm173.87256-.07324-.92578-1.77247c3.49414-1.82714,6.9834-3.79687,10.36914-5.85449l1.03906,1.709C546.64631,538.62748,543.11994,540.61772,539.58674,542.46538ZM345.10529,530.03862c-3.27881-2.28809-6.52832-4.71485-9.65918-7.21094l1.24707-1.56445c3.09766,2.4707,6.313,4.87109,9.55664,7.13476Zm215.04981-.07129-1.14649-1.63867c3.24317-2.2666,6.4541-4.667,9.54395-7.13477l1.24805,1.5625C566.67756,525.25053,563.43244,527.67631,560.1551,529.96733ZM326.26789,515.0142c-2.96387-2.69043-5.87793-5.50976-8.65967-8.37793l1.43555-1.39257c2.75244,2.83789,5.63574,5.627,8.56885,8.29Zm252.70166-.06933-1.3457-1.48047c2.92578-2.65723,5.80664-5.44824,8.56347-8.293l1.43555,1.39063C584.83771,509.438,581.92561,512.25834,578.96955,514.94487ZM309.5008,497.72612c-2.59521-3.043-5.12549-6.208-7.52148-9.40723l1.60107-1.19922c2.37061,3.166,4.874,6.29785,7.44189,9.30762Zm286.22754-.083-1.52148-1.29688c2.56738-3.01269,5.07128-6.14843,7.4414-9.31835l1.60156,1.19726C600.85432,491.42924,598.324,494.59819,595.72834,497.64311ZM295.07453,478.4517c-2.188-3.35058-4.29346-6.81054-6.2583-10.28418l1.74121-.98437c1.94336,3.43652,4.02686,6.86035,6.1919,10.1748Zm315.08252-.10839-1.67578-1.0918c2.166-3.32129,4.249-6.751,6.19336-10.19531l1.74219.98242C614.452,471.521,612.34553,474.98784,610.15705,478.34331Zm-326.92578-20.8379c-1.74024-3.5996-3.38428-7.29882-4.88623-10.99609l1.85254-.752c1.48633,3.65625,3.11279,7.3164,4.83447,10.877Zm338.77246-.15625L620.203,456.48c1.7207-3.5664,3.34766-7.23632,4.83594-10.91015l1.85351.75C625.3885,450.03373,623.744,453.74467,622.00373,457.34916Zm-347.8335-22.1416c-1.26513-3.79883-2.42089-7.68457-3.43554-11.5498l1.93457-.50781c1.00342,3.82324,2.147,7.668,3.39843,11.4248Zm356.88916-.21191-1.89843-.62891c1.24414-3.75293,2.38379-7.59863,3.38476-11.42968l1.93555.50585C633.46857,427.316,632.31721,431.20268,631.05939,434.99565Zm-363.00781-23.082c-.76416-3.92383-1.41064-7.92481-1.92187-11.89258l1.9834-.25586c.50585,3.92578,1.1455,7.88379,1.90136,11.76563Zm369.09863-.21973-1.96289-.37891c.75-3.88085,1.38575-7.84082,1.88672-11.76953l1.98438.25391C638.55158,403.77006,637.909,407.772,637.15021,411.69389ZM264.97346,388.03081c-.25635-3.98633-.38868-8.03809-.39307-12.043l2-.002c.00439,3.96289.13525,7.97168.38916,11.916Zm375.22754-.22364-1.9961-.12695c.249-3.94043.375-7.94922.375-11.91309l-.001-.43847h2l.001.43164C640.5799,379.773,640.452,383.82377,640.201,387.80717ZM266.94172,364.07182l-1.9961-.123c.248-3.99414.62745-8.02929,1.12793-11.99414l1.98438.25C267.56232,356.12846,267.18684,360.12065,266.94172,364.07182Zm371.23584-.65625c-.25977-3.95312-.64942-7.94434-1.1582-11.8623l1.98242-.25782c.51465,3.96.90918,7.99317,1.17187,11.98926ZM269.931,340.4351l-1.96387-.37793c.75439-3.92529,1.648-7.8789,2.65478-11.751l1.93555.50293C271.56135,332.64018,270.67756,336.55131,269.931,340.4351Zm365.17138-.645c-.76172-3.88574-1.66015-7.79394-2.668-11.6167l1.9336-.50976c1.01953,3.86377,1.92676,7.814,2.69726,11.7417ZM275.92951,317.37651l-1.89941-.627c1.25537-3.8003,2.65283-7.61231,4.15429-11.33057l1.8545.749C278.55353,309.84623,277.17121,313.61723,275.92951,317.37651Zm353.09473-.62354c-1.25586-3.7539-2.64942-7.51416-4.14258-11.17675l1.85156-.75489c1.50977,3.70215,2.91895,7.50293,4.1875,11.29688ZM284.86311,295.25l-1.80274-.86718c1.73486-3.60645,3.61084-7.20508,5.5752-10.69532l1.74316.98145C288.43488,288.12163,286.57941,291.68168,284.86311,295.25Zm335.17187-.54541c-1.72266-3.55127-3.585-7.09814-5.53809-10.542l1.74024-.98633c1.97363,3.48047,3.85644,7.06592,5.59668,10.65625ZM296.56037,274.46538l-1.67676-1.09082c2.18116-3.35254,4.501-6.68018,6.89453-9.88965l1.60352,1.19531C301.0135,267.856,298.71809,271.148,296.56037,274.46538Zm311.73242-.47071c-2.16406-3.30517-4.46582-6.58691-6.84277-9.7539l1.59961-1.2002c2.40234,3.20117,4.72949,6.51807,6.917,9.8584ZM310.81232,255.35356l-1.52343-1.29492c2.59033-3.04737,5.31347-6.05127,8.09375-8.92774l1.43847,1.38965C316.07014,249.36674,313.3758,252.33891,310.81232,255.35356Zm283.18457-.41211c-2.57128-3.00635-5.27441-5.96973-8.03222-8.80762l1.43359-1.39355c2.78809,2.86767,5.51953,5.86279,8.11817,8.90137Zm-266.62255-16.7251-1.34668-1.47851c2.95947-2.6958,6.0415-5.32813,9.15966-7.82325l1.25,1.56153C333.35187,232.94487,330.30256,235.54936,327.37434,238.21635Zm250.01123-.36279c-2.93262-2.65479-5.99024-5.25147-9.08985-7.71729l1.2461-1.56543c3.13183,2.49268,6.22265,5.1167,9.18554,7.8003ZM345.973,223.33012l-1.14746-1.63769c3.27246-2.29346,6.66308-4.51075,10.07763-6.59082l1.04053,1.708C352.56574,218.86772,349.21076,221.06157,345.973,223.33012Zm212.7583-.31836c-3.25586-2.26611-6.62109-4.45263-10.00293-6.499l1.03516-1.71094c3.418,2.06787,6.82031,4.27783,10.11035,6.56836ZM366.30695,210.94243l-.92871-1.77149c3.53565-1.85449,7.18018-3.61914,10.83106-5.24463l.81347,1.82715C373.41047,207.36137,369.80549,209.10747,366.30695,210.94243Zm172.02-.27442c-3.5122-1.82812-7.13135-3.56592-10.75781-5.16553l.80762-1.83007c3.665,1.6167,7.32373,3.37353,10.874,5.22119Zm-150.28125-9.40088-.69433-1.876c3.75-1.38721,7.59521-2.67041,11.4292-3.81348l.57128,1.917C395.55891,198.625,391.75519,199.89457,388.04572,201.26713Zm128.45166-.22705c-3.71728-1.35986-7.52588-2.61572-11.31982-3.73193l.56445-1.919c3.835,1.12842,7.68506,2.398,11.44287,3.773ZM410.87775,194.46l-.44629-1.94921c3.89112-.89161,7.86915-1.66846,11.82373-2.31055l.32032,1.97461C418.66291,192.80961,414.72736,193.57817,410.87775,194.46Zm82.7627-.1455c-3.85645-.86914-7.79492-1.624-11.70606-2.24414l.31348-1.97559c3.95313.62695,7.93408,1.39014,11.832,2.26855Zm-59.24463-3.67041-.19336-1.99024c3.9707-.38525,8.01514-.64844,12.02051-.78174l.0664,1.999C442.326,190.003,438.32453,190.26323,434.39582,190.64409Zm35.71289-.062c-3.93457-.36767-7.9375-.61376-11.896-.73144l.05957-1.999c4.00049.11914,8.0459.36767,12.02247.73925Z" transform="translate(-229.5799 -145.76713)" fill="#d0cde1"/><circle cx="216" cy="47" r="47" fill="#ec809e"/><circle cx="398" cy="175" r="47" fill="#ec809e"/><circle cx="341" cy="371" r="47" fill="#ec809e"/><circle cx="115" cy="379" r="47" fill="#ec809e"/><circle cx="47" cy="175" r="47" fill="#ec809e"/><path d="M465.72088,189.02H449.32706a5.62074,5.62074,0,0,1-5.62074-5.62074V167.00542a.46838.46838,0,0,0-.46839-.46839H432.46485a7.49432,7.49432,0,0,0-7.49432,7.49431v37.47158a7.49432,7.49432,0,0,0,7.49432,7.49432H458.695a7.49432,7.49432,0,0,0,7.49432-7.49432V189.48837A.46839.46839,0,0,0,465.72088,189.02ZM454.9478,207.75577H436.212a1.87358,1.87358,0,1,1,0-3.74716H454.9478a1.87358,1.87358,0,0,1,0,3.74716Zm0-9.3679H436.212a1.87358,1.87358,0,1,1,0-3.74716H454.9478a1.87358,1.87358,0,1,1,0,3.74716Z" transform="translate(-229.5799 -145.76713)" fill="#fff"/><path d="M464.69275,184.87351l-16.84-16.84a.2342.2342,0,0,0-.39931.16511v15.20058a1.87358,1.87358,0,0,0,1.87358,1.87358h15.20058a.2342.2342,0,0,0,.16511-.39931Z" transform="translate(-229.5799 -145.76713)" fill="#fff"/><path d="M577.37786,507.50842a2.49081,2.49081,0,1,0,1.76194.72885A2.49079,2.49079,0,0,0,577.37786,507.50842Z" transform="translate(-229.5799 -145.76713)" fill="#fff"/><path d="M591.24478,497.548v-.0084a1.9038,1.9038,0,0,0-1.412-1.42785c-2.781-.67846-7.156.0448-12.00418,1.98592a38.60712,38.60712,0,0,0-12.55946,7.953,29.92888,29.92888,0,0,0-2.7577,3.15713,12.23184,12.23184,0,0,0-5.466.87817c-5.38849,2.37135-6.92739,8.44016-7.33708,10.93189a2.3331,2.3331,0,0,0,2.53746,2.70638h.01213l6.00256-.65513c.00747.07653.01587.14652.0224.21091a3.20656,3.20656,0,0,0,.9239,1.93366l2.92942,2.93129a3.1982,3.1982,0,0,0,1.93273.92484l.20064.02146-.65326,5.99509v.01213a2.33308,2.33308,0,0,0,2.08074,2.56068q.10764.01113.216.01225a2.357,2.357,0,0,0,.38729-.03173c2.50573-.40316,8.57175-1.9234,10.93656-7.34082a12.34154,12.34154,0,0,0,.88191-5.44448,29.37812,29.37812,0,0,0,3.16833-2.7577,38.32941,38.32941,0,0,0,7.96141-12.46054C591.17945,504.8431,591.90644,500.43544,591.24478,497.548Zm-9.9912,16.32038a5.48461,5.48461,0,1,1-.004-7.75641l.004.004a5.44076,5.44076,0,0,1,.05821,7.69417Z" transform="translate(-229.5799 -145.76713)" fill="#fff"/><path d="M561.80033,528.94013a1.49312,1.49312,0,0,0-1.02656.24917c-.59634.40782-1.19547.811-1.80021,1.20387a1.39249,1.39249,0,0,1-1.95979-1.86647l1.13388-1.95979a1.49317,1.49317,0,0,0-1.41478-2.32468,5.716,5.716,0,0,0-3.32511,1.62942c-.34157.3425-1.38026,1.38212-1.93926,5.3437a33.40138,33.40138,0,0,0-.3005,3.4315,1.49316,1.49316,0,0,0,1.45442,1.53094q.01936.0005.03875.00049h.03733a33.585,33.585,0,0,0,3.4343-.29863c3.96344-.55994,5.00306-1.59957,5.34463-1.94113a5.6451,5.6451,0,0,0,1.62289-3.33537A1.49317,1.49317,0,0,0,561.80033,528.94013Z" transform="translate(-229.5799 -145.76713)" fill="#fff"/><path d="M328.40467,550.307h-3.40531a2.554,2.554,0,0,1-2.554-2.554V532.42908a2.554,2.554,0,0,1,2.554-2.554h3.40531a2.554,2.554,0,0,1,2.554,2.554V547.753A2.554,2.554,0,0,1,328.40467,550.307Z" transform="translate(-229.5799 -145.76713)" fill="#fff"/><path d="M352.24185,550.307h-3.40531a2.554,2.554,0,0,1-2.554-2.554V522.21315a2.554,2.554,0,0,1,2.554-2.554h3.40531a2.554,2.554,0,0,1,2.554,2.554V547.753A2.554,2.554,0,0,1,352.24185,550.307Z" transform="translate(-229.5799 -145.76713)" fill="#fff"/><path d="M364.16044,550.307h-3.40531a2.554,2.554,0,0,1-2.554-2.554V510.29456a2.554,2.554,0,0,1,2.554-2.554h3.40531a2.554,2.554,0,0,1,2.554,2.554V547.753A2.554,2.554,0,0,1,364.16044,550.307Z" transform="translate(-229.5799 -145.76713)" fill="#fff"/><path d="M340.32326,550.307H336.918a2.554,2.554,0,0,1-2.554-2.554V501.78128a2.554,2.554,0,0,1,2.554-2.554h3.40531a2.554,2.554,0,0,1,2.554,2.554V547.753A2.554,2.554,0,0,1,340.32326,550.307Z" transform="translate(-229.5799 -145.76713)" fill="#fff"/><path d="M629.83146,319.53624l-2.43291-2.43384a2.98172,2.98172,0,0,0-4.2061-.01118l-16.91481,15.6103a3.15889,3.15889,0,0,0-1.05759,2.14871,2.992,2.992,0,0,0,.85818,2.23071l3.634,3.67405.00652.00652a3.00877,3.00877,0,0,0,2.11424.87775h.11a3.12884,3.12884,0,0,0,2.159-1.04081L629.82121,323.761a2.98174,2.98174,0,0,0,.01819-4.21677Z" transform="translate(-229.5799 -145.76713)" fill="#fff"/><path d="M649.38417,314.61731l-.02888-.02888-3.19325-3.16064a1.99963,1.99963,0,0,0-1.42378-.5833,2.03966,2.03966,0,0,0-1.19176.38576c0-.04007.00559-.0792.00838-.11368a3.40623,3.40623,0,0,0-.48453-2.35,24.03891,24.03891,0,0,0-2.31084-2.678l-.00745-.00746a25.22236,25.22236,0,0,0-8.0805-5.21244,13.00307,13.00307,0,0,0-4.946-.97372,9.426,9.426,0,0,0-6.03335,2.1133,11.174,11.174,0,0,0-1.32128,1.51137,1.49087,1.49087,0,0,0,1.73779,2.268,6.9359,6.9359,0,0,1,.79948-.24506,5.91293,5.91293,0,0,1,1.71915-.10716,7.22788,7.22788,0,0,1,3.32557,1.21971,4.78951,4.78951,0,0,1,1.70145,3.82873,9.9386,9.9386,0,0,1-1.86358,3.21282,1.49086,1.49086,0,0,0,.13511,1.95676l3.20629,3.2063a1.49087,1.49087,0,0,0,2.04994.05777c.90664-.80973,2.28755-2.03038,2.77022-2.32948a3.4702,3.4702,0,0,1,1.36974-.54044,1.78717,1.78717,0,0,1,1.052.22177.11556.11556,0,0,1-.02889.08852l-.16958.1612-.028.02609a2.00521,2.00521,0,0,0-.00526,2.83579l.00992.0099,3.19232,3.1597a1.99865,1.99865,0,0,0,1.42377.58237,2.02193,2.02193,0,0,0,1.41819-.57771l5.17144-5.10808c.01771-.0177.03541-.03634.05218-.055A2.03783,2.03783,0,0,0,649.38417,314.61731Z" transform="translate(-229.5799 -145.76713)" fill="#fff"/><path d="M284.04226,317.96872a1.86559,1.86559,0,0,1-1.31914-3.18473l4.27751-4.27763-4.27751-4.27763a1.86555,1.86555,0,0,1,2.63829-2.63829l5.59677,5.59677a1.8654,1.8654,0,0,1,0,2.63829l-5.59677,5.59677A1.85979,1.85979,0,0,1,284.04226,317.96872Z" transform="translate(-229.5799 -145.76713)" fill="#fff"/><path d="M254.19282,323.56549a1.86553,1.86553,0,0,1-1.86559-1.86559v-1.86559a11.24925,11.24925,0,0,1,11.188-11.19354h24.25825a1.86559,1.86559,0,1,1,0,3.73118H263.52077a7.507,7.507,0,0,0-7.46236,7.46794v1.86A1.86553,1.86553,0,0,1,254.19282,323.56549Z" transform="translate(-229.5799 -145.76713)" fill="#fff"/><path d="M269.11754,338.49021a1.8598,1.8598,0,0,1-1.31914-.54644l-5.59677-5.59678a1.86537,1.86537,0,0,1,0-2.63828l5.59677-5.59677a1.86555,1.86555,0,0,1,2.63829,2.63828l-4.27752,4.27763,4.27752,4.27763a1.86559,1.86559,0,0,1-1.31915,3.18473Z" transform="translate(-229.5799 -145.76713)" fill="#fff"/><path d="M265.38636,332.89344a1.86559,1.86559,0,0,1,0-3.73118H289.639a7.507,7.507,0,0,0,7.46236-7.46794v-1.86a1.86559,1.86559,0,0,1,3.73118,0v1.86559a11.24925,11.24925,0,0,1-11.188,11.19354Z" transform="translate(-229.5799 -145.76713)" fill="#fff"/></svg>