<svg xmlns="http://www.w3.org/2000/svg" width="888" height="60" viewBox="0 0 888 60">
  <path fill="#D8DEE9" d="M569.559 26.467a9.393 9.393 0 0 1-.799.709c1.98 1.522 2.998 3.847 5.212 5.175-1.564-2.086-2.781-4.312-3.911-6.564-.164.249-.33.478-.502.68zm2.861-4.474c1.738 2.313 2.969 4.938 4.494 7.417a64.49 64.49 0 0 0-3.487-8.455 6.732 6.732 0 0 0-1.007 1.038zm2.287-4.107c-.245.735.49 1.961.245 2.207a4.23 4.23 0 0 0-.568.241c2.217 2.631 4.268 5.363 6.453 8.095-1.751-3.852-3.503-7.578-5.611-11.179a3.181 3.181 0 0 0-.519.636zm-20.596 14.22c.144.856.109 1.611-.055 2.295 3.017 1.36 5.098 4.112 6.836 7.071.188-.16.375-.324.56-.489-1.77-3.19-3.737-6.244-5.628-9.387-.584.158-1.157.325-1.713.51z"/>
  <path fill="#E5E9F0" d="M554.057 34.401c-.679 2.839-3.608 4.453-5.584 7.021-.98.981-3.678 0-4.413 1.472-3.188 5.639-8.581 9.071-11.769 14.466 4.168-3.678 8.826-5.149 12.504-9.563 1.961-2.207 5.64-3.188 8.581-5.394 1.472-.981 3.433 1.471 5.395.49.772-.352 1.465-.864 2.122-1.422-1.739-2.957-3.82-5.709-6.836-7.07z"/>
  <path fill="#D8DEE9" d="M560.978 32.842c.387 2.321 1.686 4.338 2.339 6.529.79-.6 1.617-1.049 2.564-1.136.156-.012.312-.024.467-.038-1.486-2.066-3.193-3.946-5.37-5.355z"/>
  <path fill="#D8DEE9" d="M588.683 20.337c-1.471-1.226-2.451-2.942-3.188-4.659-.469-1.056-1.331-1.943-2.021-2.904a258.732 258.732 0 0 1-3.876-3.34c2.629 4.514 5.252 8.992 8.104 13.355-2.697-2.942-5.148-5.885-8.091-8.582 1.716 3.923 3.433 7.846 5.639 11.523-3.955-2.081-5.083-6.812-7.732-10.294-.59.588-1.589 1.128-2.292 1.813 2.108 3.601 3.86 7.327 5.611 11.179-2.186-2.732-4.236-5.464-6.453-8.095-.346.172-.664.38-.957.621a64.49 64.49 0 0 1 3.487 8.455c-1.525-2.478-2.756-5.103-4.494-7.417-.963 1.21-1.635 2.693-2.359 3.794 1.13 2.253 2.347 4.478 3.911 6.564-2.214-1.328-3.231-3.653-5.212-5.175-3.345 2.66-8.477 3.221-12.936 4.42 1.891 3.143 3.858 6.196 5.628 9.387.627-.562 1.234-1.134 1.864-1.612-.653-2.191-1.952-4.208-2.339-6.529 2.178 1.409 3.885 3.289 5.37 5.355 3.008-.258 5.795-.781 8.359-2.413.736-.245 1.227.735 1.962.49 2.206-.98 2.206-3.923 3.433-4.903 2.207-1.717 6.619-.246 8.581-2.942 1.243-1.864 3.186-3.903 5.089-4.491-1.237-1.659-3.399-2.393-5.088-3.6z"/>
  <path fill="#D8DEE9" d="M601.623 22.551c-1.871-1.241-3.122-2.654-5.671-3.04-3.047-.462-4.471.208-6.896-1.942-1.829-1.623-3.697-3.194-5.583-4.794.69.961 1.553 1.849 2.021 2.904.736 1.716 1.717 3.433 3.188 4.659 1.689 1.207 3.852 1.94 5.089 3.6a3.53 3.53 0 0 1 1.041-.167 33.724 33.724 0 0 0 6.811-1.22zm-13.921.239c-2.853-4.363-5.476-8.841-8.104-13.355-.458-.404-.916-.813-1.373-1.228.098 2.246.188 4.491-.33 6.737a1.974 1.974 0 0 1-.377.494c2.649 3.482 3.777 8.213 7.732 10.294-2.206-3.678-3.923-7.601-5.639-11.523 2.943 2.696 5.394 5.638 8.091 8.581z"/>
  <path fill="#FFF" d="M566.861 24.26c2.56-1.991 5.157-3.906 7.832-5.651-.045-.258-.057-.511.014-.723.736-1.226 2.697-1.961 3.188-2.942.305-1.322.398-2.644.404-3.965-4.683 5.044-10.193 8.869-16.341 12.056-3.188 1.716-7.11 2.207-10.053 4.168-4.168 2.697-7.601 5.639-11.033 8.827 4.168-2.452 7.846-5.394 12.014-7.355 6.865-3.188 13.24-6.375 19.37-10.543-1.962 1.96-3.188 4.412-5.395 6.128zm-45.017 17.269l-.341.14c.119-.041.231-.089.341-.14z"/>
  <path fill="#FFF" d="M521.844 41.529c.559-.261 1.005-.637 1.62-.842.98-.98 1.717-2.206 2.697-2.696 6.375-3.679 12.749-5.885 18.634-10.053-4.904 1.961-9.563 4.414-14.221 7.356-2.942 1.716-6.865 1.226-8.826 3.923-2.207 3.433-5.149 6.129-8.336 8.581-.877.526-2.002.93-2.483 1.833 2.159-1.001 4.728-1.661 6.965-2.497 4.4-3.975 9.466-7.212 14.643-10.124-3.565 1.426-7.13 3.08-10.693 4.519zm18.293 1.856c-6.375 3.678-11.769 7.846-18.389 11.523-1.227.735-2.452 1.717-3.188 2.942 5.394-2.452 10.298-5.64 16.427-7.11.491 0 1.472-.245 1.717-1.226-1.962.245-3.678.98-5.64 1.226 3.457-2.938 7.646-4.537 11.878-6.083.394-.566.771-1.149 1.117-1.763.132-.264.327-.447.563-.579-1.409-.873-3.149.402-4.485 1.07zm85.813-10.053c2.942-.49 5.64-.735 8.337-.98-2.207.735-4.168 1.716-5.885 3.188 3.188-.735 6.13-2.697 9.563-2.452.245.245.49.98.245 1.226-1.472.981-3.433.736-4.903 1.472-1.827.996-3.626 2.021-5.444 2.931 1.589.199 3.212.024 4.708-.724 3.17-1.463 7.551-1.474 9.287-5.331-1.548-1.534-2.723-3.641-4.629-3.006-1.471.245-3.187 1.471-4.658 1.471-3.923.491-8.091 0-11.278 1.717-5.394 2.942-10.052 5.64-15.937 7.11-3.188.98-5.64 3.923-9.071 5.148 8.335-2.941 15.937-7.109 24.763-9.562 1.715-.491 3.186-1.718 4.902-2.208zm.982-11.769c2.242-1.121 2.917-4.093 3.112-7.071a7.679 7.679 0 0 0-.26-.167c-1.565.749-2.827 2.159-4.187 3.388-.573 1.563-1.297 3.018-2.589 4.095-.981.981-2.697 1.471-3.678 2.697-4.659 4.659-10.543 6.13-15.938 9.317 2.452-1.961 4.413-4.413 6.865-6.375-8.581 3.923-14.466 11.524-21.821 17.163 3.188-.98 5.394-3.433 8.091-5.394 5.395-3.678 10.788-5.885 16.428-8.336 4.904-2.206 8.827-6.62 13.977-9.317zm-27.706 8.582c3.21-1.07 6.046-3.074 8.834-5.196a18.044 18.044 0 0 1-2.367-.572c-2.577 1.346-4.76 3.378-6.467 5.768zm-18.144 13.73c.98-1.226 3.433-.49 4.658-1.716.245-.49.245-1.472.736-1.962 1.716-2.452 4.658-3.188 5.884-5.885-1.961 2.942-5.884 2.697-7.846 5.395-.49.49-.245 1.471-.98 1.716-2.016.673-4.646.526-6.207 2.179a.64.64 0 0 1 .077.028c.898.385 1.326 1.307 1.741 2.204a49.756 49.756 0 0 0 1.937-1.959zm100.28-30.157c.803-1.071 1.096-2.434 1.514-3.771a3.51 3.51 0 0 1-.197-.33c-4.441 2.653-9.375 9.577-14.646 10.545-2.877.528-3.5-.48-6.232.902-1.559.789-2.443 1.4-3.584 1.762-1.303 1.801-2.71 3.576-3.825 5.603-.49.98-.98 1.961-1.226 2.942 2.942-2.697 5.394-6.13 9.071-8.091-.98 1.961-2.941 2.942-3.678 4.903 2.943-1.716 5.395-3.678 8.582-4.903-.735 3.187-4.168 4.658-6.62 6.375-2.452 1.471-2.942 4.413-4.413 6.62 2.941-1.716 4.413-5.149 7.355-7.11.98-.735 2.697-.981 3.923-1.716.735-.49.98-1.471 1.471-2.452 1.227-1.962 4.904-.491 5.885-2.697 1.717-3.434 4.413-5.64 6.62-8.582z"/>
  <path fill="#ECEFF4" d="M705.931 6.656c-1.646.634-2.776.236-4.424 1.169-1.356.768-2.624 2.106-3.963 2.949-2.459 1.547-4.871 2.77-7.813 1.848-1.389-.435-2.439-1.475-3.68-1.937-1.507-.561-2.318.522-3.175-.738-.418 1.337-.711 2.7-1.514 3.771-2.207 2.942-4.903 5.148-6.62 8.581-.98 2.207-4.658.735-5.885 2.697-.49.98-.735 1.961-1.471 2.452-1.226.735-2.942.981-3.923 1.716-2.942 1.961-4.414 5.395-7.355 7.11 1.471-2.207 1.961-5.149 4.413-6.62 2.452-1.716 5.885-3.188 6.62-6.375-3.188 1.226-5.639 3.187-8.582 4.903.736-1.961 2.697-2.942 3.678-4.903-3.678 1.961-6.129 5.394-9.071 8.091.245-.981.735-1.962 1.226-2.942 1.115-2.026 2.522-3.802 3.825-5.603-.718.228-1.535.357-2.688.37-2.219.023-4.796-.445-6.988-.744-2.769-.378-4.542-2.022-6.978-2.581-2.55-.586-4.221.656-6.923-1.188-1.779-1.213-2.825-3.016-4.597-4.191-.195 2.978-.87 5.95-3.112 7.071-5.149 2.697-9.072 7.11-13.976 9.317-5.64 2.452-11.033 4.659-16.428 8.336-2.697 1.961-4.903 4.413-8.091 5.394 7.355-5.639 13.24-13.239 21.821-17.163-2.452 1.961-4.413 4.414-6.865 6.375 5.395-3.187 11.278-4.658 15.938-9.317.98-1.226 2.696-1.716 3.678-2.697 1.292-1.077 2.016-2.531 2.589-4.095-.545.493-1.104.957-1.706 1.337-2.79 1.763-4.829 1.586-7.713 2.566-2.735.93-3.724 3.188-6.639 3.429-.41.034-.921-.007-1.48-.096-2.788 2.122-5.624 4.125-8.834 5.196 1.707-2.39 3.891-4.422 6.467-5.768-1.098-.338-2.142-.748-2.833-1.099-.45-.229-.855-.475-1.236-.728a33.653 33.653 0 0 1-6.811 1.219c-2.207 0-4.659 2.452-6.13 4.659-1.962 2.696-6.374 1.226-8.581 2.942-1.227.98-1.227 3.923-3.433 4.903-.735.245-1.226-.735-1.962-.49-2.697 1.716-5.639 2.207-8.826 2.451-2.697.246-4.413 3.434-7.11 4.659-1.962.98-3.923-1.472-5.395-.49-2.941 2.206-6.62 3.187-8.581 5.394-3.678 4.413-8.336 5.885-12.504 9.563 2.84-4.808 7.43-8.062 10.651-12.703-4.232 1.546-8.421 3.145-11.878 6.083 1.962-.245 3.678-.98 5.64-1.226-.245.98-1.226 1.226-1.717 1.226-6.129 1.471-11.033 4.658-16.427 7.11.735-1.226 1.961-2.207 3.188-2.942 6.62-3.678 12.014-7.846 18.389-11.523 1.336-.668 3.076-1.942 4.486-1.069 1.084-.604 3.045-.087 3.85-.893 2.452-3.188 6.375-4.903 5.639-9.316 5.149-1.716 11.77-1.961 15.447-5.64 1.471-1.716 2.451-5.394 5.394-6.375.175-.175-.146-.846-.259-1.483-2.675 1.745-5.272 3.661-7.832 5.651 2.207-1.716 3.433-4.168 5.395-6.129-6.13 4.168-12.505 7.355-19.37 10.543-4.168 1.961-7.846 4.903-12.014 7.355 3.433-3.188 6.865-6.13 11.033-8.827 2.942-1.961 6.865-2.452 10.053-4.168 6.147-3.187 11.658-7.011 16.341-12.056a58.282 58.282 0 0 0-.074-2.772c-.122-.11-.243-.217-.364-.328-5.008 4.369-11.129 7.151-16.478 10.813-3.514 2.407-6.14 3.564-10.297 4.127-3.31.449-6.241 2.368-9.562 2.574-3.764.234-4.438-1.213-7.364 1.105-2.502 1.981-4.438 4.826-7.265 6.619-2.315 1.468-5.225 1.902-7.418 3.384-2.752 1.859-4.265 4.592-7.293 6.269-5.456 3.021-13.745 4.452-17.824 9.104-2.584 2.948-3.754 5.195-7.632 6.905-.74.326-1.493.586-2.249.816h10.22c1.186-1.324 2.496-2.463 4.001-3.215 1.227-.736 2.452-2.452 3.923-2.697 1.962-.245 4.414.98 6.13-.49.735-.736.245-2.697.98-2.942.38-.222.78-.426 1.195-.619.481-.903 1.606-1.307 2.483-1.833 3.187-2.452 6.129-5.148 8.336-8.581 1.961-2.697 5.884-2.207 8.826-3.923 4.658-2.942 9.316-5.395 14.221-7.356-5.885 4.168-12.259 6.375-18.634 10.053-.98.49-1.717 1.716-2.697 2.696-.615.205-1.062.581-1.62.842 3.563-1.439 7.128-3.094 10.692-4.52-5.177 2.912-10.242 6.149-14.643 10.124a19.509 19.509 0 0 0 1.893-.807c4.903-2.697 10.788-4.413 16.427-5.64-.98.735-1.961 1.717-2.941 2.207-2.697 1.226-5.394 2.696-8.337 4.168-3.432 1.471-5.148 5.639-8.581 7.355-3.446 1.844-6.893 3.504-10.278 5.177h31.598c5.379-2.235 10.595-4.929 15.458-8.609 3.923-3.433 8.827-3.433 13.976-4.413 1.716-.245 2.942-1.717 4.413-1.717 1.227 0 2.697.49 3.924-.245.698-.465 1.396-1.15 1.884-1.009 1.562-1.652 4.191-1.506 6.207-2.179.735-.245.49-1.226.98-1.716 1.962-2.697 5.885-2.452 7.846-5.395-1.226 2.697-4.168 3.433-5.884 5.885-.491.49-.491 1.472-.736 1.962-1.226 1.226-3.678.49-4.658 1.716a49.756 49.756 0 0 1-1.937 1.959c.378.817.745 1.613 1.446 1.964 2.452.735 5.64-.245 8.091-.245 7.602.245 15.201-2.697 23.292-3.678.491-.245 1.227.245 1.717.245 1.471-.735 1.961-3.433 3.188-3.188 3.433.245 4.658-4.413 6.62-3.678 1.325.723 2.828 1.267 4.363 1.46 1.818-.91 3.617-1.935 5.444-2.931 1.471-.735 3.432-.49 4.903-1.472.245-.245 0-.98-.245-1.226-3.433-.245-6.375 1.717-9.563 2.452 1.717-1.472 3.678-2.452 5.885-3.188-2.697.245-5.395.49-8.337.98-1.716.49-3.188 1.717-4.903 2.207-8.826 2.452-16.428 6.62-24.763 9.562 3.432-1.226 5.884-4.168 9.071-5.148 5.885-1.471 10.543-4.168 15.937-7.11 3.188-1.717 7.355-1.226 11.278-1.717 1.472 0 3.188-1.226 4.658-1.471 1.906-.635 3.081 1.472 4.629 3.006l.03-.063c1.962 2.207 4.168 1.962 6.375 3.433 3.678 2.452 8.336 3.678 12.504 3.678 3.474 0 7.307 1.284 11.129 2.132 2.11-3.748 3.99-7.599 5.544-11.694-2.942 2.942-5.885 6.129-8.827 9.072.245-1.226.491-2.697 1.226-3.188 2.942-1.717 4.414-4.904 5.885-7.601-2.206 1.716-5.148 2.696-7.355 4.658 1.227-.245 2.207-1.471 3.678-.98-3.188 1.226-5.148 4.413-8.336 5.639 2.207-1.226 1.961-3.678 3.433-5.148 1.716-1.716 4.658-1.961 6.129-4.659.402-.937 1.388-.924 2.399-.878a5.424 5.424 0 0 1-.438-.102c3.433-1.226 6.865-2.207 9.563-4.414 3.923-3.188 9.317-1.961 12.504-4.413a30.51 30.51 0 0 1 1.601-1.229c.123-.158.244-.32.361-.487 1.226-1.471 1.716-3.433 3.188-4.413 3.754-2.503 6.976-5.54 8.004-9.561-1.441 1.376-2.754 3.538-4.523 4.219z"/>
  <path fill="#FFF" d="M712.062 1.379c-.57.186-1.098.574-1.609 1.062-1.028 4.021-4.25 7.058-8.004 9.561-1.472.98-1.962 2.942-3.188 4.413-.117.167-.238.329-.361.487 3.779-2.726 7.933-4.657 11.149-8.087 2.137-1.923 2.225-4.778 2.699-7.59a3.534 3.534 0 0 0-.686.154zm-37.075 38.328c2.452-4.168 3.433-9.072 7.601-12.014 0 1.471-.49 2.697-.735 4.168 1.527-1.91 2.461-4.148 3.587-6.238-1.727.312-3.484.669-5.303 1.089-1.347.224-2.898.651-4.467.347-1.012-.045-1.997-.058-2.399.878-1.471 2.697-4.413 2.942-6.129 4.659-1.472 1.471-1.226 3.923-3.433 5.148 3.188-1.226 5.148-4.413 8.336-5.639-1.471-.49-2.451.735-3.678.98 2.207-1.962 5.149-2.942 7.355-4.658-1.471 2.696-2.942 5.884-5.885 7.601-.734.49-.98 1.962-1.226 3.188 2.942-2.942 5.885-6.13 8.827-9.072-1.554 4.095-3.434 7.946-5.544 11.694 1.308.29 2.614.527 3.905.646 1.643-2.04 2.708-4.529 4.09-6.701-1.959.982-2.94 2.944-4.902 3.924z"/>
  <path fill="#ECEFF4" d="M695.765 32.227c1.075-2.56 1.639-5.369 1.772-8.149-4.105.345-8.016.81-12.098 1.545-1.126 2.09-2.06 4.329-3.587 6.238.245-1.471.735-2.697.735-4.168-4.168 2.942-5.148 7.846-7.601 12.014 1.962-.98 2.942-2.942 4.903-3.923-1.382 2.172-2.447 4.661-4.09 6.701 4.255.39 8.331-.526 11.691-5.23 1.471-2.206 4.413-3.433 7.11-4.658a5.4 5.4 0 0 1 1.165-.37z"/>
  <path fill="#FFF" d="M698.279 24.015c-.248.02-.494.042-.742.063-.134 2.78-.697 5.589-1.772 8.149.768-.155 1.562-.164 2.362-.13a90.277 90.277 0 0 1 3.265-7.338c-1.069-.318-2.055-.744-3.113-.744z"/>
  <path fill="#ECEFF4" d="M704.409 24.996c-1.13.226-2.104.034-3.018-.237a90.277 90.277 0 0 0-3.265 7.338c1.723.072 3.474.34 5.057-.235 5.148-1.962 9.807-4.168 14.956-6.375 1.226-.49 2.696-1.226 3.188-2.697-5.639-.246-11.278.98-16.918 2.206z"/>
  <path fill="#D8DEE9" d="M519.786 46.327c-2.942 1.471-7.11 2.206-10.053 3.923-.735.245-.245 2.206-.98 2.942a2.984 2.984 0 0 1-.39.28c.83 1.257 1.598 2.549 2.168 3.926.654-.325 1.311-.651 1.967-.983-.403-1.903-.752-3.72-.313-5.185.736-2.452 5.148-1.226 7.355-3.188 1.847-1.847 4.049-3.195 6.3-4.431-2.116.779-4.158 1.673-6.054 2.716z"/>
  <path fill="#E5E9F0" d="M502.623 53.683c-1.471.245-2.696 1.961-3.923 2.697-1.505.752-2.815 1.891-4.001 3.215h11.376c1.476-.729 2.962-1.456 4.456-2.196-.57-1.377-1.338-2.669-2.168-3.926-1.683 1.017-3.922-.018-5.74.21zm23.218-10.071c-2.251 1.235-4.453 2.584-6.3 4.431-2.207 1.962-6.619.735-7.355 3.188-.439 1.465-.091 3.281.313 5.185 1.283-.647 2.569-1.31 3.855-1.997 3.433-1.717 5.149-5.885 8.581-7.355 2.943-1.472 5.64-2.942 8.337-4.168.98-.49 1.961-1.472 2.941-2.207-3.459.75-7.011 1.689-10.372 2.923z"/>
  <path fill="#FFF" d="M770.119 22.054c0 .736-.736 1.961-.736 2.697 0 3.433-.49 6.621-.735 10.053.98-3.433.735-7.111 2.452-10.298 2.206 1.226.245 4.659 1.471 6.62.121-2.424.723-4.668 1.655-6.764a5.147 5.147 0 0 1-2.146-2.063c-1.497-2.37-2.17-5.311-3.179-8.016a6.888 6.888 0 0 1-.779.889c1.27 2.121 2.194 4.501 1.997 6.882zm-2.974 28.894c1.077.256 2.208.35 3.32.303 1.403-3.317 3.103-6.537 4.066-10.073-2.596 3.197-4.706 6.718-7.386 9.77zm-4.626-24.726c-2.207 5.885.489 11.77-2.943 17.408-.245.49-.49 1.226-1.226 1.471.245.49-.245 1.717.245 1.227 5.148-5.149 3.924-12.26 4.658-19.125.246-.981 1.227-1.716 1.227-2.452.267-2.529.172-5.059.266-7.588-.601.21-1.224.377-1.859.508.009 3.146.623 6.169-.368 8.551z"/>
  <path fill="#ECEFF4" d="M784.829 29.164c-1.471-.735-2.206-2.207-3.433-2.942-2.276-.875-5.055-.751-7.171-1.86-.933 2.095-1.534 4.339-1.655 6.764-1.226-1.961.735-5.394-1.471-6.62-1.717 3.188-1.472 6.866-2.452 10.298.245-3.433.735-6.621.735-10.053 0-.735.736-1.961.736-2.697.197-2.38-.728-4.761-1.997-6.881-.929.896-2.098 1.54-3.377 1.99-.094 2.529.001 5.059-.266 7.588 0 .736-.98 1.471-1.227 2.452-.734 6.865.49 13.975-4.658 19.125-.49.49 0-.736-.245-1.227.735-.245.98-.98 1.226-1.471 3.433-5.639.736-11.523 2.943-17.408.991-2.381.378-5.405.367-8.552-1.685.348-3.446.437-5.037.368-3.557-.155-5.951-2.39-9.278-3.4-2.744-.833-5.635-.624-8.555-.5 2.422 2.293 6.328 3.155 7.546 6.2 1.226 2.697 2.207 5.884 2.942 9.072.98 2.697-1.471 4.413-3.678 5.64-.49.245-.735.98-.245 1.226 1.226.49 3.188.49 3.678 1.471 1.226 3.678 4.168 5.64 5.639 8.827.981 1.961 1.962 3.433 3.678 4.658 1.962 1.226 3.924-.98 6.13-1.471v.735c.464.186.946.336 1.439.453 2.681-3.052 4.79-6.573 7.387-9.771-.964 3.536-2.663 6.756-4.066 10.073a12.65 12.65 0 0 0 3.074-.508c.818-2.374 1.713-4.672 2.464-7.113-.23 1.612-.028 3.386.048 5.145 1.99-.846 4.322-.665 6.327-1.467 1.226-.49 3.433-2.207 1.716-3.433-3.246-2.345-6.758-3.892-10.339-5.034-1.813 2.411-3.95 4.336-6.089 6.26.246-1.961 1.962-2.941 2.207-4.903-.49.98-.98 1.717-1.716 2.207-2.697 1.716-4.414 3.433-6.375 5.639-.49.245-1.227.98-1.961.98 1.226-1.226 1.716-2.941 2.697-4.168 1.961-2.451 4.658-3.923 6.619-6.62.192-.288.536-.462.94-.584 2.139-.978 4.284-2.357 6.66-2.357.121-.015.241-.033.362-.05 4.018-.546 7.556-2.25 9.936-5.345.247-.246-1.47-.246-2.205-.736z"/>
  <path fill="#FFF" d="M776.003 43.63c-.751 2.441-1.646 4.739-2.464 7.113l.012-.003c.245 0 .735-.98 1.227-1.226a5.64 5.64 0 0 1 1.273-.74c-.076-1.758-.279-3.532-.048-5.144zm-6.13-5.885c.068-.03.137-.063.205-.094-.404.122-.748.296-.94.584-1.961 2.697-4.658 4.169-6.619 6.62-.981 1.227-1.472 2.942-2.697 4.168.734 0 1.471-.735 1.961-.98 1.961-2.206 3.678-3.923 6.375-5.639.735-.49 1.226-1.227 1.716-2.207-.245 1.962-1.961 2.942-2.207 4.903 2.139-1.924 4.276-3.849 6.089-6.26a63.888 63.888 0 0 0-3.883-1.095z"/>
  <path fill="#C2DDF4" d="M818.665 39.952c-.116.13-.237.254-.356.382.121-.123.24-.25.356-.382z"/>
  <path fill="#ECEFF4" d="M805.67 47.063c-.664.554-1.316 1.095-1.968 1.617-.346.642-.732 1.259-1.22 1.815-3.076 3.076-6.827 5.767-9.377 9.1h4.968c1.982-2.829 3.86-5.691 6.371-7.874 4.528-4.052 9.748-6.949 13.864-11.387-3.47 3.528-9.084 3.411-12.638 6.729z"/>
  <path fill="#FFF" d="M802.482 50.495c.487-.557.874-1.174 1.22-1.815-2.23 1.793-4.446 3.373-7.104 4.513-2.606 1.216-4.598 3.786-6.495 6.402h3.002c2.55-3.333 6.301-6.024 9.377-9.1zm-73.074-17.536c-.995-.162-1.946-.24-2.8-.148-1.197 1.957-2.235 3.96-3.565 5.671 2.329-1.665 4.309-3.679 6.365-5.523zm-36.277 21.214c-3.573 1.692-7.434 3.243-10.809 5.422h4.222c2.431-1.537 4.728-3.236 6.587-5.422z"/>
  <path fill="#ECEFF4" d="M700.241 52.947c.98-.981 1.471-2.697 2.697-3.188 1.961-.981 4.903 0 6.374-1.962 2.943-4.168 7.111-3.678 11.034-5.639 1.96-.892 3.792-2.947 5.963-3.533 2.155-2.077 6.827-2.829 10.219-4.313-2.152-.126-4.761-.971-7.12-1.354-2.057 1.844-4.036 3.858-6.365 5.522 1.33-1.711 2.368-3.714 3.565-5.671-1.039.112-1.934.476-2.584 1.257-3.678 4.168-8.582 4.904-13.485 5.64-.736.245-1.717.49-1.717.98-.245 1.717-.735 2.942-2.206 3.923-3.923 2.207-7.601 3.678-10.788 6.62-.735.49-1.962.735-2.697.49-1.716-.49-3.678-1.716-5.149-.735-2.206 1.226-3.432 3.188-5.884 3.923-2.451.49-5.148 0-7.11 1.472a70.211 70.211 0 0 1-4.631 3.215h11.966c3.375-2.179 7.235-3.729 10.809-5.422-1.858 2.187-4.156 3.885-6.587 5.422h26.008c1.223-.756 2.325-1.653 3.136-2.97.98-1.472-1.716-1.962-.735-3.678 2.8-4.524 7.113-6.966 9.617-11.316-1.921.791-3.722 1.743-5.204 3.225-2.697 2.697-5.639 4.414-8.581 6.62 1.716-2.452 4.168-4.168 6.129-6.13-2.206.491-3.677 1.962-5.394 3.188-1.961 1.227-3.678 1.472-5.64 2.697-.98.49-2.206 0-2.941.49-1.472.735-2.452 2.207-3.678 3.433-1.717 2.207-4.414 2.697-6.865 3.923 2.45-2.206 5.637-3.432 7.844-6.129z"/>
  <path fill="#FFF" d="M720.347 42.159c-3.923 1.961-8.091 1.471-11.034 5.639-1.471 1.962-4.413.98-6.374 1.962-1.227.49-1.717 2.206-2.697 3.188-2.207 2.696-5.395 3.923-7.846 6.129 2.451-1.226 5.148-1.716 6.865-3.923 1.226-1.226 2.206-2.697 3.678-3.433.735-.49 1.961 0 2.941-.49 1.962-1.226 3.679-1.471 5.64-2.697 1.717-1.226 3.188-2.696 5.394-3.188-1.961 1.962-4.413 3.678-6.129 6.13 2.942-2.206 5.884-3.923 8.581-6.62 1.482-1.481 3.283-2.434 5.204-3.225.346-.602.658-1.239.926-1.924.199-.398.478-.756.814-1.081-2.171.586-4.003 2.642-5.963 3.533z"/>
  <path fill="#ECEFF4" d="M629.628 48.288c-1.716.735-2.451 3.188-4.168 3.678-6.064 2.022-12.296 3.879-17.457 7.629h7.525c7.613-4.724 15.451-9.112 22.881-14.184-2.94.845-5.912 1.603-8.781 2.877z"/>
  <path fill="#FFF" d="M638.409 45.411c-7.43 5.071-15.268 9.46-22.881 14.184h3.165c3.519-2.353 7.198-4.558 10.69-7.139 4.413-3.187 9.316-5.148 13.729-8.581-1.544.601-3.119 1.081-4.703 1.536zm21.491 7.7c.52-.641 1.052-1.27 1.603-1.881-1.472 0-2.943.98-4.169 1.962-3.44 2.752-7.311 4.218-11.208 6.402h5.593c.318-.253.636-.506.957-.764 2.291-2.1 4.585-4.197 7.224-5.719z"/>
  <path fill="#ECEFF4" d="M659.9 53.111c-2.64 1.521-4.934 3.619-7.225 5.72-.321.258-.639.511-.957.764h3.367c1.572-2.199 3.129-4.407 4.815-6.484z"/>
  <path fill="#D8DEE9" d="M800.767 42.404c-3.188-3.678-4.658-7.601-9.072-10.298-1.471-.735-1.471-2.942-2.451-3.923-.981-.98-2.942-.735-4.414-1.471-.98-.491-1.471-1.962-2.696-2.697-1.717-.981-3.678-.981-5.149-2.207-.735-.49-1.472-.49-2.206-.735-1.987-1.325-3.376-3.049-4.17-5.348-.803-.44-1.393-.982-1.523-1.703-.059.089-.121.175-.183.261 1.009 2.705 1.682 5.646 3.179 8.016 1.961 3.433 6.129 2.697 9.316 3.923 1.227.736 1.962 2.207 3.433 2.942.735.49 2.452.49 2.207.735-2.452 3.188-6.13 4.904-10.298 5.395-2.452 0-4.658 1.471-6.865 2.451 4.904 1.227 9.808 2.942 14.221 6.13 1.717 1.226-.49 2.942-1.716 3.433-2.452.98-5.395.49-7.601 2.207-.491.245-.981 1.226-1.227 1.226-.04.012-.081.022-.122.033.833 1.459 1.595 2.964 2.083 4.625 0-1.471-.244-2.942.491-4.168 1.226 1.226 1.226 3.188 2.942 3.923-.246-1.471-.98-3.188-.246-4.658 0-.245.981.49.981.735 1.194 3.186 2.874 5.887 4.776 8.364h5.646a50.16 50.16 0 0 1 1.927-2.523c-2.889-4.553-5.605-9.126-6.955-14.912-.491-2.207-3.433-3.678-4.659-6.13 1.227.49 2.697-.49 3.188.49 3.188 3.923 5.394 8.091 8.336 12.014-2.696-4.658-3.678-9.807-5.394-14.711 3.433 1.227 3.678 6.62 7.355 8.582-1.962-3.433-3.678-7.11-5.64-10.543 3.923 3.678 8.091 6.865 12.015 10.543.735.98 1.961 1.716 3.187 2.206-1.226-.491-1.961-1.471-2.696-2.207zm-73.311.981c1.982 5.285 3.763 10.57 4.282 16.21h3.37c-2.785-5.257-4.964-10.835-7.652-16.21z"/>
  <path fill="#D8DEE9" d="M747.871 59.595c-1.769-1.999-4.221-3.437-5.459-5.912-3.187-5.149-3.678-11.523-8.09-16.183 0 2.942.735 5.885 1.716 8.582.98 1.961.98 4.168.735 6.129-1.716-4.903-2.942-10.052-5.64-14.466 0 2.207.246 4.414.491 6.62-.479-2.554-2.1-4.796-3.039-7.2-1.408.65-2.541 1.441-3.091 2.542-2.207 5.639-7.355 8.091-10.543 13.24-.98 1.716 1.716 2.206.735 3.678-.811 1.316-1.913 2.214-3.136 2.97h19.187c-.52-5.64-2.3-10.925-4.282-16.21 2.688 5.375 4.867 10.953 7.652 16.21h12.764z"/>
  <path fill="#D8DEE9" d="M747.316 48.778c.49 2.942 1.962 5.64 1.962 8.582-1.962-2.697-4.413-4.904-6.375-7.601-1.472-1.962.735-5.149-.981-7.601-1.716-2.697-2.451-5.64-4.413-7.601-.473-.316-1.656-.629-2.832-.487.642.118 1.264.207 1.852.241-2.456 1.075-5.584 1.766-7.942 2.853.939 2.404 2.561 4.646 3.039 7.2-.245-2.206-.491-4.413-.491-6.62 2.697 4.414 3.924 9.563 5.64 14.466.245-1.961.245-4.168-.735-6.129-.98-2.697-1.716-5.64-1.716-8.582 4.412 4.659 4.903 11.033 8.09 16.183 1.238 2.476 3.69 3.913 5.459 5.912h4.325a381.497 381.497 0 0 1-4.882-10.816zm-34.08-28.686c.245-.981.245-1.961 0-2.697 0-3.923-1.472-7.846 0-12.014.245 3.923 1.471 7.355 3.188 10.788-.246-4.413-1.472-8.336-1.472-12.75 0-.496-.001-1.033-.066-1.577-.615-.461-1.294-.724-2.138-.619-.475 2.812-.563 5.667-2.699 7.59-.457.486-.932.943-1.422 1.376.2.291.425.569.686.831 1.961 2.452 1.716 6.375 3.923 9.072zm-28.441 2.452c-2.697 2.207-6.13 3.188-9.563 4.414 1.717.49 3.433 0 4.904-.245 2.581-.596 5.041-1.07 7.463-1.457-.708-1.065-1.329-2.206-1.91-3.348-.304.191-.604.4-.894.636zm8.091.981c-.49-.981-1.717-1.471-2.697-1.961.287 1.147.825 2.127 1.321 3.136 1.366-.172 2.733-.32 4.117-.453-.97-.907-1.933-1.841-2.986-2.684.245.736.245 1.227.245 1.962zm39.229 1.961c-.735-.736-.735 2.452-2.207 1.716-1.962-.736-2.696-3.433-5.394-3.188-.245 0-.736-1.226-.981-1.226-.65-.325-1.516-.325-2.312-.003l.105.003c-.491 1.471-1.962 2.207-3.188 2.697-5.149 2.207-9.808 4.413-14.956 6.375-.28.102-.564.176-.854.23.342.278.703.534 1.099.75 1.226.49 2.206-1.226 3.923-.98.49 0 .98-.981 1.717-.981 4.348.208 6.423 3.911 8.292 7.42.7-.227 1.388-.49 2.057-.804-1.221-3.155-2.895-6.115-3.239-9.559 2.207.981 3.188 3.433 4.414 5.394-.491-2.452-.736-5.149-.491-7.601 2.452.49 4.169 4.659 6.375 3.678-1.716-1.471-4.168-2.452-4.413-4.904 3.678.981 6.375 3.923 9.808 5.149.245 0 .245-1.226.98-1.716.98 1.471 2.207 2.942 3.923 3.678-1.96-1.715-2.697-4.411-4.658-6.128z"/>
  <path fill="#E5E9F0" d="M709.068 30.88c-.736 0-1.227.981-1.717.981-1.717-.245-2.697 1.471-3.923.98a7.242 7.242 0 0 1-1.099-.75c-2.5.473-5.311-.594-7.728.505-2.697 1.226-5.64 2.452-7.11 4.658-.046.064-.094.125-.14.188a41.13 41.13 0 0 1 2.101 3.489c1.226 2.452 4.168 2.942 5.884 4.904 1.056 1.23 2.487 1.959 3.484 3.086 2.422-1.581 5.048-2.768 7.795-4.313 1.471-.98 1.961-2.206 2.206-3.923 0-.49.98-.735 1.717-.98 2.316-.348 4.633-.696 6.821-1.406-1.868-3.508-3.943-7.211-8.291-7.419z"/>
  <path fill="#D8DEE9" d="M695.337 45.837c-1.716-1.962-4.658-2.452-5.884-4.904a40.613 40.613 0 0 0-2.101-3.489c-2 2.723-4.249 4.13-6.634 4.738 1.282 2.053 2.123 4.466 3.341 6.597.245-1.961-1.226-3.433-1.472-5.394 1.472 1.471 2.942 2.942 4.413 4.658-.49-2.206-1.962-3.923-1.716-6.374 2.696.98 3.923 3.432 6.865 4.658.49.245 1.226 1.471 2.206 1.961.49.49 1.227.981 1.472 1.227.275.344.566.663.863.968.69-.568 1.4-1.083 2.13-1.56-.996-1.127-2.427-1.856-3.483-3.086z"/>
  <path fill="#E5E9F0" d="M663.954 51.966c-.49 1.962 1.226 3.188 1.226 4.904-1.019-2.039-3.098-3.958-5.175-3.886-1.727 2.113-3.315 4.366-4.919 6.61h15.271a71.562 71.562 0 0 0 2.172-1.441c-2.037-3.058-5.479-4.536-8.575-6.187z"/>
  <path fill="#D8DEE9" d="M675.076 56.32c-1.185-1.349-2.439-2.577-3.767-3.373-1.716-.981-3.433-2.207-5.394-3.188-1.581-.703-3.035.48-4.634 1.479.073-.005.146-.009.221-.009a47.406 47.406 0 0 0-1.498 1.754c2.077-.072 4.156 1.847 5.175 3.886 0-1.717-1.716-2.942-1.226-4.904 3.096 1.651 6.538 3.129 8.574 6.188a67.727 67.727 0 0 0 2.459-1.773c.03-.023.061-.039.09-.06zm-30.001-18.329c1.962 3.923 3.923 7.6 6.374 11.278-1.403-4.915-3.06-9.955-5.687-14.401-1.347-.478-2.658-.902-3.875-2.271-.19.436-.416.82-.668 1.166 1.132 1.721 3.248 2.807 3.856 4.228zm8.091 4.904c-.417-1.772-.835-3.412-1.327-4.975a21.128 21.128 0 0 1-2.95-1.492c1.612 3.366 3.315 6.672 5.503 9.654-.246-1.227-.981-2.207-1.226-3.187zm-2.942 10.297c0-.491-.245-.736-.245-1.227-.49-1.471-2.451-1.471-3.188-2.696-1.442-1.443-1.707-4.771-4.03-5.13-.487.369-.979.724-1.478 1.062.663.193 1.294.589 1.83 1.126 2.207 2.451 4.168 5.149 7.111 6.865zm-46.43-7.821c-.911.2-1.817.403-2.721.602 2.11 2.978 4.034 6.1 6.488 8.69-1.29-3.133-2.164-6.403-3.767-9.292zm-21.485 10.763c-.981-3.678-3.678-6.619-5.149-10.052 3.923 3.678 6.865 8.091 10.543 12.014-2.024-3.271-3.851-6.64-5.605-10.045a6.67 6.67 0 0 1-1.505-.253c-1.471-.735-1.471-3.433-3.188-4.168-.49-.245-1.227.49-1.961.98-1.184.71-2.595.279-3.793.248 2.162 3.013 4.326 6.119 6.489 9.069-1.471-2.452-2.206-4.904-3.678-7.355 3.923 1.961 4.903 6.62 7.847 9.562z"/>
  <path fill="#D8DEE9" d="M597.302 59.595c-1.788-4.147-3.33-8.338-5.558-12.104a30.678 30.678 0 0 1-3.062.062c-1.975 0-4.425.635-6.586.498 1.755 3.405 3.581 6.774 5.605 10.045-3.678-3.923-6.62-8.336-10.543-12.014 1.472 3.433 4.168 6.374 5.149 10.052-2.943-2.941-3.924-7.601-7.847-9.562 1.472 2.451 2.207 4.903 3.678 7.355-2.163-2.95-4.327-6.057-6.489-9.069l-.131-.003c-1.471 0-2.697 1.472-4.413 1.717-5.148.98-10.053.98-13.976 4.413-4.863 3.681-10.079 6.374-15.458 8.609h35.861c-1.397-3.485-3.107-6.88-5.134-9.979 2.278 3.323 5.078 6.391 6.976 9.979h21.928z"/>
  <path fill="#9FCFEE" d="M568.4 49.615a43.481 43.481 0 0 0-.559-.837c.183.282.37.56.559.837z"/>
  <path fill="#D8DEE9" d="M568.4 49.615c2.026 3.1 3.736 6.494 5.134 9.979h1.842c-1.897-3.588-4.697-6.656-6.976-9.979zm31.561 9.216c-1.471-1.961-2.942-3.923-3.677-6.13-.841-1.959-1.761-3.68-2.669-5.388-.625.072-1.248.136-1.871.178 2.228 3.766 3.77 7.956 5.558 12.104h5.381c-1.538-4.023-3.632-7.832-6.398-11.062 1.225 3.433 3.186 6.62 3.676 10.298z"/>
  <path fill="#D8DEE9" d="M622.518 39.952c-.37-.556-.81-1.076-1.254-1.601-1.096 1.155-2.354 2.727-4.385 2.581-1.227-.245-1.717 2.452-3.188 3.188-.49 0-1.226-.49-1.717-.245-2.777.337-5.498.905-8.181 1.496 1.604 2.889 2.478 6.159 3.768 9.292-2.454-2.591-4.378-5.713-6.488-8.69-2.509.549-4.988 1.052-7.458 1.341.908 1.708 1.828 3.429 2.669 5.388.734 2.207 2.206 4.169 3.677 6.13-.49-3.678-2.451-6.865-3.677-10.298 2.767 3.229 4.86 7.038 6.398 11.062h5.32c5.161-3.75 11.393-5.606 17.457-7.629 1.008-.288 1.678-1.251 2.407-2.147-2.079-3.079-3.438-6.473-5.348-9.868zm12.357 6.471c.541-.16 1.084-.316 1.626-.47-.813-1.922-2.214-3.538-2.214-5.756-.416 2.075.57 4.151.588 6.226z"/>
  <path fill="#D8DEE9" d="M695.828 49.515c-.245-.245-.981-.736-1.472-1.227-.98-.49-1.716-1.716-2.206-1.961-2.942-1.227-4.169-3.678-6.865-4.658-.246 2.451 1.226 4.168 1.716 6.374-1.471-1.716-2.941-3.188-4.413-4.658.246 1.961 1.717 3.433 1.472 5.394-1.218-2.131-2.059-4.544-3.341-6.597-6.383 1.627-13.744-2.475-19.952-2.475-2.904 0-6.046-.597-8.928-1.787.492 1.563.91 3.202 1.327 4.975.245.98.98 1.961 1.226 3.188-2.188-2.982-3.891-6.288-5.503-9.654-.211-.13-.421-.262-.626-.398-.838-.559-1.676-.869-2.5-1.161 2.627 4.446 4.283 9.486 5.687 14.401-2.451-3.679-4.412-7.355-6.374-11.278-.608-1.421-2.725-2.507-3.855-4.229-2.015 2.772-5.815 2.92-8.649 4.229a7.582 7.582 0 0 1-2.48.734c.919 1.789 1.88 3.534 2.726 5.395-1.961-.735-2.941-2.697-4.413-3.923 1.226 1.226 1.226 3.188 2.207 4.658-2.697-1.471-3.188-4.903-6.13-6.129.807 3.631 2.278 7.095 4.14 10.258.304-.288.632-.534 1.009-.696 1.722-.765 3.479-1.343 5.247-1.865-.018-2.075-1.004-4.15-.588-6.226 0 2.218 1.401 3.834 2.214 5.756 2.225-.631 4.448-1.236 6.612-2.078-.116.091-.235.177-.353.265 2.323.359 2.588 3.687 4.03 5.13.736 1.226 2.697 1.226 3.188 2.696 0 .49.245.735.245 1.227-2.942-1.717-4.903-4.414-7.11-6.865-.536-.537-1.167-.933-1.83-1.126-3.911 2.662-8.088 4.502-11.899 7.255-3.492 2.581-7.172 4.786-10.69 7.139h27.433c3.897-2.185 7.768-3.65 11.208-6.402 1.165-.932 2.551-1.862 3.948-1.953 1.599-.999 3.053-2.183 4.634-1.479 1.961.98 3.678 2.206 5.394 3.188 1.327.796 2.582 2.024 3.767 3.373 1.953-1.394 4.605-.929 7.021-1.412 2.452-.735 3.678-2.697 5.884-3.923 1.472-.98 3.434.245 5.149.735.735.245 1.962 0 2.697-.49.283-.262.572-.508.863-.748-.3-.309-.591-.629-.867-.972z"/>
  <path fill="#D8DEE9" d="M630.609 44.855c-.981-1.471-.981-3.433-2.207-4.658 1.472 1.226 2.452 3.188 4.413 3.923-.846-1.86-1.807-3.605-2.726-5.395-2.271.278-4.627-.398-6.591-1.471-.801-.3-1.479.299-2.235 1.097.444.524.884 1.045 1.254 1.601 1.91 3.395 3.27 6.789 5.35 9.866.239-.295.486-.581.752-.834-1.861-3.163-3.333-6.627-4.14-10.258 2.943 1.226 3.433 4.659 6.13 6.129zm153.848 14.74c-1.902-2.478-3.582-5.179-4.776-8.364 0-.245-.981-.98-.981-.735-.734 1.471 0 3.188.246 4.658-1.717-.735-1.717-2.697-2.942-3.923-.735 1.226-.491 2.697-.491 4.168-.488-1.661-1.25-3.166-2.083-4.625-2.427.7-5.312.687-7.724-.278v-.735c-2.206.49-4.168 2.696-6.13 1.471-1.716-1.226-2.696-2.697-3.678-4.658-1.471-3.188-4.413-5.149-5.639-8.827-.49-.98-2.452-.98-3.678-1.471-.49-.245-.245-.98.245-1.226 2.207-1.227 4.658-2.942 3.678-5.64-.735-3.188-1.717-6.375-2.942-9.072-1.218-3.045-5.124-3.907-7.546-6.2-2.298.098-4.613.144-6.889-.411-5.454-1.33-11.037-4.766-15.09-8.56-1.211-1.133-2.087-2.526-3.151-3.324.065.544.066 1.081.066 1.577 0 4.413 1.226 8.336 1.472 12.75-1.717-3.433-2.942-6.865-3.188-10.788-1.472 4.168 0 8.091 0 12.014.245.736.245 1.716 0 2.697-2.207-2.697-1.962-6.62-3.924-9.072a5.933 5.933 0 0 1-.686-.831c-3.462 3.056-7.677 4.934-11.328 7.941-2.951 2.271-7.793 1.39-11.609 3.777.581 1.142 1.202 2.283 1.91 3.348 1.311-.209 2.61-.393 3.91-.556-.496-1.009-1.034-1.989-1.321-3.136.98.49 2.207.98 2.697 1.961 0-.735 0-1.226-.245-1.961 1.054.843 2.017 1.776 2.986 2.684.877-.083 1.76-.161 2.652-.232 1.962 0 3.678 1.471 6.13.981 5.604-1.218 11.208-2.435 16.813-2.21.796-.322 1.661-.322 2.312.003.245 0 .736 1.226.981 1.226 2.697-.245 3.432 2.452 5.394 3.188 1.472.735 1.472-2.452 2.207-1.716 1.961 1.716 2.697 4.413 4.658 6.13-1.716-.736-2.942-2.207-3.923-3.678-.735.491-.735 1.716-.98 1.716-3.433-1.226-6.13-4.168-9.808-5.149.245 2.452 2.697 3.433 4.413 4.904-2.206.981-3.923-3.188-6.375-3.678-.245 2.452 0 5.149.491 7.601-1.227-1.961-2.207-4.413-4.414-5.394.345 3.444 2.019 6.404 3.239 9.559a13.847 13.847 0 0 0 4.607-3.43c2.105-2.527 6.744-.713 10.652.004 1.176-.142 2.359.171 2.832.487 1.962 1.961 2.697 4.903 4.413 7.601 1.717 2.451-.49 5.639.981 7.601 1.962 2.696 4.413 4.903 6.375 7.601 0-2.942-1.472-5.64-1.962-8.582a388.549 388.549 0 0 0 4.88 10.816h32.263z"/>
  <path fill="#9FCFEE" d="M838.07 54.663c.303.257.616.504.944.735.001-.703-.67-.733-.944-.735z"/>
  <path fill="#E5E9F0" d="M822.833 51.721c-1.962-2.697-2.697-5.884-5.395-7.846.245 2.207 1.227 3.923 1.472 6.13-1.717-1.472-2.452-3.923-4.658-4.659a4.22 4.22 0 0 0-1.214-.32c-2.853 2.207-5.85 4.24-8.594 6.695-2.511 2.183-4.389 5.045-6.371 7.874h32.765c-2.81-2.484-5.816-4.772-8.005-7.874z"/>
  <path fill="#D8DEE9" d="M829.208 50.495c1.226 1.961 2.941 3.433 2.941 5.885-4.413-2.697-6.619-7.602-10.297-11.524-.981-.735-1.472-2.206-1.962-3.678 1.226.736 2.207 1.472 3.433 2.207 3.678 2.697 6.865 4.658 9.808 8.581.98 1.472 2.942 2.207 4.903 2.697h.036c-3.546-3.004-5.532-7.567-9.599-10.053-3.188-2.206-6.374-4.413-9.071-7.11-.98 1.227-2.451 1.962-3.433 3.188-.919 1.071-1.932 1.856-2.922 2.712 1.926-.726 3.788-1.566 5.263-3.065.119-.128.24-.252.356-.382-.116.13-.237.254-.356.382-1.621 1.748-3.416 3.257-5.271 4.691.4.043.807.146 1.214.32 2.206.736 2.941 3.188 4.658 4.659-.245-2.207-1.227-3.923-1.472-6.13 2.697 1.962 3.433 5.148 5.395 7.846 2.189 3.103 5.195 5.391 8.005 7.874h7.476c-2.883-3.138-6.781-5.614-9.105-9.1zm20.841 1.471c-7.276-3.307-13.771-7.842-19.787-13.001-2.587-1.096-5.371-1.854-8.064-2.723 2.202 1.751 4.576 3.272 7.256 4.69 2.206 1.227 3.188 3.923 5.394 5.64 2.207 1.226 3.923 2.697 6.62 3.188.98 0 1.717.98 2.207 1.716 1.58 2.797 3.222 5.533 5.043 8.119h5.959c-2.24-2.053-4.124-4.438-4.628-7.629z"/>
  <path fill="#D8DEE9" d="M884.742 58.391c-4.292-.992-9.058-.766-13.717-1.748-2.418-.51-5.372-.966-7.752-2.105-2.475-1.185-3.713-3.855-5.92-5.157-4.021-2.372-10.486-2.611-15.004-4.036-3.717-1.172-6.259-3.279-9.563-5.147a24.548 24.548 0 0 0-2.525-1.231c6.016 5.159 12.511 9.694 19.787 13.001.504 3.191 2.388 5.576 4.627 7.629h33.828c-1.269-.43-2.482-.91-3.761-1.206z"/>
  <path fill="#E5E9F0" d="M841.467 49.76c-2.697-.49-4.413-1.962-6.62-3.188-2.206-1.717-3.188-4.413-5.394-5.64-2.68-1.418-5.054-2.939-7.256-4.69a55.036 55.036 0 0 1-2.649-.919c-3.988-1.519-6.268-3.845-9.661-5.791-1.152-.66-2.555-.206-3.68-1.087-1.213-.951-.907-3.021-2.087-3.723-1.842-1.095-6.587-.549-8.844-1.25-3.748-1.163-7.012-1.486-10.941-2.116-3.48-.558-5.231-2.127-8.19-3.594-1.348-.668-3.892-1.136-5.537-2.038.794 2.299 2.183 4.023 4.17 5.348.734.245 1.471.245 2.206.735 1.472 1.226 3.433 1.226 5.149 2.207 1.226.735 1.716 2.207 2.696 2.697 1.472.735 3.433.49 4.414 1.471.98.981.98 3.188 2.451 3.923 4.414 2.697 5.885 6.62 9.072 10.298.735.735 1.471 1.716 2.696 2.206-1.226-.49-2.451-1.226-3.187-2.206-3.924-3.678-8.092-6.865-12.015-10.543 1.962 3.433 3.678 7.11 5.64 10.543-3.678-1.962-3.923-7.355-7.355-8.582 1.716 4.904 2.697 10.053 5.394 14.711-2.942-3.923-5.148-8.091-8.336-12.014-.49-.98-1.961 0-3.188-.49 1.227 2.452 4.168 3.923 4.659 6.13 1.35 5.786 4.066 10.359 6.955 14.912 1.351-1.639 2.821-3.064 4.568-3.879 3.433-1.472 6.129-3.678 9.071-6.13 2.044-1.907 4.769-2.68 7.376-3.663.99-.855 2.003-1.641 2.922-2.712.981-1.226 2.452-1.961 3.433-3.188 2.697 2.697 5.884 4.904 9.071 7.11 4.066 2.485 6.053 7.049 9.599 10.053.273.002.944.032.944.735a13.372 13.372 0 0 1-.944-.735h-.036c-1.961-.49-3.923-1.226-4.903-2.697-2.942-3.923-6.13-5.884-9.808-8.581-1.226-.735-2.207-1.471-3.433-2.207.49 1.472.98 2.942 1.962 3.678 3.678 3.923 5.884 8.827 10.297 11.524 0-2.452-1.716-3.924-2.941-5.885 2.324 3.486 6.222 5.962 9.105 9.1h10.403c-1.821-2.586-3.463-5.322-5.043-8.119-.488-.734-1.225-1.714-2.205-1.714z"/>
  <path fill="#ECEFF4" d="M339.331 27.198c.521.694 1.042 1.388 1.575 2.069-.366-.766-.889-1.497-1.575-2.069z"/>
  <path fill="#D8DEE9" d="M341.538 31.856c0-.785-.212-1.71-.631-2.589a127.97 127.97 0 0 1-1.575-2.069c.686.571 1.209 1.303 1.575 2.069 1.728 2.206 3.59 4.278 6.025 5.776-1.716-2.451-3.188-4.903-5.148-7.11-1.961-2.207-2.207-5.639-4.659-7.846 4.168 2.207 6.62 6.62 10.788 8.827-3.432-4.658-6.375-8.827-11.523-12.014a3.107 3.107 0 0 1-1.529-1.665c-1.013-.138-2.005-.267-2.953-.399.484.818.912 1.592 1.54 2.064 2.697 1.961 1.962 4.168 2.697 6.865.245.981.735 2.452 1.471 3.678.735.491 1.716 1.226 1.471 1.961-.49 3.433-.245 6.621-.736 9.807-.245 1.717-1.961 4.414-2.697 6.865 1.477-.656 2.735-1.641 4.139-2.367.197-1.581.435-3.162 1.01-4.743.735-1.96.735-4.657.735-7.11z"/>
  <path fill="#E5E9F0" d="M371.812 25.553c-1.783.473-3.321.515-5.718-.241-3.004-.948-5.46-2.596-8.458-3.209-3.258-.666-5.179-1.109-8.09-2.86-4.06-2.442-9.659-3.326-14.686-4.007a3.107 3.107 0 0 0 1.529 1.665c5.148 3.187 8.091 7.355 11.523 12.014-4.168-2.207-6.62-6.62-10.788-8.827 2.452 2.207 2.697 5.64 4.659 7.846 1.961 2.207 3.433 4.659 5.148 7.11-2.436-1.498-4.298-3.57-6.025-5.776.419.878.631 1.804.631 2.589 0 2.452 0 5.149-.735 7.11-.576 1.581-.813 3.162-1.01 4.743.695-.36 1.424-.657 2.236-.819 4.903-1.227 8.091-4.659 12.014-7.602.98-.735 2.451-.245 3.432-.98.245-.245.491-.735.491-.98 1.226 0 2.452.245 3.432-.49 3.188-2.942 6.13-5.395 10.053-7.11.128-.044.247-.106.362-.176z"/>
  <path fill="#FFF" d="M338.81 32.331c.055-.959.134-1.932.276-2.926.245-.735-.736-1.471-1.471-1.961-.735-1.226-1.226-2.697-1.471-3.678-.643-2.356-.163-4.339-1.831-6.11-3.923 4.919-7.468 10.039-11.899 14.938-2.452 3.188-3.923 6.865-6.375 9.807 5.149-5.884 10.543-11.033 15.202-18.143.735-.981 1.716-1.716 2.942-2.452-.735 2.697-2.207 4.904-3.923 6.865 1.716-1.226 3.188-2.942 4.904-4.168-4.413 6.865-9.072 13.485-14.956 19.125 5.884-4.168 10.298-10.053 15.937-14.711-.981 5.149-5.394 8.827-8.827 12.75 3.983-2.932 7.742-6.141 11.492-9.336z"/>
  <path fill="#ECEFF4" d="M331.976 55.149c1.716-.245 3.678 0 5.149-.98-2.601-1.201-5.69-.933-8.206-1.991-2.468 1.168-4.758 2.705-7.097 4.18 3.385-.926 6.769-.757 10.154-1.209z"/>
  <path fill="#ECEFF4" d="M338.35 39.212c.349-2.264.327-4.528.46-6.881-3.75 3.195-7.509 6.404-11.493 9.333 3.433-3.923 7.846-7.601 8.827-12.75-5.639 4.659-10.053 10.543-15.937 14.711 5.884-5.64 10.543-12.26 14.956-19.125-1.716 1.226-3.188 2.942-4.904 4.168 1.716-1.961 3.188-4.168 3.923-6.865-1.226.736-2.207 1.471-2.942 2.452-4.659 7.11-10.053 12.259-15.202 18.143 2.452-2.941 3.923-6.619 6.375-9.807 4.432-4.898 7.976-10.018 11.899-14.938a6.123 6.123 0 0 0-.866-.754c-.628-.472-1.056-1.246-1.54-2.064l-.32-.044c-2.821 3.763-5.851 7.555-8.418 12.072-2.918 5.132-7.025 7.366-10.489 11.688-3.457 4.312-7.984 5.007-12.432 8.08-2.445 1.688-3.123 3.383-4.485 5.974-1.632 3.103-3.491 4.374-5.793 6.621l-.49.367h22.635a244.588 244.588 0 0 1 6.169-2.135c1.286-1.415 2.528-2.838 3.886-4.027 1.348-1.123 3.519-1.628 5.571-1.894a5.677 5.677 0 0 1-.422-.313c1.471-.735 3.433-.981 4.413-1.227a14.188 14.188 0 0 1 1.692-.069c.763-1.255 1.445-2.613 2.284-3.878-.018.008-.035.017-.053.024.735-2.448 2.451-5.145 2.696-6.862z"/>
  <path fill="#FFF" d="M340.067 48.039c-1.717-.735-2.207 1.471-3.678 1.226.756-1.513 1.331-3.135 1.947-4.712-.853.529-1.698 1.079-2.63 1.5-.839 1.265-1.521 2.623-2.284 3.878 1.499.022 3.033.243 4.561.477.662-.824 1.193-1.775 2.084-2.369z"/>
  <path fill="#ECEFF4" d="M356.984 42.154c.735-.49 1.226-1.471 1.962-1.716 2.697-1.717 6.375-1.962 8.335-4.658.529-.661.345-1.179-.051-1.669-5.042 2.129-9.443 5.246-13.747 8.522 1.182.072 2.393.155 3.501-.479zm-11.033 8.582c2.437-.665 6.273-3.132 5.906-6.856-3.165 2.438-6.315 4.903-9.669 7.065 1.293.088 2.555.06 3.763-.209z"/>
  <path fill="#FFF" d="M429.08 11.8c-1.454 1.255-2.234 3.025-3.935 3.875-4.659 2.452-7.356 7.601-12.014 10.053 2.697-.736 4.904-2.697 7.11-4.168 3.584-2.724 6.666-5.783 10.029-8.442a9.847 9.847 0 0 1-.957-.63c-.231-.155-.269-.407-.233-.688zm-1.246-2.476c-.665-.602-1.225-1.285-1.603-2.039-3.846 1.673-6.779 4.968-9.913 7.654-1.716 1.716-4.659 1.961-6.865 3.432-1.226.736-2.207 1.716-3.188 2.942-2.452 2.452-6.375.981-8.582 3.433-1.961 1.961-4.168 2.942-6.129 4.658 2.941-.49 6.129-.245 8.582-1.716 3.187-2.207 7.11-2.207 10.297-4.168-4.904.245-9.072 2.452-13.485 3.923.491-.98 1.471-1.716 2.207-1.961 5.64-1.716 10.053-4.658 15.202-8.091.49-.49 1.471-.735 2.207-.981 1.961-.49 2.697-3.433 4.904-3.923-1.226 1.716-2.942 3.188-3.678 5.149 3.813-2.33 6.53-5.574 10.044-8.312zm-33.94 23.314c1.102.454 2.208.877 3.341 1.089 3.996-2.394 7.858-5.019 11.975-7.264-5.467 1.261-10.212 4.141-15.316 6.175z"/>
  <path fill="#ECEFF4" d="M430.271 13.117c-3.363 2.659-6.444 5.718-10.029 8.442-2.207 1.471-4.414 3.433-7.11 4.168 4.658-2.452 7.355-7.601 12.014-10.053 1.7-.85 2.48-2.62 3.935-3.875.076-.609.492-1.351-.012-1.519-.436-.291-.852-.61-1.234-.957-3.514 2.738-6.231 5.982-10.044 8.312.736-1.961 2.452-3.433 3.678-5.149-2.207.49-2.942 3.433-4.904 3.923-.736.246-1.716.491-2.207.981-5.148 3.433-9.562 6.375-15.202 8.091-.735.246-1.716.981-2.207 1.961 4.414-1.471 8.582-3.678 13.485-3.923-3.188 1.961-7.11 1.961-10.297 4.168-2.453 1.471-5.64 1.226-8.582 1.716 1.961-1.716 4.168-2.697 6.129-4.658 2.207-2.452 6.13-.981 8.582-3.433.981-1.226 1.961-2.207 3.188-2.942 2.207-1.471 5.149-1.716 6.865-3.432 3.134-2.687 6.067-5.981 9.913-7.654a4.724 4.724 0 0 1-.516-1.884c-.247.007-.506.023-.78.052-2.613.267-5.427 1.418-7.804 2.207-6.194 2.054-10.933 6.988-16.754 9.743-2.656 1.257-4.933 1.348-7.806 2.833-2.895 1.496-5.577 3.036-8.825 3.4-3.015.338-5.802-.175-8.908.921-1.167.412-2.127.758-3.027.996a1.8 1.8 0 0 1-.362.174c-3.923 1.716-6.865 4.168-10.053 7.11-.98.735-2.207.49-3.432.49 0 .245-.246.735-.491.98-.981.735-2.452.245-3.432.98-3.923 2.942-7.111 6.375-12.014 7.602-1.393.278-2.549.952-3.692 1.662-.617 1.577-1.191 3.199-1.947 4.712 1.471.245 1.961-1.961 3.678-1.226-.891.594-1.422 1.545-2.083 2.368 1.234.188 2.465.386 3.674.495 4.229-4.122 8.193-8.51 13.611-11.444 0 0 .491-.981.735-.981 2.207-2.206 5.394-2.451 7.601-4.658.729-.547 1.594-.822 2.493-.928l-.042-.053c6.865 0 13.73-.245 20.596.49 1.226 0 1.961-2.452 2.942-2.207 1.456.292 2.875.929 4.3 1.517 5.104-2.034 9.85-4.914 15.315-6.175-4.117 2.245-7.979 4.87-11.975 7.264 1.1.205 2.225.212 3.393-.153 3.187-1.227 6.865 0 10.052-.98 1.961-.736 3.678-3.678 4.904-5.395 2.697-3.187 7.846-3.678 11.033-6.865.491-.246.246-1.471.491-1.471 3.923-1.471 7.846-1.471 11.769-2.942-2.849-1.093-5.891-1.215-8.605-2.801z"/>
  <path fill="#FFF" d="M356.003 38.477c-.245 0-.735.981-.735.981-5.417 2.935-9.381 7.322-13.611 11.444.177.017.354.03.531.043 3.354-2.162 6.504-4.628 9.669-7.065a5.63 5.63 0 0 0-.267-1.235c.607-.086 1.246-.05 1.894-.011 4.303-3.276 8.704-6.394 13.747-8.522-.326-.404-.795-.79-1.133-1.221-.899.105-1.764.381-2.493.928-2.208 2.206-5.395 2.452-7.602 4.658zM318.282 57.46c.882-.289 1.767-.571 2.66-.84.293-.098.587-.183.88-.263 2.339-1.475 4.628-3.012 7.097-4.18a6.712 6.712 0 0 1-1.18-.639c-2.052.266-4.223.771-5.571 1.894-1.358 1.19-2.6 2.613-3.886 4.028zm195.374-19.719c-.734-.49-1.471-1.226-2.451-1.471.735-.736 1.961-.981 2.207-1.717.606-.953 1.215-1.813 1.886-2.571-.707-.204-1.419-.406-2.132-.616.736-.49 1.472-1.471 1.472-1.961 0-2.174 1.115-3.552 2.19-5.033l-.027-.008c-.432-.111-.918-.127-1.438-.08-1.626 2.401-4.163 4.497-5.63 6.592-2.452 3.433-6.864 4.658-10.787 6.13-2.943.735-6.375.245-9.072 2.452-2.942 2.206-6.865 1.961-10.543 3.187-1.962.736-4.659.246-7.11 1.472 3.433.735 6.865.49 10.053-1.226 2.697-1.472 5.884-1.227 8.826-1.962.735-.245 1.716-.735 2.452-.98 3.433-1.472 6.865-1.472 10.298-3.678 2.696-1.472 3.432.49 5.148 2.451.49.245 1.227 0 1.717 0-1.717 2.942-4.659 4.169-7.355 5.885-2.452 1.471-5.64-1.226-7.356 1.226-2.206 2.942-4.658 3.923-7.846 5.149 3.433-.49 7.111-3.433 9.808-3.923 6.374-1.227 11.767-4.414 15.69-9.318zm11.033-1.716a12.48 12.48 0 0 0-.667-.479c-2.032 1.993-5.06 2.668-7.179 4.402-.49.245-.98 1.471-1.471 1.471-1.471.49-3.188.49-4.414 1.472-3.187 2.451-5.639 5.148-10.052 5.884-1.717.245-3.188 1.717-4.168 3.433-.736 1.471-2.942 1.962-4.659 2.207 1.962.735 3.679-.245 5.395-.981.49-.49.98-1.226 1.716-1.716 1.717-.98 3.923-.98 5.64-1.962 5.395-3.187 10.053-6.129 15.937-8.826 1.227-.735 2.452-2.207 3.678-2.942a10.93 10.93 0 0 1 1.136-.691 6.716 6.716 0 0 1-.892-1.272z"/>
  <path fill="#ECEFF4" d="M526.651 37.986c-.337 0-.726-.31-1.071-.691-.388.207-.768.434-1.136.691-1.226.735-2.451 2.207-3.678 2.942-5.884 2.697-10.542 5.64-15.937 8.826-1.717.981-3.923.981-5.64 1.962-.735.49-1.226 1.226-1.716 1.716-1.716.736-3.433 1.717-5.395.981 1.717-.245 3.923-.736 4.659-2.207.98-1.716 2.451-3.188 4.168-3.433 4.413-.735 6.865-3.433 10.052-5.884 1.227-.981 2.943-.981 4.414-1.472.49 0 .98-1.226 1.471-1.471 2.119-1.734 5.146-2.409 7.179-4.402-2.523-1.719-5.574-2.656-8.725-3.563-.671.759-1.279 1.618-1.886 2.571-.246.735-1.472.98-2.207 1.717.98.245 1.717.98 2.451 1.471-3.923 4.903-9.316 8.091-15.691 9.317-2.696.49-6.375 3.433-9.808 3.923 3.188-1.227 5.64-2.207 7.846-5.149 1.717-2.451 4.904.245 7.356-1.226 2.696-1.716 5.639-2.942 7.355-5.885-.49 0-1.227.245-1.717 0-1.717-1.961-2.452-3.923-5.148-2.451-3.433 2.206-6.865 2.206-10.298 3.678-.736.245-1.717.735-2.452.98-2.942.735-6.129.49-8.826 1.962-3.188 1.716-6.62 1.961-10.053 1.226 2.451-1.226 5.148-.735 7.11-1.472 3.678-1.226 7.601-.98 10.543-3.187 2.697-2.207 6.129-1.717 9.072-2.452 3.923-1.472 8.335-2.697 10.787-6.13 1.467-2.095 4.004-4.191 5.63-6.592-2.56.235-5.98 2.056-8.336 2.213-5.321.354-10.849.348-16.305.226-2.119.455-4.635.458-6.488 1.457-.735.245-.735 1.716-1.226 2.207-4.413 3.433-9.563 3.433-13.976 7.355-2.452 2.452-6.865 1.962-10.298 3.433-1.961.98-2.942 3.433-5.148 4.168 5.148 1.227 10.298-2.451 15.446-1.226.735.245.98 2.452 2.207 2.696 5.394 1.227 9.563 4.169 13.976 6.865 3.206 2.139 6.701 3.527 10.26 4.783 8.25-3.754 16.354-7.681 24.311-13.364 4.234-2.887 9.073-4.713 14.041-5.841-2.373-.417-4.761-.842-7.173-1.268z"/>
  <path fill="#FFF" d="M535.418 39.535c-.53-.094-1.059-.185-1.591-.279-4.968 1.128-9.807 2.954-14.041 5.841-7.957 5.684-16.061 9.61-24.311 13.364 1.092.385 2.188.757 3.285 1.134h7.636c2.151-1.862 4.949-3.091 7.75-3.465 2.697-.245 3.188-3.678 5.885-4.658-6.619 1.471-12.504 4.413-18.634 6.865 11.111-6.548 22.062-13.898 34.021-18.802zm-14.38 18.379a2.669 2.669 0 0 0-.762.423c.277-.123.53-.265.762-.423zm18.117-14.288c-.98 1.226-1.961 2.451-2.696 3.923 2.608-2.06 5.064-4.351 7.624-6.526-.865-.145-1.73-.29-2.598-.438-3.808 1.429-7.653 2.855-10.176 5.738-2.451 2.696-6.375 3.677-7.355 6.864-.644 1.716-1.287 3.62-2.916 4.727 1.12-.413 2.465-.21 3.651-.804 2.727-1.442 5.558-1.943 8.425-2.665-.825-.463-1.788-.683-2.755-1.003-1.878.443-3.786.86-5.425 1.952 2.698-5.884 9.563-7.845 14.221-11.768z"/>
  <path fill="#ECEFF4" d="M551.17 42.154a471.42 471.42 0 0 1-7.087-1.132c-2.56 2.176-5.016 4.467-7.624 6.526.735-1.472 1.716-2.697 2.696-3.923-4.658 3.923-11.523 5.884-14.221 11.769 1.639-1.092 3.547-1.509 5.425-1.952l-.03-.01c3.433-2.206 7.11-2.206 11.278-3.188 2.452-.49 4.414-1.961 2.942-4.658 2.207-.98 5.15-.98 6.621-3.432z"/>
  <path fill="#ECEFF4" d="M534.252 55.395a3.82 3.82 0 0 0-1.138-.949c-2.867.722-5.698 1.223-8.425 2.665-1.187.594-2.531.391-3.651.804-.232.158-.485.3-.762.423a2.68 2.68 0 0 1 .762-.423c1.629-1.106 2.272-3.011 2.916-4.727.98-3.188 4.904-4.168 7.355-6.864 2.522-2.883 6.368-4.31 10.176-5.738a1124.59 1124.59 0 0 1-6.067-1.05c-11.959 4.904-22.91 12.254-34.021 18.802 6.13-2.452 12.015-5.395 18.634-6.865-2.697.98-3.188 4.413-5.885 4.658-2.801.374-5.599 1.603-7.75 3.465h32.172a23.449 23.449 0 0 1-4.316-4.201z"/>
  <path fill="#FFF" d="M400.627 58.582c4.168-1.717 8.09-3.433 11.033-7.355.736-.981 2.207-.981 3.188-1.717-1.471 1.472-2.207 3.433-3.678 4.904 2.437-1.393 4.628-2.786 7.009-4.267-.871-.844-1.718-1.721-2.596-2.599-.311-.311-.817-.521-1.333-.573-3.687 4.912-8.168 8.552-13.623 11.607z"/>
  <path fill="#ECEFF4" d="M423.429 54.169c-2.046-1.103-3.688-2.508-5.25-4.021-2.381 1.48-4.572 2.874-7.009 4.267 1.471-1.472 2.207-3.433 3.678-4.904-.98.735-2.452.735-3.188 1.717-2.942 3.923-6.865 5.639-11.033 7.355 5.455-3.055 9.936-6.695 13.623-11.606-.3-.03-.603-.007-.874.083-2.207 1.471-4.659 2.451-7.11 3.678-1.961.98-3.433 3.188-5.639 4.413-2.266 1.544-4.442 3.002-6.589 4.445h33.6c-.308-.521-.592-1.063-.88-1.599-.83-1.536-1.707-3.018-3.329-3.828zm-22.311-11.77c.741-.864.86-1.978.983-3.151-.624.539-1.293.967-1.963 1.19-4.168 1.471-7.111 4.658-10.789 7.355-1.961 1.471-4.168 2.451-6.375 3.433-2.943 1.471-6.13 2.451-8.582 4.658.245-2.207 2.452-3.433 3.678-5.148.49-.491.98-1.227.735-1.962-4.766 3.432-8.794 7.307-13.461 10.82h22.959c4.283-3.737 8.557-7.453 11.098-12.536-4.168 3.433-7.355 8.091-12.75 10.052 5.64-4.168 9.808-9.316 14.467-14.711z"/>
  <path fill="#FFF" d="M402.101 39.248c-.123 1.174-.242 2.287-.983 3.151-4.659 5.395-8.827 10.543-14.466 14.711 5.394-1.961 8.581-6.619 12.75-10.052-2.542 5.083-6.815 8.799-11.098 12.536h2.118c3.761-3.11 8.135-5.731 9.96-9.84 1.471-3.923 3.187-8.336 3.678-12.749-.534.802-1.214 1.6-1.959 2.243z"/>
  <path fill="#E5E9F0" d="M336.559 54.479c-1.386.617-3.079.456-4.583.671-3.678.49-7.355.245-11.033 1.471-2.996.898-5.922 1.935-8.829 2.975h28.892c-.879-1.293-1.739-2.623-2.655-3.955-.31-.465-1.01-.832-1.792-1.162z"/>
  <path fill="#D8DEE9" d="M348.648 58.337c-2.23-2.028-3.457-4.893-5.062-7.35-3.826.042-8.008-1.392-11.856-.987-.98.245-2.942.491-4.413 1.227 2.697 2.206 6.62 1.471 9.807 2.942-.182.12-.371.223-.566.31.782.33 1.482.697 1.792 1.161.916 1.332 1.775 2.662 2.655 3.955h11.048c-1.458-2.34-2.956-4.673-4.386-7.143-.735 2.207.736 3.923.981 5.885z"/>
  <path fill="#9FCFEE" d="M372.52 40.8c.052.125.102.25.156.374a5.476 5.476 0 0 0-.156-.374z"/>
  <path fill="#D8DEE9" d="M378.87 49.15c.012.604-.393 1.18-.799 1.586-1.226 1.716-3.433 2.941-3.678 5.148 2.119-1.907 4.789-2.899 7.374-4.084-.793-1.071-1.651-2.073-2.897-2.65z"/>
  <path fill="#E5E9F0" d="M387.199 33.164a1.052 1.052 0 0 1-.547.164c-5.569-.597-11.138-.548-16.708-.509.885 2.613 1.478 5.346 2.576 7.98-.826-1.809-2.588-3.43-3.276-5.266 0 3.188 1.471 5.64 2.452 8.582.491 1.961.736 3.923.736 5.884-1.804-4.508-3.196-9.224-5.695-13.575-2.045 2.104-5.326 2.445-7.79 4.014-.736.245-1.227 1.226-1.962 1.716-1.47.841-3.121.422-4.643.439 2.3 4.463 3.869 9.291 6.114 13.781-1.716-3.433-4.168-6.375-6.375-9.563.491 3.433 3.433 6.13 3.678 9.563-1.561-2.927-2.814-6.317-4.743-9.188-1.212 1.871-3.447 3.107-5.065 3.549a11.44 11.44 0 0 1-2.364.251c1.605 2.457 2.831 5.321 5.062 7.35-.246-1.962-1.717-3.678-.981-5.885 1.43 2.47 2.927 4.803 4.386 7.143h13.291c4.667-3.514 8.695-7.389 13.461-10.82.042.126.061.252.064.376 1.246.576 2.104 1.579 2.896 2.65.406-.186.809-.375 1.208-.574 2.206-.981 4.413-1.962 6.375-3.433.53-.389 1.043-.788 1.548-1.189-1.233-4.194-2.237-8.423-3.509-12.786a4.729 4.729 0 0 0-.189-.654z"/>
  <path fill="#D8DEE9" d="M389.247 31.146c-.672.24-1.263 1.553-2.048 2.019.077.212.143.428.188.654 1.272 4.363 2.276 8.592 3.509 12.786 1.474-1.174 2.869-2.378 4.329-3.448-.692-2.336-1.69-4.555-2.689-6.886-.889-1.779-2.42-3.301-3.289-5.125z"/>
  <path fill="#E5E9F0" d="M429.313 52.452c.192-.023.387-.045.583-.065-.113-.059-.226-.117-.337-.18-6.375-3.433-12.995-6.13-19.369-8.826-2.604-1.184-4.521-3.509-6.194-5.874-.56 4.245-2.198 8.475-3.614 12.248-1.826 4.108-6.2 6.729-9.96 9.84h3.617c2.147-1.443 4.324-2.901 6.589-4.445 2.206-1.226 3.677-3.433 5.639-4.413 2.452-1.227 4.904-2.207 7.11-3.678.736-.246 1.717 0 2.207.49 2.452 2.451 4.658 4.903 7.846 6.62 2.187 1.093 3.02 3.405 4.209 5.426h1.751c-1.427-3.107-3.37-6.022-5.96-8.613 4.323 1.902 7.915 5.146 11.204 8.613h7.514c-3.83-1.422-7.705-2.749-10.872-5.917-.246-.49-1.227-.736-1.963-1.226z"/>
  <path fill="#D8DEE9" d="M423.429 50.981c2.591 2.591 4.534 5.506 5.96 8.613h5.244c-3.289-3.466-6.881-6.71-11.204-8.613zm-6.259-25.213a8.495 8.495 0 0 0-1.586 1.43c-1.037 1.452-2.425 3.775-4.015 4.903 1.441 1.205 2.925 2.367 4.015 3.924 3.188 4.658 7.355 7.11 10.542 11.523-1.716-5.395-6.129-8.582-8.827-13.24-.735-1.226-.98-2.452-1.716-3.433 6.129 3.678 9.316 10.543 13.485 16.428.245.735.735 1.471 1.716 1.716-1.226-6.375-5.639-11.033-9.072-16.427-1.638-2.384-3.006-4.676-4.542-6.824z"/>
  <path fill="#E5E9F0" d="M418.721 24.826c-.542.289-1.065.597-1.551.942 1.536 2.148 2.904 4.44 4.542 6.825 3.433 5.394 7.846 10.052 9.072 16.427-.98-.245-1.471-.98-1.716-1.716-4.168-5.885-7.356-12.75-13.485-16.428.735.98.98 2.207 1.716 3.433 2.697 4.658 7.11 7.846 8.827 13.24-3.188-4.413-7.355-6.865-10.542-11.523-1.09-1.557-2.574-2.719-4.015-3.924-.29.206-.586.377-.889.491-3.188.98-6.865-.246-10.052.98-3.923 1.226-7.356-1.717-11.034-2.452a.587.587 0 0 0-.347.024c.869 1.824 2.4 3.347 3.289 5.125.999 2.331 1.997 4.55 2.689 6.886 1.513-1.11 3.096-2.077 4.912-2.718 1.371-.457 2.741-1.767 3.715-3.133l-.038-.055.038.055c.071-.101.141-.2.207-.3-.019.167-.042.334-.064.501 1.673 2.365 3.59 4.69 6.194 5.874 6.375 2.696 12.995 5.394 19.369 8.826.112.063.225.121.337.18 1.714-.179 3.553-.268 5.059-1.031-2.209-3.885-4.537-7.769-6.867-11.652-2.984-5.33-5.785-10.288-9.366-14.877z"/>
  <path fill="#D8DEE9" d="M420.978 24.747a17.883 17.883 0 0 0-.634-.715c-.553.256-1.098.516-1.623.795 3.581 4.588 6.382 9.547 9.367 14.877 2.331 3.884 4.658 7.768 6.867 11.652.082-.041.164-.084.243-.129.245-.245 1.226-.735 1.471-.981.153-.076.308-.146.462-.213-3.496-7.277-8.899-13.056-13.457-19.892-1.226-1.717-1.471-3.678-2.696-5.394zm41.68 12.014c-2.206-.98-3.187-3.678-4.903-5.149-2.697-1.961-6.13-3.187-7.601-6.375-1.951-4.39-6.327-6.355-7.821-11.202a30.718 30.718 0 0 0-1.218-.804c-2.676-1.667-5.714-1.721-8.457-4.021-2.692-2.257-3.703-3.906-6.943-3.81.107 2.021 1.569 3.69 3.353 4.879.735.245-.49 1.716.245 2.207 2.942 2.207 6.375 2.207 9.562 3.433-.271.102-.542.195-.812.283.384.282.891.443 1.058.943 1.961 4.413 3.432 8.827 7.355 12.014-.98-3.923-2.942-7.11-4.904-10.543 1.961 1.961 3.677 3.678 5.394 5.885 1.471 2.207 2.697 3.923 4.413 5.884.49.735.49 1.716.981 2.452 1.471 1.961 2.696 3.923 4.903 5.394-.981-2.206-3.188-4.168-2.942-6.865 2.699 2.207 4.905 4.414 8.337 5.395zm-.735-6.62c1.471 1.961 3.433 3.678 5.64 4.658-3.185-4.246-5.734-8.619-8.841-12.845a139.435 139.435 0 0 1-7.071-2.623c3.287 3.605 7.1 6.647 10.272 10.81z"/>
  <path fill="#D8DEE9" d="M480.803 52.697c-2.282-1.426-4.232-3.102-6.14-4.832a25.061 25.061 0 0 0-3.423-1.053c-1.227-.244-1.472-2.451-2.207-2.696-5.148-1.226-10.298 2.452-15.446 1.226 2.206-.735 3.188-3.188 5.148-4.168 3.433-1.471 7.846-.98 10.298-3.433 4.413-3.923 9.563-3.923 13.976-7.355.49-.49.49-1.961 1.226-2.207 1.854-.998 4.369-1.002 6.488-1.457a708.629 708.629 0 0 1-7.682-.226c-8.985-.299-16.573-1.924-24.319-4.543 3.106 4.226 5.656 8.599 8.841 12.845-2.207-.98-4.169-2.697-5.64-4.658-3.172-4.163-6.984-7.205-10.272-10.809-.834-.333-1.675-.675-2.525-1.027-2.951-1.224-4.541-2.709-6.792-4.269 1.494 4.847 5.87 6.812 7.821 11.202 1.471 3.188 4.903 4.413 7.601 6.375 1.717 1.472 2.697 4.169 4.903 5.149-3.433-.98-5.639-3.188-8.336-5.395-.245 2.697 1.961 4.659 2.942 6.865-2.207-1.471-3.433-3.433-4.903-5.394-.491-.736-.491-1.717-.981-2.452-1.716-1.961-2.942-3.678-4.413-5.884-1.717-2.207-3.433-3.923-5.394-5.885 1.961 3.433 3.923 6.62 4.904 10.543-3.923-3.187-5.395-7.601-7.355-12.014-.167-.5-.673-.661-1.058-.943-3.652 1.194-7.304 1.29-10.957 2.659-.245 0 0 1.226-.491 1.471-1.745 1.745-4.076 2.684-6.272 3.698.217.234.43.47.634.715 1.226 1.716 1.471 3.678 2.697 5.394 4.558 6.836 9.96 12.614 13.457 19.892 2.812-1.213 5.808-.896 8.365-3.22.374-.28.819-.452 1.281-.52.691-.576 1.544-.919 2.396-.706 3.432 1.472 7.109.736 10.298 1.962 6.129 1.961 11.522 4.658 16.917 8.826 1.227.735 2.697.98 4.168 1.472-2.941-.245-6.129-.736-8.336-2.697-4.413-3.678-9.808-3.678-14.466-5.885 4.144 3.553 8.289 7.192 12.757 10.33h17.159c-2.095-2.492-4.076-5.1-6.869-6.896z"/>
  <path fill="#D8DEE9" d="M485.216 53.678c-3.435-2.099-6.723-4.342-10.553-5.813 1.907 1.73 3.857 3.406 6.14 4.832 2.793 1.796 4.774 4.403 6.868 6.897h11.09c-4.675-1.606-9.356-3.122-13.545-5.916zm-25.744-6.129c-3.188-1.226-6.866-.49-10.298-1.962-.853-.213-1.705.13-2.396.706.75-.107 1.544.065 2.151.52 1.226.491 2.206 1.962 3.433 1.962 3.677.49 7.11 2.697 9.316 5.885 1.338 2.175 3.59 3.664 5.976 4.936h2.858c-4.468-3.138-8.613-6.777-12.757-10.33 4.658 2.207 10.053 2.207 14.466 5.885 2.207 1.961 5.395 2.452 8.336 2.697-1.471-.491-2.941-.736-4.168-1.472-5.395-4.169-10.788-6.866-16.917-8.827zm-87.777-3.433c-.98-2.942-2.452-5.395-2.452-8.582.688 1.836 2.45 3.457 3.276 5.266-1.098-2.635-1.69-5.367-2.576-7.98-1.296.01-2.592.019-3.888.019.735.98 2.207 1.716 1.226 2.942a6.004 6.004 0 0 1-.545.645c2.499 4.352 3.891 9.067 5.695 13.575a24.15 24.15 0 0 0-.736-5.885zm-19.614 2.697c2.207 3.188 4.659 6.13 6.375 9.563-2.245-4.49-3.813-9.318-6.114-13.781a5.65 5.65 0 0 0-.751.051c.589 1.766.234 3.295-.574 4.543 1.928 2.87 3.182 6.261 4.743 9.188-.247-3.435-3.189-6.132-3.679-9.564z"/>
  <path fill="#FFF" d="M431.275 53.678c.298.299.604.575.914.842 5.177-2.87 10.316-5.192 15.185-8.252-.666-.035-1.345.145-1.878.545-2.697 2.452-5.885 1.962-8.827 3.433-.245.246-1.226.736-1.471.981-1.716.98-3.923.98-5.884 1.226.735.489 1.716.735 1.961 1.225zm2.523 2.071a21.566 21.566 0 0 0 2.518 1.465c3.546-2.527 7.19-4.901 10.65-7.459-4.626 1.543-8.661 4.073-13.168 5.994z"/>
  <path fill="#ECEFF4" d="M467.653 59.595c-2.386-1.271-4.638-2.761-5.976-4.936-2.206-3.188-5.64-5.395-9.316-5.885-1.227 0-2.207-1.471-3.433-1.962a2.844 2.844 0 0 0-1.555-.545c-4.869 3.06-10.008 5.382-15.185 8.252.521.45 1.059.855 1.609 1.229 4.506-1.921 8.542-4.451 13.168-5.994-3.46 2.558-7.104 4.932-10.65 7.459 1.888.943 3.865 1.65 5.831 2.381h25.507z"/>
  <path fill="#E5E9F0" d="M564.9 39.703c-.245-.491 0-1.717 0-1.717-2.697-.735-5.149-2.206-4.413-4.168.511-1.703 2.203-2.815 3.52-4.321-1.492.522-3.063.789-4.842 1.045-7.271 1.048-13.737 5.518-21.328 4.432-3.044-.436-5.17-2.522-7.715-3.338-3.094-.99-5.02-.587-7.922-2.595 1.983 2.608 4.439 4.854 7.884 6.002.98.245 1.226 1.962 2.207 1.962 2.312.33 3.846 1.662 5.5 2.945 4.485.781 8.933 1.53 13.379 2.203a5.727 5.727 0 0 1-.188.288c.49-.201.992-.324 1.414-.043 3.815 2.968 7.448 5.568 11.53 8.119.623-.998 1.011-2.026 2.2-3.215.735-.491-1.226-.98-.735-1.472.49-.735 1.471-.98 1.716-1.716.735-1.715-1.226-3.185-2.207-4.411zm-6.62 12.504c-3.188-2.697-6.375-5.395-10.298-6.62 1.717 2.207 3.678 4.168 5.394 6.375-2.941-.49-4.413-2.697-6.864-3.923.735 1.961 2.941 2.697 3.678 4.658-1.962-.245-2.697-2.697-4.904-2.452 1.346 2.692 3.597 4.781 5.806 6.858 2.459-1.341 6.043-.384 7.435-2.935.25-.501.645-.873 1.104-1.167a7.373 7.373 0 0 1-1.351-.794z"/>
  <path fill="#D8DEE9" d="M552.396 42.399c-.422-.281-.924-.158-1.414.043-1.523 2.164-4.315 2.204-6.432 3.145 1.472 2.697-.49 4.168-2.942 4.658-.178.042-.354.08-.529.119.097.12.192.243.284.372 2.14 3.209 4.466 5.672 6.653 8.528.87-.634 1.752-1.271 2.664-1.909.133-.093.271-.176.411-.252-2.209-2.077-4.46-4.166-5.806-6.858 2.207-.245 2.942 2.207 4.904 2.452-.736-1.961-2.942-2.697-3.678-4.658 2.451 1.226 3.923 3.433 6.864 3.923-1.716-2.207-3.677-4.168-5.394-6.375 3.923 1.226 7.11 3.923 10.298 6.62.412.31.869.572 1.35.795 1.344-.858 3.251-1.045 3.799-1.775.188-.235.349-.471.497-.708-4.081-2.551-7.714-5.152-11.529-8.12z"/>
  <path fill="#E5E9F0" d="M541.078 50.364c-3.951.864-7.463.956-10.749 3.068 1.471.491 2.942.736 3.923 1.962a23.41 23.41 0 0 0 4.316 4.2h8.992l.455-.33c-2.188-2.856-4.514-5.319-6.653-8.528a7.139 7.139 0 0 0-.284-.372z"/>
  <path fill="#D8DEE9" d="M530.084 35.044c-3.444-1.147-5.9-3.394-7.884-6.002l-.104-.072c-1.371-.968-3.728-4.174-5.269-4.598-1.075 1.48-2.19 2.858-2.19 5.033 0 .491-.735 1.471-1.472 1.961 4.168 1.227 8.337 2.207 11.523 4.659.245.49 1.227 1.961 1.962 1.961 3.756.663 7.46 1.324 11.14 1.965-1.654-1.283-3.188-2.615-5.5-2.945-.98 0-1.226-1.717-2.206-1.962z"/>
  <path fill="#FFF" d="M574.707 34.063c-1.226 2.942-3.923 6.375-3.188 9.563 1.227-3.188 3.433-5.885 4.414-9.072-.981 4.168-1.472 8.091-2.697 12.015-.49.98-.49 1.961-.49 2.941 2.206-2.941 3.432-6.374 4.413-9.807.783-2.35 1.167-4.798 1.788-7.155-1.827-1.183-3.306-2.647-4.235-4.376-.035 1.96.563 3.999-.005 5.891zm8.803 1.483c-1.66 3.601-3.722 7.252-4.145 11.267 2.301-3.449 3.703-7.348 5.494-10.994-.435-.092-.894-.173-1.349-.273zM585.985 50c.491-3.677 0-7.109 1.227-10.542-2.098 4.195-4.553 8.212-6.754 12.355.597.021 1.19.022 1.782.012.86-2.243 1.659-4.517 2.52-6.729.735 1.472.49 3.433 1.225 4.904zm8.995-10.492a61.045 61.045 0 0 1-2.356-.478c-.999 2.758-2.103 5.516-3.206 8.273 1.719-2.656 3.637-5.212 5.562-7.795z"/>
  <path fill="#ECEFF4" d="M612.221 45.342c-3.678-1.471-7.355-2.206-10.788-3.923-2.051-1.079-4.243-1.493-6.452-1.911-1.926 2.583-3.844 5.14-5.563 7.796 1.104-2.758 2.207-5.516 3.206-8.273-2.022-.464-4.022-1.13-5.903-2.515-.481-.361-1.141-.545-1.861-.697-1.791 3.646-3.193 7.545-5.494 10.994.423-4.015 2.484-7.666 4.145-11.267a9.207 9.207 0 0 1-.956-.257c-.245-.245-.491-1.226-.735-1.226a19.097 19.097 0 0 1-2.871-1.516c-.621 2.357-1.005 4.806-1.788 7.155-.981 3.433-2.207 6.865-4.413 9.807 0-.98 0-1.961.49-2.941 1.226-3.924 1.716-7.847 2.697-12.015-.981 3.188-3.188 5.885-4.414 9.072-.735-3.188 1.962-6.62 3.188-9.563.568-1.893-.03-3.932.005-5.892a8.906 8.906 0 0 1-1.078-4.165c-2.685.511-3.921 1.939-6.101 3.593a12.555 12.555 0 0 1-3.526 1.897c-1.316 1.506-3.009 2.618-3.52 4.321-.736 1.962 1.716 3.433 4.413 4.168 0 0-.245 1.226 0 1.717.98 1.226 2.941 2.696 2.206 4.413-.245.735-1.226.98-1.716 1.716-.49.491 1.471.98.735 1.472-1.471 1.471-1.717 2.696-2.697 3.923-.735.98-3.923.98-4.903 2.942-1.472 2.696-5.395 1.471-7.846 3.187-1.071.75-2.104 1.498-3.119 2.239h3.352c1.755-.633 3.623-1.013 5.651-1.013.98 0 2.452-2.207 3.924-2.452 3.432-.49 6.864-.735 10.297-.98 1.226 0 2.207-1.226 1.962-2.697 2.206 0 4.168-.98 6.129-.735.53.051 1.057.079 1.583.097 2.201-4.144 4.656-8.16 6.754-12.355-1.227 3.433-.735 6.865-1.227 10.542-.735-1.471-.49-3.432-1.226-4.903-.86 2.212-1.659 4.485-2.52 6.729 3.951-.077 7.819-.736 11.837-.354 1.716 0 3.923.49 4.903-.245 4.903-3.923 12.014-.245 16.428-4.168.489-.491-1.963-1.227-3.188-1.717z"/>
  <path fill="#E5E9F0" d="M596.063 51.583c-.671-.047-1.361-.111-1.986-.111-5.149-.49-10.053.735-15.202.245-1.961-.245-3.923.735-6.129.735.245 1.472-.736 2.697-1.962 2.697-3.433.245-6.865.49-10.297.98-1.472.245-2.943 2.452-3.924 2.452-2.028 0-3.896.38-5.651 1.013h52.177c-2.048-3.004-4.232-5.82-7.026-8.011z"/>
  <path fill="#D8DEE9" d="M598.848 51.31c-.642.377-1.688.35-2.784.273 2.794 2.191 4.978 5.007 7.025 8.012h1.052c-1.544-2.934-3.136-5.824-5.293-8.285z"/>
  <path fill="#E5E9F0" d="M625.27 59.595c-2.378-1.691-5.467-2.956-6.92-5.426 2.452 0 4.413 2.206 6.865 2.206-3.678-3.188-7.601-5.639-12.259-6.865 1.472 1.472 1.716 3.678 3.678 4.659-2.72-.777-4.055-3.4-6.077-5.188-3.847.433-8.227-.435-11.576 2.246-.041.03-.088.057-.133.083 2.157 2.462 3.749 5.352 5.293 8.285h8.341c-2.341-2.089-4.452-4.406-6.146-7.143 4.131 2.065 7.657 5.096 11.682 7.143h7.252z"/>
  <path fill="#D8DEE9" d="M606.336 52.452c1.693 2.736 3.805 5.054 6.146 7.143h5.536c-4.025-2.047-7.551-5.077-11.682-7.143zm26.234 7.111c-8.581-8.826-17.408-16.427-29.912-19.124-.98-.245-2.207-1.227-3.188-1.472-8.397-2.27-15.743-5.802-21.457-11.953a36.755 36.755 0 0 1-4.238-3.035c-.048.008-.094.02-.142.029.055 4.642 3.515 8.055 8.185 10.056.244 0 .49.98.735 1.226 1.471.491 3.187.491 4.167 1.227 4.659 3.433 10.054 2.451 14.712 4.903 3.433 1.717 7.11 2.452 10.788 3.923 1.226.49 3.678 1.227 3.188 1.717-1.398 1.242-3.068 1.722-4.852 1.922 2.022 1.788 3.357 4.411 6.077 5.188-1.962-.981-2.206-3.188-3.678-4.659 4.658 1.227 8.581 3.678 12.259 6.865-2.452 0-4.413-2.206-6.865-2.206 1.453 2.47 4.542 3.734 6.92 5.426h7.328c-.008-.012-.018-.023-.027-.033z"/>
  <path fill="#E5E9F0" d="M633.546 51.779c-2.087-2.288-2.798-5.057-5.958-6.525-2.78-1.292-6.569-1.536-9.572-2.219-7.696-1.75-13.557-6.691-20.971-8.907-7.132-2.131-13.168-3.522-19.031-7.114 5.714 6.151 13.06 9.684 21.457 11.953.98.245 2.207 1.227 3.188 1.472 12.504 2.697 21.331 10.298 29.912 19.124l.027.032h13.098c-4.501-1.346-8.967-4.323-12.15-7.816z"/>
  <path fill="#D8DEE9" d="M54.428 30.014c-.49.246 0 2.207-.735 2.452-3.433 1.227-4.168 4.904-6.865 6.865.98-.245 2.207-.245 3.187-.98 2.697-1.716 5.394-3.188 8.336-4.658.49-.245.98-1.227 1.226-1.227 2.942-.98 5.639-2.206 7.846-4.658-1.961.245-3.678 1.961-5.884 1.471.862-1.526 1.853-2.923 2.918-4.251-2.787.267-5.624-.264-8.245.453.071 1.643.146 3.247-1.784 4.533z"/>
  <path fill="#FFF" d="M52.467 30.014c-1.471 1.471-3.188 2.452-4.414 4.414-.98 1.226-3.433 1.471-4.659 2.942-2.942 3.187-6.129 4.903-9.317 7.355 4.659-2.452 9.563-5.149 13.24-8.827-1.226 2.697-2.942 5.149-4.904 7.355 4.329-2.405 8.421-4.341 12.278-7.653a80.513 80.513 0 0 0-4.678 2.75c-.98.735-2.207.735-3.187.98 2.697-1.961 3.432-5.639 6.865-6.865.735-.245.245-2.206.735-2.452 1.93-1.287 1.855-2.89 1.783-4.533-.34.093-.676.204-1.008.343-.109.046-.212.098-.318.147-.71 1.431-1.186 2.989-2.416 4.044zm31.628-7.11c-1.961 3.188-4.413 6.13-5.884 9.562 3.188-2.942 5.639-6.62 9.072-9.316 2.479-2.066 3.57-5 5.757-7.339-.678.271-1.367.557-2.073.849-.628.26-1.255.511-1.882.754-1.617 1.948-3.904 3.318-4.99 5.49z"/>
  <path fill="#ECEFF4" d="M96.354 24.62c1.993-3.542 3.385-6.886 4.539-10.571l-.03-.042c-2.623-.094-5.131.728-7.823 1.803-2.188 2.34-3.279 5.273-5.757 7.339-3.433 2.697-5.884 6.375-9.072 9.316 1.471-3.432 3.923-6.375 5.884-9.562 1.086-2.171 3.373-3.542 4.99-5.491-4.446 1.723-8.881 3.058-13.647 4.669-3.513 1.188-7.303 2.588-10.959 2.943l-.022.002c-1.065 1.328-2.056 2.725-2.918 4.251 2.207.49 3.923-1.226 5.884-1.471-2.207 2.452-4.904 3.678-7.846 4.658-.246 0-.736.981-1.226 1.227-1.259.629-2.471 1.26-3.659 1.908-3.857 3.313-7.949 5.248-12.278 7.653 1.961-2.206 3.678-4.658 4.904-7.355-3.678 3.678-8.582 6.375-13.24 8.827 3.188-2.452 6.375-4.169 9.317-7.355 1.226-1.472 3.678-1.717 4.659-2.942 1.226-1.962 2.942-2.942 4.414-4.414 1.23-1.055 1.706-2.613 2.418-4.043-2.922 1.365-4.745 4.109-7.486 5.592-2.172 1.175-5.33 1.783-7.642 2.638-4.74 1.752-8.965 5.299-13.523 7.832-4.71 2.617-7.321 6.983-11.853 9.738-2.797 1.701-5.229 3.734-8.081 5.34-1.756.989-3.838 1.69-5.796 2.483h7.757l5.221-2.61c1.471-.735 2.452-3.188 4.168-4.168 5.885-3.188 10.298-7.601 14.957-12.26-3.188 6.13-9.563 9.563-14.466 14.222 2.942-.981 5.639-2.207 8.336-3.433-3.433 2.696-7.11 4.658-10.788 7.109-.569.351-1.105.733-1.617 1.14h13.264a64.008 64.008 0 0 0 3.8-4.081c.49-.246 1.226-.246 1.961-.246-.245-.735.735-1.226.98-1.226 3.433-1.226 5.885-5.394 8.091-5.639 4.168-.49 8.827-1.717 12.259-4.659.735-.49.98-2.206 2.452-1.716 1.226.735 2.452 1.471 3.678 1.226 2.942-.735 4.904-2.942 7.846-3.923.491-.245.246-2.451 1.226-2.942.736-.735 2.207-.49 3.188.246.245-.736.735-1.227 1.471-1.472 3.678-.98 7.355-.98 11.033-1.226.735 0 .735-1.227.735-2.207 1.748.456 3.52 1.147 5.322 1.834a88.183 88.183 0 0 0 4.976-6.738c.245-.733-.246-1.468-.001-2.204z"/>
  <path fill="#FFF" d="M26.477 51.346c-2.697 1.226-5.394 2.451-8.336 3.433 4.903-4.659 11.278-8.092 14.466-14.222-4.659 4.659-9.072 9.072-14.957 12.26-1.716.98-2.697 3.433-4.168 4.168l-5.221 2.61h5.811a16.786 16.786 0 0 1 1.617-1.14c3.678-2.451 7.355-4.413 10.788-7.109zm72.084-25.5c1.226-1.716 1.226-3.923 1.961-5.884a33.361 33.361 0 0 0 1.886-4.047 15.928 15.928 0 0 1-1.515-1.866c-1.154 3.685-2.546 7.028-4.539 10.571-.245.736.245 1.471 0 2.207a88.113 88.113 0 0 1-4.976 6.738c1.416.539 2.852 1.074 4.31 1.49 2.727-2.219 4.429-5.31 6.305-8.228-2.452 1.471-3.923 3.923-6.375 5.394.982-2.207 1.717-4.413 2.943-6.375zm8.268-4.554c-.388 2.068-.438 4.212-1.647 6.026a9.877 9.877 0 0 0-2.207 4.903c1.877-3.413 4.11-6.827 6.039-10.323-.763-.106-1.534-.234-2.185-.606zm1.294 8.968c1.312-2.479 3.404-4.35 5.142-6.439a130.43 130.43 0 0 1-1.709-1.162 2.46 2.46 0 0 0-.646-.361c-.686 2.181-1.566 4.252-2.787 6.491-.245.49 0 .98 0 1.471z"/>
  <path fill="#ECEFF4" d="M121.854 28.788c-3.03-1.414-5.891-3.162-8.588-4.967-1.738 2.089-3.83 3.96-5.142 6.439 0-.491-.245-.981 0-1.472 1.221-2.238 2.102-4.31 2.787-6.491-.563-.223-1.224-.306-1.897-.399-1.929 3.496-4.162 6.91-6.039 10.323a9.852 9.852 0 0 1 2.207-4.903c1.209-1.813 1.259-3.958 1.647-6.026-.059-.034-.12-.066-.176-.104-.245-.246.49-1.717-.245-2.207a15.841 15.841 0 0 1-3.999-3.066 33.432 33.432 0 0 1-1.886 4.047c-.735 1.961-.735 4.168-1.961 5.884-1.226 1.961-1.961 4.168-2.942 6.375 2.452-1.471 3.923-3.923 6.375-5.394-1.876 2.918-3.578 6.009-6.305 8.228 2.672.762 5.42 1.12 8.266.354 2.207-.735 7.355-.245 7.11-4.168 4.167.98 7.6.244 10.788-2.453z"/>
  <path fill="#FFF" d="M108.123 48.648c-.49.245-1.226 1.226-1.716 1.471-2.207.981-4.414 1.227-6.13 2.697-1.226 1.226-2.452 2.697-3.923 3.433-2.195 1.02-4.24 2.164-6.223 3.346h4.323c4.766-4.628 10.452-7.733 16.324-10.634-.82-.393-1.679-.606-2.655-.313z"/>
  <path fill="#ECEFF4" d="M129.189 59.595c-3.081-3.451-5.635-7.721-9.787-9.23.735.736 1.471 1.472 1.716 2.697-2.207-.49-4.168-1.716-6.62-2.207-1.329-.295-2.479-1.301-3.72-1.894-5.872 2.9-11.558 6.006-16.324 10.634h3.702c1.003-.556 1.966-1.146 2.611-1.63 2.697-2.941 5.885-4.413 8.827-7.11-2.634 3.099-5.462 5.807-8.055 8.74h27.65z"/>
  <path fill="#FFF" d="M100.768 57.965c-.645.484-1.608 1.074-2.611 1.63h3.383c2.593-2.934 5.421-5.642 8.055-8.74-2.943 2.697-6.13 4.168-8.827 7.11z"/>
  <path fill="#D8DEE9" d="M75.023 48.648c-1.471-2.942-5.149-5.395-8.582-5.64 1.226 1.227 2.452 2.697 3.188 4.168 1.226 2.207 1.226 5.395 3.678 7.11-1.226-2.451-1.961-5.148-2.942-7.601 2.697 1.717 4.413 4.904 5.639 7.846.817 1.797 1.744 3.484 2.923 5.063h5.363c-.356-1.653-.755-3.415-1.911-4.571-2.207-2.452-5.884-3.432-7.356-6.375z"/>
  <path fill="#9FCFEE" d="M80.908 36.635c.311 0 .621.031.928.086-.257-.184-.593-.422-.928-.086z"/>
  <path fill="#E5E9F0" d="M87.677 32.212a26.98 26.98 0 0 0-1.62-.481c0 .98 0 2.207-.735 2.207-3.678.245-7.355.245-11.033 1.226-.736.245-1.226.735-1.471 1.472-.981-.736-2.452-.981-3.188-.246-.98.491-.735 2.697-1.226 2.942-2.942.98-4.903 3.188-7.846 3.923-1.226.245-2.452-.49-3.678-1.226-1.471-.49-1.716 1.226-2.452 1.716-3.433 2.942-8.091 4.169-12.259 4.659-2.207.245-4.659 4.413-8.091 5.639-.245 0-1.226.49-.98 1.226-.736 0-1.471 0-1.961.246a64.008 64.008 0 0 1-3.8 4.081h42.432c-2.094-4.454-4.891-8.446-5.287-13.398 2.207 4.658 5.394 8.827 7.846 13.24v-.245.245c-2.452-4.413-5.64-8.582-7.846-13.24.396 4.952 3.193 8.944 5.287 13.398h9.159c-1.179-1.578-2.106-3.266-2.923-5.063-1.226-2.941-2.942-6.129-5.639-7.846.98 2.452 1.716 5.149 2.942 7.601-2.452-1.716-2.452-4.903-3.678-7.11-.735-1.471-1.961-2.941-3.188-4.168 3.433.245 7.11 2.697 8.582 5.64s5.149 3.923 7.355 6.375c1.156 1.156 1.555 2.918 1.911 4.571h5.842c1.983-1.182 4.027-2.326 6.223-3.346.55-.275 1.066-.653 1.561-1.083a42.184 42.184 0 0 1-4.748-6.518c-1.961-3.678-5.639-4.659-8.336-7.355-1.226-.981-1.226-3.433-2.697-4.413-.077 0-.179-.073-.298-.159a5.262 5.262 0 0 0-.928-.086c.335-.336.67-.098.928.086.903.162 1.772.528 2.504.895 2.207 1.716 4.904 2.206 6.865 3.923 1.226.98 1.226 3.188 2.942 3.678 2.942.98 4.413 3.188 6.375 4.903.482.604 1.203 1.028 1.955 1.421.724-.291 1.485-.523 2.263-.786-2.051-2.49-4.192-4.873-6.424-7.255-3.4-3.601-7.121-7.364-10.64-11.289z"/>
  <path fill="#D8DEE9" d="M130.68 39.576c-2.833-4.155-6.976-6.71-11.083-9.233-.548.297-1.106.542-1.675.736 3.8 1.59 7.016 4.429 10.062 7.271.49.736 1.715.981 2.696 1.226zm-1.23 5.338c.403-.232.747-.526.985-.925.142-.231.289-.452.436-.67-5.603-1.167-10.302-5.689-15.638-7.666 4.341 3.82 9.052 7.02 14.217 9.261z"/>
  <path fill="#E5E9F0" d="M141.713 56.249c-.49-.49-1.716-.245-1.961-.735-3.188-2.207-5.639-4.659-8.336-7.355-.98-1.227-3.432-1.227-4.904-2.207.994-.331 2.098-.552 2.938-1.037-5.165-2.241-9.876-5.441-14.216-9.261 5.336 1.977 10.035 6.499 15.638 7.666 1.885-2.767 4.191-4.394 6.919-6.439.735-.491-.245-1.717 1.471-2.207.49-.245.98-.49 1.716-.49-4.625-1.006-8.259-4.483-11.852-7.73-2.932-.739-5.339-2.307-8.463-3.732a234.946 234.946 0 0 1-14.433-7.174c-1.894-1.026-3.655-1.477-5.368-1.539 1.396 2.032 3.19 3.689 5.544 4.974.735.49 0 1.961.245 2.207 1.471.98 3.678.49 4.903 1.471 3.188 2.207 6.62 4.414 10.298 6.129a13.303 13.303 0 0 1-2.257 1.555c4.107 2.523 8.25 5.078 11.083 9.233-.981-.245-2.207-.49-2.697-1.226-3.046-2.843-6.262-5.682-10.062-7.271-2.089.715-4.338.754-6.856.161.161 2.572-1.999 3.247-4.126 3.614a8.488 8.488 0 0 1 1.919 2.025c2.207 3.187 5.885 4.168 8.091 7.109-1.226-.49-2.452-.98-3.677-1.716-3.678-2.452-7.356-4.168-11.769-5.148.98 1.471 1.716 2.941 1.716 4.658.245 1.226 1.716 1.471 2.452 1.961 1.716 1.227 3.923.491 5.884.981 2.207.735 4.168.98 6.375 1.716.245.245.49.735.98.98.736.981 1.716 0 2.452.491 3.96 3.721 7.511 7.968 11.396 11.682h13.33c-1.618-.925-3.147-1.984-4.373-3.346z"/>
  <path fill="#D8DEE9" d="M121.363 47.913c-.736-.491-1.716.49-2.452-.491-.49-.245-.735-.735-.98-.98-2.207-.735-4.168-.98-6.375-1.716-1.961-.49-4.168.245-5.884-.981-.735-.49-2.207-.735-2.452-1.961 0-1.717-.736-3.188-1.716-4.658 4.413.98 8.091 2.696 11.769 5.148 1.226.735 2.451 1.226 3.677 1.716-2.207-2.941-5.884-3.923-8.091-7.109a8.45 8.45 0 0 0-1.919-2.025c-1.117.192-2.225.301-2.984.554-5.767 1.553-11.132-1.51-16.278-3.196 3.519 3.925 7.24 7.688 10.639 11.287 2.232 2.382 4.373 4.765 6.424 7.255a19.261 19.261 0 0 0 1.667-.635c.49-.245 1.226-1.226 1.716-1.471 2.452-.735 4.168 1.716 6.375 2.206 2.452.491 4.413 1.717 6.62 2.207-.245-1.226-.981-1.961-1.716-2.697 4.152 1.51 6.707 5.779 9.787 9.23h3.571c-3.887-3.715-7.437-7.962-11.398-11.683zm-20.841 2.206c-1.961-1.716-3.433-3.923-6.375-4.903-1.716-.49-1.716-2.697-2.942-3.678-1.961-1.717-4.658-2.207-6.865-3.923-.732-.366-1.601-.732-2.504-.895.119.086.221.159.298.159 1.471.98 1.471 3.432 2.697 4.413 2.697 2.696 6.375 3.678 8.336 7.355a42.232 42.232 0 0 0 4.748 6.518c.828-.72 1.595-1.582 2.362-2.35.668-.573 1.412-.959 2.2-1.276-.752-.392-1.472-.816-1.955-1.42z"/>
  <path fill="#FFF" d="M130.78 43.453c-.117.175-.232.353-.345.536-.736 1.227-2.452 1.472-3.923 1.962.615.41 1.401.648 2.18.877 5.239-2.643 10.087-6.002 15.229-8.478-4.635 1.21-8.607 3.907-13.141 5.103zm42.807-13.193c.245-.246.98-.736 1.716-.981 1.268-1.014 2.077-2.29 2.936-3.523-.047-.381.007-.786.007-1.135-.533 0-.997-.059-1.407-.165-1.394 3.017-3.99 4.851-6.194 7.275-.98 1.226-1.226 3.188-2.452 4.658-.735 1.227-2.207 2.207-2.942 3.433-2.452 3.678-4.658 6.865-7.846 9.808-1.226 1.226-2.207 3.188-3.433 4.903 4.413-3.923 9.072-7.11 12.75-11.769.735-.98 2.452-1.471 3.678-2.207.735-.735 1.471-1.471 1.961-2.451-2.452.735-5.149 1.961-6.865 3.923.98-2.697 3.678-4.168 5.149-6.865.981-1.472 1.471-3.434 2.942-4.904z"/>
  <path fill="#ECEFF4" d="M179.59 34.353c1.458-1.339 5.054-1.279 7.482-1.887-1.716-.98-2.942-2.206-4.168-3.923-.736-1.226-2.697-.98-3.923-1.716-.515-.257-.69-.65-.743-1.071-.858 1.233-1.667 2.509-2.936 3.523-.735.245-1.471.735-1.716.981-1.471 1.471-1.961 3.433-2.942 4.903-1.471 2.697-4.168 4.168-5.149 6.865 1.716-1.962 4.414-3.188 6.865-3.923-.49.98-1.226 1.716-1.961 2.451-1.226.736-2.942 1.227-3.678 2.207-3.678 4.658-8.336 7.846-12.75 11.769 1.226-1.716 2.207-3.678 3.433-4.903 3.188-2.942 5.394-6.13 7.846-9.808.735-1.226 2.207-2.206 2.942-3.433 1.226-1.471 1.472-3.433 2.452-4.658 2.204-2.424 4.8-4.259 6.194-7.275-3.269-.846-2.819-4.836-2.072-8.333-.045-.085-.092-.17-.135-.255-4.452 1.453-8.615 4.605-13.149 5.747-2.622.66-5.091.552-7.721 1.572-2.228.864-4.34 2.243-6.62 2.943-3.882 1.193-9.676.594-13.975.744a14.28 14.28 0 0 1-4.041-.421c2.037 1.841 4.088 3.756 6.325 5.253 5.708-.04 11.099-2.52 16.805-3.897 1.471-.49 3.433.245 4.903-.49 4.168-1.961 7.356-4.168 12.259-5.394.981-.245 1.962-1.226 3.188-1.471-.735 1.226-1.716 1.716-2.697 2.207-3.923 2.207-6.865 5.394-10.543 7.11-4.168 1.961-7.846 4.414-12.014 6.375 3.433-4.413 9.317-5.639 13.73-9.071-4.168 1.716-8.582 2.697-13.24 3.923-3.226.807-6.451 1.402-9.606 2.272.877.394 1.788.708 2.741.915-.736 0-1.226.245-1.716.49-1.716.49-.736 1.716-1.471 2.207-2.772 2.079-5.109 3.724-7.01 6.573 4.534-1.196 8.506-3.894 13.14-5.103-5.142 2.476-9.989 5.835-15.229 8.478 1.084.317 2.153.616 2.724 1.33 2.697 2.696 5.149 5.148 8.336 7.355.245.49 1.471.245 1.961.735 1.226 1.362 2.755 2.421 4.376 3.346h7.645a37.724 37.724 0 0 0 2.444-2.365c.49-.49.49-1.716.98-2.206 2.207-1.962 5.395-1.962 7.356-4.169.735-.98 0-2.696 1.226-3.188 3.433-1.471 6.13-3.432 8.091-6.865 1.1-1.759 3.579-1.745 4.786-4.376-1.432.373-2.864.78-4.296 1.189 1.117-1.78 3.239-3.352 5.271-3.262z"/>
  <path fill="#FFF" d="M179.59 34.353c-2.033-.09-4.155 1.482-5.268 3.263 1.432-.409 2.864-.816 4.296-1.189a6.35 6.35 0 0 0 .363-1.018c.086-.429.301-.773.609-1.056zm-32.237 1.791c4.168-1.961 7.846-4.413 12.014-6.375 3.678-1.716 6.62-4.903 10.543-7.11.98-.49 1.961-.98 2.697-2.207-1.226.245-2.207 1.226-3.188 1.471-4.903 1.226-8.091 3.433-12.259 5.394-1.471.735-3.432 0-4.903.49-5.706 1.377-11.097 3.857-16.805 3.897.895.599 1.82 1.13 2.786 1.563 3.156-.87 6.381-1.466 9.606-2.272 4.658-1.226 9.072-2.207 13.24-3.923-4.415 3.433-10.299 4.658-13.731 9.072zm92.924-8.827c0-.491.245-.981.49-1.471.98-1.226 2.452-1.716 3.678-2.452 1.53-1.392 2.509-3.177 3.651-4.82-.493-.121-.897-.373-1.168-.828-1.396.826-2.085 2.377-2.973 3.932-1.472 1.961-4.168 2.207-5.885 3.433-4.904 3.187-7.601 8.336-10.543 13.485-1.471 2.697-4.168 4.413-5.639 7.355 4.659-3.678 8.091-8.336 11.769-13.24 1.226-1.716 2.942-2.942 4.659-4.168-.491.981-1.717 1.962-1.717 3.188 2.452-2.207 5.639-3.678 7.601-6.375-1.471.49-2.452 1.716-3.923 1.961zm9.841-8.733c-1.125 1.865-2.154 3.677-2.73 5.791 1.471-2.207 3.432-4.168 5.394-5.884.116-.1.233-.196.351-.292-.938.028-2.01.257-3.015.385zm-3.16-5.478a7.353 7.353 0 0 1-.796-.255 13.539 13.539 0 0 1-.858-.308c-2.816 2.231-5.25 4.5-7.478 7.172-3.188 3.678-7.355 5.885-10.298 10.298-1.716 2.207-4.659 2.207-6.375 3.923-3.923 3.433-7.601 6.619-12.014 9.071 7.601-2.207 15.447-5.394 20.105-12.259-2.452 1.716-4.904 3.678-7.601 5.148.735-1.226 1.471-2.451 2.697-3.188 8.582-4.658 13.485-12.259 21.085-18.388.497-.432 1.01-.834 1.533-1.214z"/>
  <path fill="#ECEFF4" d="M249.349 26.336c4.168-2.942 9.072-3.187 12.75-6.129-2.452-.491-5.149-.491-7.355-1.716-.439-.244-.997-.31-1.61-.292-.118.095-.235.192-.351.292-1.962 1.716-3.923 3.678-5.394 5.884.576-2.113 1.604-3.926 2.73-5.791-.739.094-1.44.132-2.021-.01-1.142 1.643-2.121 3.429-3.651 4.82-1.226.735-2.697 1.226-3.678 2.452-.246.49-.49.98-.49 1.471 1.471-.245 2.452-1.471 3.923-1.961-1.962 2.697-5.149 4.168-7.601 6.375 0-1.226 1.226-2.207 1.717-3.188-1.717 1.226-3.433 2.452-4.659 4.168-3.678 4.904-7.11 9.563-11.769 13.24 1.471-2.942 4.168-4.658 5.639-7.355 2.942-5.148 5.639-10.298 10.543-13.485 1.717-1.226 4.413-1.471 5.885-3.433.888-1.554 1.578-3.105 2.973-3.932a2.402 2.402 0 0 1-.276-.727 34.03 34.03 0 0 0 3.674-.998c2.135-.717 4.163-1.67 5.888-2.925-3.148-.225-6.297.786-9.256.01-.523.379-1.036.782-1.532 1.216-7.601 6.129-12.504 13.73-21.085 18.388-1.226.736-1.962 1.962-2.697 3.188 2.697-1.471 5.149-3.433 7.601-5.148-4.659 6.865-12.504 10.052-20.105 12.259 4.414-2.452 8.091-5.639 12.014-9.071 1.716-1.717 4.659-1.717 6.375-3.923 2.942-4.413 7.11-6.62 10.298-10.298 2.228-2.673 4.662-4.941 7.478-7.172-.421-.171-.807-.377-1.103-.673-.686-.499-1.308-1.108-1.919-1.728-2.128 1.921-3.344 4.09-5.13 6.324-4.134 5.169-8.586 7.64-14.26 10.021-2.399 1.007-3.849 2.919-6.609 3.319-3.285.477-6.104-1.076-9.195-1.49-5.655-.757-10.754.541-16.028-.453 1.412 1.215 2.56 2.755 3.615 4.112.49.49 2.452.98 2.942 1.717.491.98 0 2.696.735 3.188.981.735 2.207 1.226 2.697 1.961.49.49.736 1.716 1.471 1.961 3.678 2.697 3.433 7.111 5.394 10.544.246.49 1.961-1.227 2.943-1.227 4.658-.49 8.336-1.961 12.995-2.942 2.452-.49 2.452-2.941 3.677-4.903.491-.98 1.962-.735 2.942-1.472 1.471-.735.49-2.941 1.471-3.922 1.716-1.962 4.168-2.452 6.375-4.169 1.716-1.716 4.413-1.471 6.62-2.697 1.957-.982 2.938-2.699 4.409-3.68z"/>
  <path fill="#FFF" d="M254.498 52.816c-1.716 1.962-4.413 2.942-5.884 5.148 2.942 0 4.168-2.941 6.375-3.923 3.433-1.471 6.866-2.941 9.072-6.375 2.453-3.432 7.111-3.432 10.298-5.884.736-.735.736-2.207 1.717-3.188 2.426-3.088 5.046-6.177 6.799-9.799-.618.109-1.248.191-1.896.237-.245 0-.98 1.471-1.471 2.452-1.961 3.433-5.639 4.413-7.11 8.336-.491 1.962-3.923 1.717-5.64 2.942-2.207 1.472-3.923 3.923-6.375 5.149-1.226.49-2.451 1.961-3.677 2.206-1.459.219-2.896.351-4.312.48-2.811 1.927-5.587 3.89-8.192 6.14 2.94-2.205 6.618-3.185 10.296-3.921z"/>
  <path fill="#ECEFF4" d="M290.54 26.336c-2.586.995-5.011 1.989-7.667 2.46-1.752 3.623-4.373 6.711-6.799 9.799-.981.98-.981 2.452-1.717 3.188-3.187 2.452-7.845 2.452-10.298 5.884-2.206 3.434-5.639 4.904-9.072 6.375-2.206.981-3.432 3.923-6.375 3.923 1.471-2.206 4.168-3.187 5.884-5.148-3.678.735-7.355 1.716-10.297 3.923 2.605-2.25 5.382-4.213 8.192-6.14-3.342.305-6.564.594-9.664 1.972-.981.49-2.697-.245-3.188.49-2.281 2.118-4.454 4.343-6.662 6.533h19.825a68.383 68.383 0 0 1 4.491-3.101c1.961-1.227 4.659-.245 6.865-1.471.736-.491 1.227-1.717 1.717-2.452 1.716-1.962 4.904-2.207 6.62-4.904.245-.735 2.451 0 3.922-.245.736-.245 1.226-1.226 1.226-1.961 0-2.452.49-4.659 2.942-6.13 1.471-.735.981-2.696 1.471-4.168.735-1.716 3.188-1.226 4.903-1.471-.49 1.961-1.716 3.433-2.452 4.903-.981 1.961-1.226 4.658-2.452 6.13-2.452 2.696-2.943 5.884-4.414 8.826 2.452-3.188 4.414-6.865 6.865-10.053 2.452-2.942 3.433-7.11 5.394-11.033.74-1.715-.241-4.167.74-6.129zM174.078 55.268c.245-1.961.735-3.677 1.716-5.148-2.452.981-5.394 1.227-6.62 2.942-1.99 2.653-4.317 4.717-6.771 6.533h18.607c-.331-3.289-2.602-6.213-3.01-9.476-1.226 1.717-2.206 3.923-3.922 5.149z"/>
  <path fill="#E5E9F0" d="M200.067 52.326c-2.207-5.885-5.639-10.543-8.827-16.183-.735-1.471-.98-3.678-2.452-4.658-2.452-1.961-4.413-3.923-6.62-6.129l-1.471-.736c-.981-.49-1.226-2.207-2.452-2.942-1.354-.677-2.825-1.004-4.01-1.788-.077 2.602.742 4.729 4.01 4.729 0 .736-.245 1.716.736 2.207 1.226.736 3.187.491 3.923 1.716 1.226 1.717 2.452 2.942 4.168 3.923-2.942.736-7.601.49-8.091 2.942-.981 3.678-3.923 3.433-5.149 5.394-1.961 3.434-4.659 5.395-8.091 6.865-1.226.491-.49 2.207-1.226 3.188-1.961 2.207-5.149 2.207-7.356 4.169-.49.49-.49 1.716-.98 2.206a37.982 37.982 0 0 1-2.444 2.365h8.668c2.454-1.816 4.781-3.88 6.771-6.533 1.226-1.716 4.168-1.961 6.62-2.942-.981 1.472-1.471 3.188-1.716 5.148 1.716-1.226 2.697-3.432 3.923-5.148.408 3.263 2.679 6.187 3.01 9.476h14.276c-1.897-1.679-3.535-3.581-4.782-5.798-2.207-3.678-5.639-5.884-8.336-9.316-1.226-1.472-2.697 0-3.187.49-2.452 2.451-5.639 1.961-8.336 4.168 2.942-4.413 5.884-9.563 11.033-10.788 2.697-.735 4.659 4.413 7.355 6.62-.98-2.942-1.471-6.13-3.433-8.827 6.129 3.433 8.336 11.033 13.485 15.938 1.471 1.471 2.207 3.678 4.413 4.168-1.225-1.227-2.942-2.453-3.432-3.924z"/>
  <path fill="#E5E9F0" d="M227.093 43.08c-.835 1.775-1.119 3.672-3.243 4.097-4.659.981-8.336 2.452-12.995 2.942-.981 0-2.697 1.717-2.943 1.227-1.961-3.433-1.716-7.847-5.394-10.544-.735-.245-.981-1.471-1.471-1.961-.491-.735-1.716-1.226-2.697-1.961-.735-.491-.245-2.207-.735-3.188-.49-.736-2.452-1.227-2.942-1.717-1.055-1.356-2.204-2.897-3.615-4.112a17.808 17.808 0 0 1-4.484-1.467c-4.032-1.944-9.632-6.236-11.807-10.274-.267 1.248-.495 2.559-.531 3.768 1.185.783 2.656 1.11 4.01 1.788 1.226.735 1.471 2.452 2.452 2.942l1.471.736c2.207 2.207 4.168 4.168 6.62 6.129 1.471.98 1.716 3.188 2.452 4.658 3.188 5.64 6.62 10.298 8.827 16.183.49 1.471 2.207 2.697 3.433 3.923-2.207-.49-2.942-2.697-4.413-4.168-5.149-4.904-7.356-12.505-13.485-15.938 1.961 2.697 2.452 5.885 3.433 8.827-2.697-2.207-4.658-7.355-7.355-6.62-5.149 1.226-8.091 6.375-11.033 10.788 2.697-2.207 5.884-1.717 8.336-4.168.49-.49 1.961-1.962 3.187-.49 2.697 3.433 6.13 5.639 8.336 9.316 1.247 2.217 2.885 4.119 4.782 5.798h27.684c3.207-5.02 4.133-10.683 4.12-16.514z"/>
  <path fill="#D8DEE9" d="M229.734 46.932c.245-1.226 1.226-1.961 1.471-3.188.49 3.433-.981 6.62-1.471 10.053 1.226-1.226 2.942-2.206 3.188-3.433.735-5.148 3.677-9.071 6.129-12.994-.735 3.187-1.226 6.619-1.961 9.807 2.697-4.903 4.168-9.807 9.072-13.729.98-.736.98-3.433 1.716-5.395.138-.346.336-.672.564-.984-1.038.963-1.973 2.179-3.507 2.946-2.207 1.226-4.904.981-6.62 2.697-2.207 1.717-4.659 2.207-6.375 4.169-.981.98 0 3.187-1.471 3.922-.98.736-2.452.491-2.942 1.472a7.672 7.672 0 0 0-.434.807c.013 5.831-.914 11.494-4.123 16.515h1.996c1.101-2.094 2.171-4.176 3.052-6.288.735-1.963 1.226-4.17 1.716-6.377z"/>
  <path fill="#E5E9F0" d="M263.815 25.601c1.716 3.678 3.678 7.11 4.903 11.034.245.735-.49.49-.735.49-1.716-2.697-3.923-5.149-4.904-8.337-.49-1.716-1.961-2.942-3.188-4.413.49 2.942 1.226 5.885 1.226 8.827-1.764-3.175-2.639-6.983-4.36-10.24-2.469.912-5.056 1.714-7.408 3.375a7.301 7.301 0 0 0-.907.732 4.555 4.555 0 0 0-.564.984c-.736 1.961-.736 4.658-1.716 5.395-4.904 3.923-6.375 8.826-9.072 13.729.735-3.188 1.226-6.62 1.961-9.807-2.452 3.923-5.394 7.846-6.129 12.994-.246 1.227-1.962 2.207-3.188 3.433.49-3.433 1.961-6.62 1.471-10.053-.246 1.227-1.226 1.962-1.471 3.188-.49 2.207-.981 4.414-1.716 6.375-.88 2.112-1.951 4.194-3.052 6.288h7.913c2.208-2.19 4.381-4.415 6.662-6.533.49-.735 2.207 0 3.188-.49 4.253-1.891 8.734-1.734 13.442-2.378.764-2.256.35-4.789-.203-7.185-1.226-5.394-.981-10.788-1.961-16.182.98 4.168.98 8.336 2.942 12.014 1.226 2.207.981 4.168 1.716 6.13.49-3.433 0-6.62-.491-10.053 1.509 3.772 3.887 7.4 4.458 11.44 1.399-1.198 2.653-2.614 4.124-3.595 1.716-1.226 5.149-.98 5.64-2.942.623-1.662 1.643-2.796 2.76-3.813-3.721-3.528-7.717-6.782-11.341-10.407z"/>
  <path fill="#D8DEE9" d="M258.666 44.971c-.735-1.962-.491-3.923-1.716-6.13-1.962-3.678-1.962-7.846-2.942-12.014.98 5.394.736 10.789 1.961 16.182.553 2.396.967 4.929.203 7.185.177-.024.355-.048.533-.074 1.226-.245 2.452-1.716 3.677-2.206.817-.409 1.552-.955 2.251-1.555-.57-4.04-2.948-7.668-4.458-11.44.491 3.432.981 6.619.491 10.052zm18.879-12.505c-3.188-2.206-4.904-5.148-6.865-8.336-.491-.735-1.962-.98-2.942-1.716-2.452-2.697-2.942-6.129-4.904-9.317-.072-.072-.144-.186-.228-.311a49.819 49.819 0 0 1-3.013-.551c-2.984-.646-5.227-1.92-8.376-1.919-2.669 0-6.229 1.367-8.459-.589a13.97 13.97 0 0 0-.478.416c.611.62 1.234 1.229 1.919 1.728.49.491 1.226.736 1.961.981 3.188 1.226 6.62 0 10.052.245-2.697 1.961-6.129 3.188-9.562 3.923.736 3.433 5.885.245 8.091 1.471 2.207 1.226 4.903 1.226 7.355 1.716-1.602 1.281-3.436 2.051-5.341 2.755 1.721 3.257 2.597 7.065 4.36 10.24 0-2.942-.736-5.885-1.226-8.827 1.226 1.471 2.697 2.697 3.188 4.413.98 3.188 3.188 5.64 4.904 8.337.245 0 .98.245.735-.49-1.226-3.924-3.188-7.356-4.903-11.034 3.625 3.625 7.62 6.879 11.342 10.408 1.079-.981 2.249-1.854 3.241-2.985-.295-.184-.59-.363-.851-.558zm18.634-15.692c-1.735-2.121-4.379-2.574-6.86-3.505-.316-.01-.63-.015-.938-.011-1.487.019-2.977.055-4.465.096.459 2.54.109 5.261 1.721 7.589 0-2.207.245-4.168.49-6.375 1.602 3.931 2.338 8.121 3.135 12.262l.508-.196c.799-1.01 1.858-1.768 3.221-1.768-.245-.491.736-.491.491-.981.49 0 .981-.49 1.471-.735.98-.736.49-2.452-.981-3.188 1.471-1.226 4.169-1.226 2.207-3.188z"/>
  <path fill="#E5E9F0" d="M285.636 20.942c-1.612-2.328-1.262-5.049-1.721-7.589-7.183.195-14.36.493-21.309-.567.084.125.156.239.228.311 1.961 3.188 2.452 6.62 4.904 9.317.98.736 2.452.981 2.942 1.716 1.961 3.188 3.677 6.13 6.865 8.336.261.195.556.374.853.558a9.323 9.323 0 0 0 1.108-1.538c.491-.98 1.226-2.452 1.471-2.452 2.969-.212 5.572-1.158 8.284-2.204-.797-4.141-1.534-8.332-3.135-12.262-.245 2.206-.49 4.168-.49 6.374z"/>
  <path fill="#D8DEE9" d="M307.458 49.139c-.736-.98-1.717-1.962-2.942-2.697 2.207 2.942 2.942 6.375 4.659 9.808.697 1.162 1.34 2.268 2.005 3.346h5.916c-3.468-3.096-6.593-6.58-9.638-10.457z"/>
  <path fill="#E5E9F0" d="M304.515 46.441c1.226.735 2.207 1.717 2.942 2.697 3.046 3.877 6.17 7.361 9.637 10.456h55.296c-8.966-3.164-20.581-3.264-28.13-8.827-2.689-1.981-4.03-4.345-6.998-5.976-2.369-1.301-4.807-2.471-7.265-3.676-2.289-1.122-4.471-1.705-6.61-3.291-2.516-1.864-4.076-2.207-7.079-3.506-3.03-1.312-5.558-3.542-8.019-5.715-2.825-2.495-1.876-3.247-3.292-6.52-2.531-5.854-9.669-8.62-15.682-8.815 2.481.931 5.125 1.385 6.86 3.505 1.962 1.961-.735 1.961-2.207 3.188 1.471.735 1.961 2.452.981 3.188-.49.245-.981.735-1.471.735.246.49-.736.49-.491.981-1.363 0-2.422.758-3.221 1.768l.77-.297c-.981 1.961 0 4.414-.736 6.129-1.961 3.923-2.942 8.091-5.394 11.033-2.452 3.188-4.413 6.865-6.865 10.053 1.471-2.942 1.961-6.13 4.414-8.826 1.226-1.472 1.471-4.169 2.452-6.13.736-1.471 1.961-2.942 2.452-4.903-1.716.245-4.168-.245-4.903 1.471-.49 1.472 0 3.433-1.471 4.168-2.452 1.471-2.942 3.678-2.942 6.13 0 .735-.49 1.716-1.226 1.961-1.471.245-3.678-.49-3.922.245-1.716 2.697-4.904 2.942-6.62 4.904-.49.735-.981 1.961-1.717 2.452-2.206 1.226-4.903.244-6.865 1.471a68.263 68.263 0 0 0-4.491 3.101h35.836c-.468-2.315-.695-4.699.038-6.533 3.188-8.091 4.413-16.427 4.904-24.764.49 2.452 1.716 4.658 1.961 7.11.49 2.942-1.471 5.394-1.961 8.336-.957 5.355-1.017 10.562-.998 15.851h6.019c-.577-3.4.341-7.003 1.108-10.456.735-3.188-1.717-5.395-2.697-8.091-.49-1.717 1.226-3.188 1.226-4.904.245 2.452 1.716 4.658 2.452 6.62 1.226 3.188 1.226 6.375 3.433 9.563 1.526 2.358 2.893 4.798 4.194 7.269h2.96c-.666-1.078-1.308-2.184-2.005-3.346-1.714-3.434-2.45-6.866-4.657-9.809z"/>
  <path fill="#D8DEE9" d="M300.592 42.764c-.736-1.962-2.207-4.168-2.452-6.62 0 1.717-1.716 3.188-1.226 4.904.98 2.696 3.433 4.903 2.697 8.091-.768 3.453-1.685 7.056-1.108 10.456h9.716c-1.301-2.471-2.668-4.91-4.194-7.269-2.207-3.187-2.207-6.375-3.433-9.562zm-5.149-7.356c-.245-2.452-1.471-4.658-1.961-7.11-.491 8.337-1.716 16.673-4.904 24.764-.733 1.834-.506 4.218-.038 6.533h3.944c-.02-5.289.041-10.495.998-15.851.49-2.942 2.452-5.393 1.961-8.336z"/>
</svg>
