<svg xmlns="http://www.w3.org/2000/svg" width="48" height="48" viewBox="0 0 48 48">
  <path opacity=".1" d="M9.6 1.921a7.662 7.662 0 0 0-7.68 7.68v30.718a7.663 7.663 0 0 0 7.68 7.679h30.722a7.664 7.664 0 0 0 7.679-7.679 7.666 7.666 0 0 0-7.679-7.681h-2.064l1.795-1.034a7.668 7.668 0 0 0 2.813-10.492 7.656 7.656 0 0 0-10.494-2.808l-1.784 1.031 1.031-1.787A7.668 7.668 0 0 0 28.81 7.056a7.664 7.664 0 0 0-10.493 2.812l-1.036 1.793V9.602A7.666 7.666 0 0 0 9.6 1.921zm0 36.479a1.918 1.918 0 1 1 0 3.838 1.918 1.918 0 1 1 0-3.838z"/>
  <path fill="#4C566A" d="M7.68.001A7.664 7.664 0 0 0 0 7.682V38.4l15.359-7.68V7.682A7.663 7.663 0 0 0 7.68.001z"/>
  <path fill="#81A1C1" d="M22.507 4.121a7.661 7.661 0 0 0-6.113 3.828L1.036 34.548l19.949-3.832 8.713-15.087a7.666 7.666 0 0 0-2.811-10.492 7.692 7.692 0 0 0-4.38-1.016z"/>
  <path fill="#BF616A" d="M34.827 15.361a7.66 7.66 0 0 0-4.378 1.02L3.848 31.739l32.489-1.023 1.793-1.034a7.666 7.666 0 0 0 2.813-10.493 7.662 7.662 0 0 0-6.116-3.828z"/>
  <path fill="#EBCB8B" d="M7.68 30.721A7.663 7.663 0 0 0 0 38.4a7.665 7.665 0 0 0 7.68 7.68H38.4a7.665 7.665 0 0 0 7.68-7.68 7.663 7.663 0 0 0-7.68-7.68H7.68zm0 4.798a2.883 2.883 0 0 1 2.881 2.882 2.883 2.883 0 0 1-2.881 2.88 2.883 2.883 0 0 1-2.881-2.88 2.883 2.883 0 0 1 2.881-2.882z"/>
  <path fill="#4C566A" d="M7.68 34.557c-2.121 0-3.84 1.722-3.84 3.844s1.719 3.838 3.84 3.838c2.121 0 3.84-1.716 3.84-3.838s-1.72-3.844-3.84-3.844zm0 1.922a1.92 1.92 0 1 1 .001 3.839 1.92 1.92 0 0 1-.001-3.839z"/>
</svg>
