<svg xmlns="http://www.w3.org/2000/svg" width="201.42" height="48" viewBox="0 0 201.42 48">
  <path fill="none" d="M52.676 15.675h149.142v16.649H52.676z"/>
  <path fill="#88C0D0" d="M53.864 15.673h.66l10.738 15.16h.044v-15.16h.44v15.711h-.66l-10.737-15.16h-.044v15.161h-.44V15.673zm18.789 4.137c3.301 0 5.083 2.838 5.083 5.919 0 3.103-1.782 5.919-5.105 5.919-3.3 0-5.083-2.816-5.083-5.919 0-3.081 1.783-5.919 5.105-5.919zm0 11.398c3.015 0 4.643-2.619 4.643-5.479 0-2.816-1.628-5.479-4.643-5.479-3.058 0-4.665 2.663-4.665 5.479 0 2.86 1.607 5.479 4.665 5.479zm7.347.176h-.44v-11.31H80v2.794h.044c.418-1.672 1.738-3.146 4.444-3.059v.44C81.387 20.096 80 22.517 80 24.981v6.403zm14.059-15.711h.44v15.711h-.44v-3.169h-.044c-.572 1.98-2.222 3.433-4.533 3.433-2.992 0-4.818-2.486-4.818-5.896 0-3.169 1.694-5.941 4.818-5.941 2.398 0 4.005 1.386 4.533 3.433h.044v-7.571zm-4.577 4.577c-3.102 0-4.378 2.883-4.378 5.501 0 2.904 1.452 5.457 4.378 5.457 2.905 0 4.577-2.531 4.577-5.457 0-3.499-1.826-5.501-4.577-5.501z"/>
  <path fill="#2E3440" d="M101.868 15.673h12.454v1.276h-5.479v14.435h-1.496V16.95h-5.479v-1.277zm12.036 10.409c.021 2.023 1.078 4.467 3.74 4.467 2.024 0 3.124-1.189 3.564-2.905h1.386c-.594 2.575-2.09 4.071-4.95 4.071-3.608 0-5.127-2.773-5.127-6.008 0-2.992 1.519-6.006 5.127-6.006 3.652 0 5.104 3.19 4.994 6.381h-8.734zm7.348-1.166c-.066-2.091-1.364-4.049-3.608-4.049-2.267 0-3.521 1.98-3.74 4.049h7.348zm3.255-4.886h1.276v2.662h.044c.704-1.826 2.244-2.904 4.29-2.816v1.386c-2.508-.132-4.225 1.716-4.225 4.071v6.051h-1.386V20.03zm6.931 0h1.275v1.914h.066c.727-1.364 1.914-2.244 3.719-2.244 1.496 0 2.838.726 3.256 2.222.682-1.496 2.113-2.222 3.609-2.222 2.486 0 3.762 1.298 3.762 3.982v7.702h-1.387v-7.636c0-1.87-.703-2.882-2.684-2.882-2.398 0-3.08 1.98-3.08 4.092v6.426h-1.387v-7.702c.021-1.54-.615-2.816-2.377-2.816-2.398 0-3.365 1.804-3.389 4.18v6.338h-1.385V20.03zm18.347-4.357h1.387v2.223h-1.387v-2.223zm0 4.357h1.387v11.354h-1.387V20.03zm4.026 0h1.387v1.958h.045c.506-1.364 2.023-2.288 3.631-2.288 3.189 0 4.158 1.672 4.158 4.378v7.306h-1.387v-7.085c0-1.958-.639-3.433-2.883-3.433-2.199 0-3.52 1.672-3.564 3.895v6.624h-1.387V20.03zm11.705 3.477c.131-2.663 2.002-3.807 4.598-3.807 2.002 0 4.182.616 4.182 3.652v6.029c0 .528.264.837.813.837.154 0 .33-.045.441-.089v1.167a3.92 3.92 0 0 1-.902.088c-1.408 0-1.629-.793-1.629-1.98h-.043c-.969 1.475-1.959 2.311-4.137 2.311-2.092 0-3.807-1.035-3.807-3.322 0-3.191 3.102-3.301 6.094-3.653 1.145-.132 1.783-.286 1.783-1.54 0-1.871-1.342-2.333-2.971-2.333-1.717 0-2.992.792-3.037 2.641h-1.385zm7.392 1.672h-.045c-.176.33-.791.439-1.166.506-2.354.418-5.281.396-5.281 2.618 0 1.386 1.232 2.245 2.531 2.245 2.113 0 3.982-1.343 3.961-3.564v-1.805zm6.358-5.149h2.311v1.166h-2.311v7.657c0 .902.131 1.431 1.121 1.496.396 0 .793-.021 1.189-.065v1.188c-.418 0-.814.043-1.232.043-1.85 0-2.486-.615-2.465-2.552v-7.767h-1.98V20.03h1.98v-3.41h1.387v3.41zm14.476 5.677c0 3.257-1.893 6.008-5.369 6.008s-5.369-2.751-5.369-6.008c0-3.256 1.893-6.006 5.369-6.006s5.369 2.75 5.369 6.006zm-9.351 0c0 2.421 1.32 4.842 3.982 4.842s3.982-2.421 3.982-4.842c0-2.42-1.32-4.84-3.982-4.84s-3.982 2.42-3.982 4.84zm11.418-5.677h1.277v2.662h.043c.705-1.826 2.244-2.904 4.291-2.816v1.386c-2.508-.132-4.225 1.716-4.225 4.071v6.051h-1.387V20.03z"/>
  <path opacity=".05" d="M36.063 4.085c5.983 4.148 9.895 11.061 9.895 18.894 0 12.691-10.284 22.979-22.98 22.979-7.833 0-14.746-3.909-18.895-9.894a23.787 23.787 0 0 0 3.862 5.075 23.418 23.418 0 0 0 15.799 6.096c12.974 0 23.491-10.519 23.491-23.49a23.407 23.407 0 0 0-6.096-15.798 23.743 23.743 0 0 0-5.076-3.862zm5.076 3.862A23.398 23.398 0 0 1 47.491 24c0 12.973-10.517 23.49-23.491 23.49a23.399 23.399 0 0 1-16.054-6.351C12.194 45.371 18.039 48 24.51 48 37.483 48 48 37.483 48 24.511c0-6.47-2.63-12.317-6.861-16.564z"/>
  <path opacity=".1" d="M41.14 7.947a23.411 23.411 0 0 1 6.097 15.798c0 12.974-10.517 23.49-23.491 23.49a23.42 23.42 0 0 1-15.8-6.096 23.402 23.402 0 0 0 16.055 6.351c12.974 0 23.49-10.518 23.49-23.49 0-6.21-2.414-11.853-6.351-16.053z"/>
  <path opacity=".2" d="M30.896 1.404c8.799 3.221 15.064 11.66 15.064 21.58 0 12.69-10.285 22.979-22.979 22.979-9.915 0-18.355-6.265-21.571-15.063 4.008 12.338 17.259 19.093 29.598 15.085a23.488 23.488 0 0 0 16.234-22.234A23.489 23.489 0 0 0 30.9 1.409l-.004-.005z"/>
  <path fill="#2E3440" d="M23.491 0c12.974 0 23.491 10.516 23.491 23.489 0 12.974-10.517 23.49-23.491 23.49S0 36.463 0 23.489C0 10.516 10.517 0 23.491 0z"/>
  <path opacity=".1" d="M39.862 6.67a23.403 23.403 0 0 1 6.097 15.798c0 12.974-10.517 23.49-23.49 23.49a23.42 23.42 0 0 1-15.8-6.096c4.268 4.382 10.224 7.117 16.821 7.117 12.974 0 23.49-10.518 23.49-23.49 0-6.599-2.734-12.552-7.118-16.819z"/>
  <path fill-opacity=".1" d="M33.491 21.491v-2.659h-8v2.659m-8.443-.889l-2.225-2.267 5.005-3.959-5.005-3.958 2.225-2.266 7.51 6.219-7.51 6.218M33.491 40.16v-2.67h-8v2.67m-8.443-.909l-2.225-2.266 5.005-3.959-5.005-3.957 2.225-2.26 7.51 6.211-7.51 6.221"/>
  <path fill="#D8DEE9" d="M32.158 20.16v-2.663h-8v2.663m8 18.666V36.16h-8v2.666m-8.443-.907l-2.225-2.266 5.005-3.961-5.005-3.959 2.225-2.258 7.51 6.213-7.51 6.219m0-18.639l-2.225-2.266 5.005-3.959-5.005-3.958 2.225-2.266 7.51 6.218-7.51 6.221"/>
</svg>
