<svg xmlns="http://www.w3.org/2000/svg" width="512" height="512" viewBox="0 0 512 512">
  <path fill="#2E3440" stroke="#2E3440" stroke-miterlimit="10" d="M256 0C114.62 0 0 114.62 0 256s114.62 256 256 256 256-114.62 256-256S397.38 0 256 0zm0 492C125.66 492 20 386.34 20 256S125.66 20 256 20s236 105.66 236 236-105.66 236-236 236z"/>
  <g fill="#2E3440">
    <path d="M302.203 364.262l-88.87-113.752v-31.563l98.494 127.328h52.927v-179.29H275.74l-19.246-19.247H384v216.524z"/>
    <path d="M209.798 147.738l88.868 113.748v31.563l-98.491-127.326h-52.927v179.291h89.014l19.245 19.246H128.001V147.738z"/>
  </g>
</svg>
