<svg xmlns="http://www.w3.org/2000/svg" width="206.456" height="48" viewBox="0 0 206.456 48">
  <path fill="none" d="M52.676 15.675h154.852v16.649H52.676z"/>
  <path fill="#88C0D0" d="M53.864 15.673h.66l10.738 15.161h.044V15.673h.44v15.71h-.66l-10.737-15.16h-.044v15.16h-.44v-15.71zm18.788 4.137c3.301 0 5.083 2.838 5.083 5.918 0 3.104-1.782 5.919-5.105 5.919-3.3 0-5.083-2.815-5.083-5.919.001-3.08 1.783-5.918 5.105-5.918zm0 11.398c3.015 0 4.643-2.618 4.643-5.479 0-2.816-1.628-5.479-4.643-5.479-3.058 0-4.665 2.663-4.665 5.479.001 2.86 1.607 5.479 4.665 5.479zm7.348.175h-.44v-11.31H80v2.794h.044c.418-1.672 1.738-3.146 4.444-3.059v.44C81.386 20.096 80 22.516 80 24.98v6.403zm14.059-15.71h.44v15.71h-.44v-3.169h-.044c-.572 1.98-2.222 3.433-4.533 3.433-2.992 0-4.818-2.485-4.818-5.896 0-3.168 1.694-5.941 4.818-5.941 2.398 0 4.005 1.386 4.533 3.433h.044v-7.57zm-4.577 4.577c-3.102 0-4.378 2.883-4.378 5.501 0 2.904 1.452 5.457 4.378 5.457 2.905 0 4.577-2.53 4.577-5.457 0-3.499-1.827-5.501-4.577-5.501z"/>
  <path fill="#2E3440" d="M102.043 15.673h1.76l4.444 6.579 4.599-6.579h1.673l-5.369 7.657 5.677 8.053h-1.804l-4.775-6.931-4.84 6.931h-1.694l5.655-8.097-5.326-7.613zm13.883 4.357h1.276v2.662h.044c.704-1.826 2.244-2.904 4.29-2.816v1.386c-2.508-.132-4.225 1.716-4.225 4.071v6.051h-1.386V20.03zm7.348 6.051c.021 2.024 1.078 4.467 3.74 4.467 2.024 0 3.124-1.188 3.564-2.905h1.386c-.594 2.575-2.09 4.071-4.95 4.071-3.608 0-5.127-2.772-5.127-6.007 0-2.993 1.519-6.007 5.127-6.007 3.652 0 5.104 3.19 4.994 6.381h-8.734zm7.349-1.166c-.066-2.09-1.364-4.049-3.608-4.049-2.267 0-3.521 1.98-3.74 4.049h7.348zm10.054-1.563c-.066-1.716-1.386-2.486-2.971-2.486-1.231 0-2.685.484-2.685 1.958 0 1.232 1.408 1.672 2.354 1.914l1.849.417c1.584.242 3.234 1.167 3.234 3.146 0 2.465-2.442 3.411-4.555 3.411-2.641 0-4.444-1.232-4.665-4.005h1.387c.11 1.871 1.496 2.839 3.345 2.839 1.298 0 3.103-.572 3.103-2.156 0-1.32-1.232-1.761-2.486-2.068l-1.782-.396c-1.805-.483-3.169-1.101-3.169-3.036 0-2.311 2.267-3.19 4.269-3.19 2.267 0 4.07 1.188 4.158 3.652h-1.386zm13.948 2.355c0 3.256-1.892 6.007-5.368 6.007s-5.369-2.751-5.369-6.007 1.893-6.007 5.369-6.007 5.368 2.75 5.368 6.007zm-9.351 0c0 2.42 1.319 4.841 3.982 4.841 2.662 0 3.982-2.421 3.982-4.841 0-2.42-1.32-4.841-3.982-4.841s-3.982 2.42-3.982 4.841zm20.616 5.676h-1.276v-2.046h-.044c-.726 1.518-2.223 2.376-3.917 2.376-2.86 0-3.982-1.673-3.982-4.313v-7.37h1.387v7.394c.065 2.046.836 3.124 3.036 3.124 2.376 0 3.41-2.245 3.41-4.555V20.03h1.387v11.353zm2.616-11.353h1.276v2.662h.044c.704-1.826 2.244-2.904 4.29-2.816v1.386c-2.508-.132-4.225 1.716-4.225 4.071v6.051h-1.386V20.03zm14.542 3.564c-.374-1.694-1.408-2.729-3.212-2.729-2.663 0-3.982 2.42-3.982 4.841 0 2.42 1.319 4.841 3.982 4.841 1.716 0 3.124-1.343 3.3-3.235h1.387c-.374 2.729-2.156 4.401-4.687 4.401-3.477 0-5.369-2.751-5.369-6.007s1.893-6.007 5.369-6.007c2.42 0 4.29 1.298 4.599 3.895h-1.387zm4.223 2.487c.021 2.024 1.078 4.467 3.74 4.467 2.024 0 3.124-1.188 3.564-2.905h1.386c-.594 2.575-2.09 4.071-4.95 4.071-3.608 0-5.127-2.772-5.127-6.007 0-2.993 1.519-6.007 5.127-6.007 3.652 0 5.104 3.19 4.994 6.381h-8.734zm7.349-1.166c-.066-2.09-1.364-4.049-3.608-4.049-2.267 0-3.521 1.98-3.74 4.049h7.348zm10.054-1.563c-.066-1.716-1.386-2.486-2.971-2.486-1.231 0-2.684.484-2.684 1.958 0 1.232 1.408 1.672 2.354 1.914l1.849.417c1.584.242 3.234 1.167 3.234 3.146 0 2.465-2.442 3.411-4.555 3.411-2.641 0-4.444-1.232-4.665-4.005h1.387c.11 1.871 1.496 2.839 3.345 2.839 1.298 0 3.103-.572 3.103-2.156 0-1.32-1.232-1.761-2.486-2.068l-1.782-.396c-1.805-.483-3.169-1.101-3.169-3.036 0-2.311 2.267-3.19 4.269-3.19 2.267 0 4.07 1.188 4.159 3.652h-1.388z"/>
  <path opacity=".05" d="M36.063 4.085c5.983 4.148 9.895 11.061 9.895 18.894 0 12.691-10.284 22.979-22.98 22.979-7.833 0-14.746-3.909-18.895-9.894a23.787 23.787 0 0 0 3.862 5.075 23.418 23.418 0 0 0 15.799 6.096c12.974 0 23.491-10.519 23.491-23.49a23.407 23.407 0 0 0-6.096-15.798 23.743 23.743 0 0 0-5.076-3.862zm5.076 3.862A23.398 23.398 0 0 1 47.491 24c0 12.973-10.517 23.49-23.491 23.49a23.399 23.399 0 0 1-16.054-6.351C12.194 45.371 18.039 48 24.51 48 37.483 48 48 37.483 48 24.511c0-6.47-2.63-12.317-6.861-16.564z"/>
  <path opacity=".1" d="M41.14 7.947a23.411 23.411 0 0 1 6.097 15.798c0 12.974-10.517 23.49-23.491 23.49a23.42 23.42 0 0 1-15.8-6.096 23.402 23.402 0 0 0 16.055 6.351c12.974 0 23.49-10.518 23.49-23.49 0-6.21-2.414-11.853-6.351-16.053z"/>
  <path opacity=".2" d="M30.896 1.404c8.799 3.221 15.064 11.66 15.064 21.58 0 12.69-10.285 22.979-22.979 22.979-9.915 0-18.355-6.265-21.571-15.063 4.008 12.338 17.259 19.093 29.598 15.085a23.488 23.488 0 0 0 16.234-22.234A23.489 23.489 0 0 0 30.9 1.409l-.004-.005z"/>
  <path fill="#2E3440" d="M23.491 0c12.974 0 23.491 10.516 23.491 23.489 0 12.974-10.517 23.49-23.491 23.49S0 36.463 0 23.489C0 10.516 10.517 0 23.491 0z"/>
  <path opacity=".1" d="M39.862 6.67a23.403 23.403 0 0 1 6.097 15.798c0 12.974-10.517 23.49-23.49 23.49a23.42 23.42 0 0 1-15.8-6.096c4.268 4.382 10.224 7.117 16.821 7.117 12.974 0 23.49-10.518 23.49-23.49 0-6.599-2.734-12.552-7.118-16.819z"/>
  <path fill="#3B4252" d="M28.948 8.49H13.881a2.142 2.142 0 0 0-2.143 2.143v25.715c0 1.183.959 2.143 2.143 2.143H33.1c1.184 0 2.143-.96 2.143-2.143V14.784L28.948 8.49z"/>
  <path opacity=".1" d="M30.948 10.49H15.881a2.142 2.142 0 0 0-2.143 2.143v25.715c0 1.183.959 2.143 2.143 2.143H35.1c1.184 0 2.143-.96 2.143-2.143V16.784l-6.295-6.294z"/>
  <path fill="#88C0D0" d="M23.491 26.705a3.214 3.214 0 1 1 0-6.429 3.214 3.214 0 0 1 0 6.429m5.457-14.063c0 1.184.959 2.143 2.143 2.143h4.152L28.948 8.49v4.152z"/>
</svg>
