<svg xmlns="http://www.w3.org/2000/svg" width="148.063" height="48" viewBox="0 0 148.063 48">
  <path opacity=".05" d="M36.063 4.085c5.983 4.148 9.895 11.062 9.895 18.895 0 12.69-10.284 22.978-22.98 22.978-7.832 0-14.745-3.908-18.895-9.894a23.765 23.765 0 0 0 3.861 5.075 23.421 23.421 0 0 0 15.799 6.096c12.975 0 23.491-10.518 23.491-23.489 0-6.08-2.304-11.627-6.096-15.799a23.712 23.712 0 0 0-5.075-3.862zm5.076 3.861C45.074 12.147 47.49 17.789 47.49 24c0 12.974-10.517 23.489-23.491 23.489a23.401 23.401 0 0 1-16.055-6.351C12.194 45.371 18.038 48 24.51 48 37.483 48 48 37.482 48 24.511c0-6.47-2.63-12.317-6.861-16.565z"/>
  <path opacity=".1" d="M41.14 7.946a23.414 23.414 0 0 1 6.097 15.799c0 12.974-10.517 23.489-23.491 23.489a23.417 23.417 0 0 1-15.799-6.096 23.398 23.398 0 0 0 16.055 6.351c12.974 0 23.49-10.518 23.49-23.489A23.404 23.404 0 0 0 41.14 7.946z"/>
  <path opacity=".2" d="M30.896 1.403c8.799 3.222 15.064 11.66 15.064 21.58 0 12.691-10.285 22.979-22.979 22.979-9.915 0-18.354-6.266-21.571-15.064 4.008 12.339 17.26 19.093 29.598 15.085A23.486 23.486 0 0 0 47.242 23.75 23.488 23.488 0 0 0 30.9 1.409l-.004-.006z"/>
  <path fill="#2E3440" d="M23.491 0c12.974 0 23.49 10.517 23.49 23.489 0 12.974-10.517 23.49-23.49 23.49C10.517 46.979 0 36.463 0 23.489 0 10.517 10.517 0 23.491 0z"/>
  <path opacity=".1" d="M39.862 6.67a23.404 23.404 0 0 1 6.097 15.798c0 12.974-10.517 23.489-23.49 23.489a23.418 23.418 0 0 1-15.8-6.095c4.268 4.381 10.225 7.117 16.821 7.117 12.974 0 23.49-10.518 23.49-23.49 0-6.599-2.734-12.552-7.118-16.819z"/>
  <g opacity=".1">
    <path d="M12.491 13.824v21.332c0 .736.597 1.334 1.334 1.334h9.905V12.489h-9.905c-.737 0-1.334.598-1.334 1.335zm12.76 22.666h9.905c.737 0 1.334-.598 1.334-1.334V23.955H25.25V36.49zm9.905-24.001h-9.905v9.946h11.24v-8.611c0-.737-.597-1.335-1.335-1.335z"/>
    <path d="M13.825 36.49h21.331c.737 0 1.334-.598 1.334-1.334v-.772h-24v.772a1.335 1.335 0 0 0 1.335 1.334z"/>
  </g>
  <path fill="#3B4252" d="M11.491 12.824v21.332c0 .736.597 1.334 1.334 1.334h9.905v-24h-9.905c-.737 0-1.334.597-1.334 1.334z"/>
  <path fill="#4C566A" d="M24.251 35.49h9.905c.737 0 1.334-.598 1.334-1.334V22.955H24.25V35.49z"/>
  <path fill="#434C5E" d="M34.156 11.49h-9.905v9.946h11.24v-8.611c0-.738-.597-1.335-1.335-1.335z"/>
  <path fill="#88C0D0" d="M12.825 35.49h21.331c.737 0 1.334-.598 1.334-1.334v-.772h-24v.772a1.335 1.335 0 0 0 1.335 1.334z"/>
  <path fill="none" d="M53 16.204h95.249v16.134H53z"/>
  <path fill="#88C0D0" d="M54.188 16.201h.66l10.738 15.16h.044v-15.16h.44v15.711h-.66L54.672 16.751h-.044v15.161h-.44V16.201zm18.789 4.137c3.301 0 5.083 2.838 5.083 5.919 0 3.103-1.782 5.919-5.105 5.919-3.3 0-5.083-2.816-5.083-5.919 0-3.081 1.782-5.919 5.105-5.919zm0 11.398c3.015 0 4.643-2.619 4.643-5.479 0-2.816-1.628-5.479-4.643-5.479-3.058 0-4.665 2.663-4.665 5.479 0 2.86 1.606 5.479 4.665 5.479zm7.347.176h-.44v-11.31h.44v2.794h.044c.418-1.672 1.738-3.146 4.444-3.059v.44c-3.102-.154-4.488 2.267-4.488 4.731v6.404zm14.059-15.711h.44v15.711h-.44v-3.169h-.044c-.572 1.98-2.222 3.433-4.533 3.433-2.992 0-4.818-2.486-4.818-5.896 0-3.169 1.694-5.941 4.818-5.941 2.398 0 4.005 1.386 4.533 3.433h.044v-7.571zm-4.577 4.577c-3.102 0-4.378 2.883-4.378 5.501 0 2.904 1.452 5.457 4.378 5.457 2.905 0 4.577-2.531 4.577-5.457 0-3.499-1.826-5.501-4.577-5.501z"/>
  <path fill="#2E3440" d="M104.369 20.558h2.311v1.166h-2.311v7.657c0 .902.133 1.431 1.123 1.496.395 0 .791-.021 1.188-.065V32c-.418 0-.814.043-1.232.043-1.848 0-2.486-.615-2.465-2.552v-7.767h-1.98v-1.166h1.98v-3.411h1.387v3.411zm4.313 0h1.275v1.914h.066c.727-1.364 1.914-2.244 3.719-2.244 1.496 0 2.838.726 3.256 2.222.682-1.496 2.113-2.222 3.609-2.222 2.486 0 3.762 1.298 3.762 3.982v7.702h-1.387v-7.636c0-1.87-.703-2.882-2.684-2.882-2.398 0-3.08 1.98-3.08 4.092v6.426h-1.387V24.21c.021-1.54-.615-2.816-2.377-2.816-2.398 0-3.365 1.804-3.389 4.18v6.338h-1.385V20.558zm27.523 11.354h-1.277v-2.047h-.043c-.727 1.518-2.223 2.377-3.916 2.377-2.861 0-3.984-1.673-3.984-4.313v-7.372h1.387v7.393c.066 2.047.836 3.125 3.037 3.125 2.377 0 3.41-2.245 3.41-4.555v-5.963h1.387v11.355zm5.719-5.897l-4.07-5.457h1.736l3.236 4.313 3.168-4.313h1.738l-4.094 5.434 4.424 5.92h-1.76l-3.566-4.775-3.498 4.775h-1.715l4.401-5.897z"/>
</svg>
