<svg xmlns="http://www.w3.org/2000/svg" width="163.386" height="48" viewBox="0 0 163.386 48">
  <path fill="none" d="M52.676 15.675h111.852v16.649H52.676z"/>
  <path fill="#88C0D0" d="M53.864 15.673h.66l10.738 15.16h.044v-15.16h.44v15.711h-.66l-10.738-15.16h-.044v15.161h-.44V15.673zm18.788 4.137c3.301 0 5.083 2.838 5.083 5.919 0 3.103-1.782 5.919-5.105 5.919-3.3 0-5.083-2.816-5.083-5.919.001-3.081 1.783-5.919 5.105-5.919zm0 11.398c3.015 0 4.643-2.619 4.643-5.479 0-2.816-1.628-5.479-4.643-5.479-3.058 0-4.665 2.663-4.665 5.479.001 2.86 1.607 5.479 4.665 5.479zm7.348.176h-.44v-11.31H80v2.794h.044c.418-1.672 1.738-3.146 4.444-3.059v.44C81.386 20.096 80 22.517 80 24.981v6.403zm14.059-15.711h.44v15.711h-.44v-3.169h-.044c-.572 1.98-2.222 3.433-4.533 3.433-2.992 0-4.818-2.486-4.818-5.896 0-3.169 1.694-5.941 4.818-5.941 2.398 0 4.005 1.386 4.533 3.433h.044v-7.571zm-4.577 4.577c-3.102 0-4.378 2.883-4.378 5.501 0 2.904 1.452 5.457 4.378 5.457 2.905 0 4.577-2.531 4.577-5.457 0-3.499-1.827-5.501-4.577-5.501z"/>
  <path fill="#2E3440" d="M116.983 31.384h-1.078l-.198-2.861h-.044c-1.056 2.244-3.168 3.191-5.435 3.191-4.951 0-7.415-3.895-7.415-8.186s2.464-8.186 7.415-8.186c3.301 0 5.985 1.783 6.558 5.215h-1.497c-.197-1.804-2.068-3.938-5.061-3.938-4.158 0-5.918 3.477-5.918 6.909s1.76 6.908 5.918 6.908c3.477 0 5.501-2.441 5.435-5.764h-5.347v-1.276h6.667v7.988zm11.814 0h-1.276v-2.047h-.044c-.726 1.518-2.223 2.377-3.916 2.377-2.861 0-3.983-1.673-3.983-4.313V20.03h1.387v7.393c.065 2.047.836 3.125 3.036 3.125 2.377 0 3.41-2.245 3.41-4.555V20.03h1.387v11.354zm2.484-7.877c.132-2.663 2.002-3.807 4.599-3.807 2.002 0 4.181.616 4.181 3.652v6.029c0 .528.264.837.813.837.154 0 .33-.045.44-.089v1.167a3.915 3.915 0 0 1-.902.088c-1.408 0-1.628-.793-1.628-1.98h-.044c-.969 1.475-1.959 2.311-4.137 2.311-2.091 0-3.807-1.035-3.807-3.322 0-3.191 3.103-3.301 6.095-3.653 1.145-.132 1.782-.286 1.782-1.54 0-1.871-1.342-2.333-2.971-2.333-1.716 0-2.992.792-3.036 2.641h-1.385zm7.393 1.672h-.044c-.176.33-.792.439-1.166.506-2.354.418-5.281.396-5.281 2.618 0 1.386 1.232 2.245 2.531 2.245 2.112 0 3.982-1.343 3.96-3.564v-1.805zm4.157-9.506h1.386v9.857l6.293-5.5h1.849l-4.841 4.203 5.171 7.151h-1.738l-4.488-6.184-2.245 1.871v4.313h-1.386V15.673zm11.815 10.409c.021 2.023 1.078 4.467 3.74 4.467 2.024 0 3.124-1.189 3.564-2.905h1.386c-.594 2.575-2.09 4.071-4.95 4.071-3.608 0-5.127-2.773-5.127-6.008 0-2.992 1.519-6.006 5.127-6.006 3.652 0 5.104 3.19 4.994 6.381h-8.734zm7.348-1.166c-.066-2.091-1.364-4.049-3.608-4.049-2.267 0-3.521 1.98-3.74 4.049h7.348z"/>
  <path opacity=".05" d="M36.063 4.085c5.983 4.148 9.895 11.061 9.895 18.894 0 12.691-10.284 22.979-22.98 22.979-7.833 0-14.746-3.909-18.895-9.894a23.787 23.787 0 0 0 3.862 5.075 23.418 23.418 0 0 0 15.799 6.096c12.974 0 23.491-10.519 23.491-23.49a23.407 23.407 0 0 0-6.096-15.798 23.743 23.743 0 0 0-5.076-3.862zm5.076 3.862A23.398 23.398 0 0 1 47.491 24c0 12.973-10.517 23.49-23.491 23.49a23.399 23.399 0 0 1-16.054-6.351C12.194 45.371 18.039 48 24.51 48 37.483 48 48 37.483 48 24.511c0-6.47-2.63-12.317-6.861-16.564z"/>
  <path opacity=".1" d="M41.14 7.947a23.411 23.411 0 0 1 6.097 15.798c0 12.974-10.517 23.49-23.491 23.49a23.42 23.42 0 0 1-15.8-6.096 23.402 23.402 0 0 0 16.055 6.351c12.974 0 23.49-10.518 23.49-23.49 0-6.21-2.414-11.853-6.351-16.053z"/>
  <path opacity=".2" d="M30.896 1.404c8.799 3.221 15.064 11.66 15.064 21.58 0 12.69-10.285 22.979-22.979 22.979-9.915 0-18.355-6.265-21.571-15.063 4.008 12.338 17.259 19.093 29.598 15.085a23.488 23.488 0 0 0 16.234-22.234A23.489 23.489 0 0 0 30.9 1.409l-.004-.005z"/>
  <path fill="#2E3440" d="M23.491 0c12.974 0 23.491 10.516 23.491 23.489 0 12.974-10.517 23.49-23.491 23.49S0 36.463 0 23.489C0 10.516 10.517 0 23.491 0z"/>
  <path opacity=".1" d="M39.862 6.67a23.403 23.403 0 0 1 6.097 15.798c0 12.974-10.517 23.49-23.49 23.49a23.42 23.42 0 0 1-15.8-6.096c4.268 4.382 10.224 7.117 16.821 7.117 12.974 0 23.49-10.518 23.49-23.49 0-6.599-2.734-12.552-7.118-16.819z"/>
  <path fill-opacity=".1" d="M36.256 34.213v-4.086H24v4.086m-9.452-4.086l-2.801-2.968 6.303-5.202-6.303-5.198 2.801-2.972 9.455 8.17"/>
  <path fill="#88C0D0" d="M35.234 33.192v-4.086H22.978v4.086m-9.451-4.086l-2.801-2.968 6.304-5.202-6.304-5.198 2.801-2.972 9.455 8.17"/>
</svg>
