<svg xmlns="http://www.w3.org/2000/svg" width="252.254" height="48" viewBox="0 0 252.254 48">
  <path opacity=".05" d="M36.063 4.085c5.984 4.148 9.895 11.062 9.895 18.894 0 12.691-10.283 22.979-22.979 22.979-7.833 0-14.745-3.909-18.896-9.894a23.795 23.795 0 0 0 3.862 5.075 23.421 23.421 0 0 0 15.799 6.096c12.974 0 23.491-10.518 23.491-23.489a23.415 23.415 0 0 0-6.096-15.799 23.768 23.768 0 0 0-5.076-3.862zm5.076 3.861C45.074 12.147 47.49 17.788 47.49 24c0 12.974-10.518 23.489-23.492 23.489a23.4 23.4 0 0 1-16.054-6.351C12.193 45.37 18.038 48 24.51 48 37.482 48 48 37.482 48 24.511c0-6.47-2.631-12.317-6.861-16.565z"/>
  <path opacity=".1" d="M41.139 7.946a23.415 23.415 0 0 1 6.098 15.799c0 12.973-10.518 23.489-23.491 23.489a23.417 23.417 0 0 1-15.8-6.096 23.404 23.404 0 0 0 16.055 6.351c12.975 0 23.49-10.518 23.49-23.489a23.404 23.404 0 0 0-6.352-16.054z"/>
  <path opacity=".2" d="M30.895 1.403c8.799 3.222 15.064 11.66 15.064 21.58 0 12.691-10.285 22.979-22.979 22.979-9.916 0-18.355-6.266-21.572-15.064 4.009 12.338 17.26 19.093 29.598 15.085A23.484 23.484 0 0 0 47.24 23.75 23.485 23.485 0 0 0 30.9 1.409l-.005-.006z"/>
  <path fill="#2E3440" d="M23.49 0c12.975 0 23.49 10.517 23.49 23.489 0 12.974-10.516 23.489-23.49 23.489S0 36.463 0 23.489C0 10.517 10.516 0 23.49 0z"/>
  <path opacity=".1" d="M39.861 6.67a23.4 23.4 0 0 1 6.098 15.798c0 12.974-10.518 23.489-23.49 23.489a23.417 23.417 0 0 1-15.801-6.096c4.268 4.382 10.225 7.117 16.822 7.117 12.973 0 23.49-10.518 23.49-23.489 0-6.599-2.734-12.552-7.119-16.819z"/>
  <path fill-opacity=".1" d="M11.559 10.724h26.555v26.553H11.559V10.724z"/>
  <path fill="#3B4252" d="M10.537 9.702h26.555v26.554H10.537V9.702z"/>
  <path fill="#8FBCBB" d="M20.75 14.809v-2.042h-6.128v2.042h2.042v7.149h-2.042V24h6.128v-2.042h-2.043v-7.149m6.734 9.173c-1.234-.142-2.103-.946-2.88-1.655l1.239-1.4c.408.422 1.021.929 1.658 1.014.637.084 1.457.014 1.949-.402.493-.419.493-.985.493-1.662v-7.11h2.041L29.938 20c.004 1.438-.541 2.409-1.047 2.95-.807.826-1.852.909-2.826 1.045"/>
  <path fill="#D8DEE9" d="M12.58 31.149h10.213v2.042H12.58v-2.042z"/>
  <path fill="none" d="M53 15.792h200.352v20.501H53z"/>
  <path fill="#88C0D0" d="M54.188 15.79h.66l10.738 15.16h.044V15.79h.44V31.5h-.66L54.672 16.34h-.044V31.5h-.44V15.79zm18.789 4.136c3.301 0 5.083 2.838 5.083 5.919 0 3.102-1.782 5.918-5.105 5.918-3.3 0-5.083-2.816-5.083-5.918 0-3.08 1.782-5.919 5.105-5.919zm0 11.398c3.015 0 4.643-2.619 4.643-5.479 0-2.817-1.628-5.479-4.643-5.479-3.058 0-4.665 2.663-4.665 5.479 0 2.86 1.606 5.479 4.665 5.479zm7.347.176h-.44V20.19h.44v2.794h.044c.418-1.672 1.738-3.146 4.444-3.059v.44c-3.102-.154-4.488 2.267-4.488 4.731V31.5zm14.059-15.71h.44V31.5h-.44v-3.168h-.044c-.572 1.98-2.222 3.432-4.533 3.432-2.992 0-4.818-2.486-4.818-5.896 0-3.168 1.694-5.941 4.818-5.941 2.398 0 4.005 1.386 4.533 3.433h.044v-7.57zm-4.577 4.576c-3.102 0-4.378 2.883-4.378 5.501 0 2.904 1.452 5.457 4.378 5.457 2.905 0 4.577-2.531 4.577-5.457 0-3.498-1.826-5.501-4.577-5.501z"/>
  <path fill="#2E3440" d="M110.223 15.79h1.496v11.332c0 3.191-1.188 4.709-4.576 4.709-3.608 0-4.401-2.641-4.379-5.369h1.497c.044 1.343-.088 4.093 3.014 4.093 2.332 0 2.948-1.188 2.948-4.07V15.79zm5.214 10.407c.021 2.024 1.078 4.467 3.74 4.467 2.024 0 3.124-1.188 3.564-2.904h1.386c-.594 2.574-2.09 4.07-4.95 4.07-3.608 0-5.127-2.772-5.127-6.007 0-2.993 1.519-6.007 5.127-6.007 3.652 0 5.104 3.19 4.994 6.381h-8.734zm7.348-1.166c-.066-2.09-1.364-4.049-3.608-4.049-2.267 0-3.521 1.98-3.74 4.049h7.348zm5.455-4.885h2.311v1.166h-2.311v7.657c0 .901.132 1.431 1.122 1.496.396 0 .792-.022 1.188-.065v1.188c-.418 0-.814.044-1.232.044-1.849 0-2.486-.616-2.464-2.552v-7.768h-1.98v-1.166h1.98v-3.411h1.386v3.411zm4.575-4.356h6.646c2.64 0 5.038.924 5.038 3.851 0 1.65-1.1 3.168-2.729 3.521v.044c2.024.264 3.323 1.783 3.323 3.829 0 1.496-.528 4.467-5.633 4.467h-6.646V15.79zm1.497 6.887h5.149c2.398 0 3.542-1.188 3.542-2.663 0-1.958-1.21-2.948-3.542-2.948h-5.149v5.611zm0 7.547h5.149c2.222.022 4.137-.726 4.137-3.234 0-2.002-1.519-3.036-4.137-3.036h-5.149v6.27zm12.914-10.078h1.276v2.662h.044c.704-1.826 2.244-2.904 4.29-2.816v1.386c-2.508-.132-4.225 1.716-4.225 4.071V31.5h-1.386V20.146zm6.797 3.477c.132-2.663 2.002-3.807 4.599-3.807 2.002 0 4.181.616 4.181 3.652v6.029c0 .527.264.836.813.836.154 0 .33-.044.44-.088v1.166a3.86 3.86 0 0 1-.902.088c-1.408 0-1.628-.792-1.628-1.98h-.044c-.969 1.475-1.959 2.311-4.137 2.311-2.091 0-3.807-1.034-3.807-3.322 0-3.191 3.103-3.301 6.095-3.653 1.145-.132 1.782-.286 1.782-1.54 0-1.871-1.342-2.333-2.971-2.333-1.716 0-2.992.792-3.036 2.641h-1.385zm7.393 1.672h-.044c-.176.33-.792.44-1.166.506-2.354.418-5.281.396-5.281 2.619 0 1.386 1.232 2.244 2.531 2.244 2.112 0 3.982-1.342 3.96-3.564v-1.805zm4.179-9.505h1.387v2.223h-1.387V15.79zm0 4.356h1.387V31.5h-1.387V20.146zm4.026 0h1.387v1.958h.044c.506-1.364 2.024-2.288 3.631-2.288 3.19 0 4.158 1.672 4.158 4.378V31.5h-1.387v-7.085c0-1.958-.638-3.433-2.882-3.433-2.2 0-3.521 1.672-3.564 3.895V31.5h-1.387V20.146zm18.635 3.323c-.066-1.716-1.386-2.486-2.971-2.486-1.231 0-2.684.484-2.684 1.958 0 1.232 1.408 1.672 2.354 1.914l1.849.418c1.584.242 3.234 1.166 3.234 3.146 0 2.464-2.442 3.41-4.555 3.41-2.641 0-4.444-1.232-4.665-4.004h1.387c.11 1.869 1.496 2.838 3.345 2.838 1.298 0 3.103-.572 3.103-2.156 0-1.32-1.232-1.761-2.486-2.068l-1.782-.396c-1.805-.484-3.169-1.1-3.169-3.036 0-2.311 2.267-3.19 4.269-3.19 2.267 0 4.07 1.188 4.159 3.652h-1.388zm10.163-7.679h10.848v1.276h-9.352v5.677h8.758v1.276h-8.758v6.205h9.462V31.5h-10.958V15.79zM221.19 31.5h-1.276v-2.156h-.044c-.594 1.475-2.398 2.486-4.049 2.486-3.454 0-5.104-2.795-5.104-6.007 0-3.212 1.65-6.007 5.104-6.007 1.694 0 3.345.858 3.939 2.486h.044V15.79h1.386V31.5zm-5.369-.836c2.949 0 3.983-2.486 3.983-4.841s-1.034-4.841-3.983-4.841c-2.64 0-3.718 2.486-3.718 4.841s1.079 4.841 3.718 4.841zm8.03-14.874h1.387v2.223h-1.387V15.79zm0 4.356h1.387V31.5h-1.387V20.146zm6.249 0h2.311v1.166H230.1v7.657c0 .901.132 1.431 1.122 1.496.396 0 .792-.022 1.188-.065v1.188c-.418 0-.814.044-1.232.044-1.849 0-2.486-.616-2.464-2.552v-7.768h-1.98v-1.166h1.98v-3.411h1.386v3.411zm14.476 5.677c0 3.257-1.892 6.007-5.368 6.007s-5.369-2.75-5.369-6.007c0-3.256 1.893-6.007 5.369-6.007s5.368 2.751 5.368 6.007zm-9.35 0c0 2.421 1.319 4.841 3.982 4.841 2.662 0 3.982-2.42 3.982-4.841 0-2.42-1.32-4.841-3.982-4.841-2.663 0-3.982 2.421-3.982 4.841zm11.418-5.677h1.276v2.662h.044c.704-1.826 2.244-2.904 4.29-2.816v1.386c-2.508-.132-4.225 1.716-4.225 4.071V31.5h-1.386V20.146z"/>
</svg>
