<svg xmlns="http://www.w3.org/2000/svg" width="166.087" height="48" viewBox="0 0 166.087 48">
  <path fill="none" d="M52.676 15.675h114.519v16.649H52.676z"/>
  <path fill="#88C0D0" d="M53.864 15.673h.66l10.738 15.161h.044V15.673h.44v15.71h-.66l-10.737-15.16h-.044v15.16h-.44v-15.71zm18.788 4.137c3.301 0 5.083 2.838 5.083 5.918 0 3.104-1.782 5.919-5.105 5.919-3.3 0-5.083-2.815-5.083-5.919.001-3.08 1.783-5.918 5.105-5.918zm0 11.398c3.015 0 4.643-2.618 4.643-5.479 0-2.816-1.628-5.479-4.643-5.479-3.058 0-4.665 2.663-4.665 5.479.001 2.86 1.607 5.479 4.665 5.479zm7.348.175h-.44v-11.31H80v2.794h.044c.418-1.672 1.738-3.146 4.444-3.059v.44C81.386 20.096 80 22.516 80 24.98v6.403zm14.059-15.71h.44v15.71h-.44v-3.169h-.044c-.572 1.98-2.222 3.433-4.533 3.433-2.992 0-4.818-2.485-4.818-5.896 0-3.168 1.694-5.941 4.818-5.941 2.398 0 4.005 1.386 4.533 3.433h.044v-7.57zm-4.577 4.577c-3.102 0-4.378 2.883-4.378 5.501 0 2.904 1.452 5.457 4.378 5.457 2.905 0 4.577-2.53 4.577-5.457 0-3.499-1.827-5.501-4.577-5.501z"/>
  <path fill="#2E3440" d="M103.562 15.673h10.848v1.276h-9.351v5.677h8.757v1.276h-8.757v6.205h9.461v1.276h-10.958v-15.71zm12.782 4.357h1.276v1.914h.065c.727-1.364 1.914-2.244 3.719-2.244 1.496 0 2.839.726 3.257 2.222.682-1.496 2.112-2.222 3.608-2.222 2.486 0 3.763 1.298 3.763 3.982v7.701h-1.387v-7.635c0-1.87-.704-2.882-2.685-2.882-2.398 0-3.08 1.98-3.08 4.093v6.425h-1.386v-7.701c.021-1.54-.616-2.816-2.377-2.816-2.398 0-3.366 1.804-3.389 4.181v6.337h-1.386V20.03zm18.194 3.476c.132-2.663 2.002-3.807 4.599-3.807 2.002 0 4.181.616 4.181 3.652v6.028c0 .529.264.837.813.837.154 0 .33-.044.44-.089v1.167a3.855 3.855 0 0 1-.902.088c-1.408 0-1.628-.792-1.628-1.98h-.044c-.969 1.475-1.958 2.311-4.137 2.311-2.091 0-3.807-1.034-3.807-3.322 0-3.19 3.103-3.301 6.095-3.653 1.145-.132 1.782-.286 1.782-1.54 0-1.871-1.342-2.333-2.971-2.333-1.716 0-2.992.792-3.036 2.641h-1.385zm7.393 1.672h-.044c-.176.33-.792.44-1.166.507-2.354.418-5.281.396-5.281 2.617 0 1.387 1.232 2.245 2.531 2.245 2.112 0 3.982-1.343 3.96-3.564v-1.805zm12.166-1.584c-.374-1.694-1.408-2.729-3.212-2.729-2.663 0-3.982 2.42-3.982 4.841 0 2.42 1.319 4.841 3.982 4.841 1.716 0 3.124-1.343 3.3-3.235h1.387c-.374 2.729-2.156 4.401-4.687 4.401-3.477 0-5.369-2.751-5.369-6.007s1.893-6.007 5.369-6.007c2.42 0 4.29 1.298 4.599 3.895h-1.387zm10.208-.242c-.066-1.716-1.386-2.486-2.971-2.486-1.231 0-2.684.484-2.684 1.958 0 1.232 1.408 1.672 2.354 1.914l1.849.417c1.584.242 3.234 1.167 3.234 3.146 0 2.465-2.442 3.411-4.555 3.411-2.641 0-4.444-1.232-4.665-4.005h1.387c.11 1.871 1.496 2.839 3.345 2.839 1.298 0 3.103-.572 3.103-2.156 0-1.32-1.232-1.761-2.486-2.068l-1.782-.396c-1.805-.483-3.169-1.101-3.169-3.036 0-2.311 2.267-3.19 4.269-3.19 2.267 0 4.07 1.188 4.159 3.652h-1.388z"/>
  <path opacity=".05" d="M36.063 4.085c5.983 4.148 9.895 11.061 9.895 18.894 0 12.691-10.284 22.979-22.98 22.979-7.833 0-14.746-3.909-18.895-9.894a23.787 23.787 0 0 0 3.862 5.075 23.418 23.418 0 0 0 15.799 6.096c12.974 0 23.491-10.519 23.491-23.49a23.407 23.407 0 0 0-6.096-15.798 23.743 23.743 0 0 0-5.076-3.862zm5.076 3.862A23.398 23.398 0 0 1 47.491 24c0 12.973-10.517 23.49-23.491 23.49a23.399 23.399 0 0 1-16.054-6.351C12.194 45.371 18.039 48 24.51 48 37.483 48 48 37.483 48 24.511c0-6.47-2.63-12.317-6.861-16.564z"/>
  <path opacity=".1" d="M41.14 7.947a23.411 23.411 0 0 1 6.097 15.798c0 12.974-10.517 23.49-23.491 23.49a23.42 23.42 0 0 1-15.8-6.096 23.402 23.402 0 0 0 16.055 6.351c12.974 0 23.49-10.518 23.49-23.49 0-6.21-2.414-11.853-6.351-16.053z"/>
  <path opacity=".2" d="M30.896 1.404c8.799 3.221 15.064 11.66 15.064 21.58 0 12.69-10.285 22.979-22.979 22.979-9.915 0-18.355-6.265-21.571-15.063 4.008 12.338 17.259 19.093 29.598 15.085a23.488 23.488 0 0 0 16.234-22.234A23.489 23.489 0 0 0 30.9 1.409l-.004-.005z"/>
  <path fill="#2E3440" d="M23.491 0c12.974 0 23.491 10.516 23.491 23.489 0 12.974-10.517 23.49-23.491 23.49S0 36.463 0 23.489C0 10.516 10.517 0 23.491 0z"/>
  <path opacity=".1" d="M39.862 6.67a23.403 23.403 0 0 1 6.097 15.798c0 12.974-10.517 23.49-23.49 23.49a23.42 23.42 0 0 1-15.8-6.096c4.268 4.382 10.224 7.117 16.821 7.117 12.974 0 23.49-10.518 23.49-23.49 0-6.599-2.734-12.552-7.118-16.819z"/>
  <path opacity=".1" d="M33.565 8.675h-8.296c2.525.585 8.296 1.911 8.296 2.963 0 2.24-10.667-.594-13.037-.594-1.185 0-3.552.199-3.556 1.778-.009 4.148 5.573 7.704 9.481 10.074-2.722-.789-5.215-1.186-7.585-1.186-3.082 0-9.008 1.186-9.008 5.334 0 3.669 7.429 7.042 9.482 7.703 3.567 1.15 9.481 1.772 9.481 2.371 0 .593-4.741 1.185-10.667 1.185H14.6c2.371 1.186 5.926 1.186 9.482 1.186l3.555-.002c2.371-.002 8.296-.083 8.296-2.132 0-1.787-7.111-3.296-10.667-4.029-4.959-1.022-8.561-3.013-8.296-4.504.632-3.567 9.481-3.556 16.593-3.556-3.102-2.49-10.667-7.11-10.667-9.125 0-.863 1.186-1.062 2.371-1.067 4.741-.023 8.296 1.007 9.481 1.007 2.371 0 3.556-1.48 3.556-3.259.002-2.962-3.554-4.147-4.739-4.147z"/>
  <path fill="#D8DEE9" d="M32.38 7.49h-8.296c2.525.586 8.296 1.912 8.296 2.963 0 2.24-10.667-.592-13.037-.592-1.186 0-3.552.198-3.556 1.777-.01 4.148 5.573 7.703 9.481 10.074-2.723-.79-5.215-1.186-7.585-1.186-3.082 0-9.007 1.186-9.007 5.333 0 3.67 7.429 7.043 9.481 7.704 3.567 1.149 9.481 1.771 9.481 2.37 0 .593-4.741 1.186-10.667 1.186h-3.556c2.371 1.186 5.926 1.186 9.481 1.186l3.556-.003c2.371-.001 8.296-.083 8.296-2.131 0-1.787-7.111-3.296-10.667-4.029-4.959-1.023-8.561-3.013-8.296-4.504.631-3.567 9.481-3.556 16.593-3.556-3.102-2.49-10.667-7.111-10.667-9.126 0-.863 1.185-1.061 2.371-1.066 4.741-.023 8.296 1.007 9.481 1.007 2.37 0 3.556-1.481 3.556-3.259.002-2.963-3.554-4.148-4.739-4.148z"/>
</svg>
