<svg xmlns="http://www.w3.org/2000/svg" width="187.411" height="48" viewBox="0 0 187.411 48">
  <path fill="none" d="M52.676 15.675h135.769v16.649H52.676z"/>
  <path fill="#88C0D0" d="M53.864 15.673h.66l10.738 15.161h.044V15.673h.44v15.71h-.66l-10.737-15.16h-.044v15.16h-.44v-15.71zm18.788 4.137c3.301 0 5.083 2.838 5.083 5.918 0 3.104-1.782 5.919-5.105 5.919-3.3 0-5.083-2.815-5.083-5.919.001-3.08 1.783-5.918 5.105-5.918zm0 11.398c3.015 0 4.643-2.618 4.643-5.479 0-2.816-1.628-5.479-4.643-5.479-3.058 0-4.665 2.663-4.665 5.479.001 2.86 1.607 5.479 4.665 5.479zm7.348.175h-.44v-11.31H80v2.794h.044c.418-1.672 1.738-3.146 4.444-3.059v.44C81.386 20.096 80 22.516 80 24.98v6.403zm14.059-15.71h.44v15.71h-.44v-3.169h-.044c-.572 1.98-2.222 3.433-4.533 3.433-2.992 0-4.818-2.485-4.818-5.896 0-3.168 1.694-5.941 4.818-5.941 2.398 0 4.005 1.386 4.533 3.433h.044v-7.57zm-4.577 4.577c-3.102 0-4.378 2.883-4.378 5.501 0 2.904 1.452 5.457 4.378 5.457 2.905 0 4.577-2.53 4.577-5.457 0-3.499-1.827-5.501-4.577-5.501z"/>
  <path fill="#2E3440" d="M101.868 15.673h12.454v1.276h-5.479v14.434h-1.496V16.949h-5.479v-1.276zm12.035 10.408c.021 2.024 1.078 4.467 3.74 4.467 2.024 0 3.124-1.188 3.564-2.905h1.386c-.594 2.575-2.09 4.071-4.95 4.071-3.608 0-5.127-2.772-5.127-6.007 0-2.993 1.519-6.007 5.127-6.007 3.652 0 5.104 3.19 4.994 6.381h-8.734zm7.349-1.166c-.066-2.09-1.364-4.049-3.608-4.049-2.267 0-3.521 1.98-3.74 4.049h7.348zm6.357.571l-4.07-5.456h1.737l3.235 4.313 3.168-4.313h1.738l-4.093 5.435 4.423 5.919h-1.76l-3.565-4.774-3.498 4.774h-1.716l4.401-5.898zm9.68-5.456h2.311v1.166h-2.311v7.657c0 .902.132 1.43 1.122 1.496.396 0 .792-.021 1.188-.066v1.188c-.418 0-.814.044-1.232.044-1.849 0-2.486-.615-2.464-2.553v-7.767h-1.98V20.03h1.98v-3.411h1.386v3.411zm4.531-4.357h2.2l5.436 13.774 5.412-13.774h2.2v15.71h-1.496V17.807h-.044l-5.368 13.576h-1.408l-5.392-13.576h-.044v13.576h-1.496v-15.71zm17.975 7.833c.132-2.663 2.002-3.807 4.599-3.807 2.002 0 4.181.616 4.181 3.652v6.028c0 .529.264.837.813.837.154 0 .33-.044.44-.089v1.167a3.86 3.86 0 0 1-.902.088c-1.408 0-1.628-.792-1.628-1.98h-.044c-.969 1.475-1.959 2.311-4.137 2.311-2.091 0-3.807-1.034-3.807-3.322 0-3.19 3.103-3.301 6.095-3.653 1.145-.132 1.782-.286 1.782-1.54 0-1.871-1.342-2.333-2.971-2.333-1.716 0-2.992.792-3.036 2.641h-1.385zm7.393 1.672h-.044c-.176.33-.792.44-1.166.507-2.354.418-5.281.396-5.281 2.617 0 1.387 1.232 2.245 2.531 2.245 2.112 0 3.982-1.343 3.96-3.564v-1.805zm6.357-5.148h2.311v1.166h-2.311v7.657c0 .902.132 1.43 1.122 1.496.396 0 .792-.021 1.188-.066v1.188c-.418 0-.814.044-1.232.044-1.849 0-2.486-.615-2.464-2.553v-7.767h-1.98V20.03h1.98v-3.411h1.386v3.411zm5.126 6.051c.021 2.024 1.078 4.467 3.74 4.467 2.024 0 3.124-1.188 3.564-2.905h1.386c-.594 2.575-2.09 4.071-4.95 4.071-3.608 0-5.127-2.772-5.127-6.007 0-2.993 1.519-6.007 5.127-6.007 3.652 0 5.104 3.19 4.994 6.381h-8.734zm7.349-1.166c-.066-2.09-1.364-4.049-3.608-4.049-2.267 0-3.521 1.98-3.74 4.049h7.348z"/>
  <path opacity=".05" d="M36.063 4.085c5.983 4.148 9.895 11.061 9.895 18.894 0 12.691-10.284 22.979-22.98 22.979-7.833 0-14.746-3.909-18.895-9.894a23.787 23.787 0 0 0 3.862 5.075 23.418 23.418 0 0 0 15.799 6.096c12.974 0 23.491-10.519 23.491-23.49a23.407 23.407 0 0 0-6.096-15.798 23.743 23.743 0 0 0-5.076-3.862zm5.076 3.862A23.398 23.398 0 0 1 47.491 24c0 12.973-10.517 23.49-23.491 23.49a23.399 23.399 0 0 1-16.054-6.351C12.194 45.371 18.039 48 24.51 48 37.483 48 48 37.483 48 24.511c0-6.47-2.63-12.317-6.861-16.564z"/>
  <path opacity=".1" d="M41.14 7.947a23.411 23.411 0 0 1 6.097 15.798c0 12.974-10.517 23.49-23.491 23.49a23.42 23.42 0 0 1-15.8-6.096 23.402 23.402 0 0 0 16.055 6.351c12.974 0 23.49-10.518 23.49-23.49 0-6.21-2.414-11.853-6.351-16.053z"/>
  <path opacity=".2" d="M30.896 1.404c8.799 3.221 15.064 11.66 15.064 21.58 0 12.69-10.285 22.979-22.979 22.979-9.915 0-18.355-6.265-21.571-15.063 4.008 12.338 17.259 19.093 29.598 15.085a23.488 23.488 0 0 0 16.234-22.234A23.489 23.489 0 0 0 30.9 1.409l-.004-.005z"/>
  <path fill="#2E3440" d="M23.491 0c12.974 0 23.491 10.516 23.491 23.489 0 12.974-10.517 23.49-23.491 23.49S0 36.463 0 23.489C0 10.516 10.517 0 23.491 0z"/>
  <path opacity=".1" d="M39.862 6.67a23.403 23.403 0 0 1 6.097 15.798c0 12.974-10.517 23.49-23.49 23.49a23.42 23.42 0 0 1-15.8-6.096c4.268 4.382 10.224 7.117 16.821 7.117 12.974 0 23.49-10.518 23.49-23.49 0-6.599-2.734-12.552-7.118-16.819z"/>
  <path opacity=".1" d="M35.404 22.048c2.408-1.618 4.316-3.313 4.279-4.246.353-1.535-3.71.003-7.474 2.281 2.207-2.756 3.99-5.7 3.575-6.724-.224-1.859-4.852 2.478-7.751 6.649 1.234-4.061 2.01-9.048 1.009-9.972-.196-.313-.445-.329-.724-.125-.18-.295-.417-.375-.717-.16-.875.324-1.704 2.736-2.27 5.58-.691-3.688-1.855-6.705-2.701-5.617-.883.664-.869 4.106-.396 7.604-2.054-3.889-4.746-7.298-5.234-5.801-.747 1.138 1.214 5.789 3.396 9.43-3.823-3.345-9.365-6.431-9.131-4.573-.077.541.487 1.41 1.412 2.408-.911-.187-1.501-.114-1.508.362.058.923 2.075 2.43 4.431 3.813-3.259-.511-6.321-.572-6.032.453.374 1.018 3.552 2.032 6.718 2.702-3.745.581-7.652 1.721-6.943 2.713.844 1.009 5.57.617 9.239-.051-3.602 2.153-8.133 5.814-6.869 6.521.889.412 3.398-.801 5.875-2.34-1.718 2.105-3.031 4.186-2.496 4.807.69.477 2.689-1.126 4.643-3.115-1.083 2.569-1.793 5.031-1.088 5.484.924.301 2.73-2.57 4.16-5.497-.281 3.245-.209 6.637.737 6.854 1.159-.035 1.975-4.748 2.218-8.431 1.128 3.514 3.062 7.889 4.195 7.642.731-.372.309-2.793-.479-5.395 1.705 2.366 3.563 4.44 4.542 4.398 1.058-.129-.18-2.932-1.908-5.744 2.185 1.645 4.354 2.926 5.229 2.623 1.12-.486-1.65-3.476-4.566-5.902 3.062 1.057 6.314 1.825 7.16 1.145 1.054-.991-4.218-3.445-8.233-4.663 3.72-.242 8.39-1.008 8.964-2.188.174-.443-.34-.737-1.253-.911 1.233-.57 2.083-1.159 2.218-1.688.679-1.198-2.556-1.109-6.227-.326z"/>
  <path fill="#5E81AC" d="M9.169 17.146c.116 1.837 7.979 5.985 10.86 6.868 1.209.44 1.824.599 2.25.693-.348.227-.813.525-1.734 1.263-2.155 1.422-8.527 8.546-7.453 9.795 1.356.937 7.769-6.15 8.957-8.442.637-.994.884-1.488 1.073-1.858.139.415.362 1.009.926 2.165 1.182 2.771 6.134 10.156 7.974 10.076 1.844-.223-3.279-8.574-5.832-10.928-.978-1.049-1.534-1.528-1.929-1.867.584.006 1.509-.018 3.147-.215 4.428-.424 11.801-2.664 12.223-4.319 1.065-1.882-7.504-.597-12.281 1.575-1.748.72-2.679 1.242-3.258 1.588.284-.612.705-1.593 1.236-3.406 1.657-4.979 2.033-13.637.273-12.379-1.602.593-3.053 8.162-3.007 12.61-.025 1.649.049 2.572.117 3.152-.378-.356-.914-.859-2.06-1.721-2.609-2.293-11.454-6.507-11.482-4.65z"/>
  <path fill="#81A1C1" d="M7.344 26.826c1.182 1.412 9.974.086 12.817-.91 1.234-.363 1.822-.6 2.222-.777-.146.389-.344.904-.647 2.045-.892 2.423-1.797 11.938-.191 12.307 1.647-.05 2.607-9.56 2.204-12.109-.076-1.178-.171-1.722-.238-2.132.358.251.889.597 2.029 1.193 2.596 1.53 10.962 4.539 12.396 3.384 1.353-1.272-7.726-4.959-11.176-5.339-1.41-.265-2.143-.321-2.661-.359.473-.342 1.206-.909 2.406-2.04 3.314-2.968 7.921-9.145 7.28-10.727-.258-2.147-6.396 3.97-8.954 8.552-.98 1.617-1.42 2.588-1.681 3.211-.135-.661-.377-1.7-1.025-3.477-1.618-4.991-6.451-12.185-7.122-10.128-.937 1.427 2.383 8.382 5.058 11.937.958 1.343 1.566 2.042 1.964 2.469-.516-.063-1.245-.15-2.679-.164-3.461-.3-13.082 1.554-12.002 3.064z"/>
  <path fill="#88C0D0" d="M7.569 21.412c.635 1.728 9.356 3.455 12.37 3.479 1.284.076 1.918.053 2.354.021-.269.316-.63.734-1.301 1.705-1.658 1.979-5.729 10.625-4.343 11.517 1.568.51 5.688-8.114 6.171-10.65.326-1.134.421-1.679.497-2.087.251.358.634.863 1.505 1.811 1.925 2.318 8.781 7.979 10.52 7.378 1.704-.74-5.592-7.28-8.711-8.806-1.237-.727-1.907-1.027-2.382-1.238.561-.163 1.442-.448 2.955-1.106 4.123-1.672 10.548-5.926 10.479-7.632.484-2.108-7.362 1.572-11.319 5.019-1.47 1.189-2.212 1.955-2.669 2.453.097-.668.22-1.728.211-3.619.166-5.244-1.948-13.649-3.275-11.941-1.365 1.027-.593 8.694.721 12.944.448 1.588.783 2.451 1.013 2.988-.464-.234-1.121-.563-2.466-1.061-3.154-1.451-12.835-2.962-12.33-1.175z"/>
  <path fill="#8FBCBB" d="M9.714 33.297c1.67.772 9.059-4.173 11.206-6.286.962-.855 1.394-1.32 1.68-1.65.034.414.075.965.286 2.125.227 2.572 3.462 11.566 5.073 11.216 1.469-.748-1.716-9.76-3.167-11.895-.571-1.032-.888-1.485-1.124-1.827.431.075 1.059.162 2.345.216 3 .278 11.851-.567 12.656-2.222.682-1.728-9.103-1.194-12.386-.067-1.388.361-2.075.623-2.56.808.283-.511.702-1.335 1.307-2.871 1.734-4.097 3.27-11.649 2.015-12.807-1.149-1.833-4.094 6.317-4.456 11.553-.198 1.88-.181 2.947-.152 3.621-.404-.541-1.066-1.376-2.409-2.708-3.591-3.826-11.029-8.274-10.759-6.128-.239 1.69 5.728 6.567 9.662 8.643 1.439.806 2.287 1.179 2.829 1.396-.493.163-1.19.395-2.494.993-3.259 1.208-11.173 6.983-9.552 7.89z"/>
  <circle fill="#81A1C1" cx="22.445" cy="24.303" r="3.211"/>
</svg>
