<?xml version="1.0" encoding="utf-8"?>
<!-- Generator: Adobe Illustrator 19.1.0, SVG Export Plug-In . SVG Version: 6.00 Build 0)  -->
<svg version="1.1" id="nord-coda-banner" xmlns="http://www.w3.org/2000/svg" xmlns:xlink="http://www.w3.org/1999/xlink" x="0px"
	 y="0px" width="195.176px" height="48px" viewBox="0 0 195.176 48" style="enable-background:new 0 0 195.176 48;"
	 xml:space="preserve">
<style type="text/css">
	.st0{display:none;}
	.st1{display:inline;fill:#2E3440;}
	.st2{fill:#88C0D0;}
	.st3{opacity:0.05;enable-background:new    ;}
	.st4{opacity:0.1;enable-background:new    ;}
	.st5{opacity:0.2;enable-background:new    ;}
	.st6{fill:#2E3440;}
	.st7{fill:#434C5E;}
	.st8{fill:#3B4252;}
	.st9{fill:#81A1C1;}
</style>
<g class="st0">
	<path class="st1" d="M111.789,14.577c0.721,0,1.412,0.068,2.076,0.204c0.664,0.136,1.248,0.368,1.752,0.696
		c0.504,0.328,0.908,0.76,1.212,1.296c0.304,0.536,0.456,1.204,0.456,2.004c0,0.448-0.071,0.884-0.216,1.308
		c-0.144,0.424-0.348,0.808-0.612,1.152c-0.264,0.344-0.575,0.636-0.936,0.876c-0.36,0.24-0.765,0.408-1.212,0.504v0.048
		c1.104,0.144,1.983,0.596,2.64,1.356c0.656,0.76,0.984,1.7,0.984,2.82c0,0.272-0.024,0.58-0.072,0.924
		c-0.048,0.345-0.144,0.696-0.288,1.056c-0.144,0.36-0.352,0.717-0.624,1.068c-0.272,0.352-0.636,0.66-1.092,0.924
		c-0.456,0.264-1.017,0.481-1.68,0.649c-0.664,0.168-1.461,0.252-2.389,0.252h-7.248V14.577H111.789z M111.789,22.089
		c0.656,0,1.225-0.076,1.704-0.228c0.48-0.152,0.88-0.36,1.2-0.624c0.32-0.264,0.56-0.572,0.72-0.924
		c0.16-0.352,0.24-0.728,0.24-1.128c0-2.144-1.288-3.216-3.864-3.216h-5.615v6.12H111.789z M111.789,30.321
		c0.608,0,1.185-0.052,1.729-0.155c0.544-0.104,1.023-0.292,1.439-0.564c0.416-0.272,0.744-0.636,0.984-1.092
		c0.24-0.456,0.36-1.028,0.36-1.716c0-1.105-0.389-1.933-1.164-2.484c-0.776-0.552-1.893-0.828-3.349-0.828h-5.615v6.839H111.789z"
		/>
	<path class="st1" d="M121.653,19.33v2.904h0.048c0.384-1.008,0.98-1.784,1.788-2.328c0.808-0.543,1.771-0.792,2.892-0.744v1.512
		c-0.688-0.032-1.312,0.06-1.871,0.276c-0.561,0.216-1.045,0.524-1.452,0.924c-0.408,0.4-0.725,0.876-0.948,1.428
		c-0.225,0.552-0.336,1.156-0.336,1.812v6.601h-1.512V19.33H121.653z"/>
	<path class="st1" d="M128.133,21.25c0.256-0.528,0.604-0.96,1.044-1.296c0.44-0.336,0.956-0.584,1.548-0.744
		c0.592-0.16,1.248-0.24,1.968-0.24c0.544,0,1.088,0.052,1.633,0.156c0.543,0.104,1.031,0.3,1.464,0.588
		c0.432,0.288,0.783,0.692,1.056,1.212c0.273,0.52,0.408,1.196,0.408,2.028v6.575c0,0.608,0.296,0.912,0.888,0.912
		c0.176,0,0.336-0.031,0.48-0.096v1.271c-0.177,0.032-0.332,0.057-0.468,0.072c-0.137,0.017-0.309,0.024-0.517,0.024
		c-0.384,0-0.692-0.052-0.924-0.156c-0.232-0.104-0.412-0.252-0.54-0.444c-0.128-0.191-0.212-0.42-0.252-0.684
		c-0.04-0.264-0.06-0.556-0.06-0.876h-0.049c-0.271,0.4-0.548,0.756-0.828,1.068c-0.279,0.312-0.592,0.572-0.936,0.779
		c-0.344,0.208-0.736,0.368-1.176,0.48c-0.44,0.111-0.964,0.168-1.572,0.168c-0.576,0-1.116-0.068-1.62-0.204
		c-0.504-0.136-0.944-0.352-1.319-0.649c-0.377-0.296-0.673-0.672-0.889-1.128c-0.216-0.456-0.324-0.996-0.324-1.62
		c0-0.863,0.192-1.539,0.576-2.027c0.384-0.488,0.892-0.86,1.524-1.116c0.632-0.256,1.344-0.436,2.136-0.54
		c0.792-0.104,1.596-0.204,2.412-0.3c0.32-0.032,0.6-0.072,0.84-0.12c0.24-0.048,0.44-0.132,0.601-0.252
		c0.159-0.12,0.283-0.284,0.371-0.492s0.133-0.48,0.133-0.816c0-0.512-0.084-0.932-0.252-1.26c-0.168-0.328-0.4-0.588-0.696-0.78
		c-0.296-0.192-0.641-0.324-1.032-0.396c-0.393-0.072-0.812-0.108-1.26-0.108c-0.96,0-1.744,0.228-2.352,0.684
		c-0.607,0.456-0.928,1.188-0.96,2.196h-1.512C127.725,22.401,127.877,21.777,128.133,21.25z M135.692,24.945
		c-0.096,0.177-0.279,0.305-0.552,0.385c-0.272,0.08-0.512,0.136-0.72,0.168c-0.641,0.111-1.3,0.212-1.98,0.3
		c-0.68,0.088-1.3,0.22-1.859,0.396c-0.561,0.177-1.021,0.429-1.38,0.756c-0.36,0.328-0.54,0.797-0.54,1.404
		c0,0.384,0.075,0.725,0.228,1.021c0.152,0.296,0.356,0.552,0.612,0.768c0.256,0.216,0.552,0.38,0.888,0.492
		c0.336,0.112,0.68,0.168,1.032,0.168c0.576,0,1.128-0.088,1.656-0.264c0.527-0.177,0.987-0.433,1.38-0.768
		c0.392-0.336,0.704-0.744,0.936-1.224c0.232-0.48,0.349-1.024,0.349-1.632v-1.969H135.692z"/>
	<path class="st1" d="M147.861,21.033c-0.561-0.528-1.345-0.792-2.352-0.792c-0.72,0-1.353,0.152-1.896,0.456
		c-0.545,0.304-0.996,0.705-1.356,1.2c-0.36,0.496-0.632,1.06-0.816,1.692c-0.184,0.632-0.275,1.276-0.275,1.932
		c0,0.656,0.092,1.3,0.275,1.933c0.185,0.632,0.456,1.195,0.816,1.691c0.36,0.496,0.811,0.896,1.356,1.2
		c0.543,0.304,1.176,0.456,1.896,0.456c0.464,0,0.904-0.088,1.32-0.264c0.416-0.177,0.783-0.421,1.104-0.732
		c0.32-0.312,0.584-0.684,0.792-1.116c0.208-0.432,0.336-0.903,0.385-1.416h1.512c-0.208,1.504-0.761,2.676-1.656,3.517
		c-0.896,0.84-2.048,1.26-3.456,1.26c-0.944,0-1.78-0.172-2.508-0.517c-0.729-0.344-1.34-0.812-1.836-1.403
		c-0.496-0.592-0.872-1.284-1.128-2.076c-0.256-0.792-0.384-1.636-0.384-2.532c0-0.896,0.128-1.74,0.384-2.532
		c0.256-0.792,0.632-1.484,1.128-2.076c0.496-0.592,1.107-1.064,1.836-1.416c0.728-0.352,1.564-0.528,2.508-0.528
		c1.328,0,2.452,0.352,3.372,1.056c0.92,0.704,1.468,1.768,1.645,3.192h-1.513C148.805,22.29,148.421,21.562,147.861,21.033z"/>
	<path class="st1" d="M154.245,14.577V25.33l6.864-6h2.016l-5.28,4.584l5.641,7.8h-1.896l-4.896-6.744l-2.448,2.04v4.704h-1.512
		V14.577H154.245z"/>
	<path class="st1" d="M165.849,27.622c0.152,0.584,0.396,1.108,0.732,1.571c0.336,0.465,0.76,0.849,1.271,1.152
		c0.513,0.304,1.129,0.456,1.849,0.456c1.104,0,1.968-0.288,2.592-0.864c0.624-0.576,1.056-1.344,1.296-2.304h1.512
		c-0.32,1.408-0.908,2.496-1.764,3.264c-0.856,0.769-2.068,1.152-3.636,1.152c-0.977,0-1.82-0.172-2.532-0.517
		c-0.712-0.344-1.292-0.816-1.74-1.416c-0.448-0.6-0.779-1.296-0.996-2.088c-0.216-0.792-0.323-1.628-0.323-2.508
		c0-0.815,0.107-1.616,0.323-2.399c0.217-0.784,0.548-1.484,0.996-2.1c0.448-0.616,1.028-1.112,1.74-1.488
		c0.712-0.375,1.556-0.564,2.532-0.564c0.991,0,1.84,0.2,2.544,0.6c0.704,0.4,1.275,0.924,1.716,1.572
		c0.439,0.648,0.756,1.392,0.948,2.232c0.191,0.84,0.271,1.691,0.24,2.556h-9.528C165.621,26.473,165.696,27.038,165.849,27.622z
		 M173.337,23.001c-0.184-0.528-0.444-0.996-0.78-1.404c-0.336-0.408-0.744-0.735-1.224-0.984c-0.48-0.247-1.024-0.372-1.632-0.372
		c-0.624,0-1.176,0.125-1.656,0.372c-0.479,0.249-0.888,0.576-1.224,0.984c-0.336,0.408-0.604,0.88-0.805,1.416
		c-0.2,0.537-0.332,1.084-0.396,1.644h8.016C173.621,24.082,173.52,23.529,173.337,23.001z"/>
	<path class="st1" d="M182.109,19.33v1.272h-2.52v8.352c0,0.496,0.068,0.884,0.204,1.163c0.136,0.28,0.476,0.437,1.02,0.469
		c0.432,0,0.863-0.024,1.296-0.072v1.271c-0.225,0-0.448,0.009-0.672,0.024c-0.225,0.016-0.448,0.024-0.673,0.024
		c-1.008,0-1.712-0.196-2.111-0.588c-0.4-0.393-0.593-1.116-0.576-2.173v-8.471h-2.16V19.33h2.16v-3.72h1.512v3.72H182.109z"/>
	<path class="st1" d="M191.421,21.741c-0.177-0.344-0.412-0.628-0.708-0.852c-0.297-0.224-0.637-0.388-1.02-0.492
		c-0.384-0.104-0.792-0.156-1.224-0.156c-0.336,0-0.677,0.036-1.02,0.108c-0.344,0.072-0.66,0.192-0.947,0.36
		c-0.288,0.168-0.52,0.388-0.696,0.66c-0.177,0.272-0.264,0.608-0.264,1.008c0,0.336,0.084,0.62,0.252,0.852
		c0.168,0.232,0.38,0.428,0.636,0.588c0.256,0.16,0.536,0.292,0.84,0.396c0.304,0.104,0.584,0.188,0.84,0.252l2.017,0.456
		c0.432,0.063,0.859,0.18,1.283,0.348c0.424,0.168,0.8,0.389,1.128,0.66c0.328,0.273,0.597,0.608,0.805,1.008
		c0.207,0.4,0.312,0.872,0.312,1.416c0,0.672-0.152,1.244-0.456,1.716c-0.304,0.473-0.692,0.856-1.164,1.152
		c-0.472,0.296-1.004,0.508-1.596,0.636c-0.592,0.128-1.176,0.192-1.752,0.192c-1.456,0-2.637-0.344-3.54-1.032
		c-0.904-0.688-1.42-1.792-1.548-3.311h1.512c0.063,1.023,0.436,1.796,1.116,2.315c0.68,0.521,1.524,0.78,2.532,0.78
		c0.367,0,0.747-0.04,1.14-0.12c0.392-0.08,0.756-0.216,1.092-0.408c0.336-0.191,0.612-0.436,0.828-0.731
		c0.216-0.296,0.324-0.66,0.324-1.093c0-0.367-0.076-0.676-0.229-0.924c-0.151-0.248-0.355-0.456-0.611-0.624
		c-0.257-0.168-0.549-0.308-0.876-0.42c-0.328-0.111-0.66-0.208-0.996-0.288l-1.944-0.432c-0.496-0.128-0.952-0.276-1.368-0.444
		c-0.416-0.168-0.779-0.376-1.092-0.624c-0.312-0.248-0.556-0.552-0.731-0.912c-0.177-0.36-0.265-0.804-0.265-1.332
		c0-0.624,0.14-1.16,0.42-1.608c0.28-0.448,0.645-0.808,1.093-1.08c0.447-0.271,0.947-0.472,1.5-0.6
		c0.552-0.128,1.1-0.192,1.644-0.192c0.624,0,1.204,0.081,1.74,0.24c0.535,0.16,1.008,0.408,1.416,0.744
		c0.408,0.336,0.731,0.752,0.972,1.248c0.24,0.496,0.376,1.08,0.408,1.752h-1.512C191.692,22.49,191.597,22.086,191.421,21.741z"/>
</g>
<g id="text">
	<path class="st2" d="M53.864,16.673h0.66l10.738,15.161h0.044V16.673h0.44v15.71h-0.66l-10.737-15.16h-0.044v15.16h-0.44V16.673z"
		/>
	<path class="st2" d="M72.652,20.81c3.301,0,5.083,2.838,5.083,5.918c0,3.104-1.782,5.919-5.105,5.919
		c-3.3,0-5.083-2.815-5.083-5.919C67.548,23.648,69.33,20.81,72.652,20.81z M72.652,32.208c3.015,0,4.643-2.618,4.643-5.479
		c0-2.816-1.628-5.479-4.643-5.479c-3.058,0-4.665,2.663-4.665,5.479C67.988,29.589,69.594,32.208,72.652,32.208z"/>
	<path class="st2" d="M80,32.383h-0.44v-11.31H80v2.794h0.044c0.418-1.672,1.738-3.146,4.444-3.059v0.44
		C81.386,21.096,80,23.516,80,25.98V32.383z"/>
	<path class="st2" d="M94.059,16.673h0.44v15.71h-0.44v-3.169h-0.044c-0.572,1.981-2.222,3.433-4.533,3.433
		c-2.992,0-4.818-2.485-4.818-5.896c0-3.168,1.694-5.941,4.818-5.941c2.398,0,4.005,1.386,4.533,3.433h0.044V16.673z M89.482,21.25
		c-3.102,0-4.379,2.883-4.379,5.501c0,2.904,1.452,5.457,4.379,5.457c2.905,0,4.577-2.53,4.577-5.457
		C94.059,23.252,92.232,21.25,89.482,21.25z"/>
</g>
<g id="icon">
	<g id="base_1_">
		<g id="base-shades_1_">
			<path id="base-shade-back_1_" class="st3" d="M36.063,4.085c5.983,4.148,9.895,11.061,9.895,18.894
				c0,12.691-10.284,22.979-22.98,22.979c-7.833,0-14.746-3.909-18.895-9.894c1.06,1.86,2.355,3.573,3.862,5.075
				c4.172,3.79,9.717,6.096,15.799,6.096c12.974,0,23.491-10.519,23.491-23.49c0-6.081-2.304-11.626-6.096-15.798
				C39.638,6.44,37.924,5.145,36.063,4.085z M41.139,7.947c3.936,4.2,6.352,9.842,6.352,16.053c0,12.973-10.517,23.49-23.491,23.49
				c-6.21,0-11.853-2.414-16.054-6.351C12.194,45.371,18.039,48,24.51,48C37.483,48,48,37.483,48,24.511
				C48,18.041,45.37,12.194,41.139,7.947z"/>
			<path id="base-shade-middle_1_" class="st4" d="M41.14,7.947c3.791,4.172,6.097,9.716,6.097,15.798
				c0,12.974-10.517,23.49-23.491,23.49c-6.081,0-11.627-2.305-15.8-6.096c4.201,3.936,9.843,6.351,16.055,6.351
				c12.974,0,23.49-10.518,23.49-23.49C47.491,17.79,45.077,12.147,41.14,7.947z"/>
			<path id="base-shade-front_1_" class="st5" d="M30.896,1.404c8.799,3.221,15.064,11.66,15.064,21.58
				c0,12.691-10.285,22.979-22.98,22.979c-9.915,0-18.355-6.265-21.571-15.064c4.008,12.338,17.259,19.093,29.598,15.085
				c9.644-3.132,16.189-12.097,16.234-22.234C47.228,13.544,40.623,4.515,30.9,1.409L30.896,1.404z"/>
		</g>
		<path id="base-background_1_" class="st6" d="M23.491,0c12.974,0,23.491,10.516,23.491,23.489c0,12.974-10.517,23.49-23.491,23.49
			C10.517,46.979,0,36.463,0,23.489C0,10.516,10.517,0,23.491,0z"/>
		<path id="base-background-shade_1_" class="st4" d="M39.862,6.67c3.792,4.17,6.097,9.716,6.097,15.798
			c0,12.974-10.517,23.49-23.49,23.49c-6.081,0-11.627-2.305-15.8-6.096c4.267,4.382,10.224,7.117,16.821,7.117
			c12.974,0,23.49-10.518,23.49-23.49C46.98,16.89,44.246,10.937,39.862,6.67z"/>
	</g>
	<path class="st7" d="M38.466,32.474c0,3.294-2.695,5.99-5.99,5.99h-17.97c-3.295,0-5.99-2.695-5.99-5.99v-17.97
		c0-3.295,2.695-5.99,5.99-5.99h17.97c3.294,0,5.99,2.696,5.99,5.99V32.474z"/>
	<path class="st8" d="M32.476,11.809c1.486,0,2.695,1.209,2.695,2.696v14.975c0,1.486-1.209,2.696-2.695,2.696h-17.97
		c-1.486,0-2.696-1.209-2.696-2.696V14.504c0-1.486,1.209-2.696,2.696-2.696H32.476"/>
	<path class="st2" d="M32.476,11.809c1.486,0,2.695,1.209,2.695,2.696v14.975c0,1.486-1.209,2.696-2.695,2.696h-17.97
		c-1.486,0-2.696-1.209-2.696-2.696V14.504c0-1.486,1.209-2.696,2.696-2.696H32.476L32.476,11.809z M32.476,8.514h-17.97
		c-3.295,0-5.99,2.696-5.99,5.99v14.975c0,3.295,2.695,5.99,5.99,5.99h17.97c3.294,0,5.99-2.695,5.99-5.99V14.504
		C38.466,11.21,35.77,8.514,32.476,8.514z"/>
	<g>
		<g>
			<polygon class="st9" points="31.877,14.804 31.877,29.18 24.389,29.18 24.389,25.586 28.582,25.586 28.582,18.098 24.389,18.098 
				24.389,14.804 			"/>
		</g>
		<g>
			<polygon class="st9" points="22.592,14.804 22.592,18.098 18.399,18.098 18.399,25.586 22.592,25.586 22.592,29.18 15.105,29.18 
				15.105,14.804 			"/>
		</g>
	</g>
</g>
<g>
	<path class="st6" d="M110.731,15.2c0.733,0,1.438,0.069,2.115,0.208c0.676,0.139,1.271,0.375,1.785,0.709
		c0.513,0.334,0.925,0.774,1.234,1.32c0.31,0.546,0.464,1.227,0.464,2.042c0,0.457-0.073,0.901-0.22,1.333
		c-0.147,0.432-0.354,0.823-0.624,1.173c-0.269,0.351-0.587,0.648-0.954,0.893s-0.778,0.416-1.234,0.513v0.049
		c1.125,0.147,2.021,0.607,2.689,1.381c0.668,0.774,1.002,1.732,1.002,2.873c0,0.277-0.024,0.591-0.073,0.941
		s-0.146,0.709-0.293,1.075c-0.146,0.367-0.358,0.729-0.636,1.088c-0.277,0.359-0.647,0.673-1.112,0.941
		c-0.464,0.27-1.035,0.489-1.711,0.66s-1.487,0.257-2.433,0.257h-7.383V15.2H110.731z M110.731,22.852
		c0.668,0,1.247-0.077,1.736-0.232c0.489-0.155,0.896-0.367,1.223-0.636c0.326-0.269,0.57-0.583,0.733-0.941
		c0.163-0.358,0.245-0.742,0.245-1.149c0-2.184-1.312-3.276-3.937-3.276h-5.721v6.234H110.731z M110.731,31.238
		c0.62,0,1.206-0.053,1.76-0.159c0.554-0.105,1.043-0.297,1.467-0.574c0.423-0.277,0.758-0.648,1.002-1.112
		c0.245-0.465,0.367-1.047,0.367-1.748c0-1.125-0.396-1.968-1.186-2.53s-1.928-0.844-3.411-0.844h-5.721v6.968H110.731z"/>
	<path class="st6" d="M120.78,20.041v2.958h0.049c0.392-1.027,0.999-1.817,1.822-2.372c0.823-0.554,1.805-0.807,2.946-0.758v1.541
		c-0.701-0.033-1.336,0.061-1.907,0.281c-0.571,0.22-1.063,0.534-1.479,0.941c-0.416,0.408-0.737,0.893-0.965,1.455
		c-0.229,0.562-0.342,1.178-0.342,1.847v6.723h-1.541V20.041H120.78z"/>
	<path class="st6" d="M127.38,21.996c0.261-0.538,0.615-0.978,1.063-1.32s0.974-0.595,1.577-0.758
		c0.603-0.163,1.271-0.244,2.004-0.244c0.555,0,1.108,0.053,1.662,0.159c0.555,0.106,1.052,0.306,1.492,0.599
		c0.439,0.293,0.798,0.705,1.075,1.234c0.277,0.53,0.416,1.219,0.416,2.066v6.699c0,0.619,0.302,0.929,0.904,0.929
		c0.18,0,0.343-0.032,0.489-0.098v1.296c-0.18,0.033-0.339,0.058-0.477,0.073c-0.139,0.017-0.314,0.024-0.525,0.024
		c-0.392,0-0.706-0.053-0.941-0.159c-0.236-0.105-0.42-0.257-0.551-0.452c-0.131-0.195-0.216-0.428-0.256-0.696
		c-0.041-0.27-0.062-0.566-0.062-0.893h-0.049c-0.277,0.407-0.559,0.77-0.844,1.088c-0.285,0.317-0.603,0.583-0.954,0.795
		c-0.35,0.212-0.749,0.374-1.197,0.488s-0.982,0.171-1.602,0.171c-0.586,0-1.137-0.069-1.65-0.207
		c-0.514-0.139-0.962-0.358-1.345-0.66c-0.383-0.302-0.685-0.685-0.905-1.149c-0.22-0.465-0.33-1.015-0.33-1.65
		c0-0.88,0.196-1.568,0.587-2.065s0.908-0.876,1.552-1.137s1.369-0.444,2.176-0.55c0.807-0.106,1.625-0.208,2.457-0.306
		c0.326-0.033,0.611-0.073,0.855-0.123c0.244-0.049,0.448-0.134,0.611-0.256c0.162-0.123,0.289-0.29,0.379-0.502
		c0.09-0.211,0.135-0.489,0.135-0.831c0-0.521-0.086-0.949-0.257-1.284c-0.171-0.334-0.407-0.599-0.709-0.794
		c-0.302-0.196-0.652-0.33-1.052-0.403c-0.399-0.074-0.827-0.11-1.283-0.11c-0.979,0-1.777,0.232-2.396,0.697
		c-0.62,0.465-0.945,1.21-0.978,2.237h-1.54C126.965,23.17,127.12,22.534,127.38,21.996z M135.082,25.761
		c-0.098,0.18-0.285,0.311-0.562,0.391c-0.277,0.082-0.521,0.139-0.733,0.172c-0.652,0.114-1.325,0.217-2.017,0.306
		c-0.693,0.09-1.325,0.224-1.896,0.403c-0.571,0.18-1.039,0.437-1.406,0.771s-0.55,0.811-0.55,1.43c0,0.392,0.077,0.737,0.232,1.039
		s0.363,0.562,0.624,0.782c0.261,0.221,0.562,0.388,0.905,0.501c0.342,0.114,0.692,0.172,1.052,0.172c0.586,0,1.148-0.09,1.687-0.27
		c0.538-0.179,1.006-0.439,1.405-0.782c0.399-0.342,0.717-0.758,0.953-1.247c0.236-0.488,0.355-1.043,0.355-1.662v-2.005H135.082z"
		/>
	<path class="st6" d="M147.477,21.776c-0.57-0.538-1.369-0.807-2.396-0.807c-0.733,0-1.378,0.155-1.932,0.465
		c-0.555,0.31-1.015,0.717-1.381,1.222c-0.367,0.505-0.645,1.08-0.832,1.724c-0.188,0.644-0.281,1.3-0.281,1.968
		s0.094,1.324,0.281,1.968c0.188,0.645,0.465,1.219,0.832,1.724c0.366,0.506,0.826,0.913,1.381,1.223
		c0.554,0.31,1.198,0.465,1.932,0.465c0.473,0,0.921-0.09,1.345-0.27c0.424-0.179,0.798-0.428,1.124-0.745
		c0.326-0.318,0.595-0.697,0.807-1.137c0.212-0.44,0.343-0.921,0.392-1.443h1.54c-0.212,1.532-0.774,2.727-1.687,3.582
		c-0.913,0.855-2.087,1.283-3.521,1.283c-0.962,0-1.813-0.175-2.555-0.525c-0.742-0.35-1.365-0.827-1.871-1.43
		c-0.505-0.604-0.888-1.309-1.148-2.115s-0.392-1.666-0.392-2.579c0-0.912,0.131-1.772,0.392-2.58
		c0.261-0.807,0.644-1.511,1.148-2.115c0.506-0.603,1.129-1.083,1.871-1.442c0.741-0.358,1.593-0.538,2.555-0.538
		c1.353,0,2.497,0.358,3.435,1.076s1.495,1.801,1.675,3.251h-1.54C148.438,23.056,148.047,22.314,147.477,21.776z"/>
	<path class="st6" d="M153.98,15.2v10.952l6.992-6.111h2.054l-5.378,4.669l5.745,7.946h-1.932l-4.987-6.87l-2.494,2.078v4.792h-1.54
		V15.2H153.98z"/>
	<path class="st6" d="M165.801,28.488c0.155,0.595,0.403,1.128,0.746,1.601c0.342,0.474,0.773,0.864,1.296,1.174
		c0.521,0.31,1.148,0.465,1.882,0.465c1.125,0,2.005-0.294,2.641-0.881c0.636-0.586,1.076-1.369,1.32-2.347h1.54
		c-0.326,1.435-0.925,2.543-1.797,3.325c-0.872,0.782-2.106,1.173-3.704,1.173c-0.994,0-1.854-0.175-2.579-0.525
		c-0.726-0.35-1.316-0.831-1.772-1.442s-0.795-1.32-1.015-2.127s-0.33-1.658-0.33-2.555c0-0.831,0.11-1.646,0.33-2.445
		c0.22-0.798,0.559-1.512,1.015-2.139s1.047-1.133,1.772-1.516c0.726-0.383,1.585-0.574,2.579-0.574
		c1.011,0,1.874,0.204,2.592,0.611c0.717,0.408,1.3,0.941,1.748,1.602s0.771,1.418,0.966,2.274s0.277,1.724,0.244,2.604h-9.706
		C165.568,27.318,165.646,27.892,165.801,28.488z M173.429,23.781c-0.188-0.538-0.452-1.014-0.794-1.43
		c-0.343-0.416-0.759-0.75-1.247-1.002c-0.489-0.252-1.044-0.379-1.663-0.379c-0.636,0-1.197,0.126-1.687,0.379
		c-0.489,0.253-0.904,0.587-1.247,1.002c-0.342,0.416-0.615,0.897-0.819,1.442c-0.203,0.546-0.338,1.105-0.403,1.675h8.166
		C173.718,24.881,173.616,24.319,173.429,23.781z"/>
	<path class="st6" d="M182.364,20.041v1.295h-2.566v8.508c0,0.505,0.068,0.9,0.207,1.186s0.485,0.444,1.039,0.477
		c0.44,0,0.881-0.024,1.32-0.073v1.296c-0.229,0-0.456,0.008-0.685,0.024s-0.456,0.024-0.685,0.024
		c-1.026,0-1.744-0.199-2.151-0.599c-0.407-0.399-0.603-1.137-0.587-2.213v-8.63h-2.2v-1.295h2.2v-3.79h1.541v3.79H182.364z"/>
	<path class="st6" d="M191.851,22.498c-0.18-0.351-0.42-0.64-0.722-0.868c-0.302-0.228-0.647-0.395-1.039-0.501
		s-0.807-0.159-1.247-0.159c-0.342,0-0.688,0.037-1.039,0.11c-0.351,0.073-0.672,0.195-0.966,0.367
		c-0.293,0.171-0.529,0.395-0.709,0.672s-0.269,0.62-0.269,1.027c0,0.342,0.086,0.632,0.257,0.868
		c0.171,0.236,0.387,0.437,0.647,0.599c0.261,0.163,0.546,0.297,0.855,0.404s0.596,0.191,0.856,0.257l2.054,0.464
		c0.439,0.065,0.876,0.184,1.308,0.354c0.432,0.172,0.814,0.396,1.149,0.673c0.334,0.277,0.606,0.619,0.818,1.026
		s0.318,0.889,0.318,1.442c0,0.685-0.155,1.268-0.465,1.748c-0.31,0.481-0.705,0.872-1.186,1.174
		c-0.481,0.302-1.023,0.517-1.626,0.647c-0.604,0.131-1.198,0.195-1.784,0.195c-1.483,0-2.686-0.35-3.606-1.051
		c-0.921-0.7-1.447-1.825-1.577-3.374h1.54c0.065,1.043,0.444,1.83,1.137,2.359c0.693,0.53,1.553,0.795,2.58,0.795
		c0.374,0,0.762-0.041,1.161-0.123c0.399-0.081,0.77-0.22,1.112-0.415c0.342-0.195,0.623-0.444,0.844-0.746
		c0.22-0.301,0.33-0.672,0.33-1.112c0-0.375-0.078-0.688-0.232-0.941c-0.155-0.252-0.363-0.464-0.624-0.636
		c-0.261-0.171-0.559-0.313-0.892-0.428c-0.335-0.113-0.673-0.211-1.015-0.293l-1.98-0.439c-0.506-0.131-0.97-0.281-1.394-0.453
		c-0.424-0.171-0.795-0.383-1.112-0.636c-0.318-0.252-0.566-0.562-0.746-0.929c-0.18-0.367-0.269-0.819-0.269-1.357
		c0-0.636,0.143-1.182,0.428-1.638c0.285-0.456,0.655-0.823,1.112-1.1c0.456-0.277,0.966-0.48,1.528-0.611
		c0.562-0.13,1.12-0.195,1.675-0.195c0.635,0,1.226,0.082,1.772,0.244c0.546,0.163,1.026,0.416,1.442,0.758
		c0.415,0.342,0.745,0.766,0.99,1.271c0.244,0.505,0.383,1.1,0.415,1.785h-1.54C192.127,23.26,192.029,22.848,191.851,22.498z"/>
</g>
<g>
</g>
<g>
</g>
<g>
</g>
<g>
</g>
<g>
</g>
<g>
</g>
</svg>
