<svg xmlns="http://www.w3.org/2000/svg" width="176.91" height="48" viewBox="0 0 176.91 48">
  <path fill="none" d="M52.676 15.675h124.935v16.649H52.676z"/>
  <path fill="#88C0D0" d="M53.864 15.673h.66l10.738 15.161h.044V15.673h.44v15.71h-.66l-10.737-15.16h-.044v15.16h-.44v-15.71zm18.788 4.137c3.301 0 5.083 2.838 5.083 5.918 0 3.104-1.782 5.919-5.105 5.919-3.3 0-5.083-2.815-5.083-5.919.001-3.08 1.783-5.918 5.105-5.918zm0 11.398c3.015 0 4.643-2.618 4.643-5.479 0-2.816-1.628-5.479-4.643-5.479-3.058 0-4.665 2.663-4.665 5.479.001 2.86 1.607 5.479 4.665 5.479zm7.348.175h-.44v-11.31H80v2.794h.044c.418-1.672 1.738-3.146 4.444-3.059v.44C81.386 20.096 80 22.516 80 24.98v6.403zm14.059-15.71h.44v15.71h-.44v-3.169h-.044c-.572 1.98-2.222 3.433-4.533 3.433-2.992 0-4.818-2.485-4.818-5.896 0-3.168 1.694-5.941 4.818-5.941 2.398 0 4.005 1.386 4.533 3.433h.044v-7.57zm-4.577 4.577c-3.102 0-4.378 2.883-4.378 5.501 0 2.904 1.452 5.457 4.378 5.457 2.905 0 4.577-2.53 4.577-5.457 0-3.499-1.827-5.501-4.577-5.501z"/>
  <path fill="#2E3440" d="M108.16 15.673h1.673l6.16 15.71h-1.605l-1.915-4.885h-7.15l-1.893 4.885h-1.606l6.336-15.71zm-2.376 9.549h6.183l-3.036-8.053-3.147 8.053zm11.395-9.549h1.387v15.71h-1.387v-15.71zm3.917 7.833c.132-2.663 2.002-3.807 4.599-3.807 2.002 0 4.181.616 4.181 3.652v6.028c0 .529.264.837.813.837.154 0 .33-.044.44-.089v1.167a3.86 3.86 0 0 1-.902.088c-1.408 0-1.628-.792-1.628-1.98h-.044c-.969 1.475-1.959 2.311-4.137 2.311-2.091 0-3.807-1.034-3.807-3.322 0-3.19 3.103-3.301 6.095-3.653 1.145-.132 1.782-.286 1.782-1.54 0-1.871-1.342-2.333-2.971-2.333-1.716 0-2.992.792-3.036 2.641h-1.385zm7.392 1.672h-.044c-.176.33-.792.44-1.166.507-2.354.418-5.281.396-5.281 2.617 0 1.387 1.232 2.245 2.531 2.245 2.112 0 3.982-1.343 3.96-3.564v-1.805zm12.166-1.584c-.374-1.694-1.408-2.729-3.212-2.729-2.663 0-3.982 2.42-3.982 4.841 0 2.42 1.319 4.841 3.982 4.841 1.716 0 3.124-1.343 3.3-3.235h1.387c-.374 2.729-2.156 4.401-4.687 4.401-3.477 0-5.369-2.751-5.369-6.007s1.893-6.007 5.369-6.007c2.42 0 4.29 1.298 4.599 3.895h-1.387zm3.409-3.564h1.276v2.662h.044c.704-1.826 2.244-2.904 4.29-2.816v1.386c-2.508-.132-4.225 1.716-4.225 4.071v6.051h-1.386V20.03zm6.952-4.357h1.387v2.223h-1.387v-2.223zm0 4.357h1.387v11.354h-1.387V20.03zm6.249 0h2.311v1.166h-2.311v7.657c0 .902.132 1.43 1.122 1.496.396 0 .792-.021 1.188-.066v1.188c-.418 0-.814.044-1.232.044-1.849 0-2.486-.615-2.464-2.553v-7.767h-1.98V20.03h1.98v-3.411h1.386v3.411zm6.511 0h2.311v1.166h-2.311v7.657c0 .902.132 1.43 1.122 1.496.396 0 .792-.021 1.188-.066v1.188c-.418 0-.814.044-1.232.044-1.849 0-2.486-.615-2.464-2.553v-7.767h-1.98V20.03h1.98v-3.411h1.386v3.411zm3.036 0h1.475l3.74 9.681 3.498-9.681h1.387l-4.929 13.092c-.792 1.914-1.254 2.464-2.992 2.464-.551-.021-.837-.021-1.057-.109V34.31c.33.065.639.109.946.109 1.232 0 1.519-.726 1.98-1.782l.484-1.298-4.532-11.309z"/>
  <path opacity=".05" d="M36.063 4.085c5.983 4.148 9.895 11.061 9.895 18.894 0 12.691-10.284 22.979-22.98 22.979-7.833 0-14.746-3.909-18.895-9.894a23.787 23.787 0 0 0 3.862 5.075 23.418 23.418 0 0 0 15.799 6.096c12.974 0 23.491-10.519 23.491-23.49a23.407 23.407 0 0 0-6.096-15.798 23.743 23.743 0 0 0-5.076-3.862zm5.076 3.862A23.398 23.398 0 0 1 47.491 24c0 12.973-10.517 23.49-23.491 23.49a23.399 23.399 0 0 1-16.054-6.351C12.194 45.371 18.039 48 24.51 48 37.483 48 48 37.483 48 24.511c0-6.47-2.63-12.317-6.861-16.564z"/>
  <path opacity=".1" d="M41.14 7.947a23.411 23.411 0 0 1 6.097 15.798c0 12.974-10.517 23.49-23.491 23.49a23.42 23.42 0 0 1-15.8-6.096 23.402 23.402 0 0 0 16.055 6.351c12.974 0 23.49-10.518 23.49-23.49 0-6.21-2.414-11.853-6.351-16.053z"/>
  <path opacity=".2" d="M30.896 1.404c8.799 3.221 15.064 11.66 15.064 21.58 0 12.69-10.285 22.979-22.979 22.979-9.915 0-18.355-6.265-21.571-15.063 4.008 12.338 17.259 19.093 29.598 15.085a23.488 23.488 0 0 0 16.234-22.234A23.489 23.489 0 0 0 30.9 1.409l-.004-.005z"/>
  <path fill="#2E3440" d="M23.491 0c12.974 0 23.491 10.516 23.491 23.489 0 12.974-10.517 23.49-23.491 23.49S0 36.463 0 23.489C0 10.516 10.517 0 23.491 0z"/>
  <path opacity=".1" d="M39.862 6.67a23.403 23.403 0 0 1 6.097 15.798c0 12.974-10.517 23.49-23.49 23.49a23.42 23.42 0 0 1-15.8-6.096c4.268 4.382 10.224 7.117 16.821 7.117 12.974 0 23.49-10.518 23.49-23.49 0-6.599-2.734-12.552-7.118-16.819z"/>
  <path fill-opacity=".1" d="M36.256 34.213v-4.086H24v4.086m-9.452-4.086l-2.801-2.968 6.303-5.202-6.303-5.198 2.801-2.972 9.455 8.17"/>
  <path fill="#88C0D0" d="M35.234 33.192v-4.086H22.978v4.086m-9.451-4.086l-2.801-2.968 6.304-5.202-6.304-5.198 2.801-2.972 9.455 8.17"/>
</svg>
