<svg xmlns="http://www.w3.org/2000/svg" width="178.957" height="48" viewBox="0 0 178.957 48">
  <path fill="none" d="M52.676 15.675h126.352v16.649H52.676z"/>
  <path fill="#88C0D0" d="M53.863 15.673h.66l10.738 15.161h.044V15.673h.44v15.71h-.66l-10.737-15.16h-.044v15.16h-.44v-15.71zm18.789 4.137c3.301 0 5.083 2.838 5.083 5.918 0 3.104-1.782 5.919-5.105 5.919-3.3 0-5.083-2.815-5.083-5.919 0-3.08 1.783-5.918 5.105-5.918zm0 11.398c3.015 0 4.643-2.618 4.643-5.479 0-2.816-1.628-5.479-4.643-5.479-3.058 0-4.665 2.663-4.665 5.479 0 2.86 1.607 5.479 4.665 5.479zm7.348.175h-.44v-11.31H80v2.794h.044c.418-1.672 1.738-3.146 4.444-3.059v.44C81.386 20.096 80 22.516 80 24.98v6.403zm14.058-15.71h.44v15.71h-.44v-3.169h-.044c-.572 1.98-2.222 3.433-4.533 3.433-2.992 0-4.818-2.485-4.818-5.896 0-3.168 1.694-5.941 4.818-5.941 2.398 0 4.005 1.386 4.533 3.433h.044v-7.57zm-4.577 4.577c-3.102 0-4.378 2.883-4.378 5.501 0 2.904 1.452 5.457 4.378 5.457 2.905 0 4.577-2.53 4.577-5.457 0-3.499-1.826-5.501-4.577-5.501z"/>
  <path fill="#2E3440" d="M101.867 15.673h12.454v1.276h-5.479v14.434h-1.496V16.949h-5.479v-1.276zm12.036 10.408c.021 2.024 1.078 4.467 3.74 4.467 2.024 0 3.124-1.188 3.564-2.905h1.386c-.594 2.575-2.09 4.071-4.95 4.071-3.608 0-5.127-2.772-5.127-6.007 0-2.993 1.519-6.007 5.127-6.007 3.652 0 5.104 3.19 4.994 6.381h-8.734zm7.348-1.166c-.066-2.09-1.364-4.049-3.608-4.049-2.267 0-3.521 1.98-3.74 4.049h7.348zm3.255-4.885h1.276v2.662h.044c.704-1.826 2.244-2.904 4.29-2.816v1.386c-2.508-.132-4.225 1.716-4.225 4.071v6.051h-1.386V20.03zm6.93 0h1.277v1.914h.064c.727-1.364 1.916-2.244 3.719-2.244 1.496 0 2.84.726 3.258 2.222.682-1.496 2.111-2.222 3.607-2.222 2.486 0 3.764 1.298 3.764 3.982v7.701h-1.387v-7.635c0-1.87-.705-2.882-2.686-2.882-2.398 0-3.08 1.98-3.08 4.093v6.425h-1.385v-7.701c.021-1.54-.617-2.816-2.377-2.816-2.398 0-3.367 1.804-3.389 4.181v6.337h-1.387V20.03zm18.347-4.357h1.387v2.223h-1.387v-2.223zm0 4.357h1.387v11.354h-1.387V20.03zm4.028 0h1.387v1.958h.043c.506-1.364 2.025-2.288 3.631-2.288 3.191 0 4.158 1.672 4.158 4.378v7.305h-1.387v-7.085c0-1.958-.637-3.433-2.881-3.433-2.201 0-3.521 1.672-3.564 3.895v6.623h-1.387V20.03zm11.857-4.357h1.387v2.223h-1.387v-2.223zm0 4.357h1.387v11.354h-1.387V20.03zm7.15 5.456l-4.07-5.456h1.738l3.234 4.313 3.168-4.313h1.738l-4.092 5.435 4.422 5.919h-1.76l-3.564-4.774-3.498 4.774h-1.717l4.401-5.898z"/>
  <path opacity=".05" d="M36.063 4.085c5.983 4.148 9.895 11.061 9.895 18.894 0 12.691-10.284 22.979-22.98 22.979-7.833 0-14.746-3.909-18.895-9.894a23.787 23.787 0 0 0 3.862 5.075 23.418 23.418 0 0 0 15.799 6.096c12.974 0 23.491-10.519 23.491-23.49a23.407 23.407 0 0 0-6.096-15.798 23.743 23.743 0 0 0-5.076-3.862zm5.076 3.862A23.398 23.398 0 0 1 47.491 24c0 12.973-10.517 23.49-23.491 23.49a23.399 23.399 0 0 1-16.054-6.351C12.194 45.371 18.039 48 24.51 48 37.483 48 48 37.483 48 24.511c0-6.47-2.63-12.317-6.861-16.564z"/>
  <path opacity=".1" d="M41.14 7.947a23.411 23.411 0 0 1 6.097 15.798c0 12.974-10.517 23.49-23.491 23.49a23.42 23.42 0 0 1-15.8-6.096 23.402 23.402 0 0 0 16.055 6.351c12.974 0 23.49-10.518 23.49-23.49 0-6.21-2.414-11.853-6.351-16.053z"/>
  <path opacity=".2" d="M30.896 1.404c8.799 3.221 15.064 11.66 15.064 21.58 0 12.69-10.285 22.979-22.979 22.979-9.915 0-18.355-6.265-21.571-15.063 4.008 12.338 17.259 19.093 29.598 15.085a23.488 23.488 0 0 0 16.234-22.234A23.489 23.489 0 0 0 30.9 1.409l-.004-.005z"/>
  <path fill="#2E3440" d="M23.491 0c12.974 0 23.491 10.516 23.491 23.489 0 12.974-10.517 23.49-23.491 23.49S0 36.463 0 23.489C0 10.516 10.517 0 23.491 0z"/>
  <path opacity=".1" d="M39.862 6.67a23.403 23.403 0 0 1 6.097 15.798c0 12.974-10.517 23.49-23.49 23.49a23.42 23.42 0 0 1-15.8-6.096c4.268 4.382 10.224 7.117 16.821 7.117 12.974 0 23.49-10.518 23.49-23.49 0-6.599-2.734-12.552-7.118-16.819z"/>
  <path fill-opacity=".1" d="M36.256 34.213v-4.086H24v4.086m-9.452-4.086l-2.801-2.968 6.303-5.202-6.303-5.198 2.801-2.972 9.455 8.17"/>
  <path fill="#88C0D0" d="M35.234 33.192v-4.086H22.978v4.086m-9.451-4.086l-2.801-2.968 6.304-5.202-6.304-5.198 2.801-2.972 9.455 8.17"/>
</svg>
