<svg xmlns="http://www.w3.org/2000/svg" width="164.957" height="48" viewBox="0 0 164.957 48">
  <path opacity=".05" d="M36.063 4.085c5.983 4.148 9.895 11.062 9.895 18.895 0 12.69-10.284 22.978-22.98 22.978-7.832 0-14.745-3.908-18.895-9.894a23.765 23.765 0 0 0 3.861 5.075 23.421 23.421 0 0 0 15.799 6.096c12.975 0 23.491-10.518 23.491-23.489 0-6.08-2.304-11.627-6.096-15.799a23.712 23.712 0 0 0-5.075-3.862zm5.076 3.861C45.074 12.147 47.49 17.789 47.49 24c0 12.974-10.517 23.489-23.491 23.489a23.401 23.401 0 0 1-16.055-6.351C12.194 45.371 18.038 48 24.51 48 37.483 48 48 37.482 48 24.511c0-6.47-2.63-12.317-6.861-16.565z"/>
  <path opacity=".1" d="M41.14 7.946a23.414 23.414 0 0 1 6.097 15.799c0 12.974-10.517 23.489-23.491 23.489a23.417 23.417 0 0 1-15.799-6.096 23.398 23.398 0 0 0 16.055 6.351c12.974 0 23.49-10.518 23.49-23.489A23.404 23.404 0 0 0 41.14 7.946z"/>
  <path opacity=".2" d="M30.896 1.403c8.799 3.222 15.064 11.66 15.064 21.58 0 12.691-10.285 22.979-22.979 22.979-9.915 0-18.354-6.266-21.571-15.064 4.008 12.339 17.26 19.093 29.598 15.085A23.486 23.486 0 0 0 47.242 23.75 23.488 23.488 0 0 0 30.9 1.409l-.004-.006z"/>
  <path fill="#2E3440" d="M23.491 0c12.974 0 23.49 10.517 23.49 23.489 0 12.974-10.517 23.49-23.49 23.49C10.517 46.979 0 36.463 0 23.489 0 10.517 10.517 0 23.491 0z"/>
  <path opacity=".1" d="M39.862 6.67a23.404 23.404 0 0 1 6.097 15.798c0 12.974-10.517 23.489-23.49 23.489a23.418 23.418 0 0 1-15.8-6.095c4.268 4.381 10.225 7.117 16.821 7.117 12.974 0 23.49-10.518 23.49-23.49 0-6.599-2.734-12.552-7.118-16.819z"/>
  <path opacity=".1" d="M32.332 10.489h-7.281c2.217.515 7.281 1.678 7.281 2.601 0 1.966-9.361-.519-11.441-.519-1.04 0-3.117.174-3.121 1.559-.007 3.641 4.89 6.76 8.321 8.84-2.39-.692-4.576-1.039-6.656-1.039-2.704 0-7.905 1.039-7.905 4.679 0 3.221 6.519 6.182 8.321 6.76 3.13 1.008 8.319 1.557 8.319 2.08 0 .521-4.159 1.041-9.359 1.041h-3.12c2.079 1.039 5.2 1.039 8.32 1.039l3.12-.002c2.08 0 7.279-.072 7.279-1.871 0-1.566-6.24-2.891-9.359-3.535-4.352-.896-7.512-2.643-7.281-3.951.555-3.129 8.321-3.119 14.562-3.119-2.724-2.186-9.361-6.241-9.361-8.009 0-.757 1.04-.931 2.08-.935 4.16-.021 7.281.882 8.319.882 2.08 0 3.121-1.299 3.121-2.859 0-2.601-3.121-3.642-4.159-3.642z"/>
  <path fill="#88C0D0" d="M31.291 9.45h-7.28c2.216.515 7.28 1.679 7.28 2.602 0 1.965-9.36-.521-11.44-.521-1.04 0-3.118.175-3.12 1.56-.008 3.641 4.89 6.761 8.32 8.841-2.389-.692-4.577-1.041-6.656-1.041-2.704 0-7.904 1.041-7.904 4.681 0 3.219 6.519 6.18 8.32 6.76 3.129 1.008 8.32 1.555 8.32 2.078 0 .521-4.16 1.041-9.361 1.041h-3.119c2.08 1.041 5.2 1.041 8.32 1.041l3.12-.002c2.079-.002 7.279-.074 7.279-1.869 0-1.568-6.239-2.893-9.359-3.537-4.352-.898-7.513-2.645-7.28-3.951.554-3.132 8.32-3.121 14.56-3.121-2.722-2.186-9.36-6.24-9.36-8.008 0-.757 1.04-.93 2.08-.937 4.159-.021 7.28.884 8.321.884 2.078 0 3.118-1.3 3.118-2.86 0-2.6-3.118-3.641-4.159-3.641z"/>
  <path fill="none" d="M53 16.204h112.791v16.134H53z"/>
  <path fill="#88C0D0" d="M54.188 16.201h.66l10.738 15.16h.044v-15.16h.44v15.711h-.66L54.672 16.751h-.044v15.161h-.44V16.201zm18.789 4.137c3.301 0 5.083 2.838 5.083 5.919 0 3.103-1.782 5.919-5.105 5.919-3.3 0-5.083-2.816-5.083-5.919 0-3.081 1.782-5.919 5.105-5.919zm0 11.398c3.015 0 4.643-2.619 4.643-5.479 0-2.816-1.628-5.479-4.643-5.479-3.058 0-4.665 2.663-4.665 5.479 0 2.86 1.606 5.479 4.665 5.479zm7.347.176h-.44v-11.31h.44v2.794h.044c.418-1.672 1.738-3.146 4.444-3.059v.44c-3.102-.154-4.488 2.267-4.488 4.731v6.404zm14.059-15.711h.44v15.711h-.44v-3.169h-.044c-.572 1.98-2.222 3.433-4.533 3.433-2.992 0-4.818-2.486-4.818-5.896 0-3.169 1.694-5.941 4.818-5.941 2.398 0 4.005 1.386 4.533 3.433h.044v-7.571zm-4.577 4.577c-3.102 0-4.378 2.883-4.378 5.501 0 2.904 1.452 5.457 4.378 5.457 2.905 0 4.577-2.531 4.577-5.457 0-3.499-1.826-5.501-4.577-5.501z"/>
  <path fill="#2E3440" d="M102.434 16.201h10.848v1.276h-9.352v5.677h8.756v1.276h-8.756v6.204h9.461v1.277h-10.957v-15.71zm12.781 4.357h1.275v1.914h.066c.727-1.364 1.914-2.244 3.719-2.244 1.496 0 2.838.726 3.256 2.222.682-1.496 2.113-2.222 3.609-2.222 2.486 0 3.762 1.298 3.762 3.982v7.702h-1.387v-7.636c0-1.87-.703-2.882-2.684-2.882-2.398 0-3.08 1.98-3.08 4.092v6.426h-1.387V24.21c.021-1.54-.615-2.816-2.377-2.816-2.398 0-3.365 1.804-3.389 4.18v6.338h-1.385V20.558zm18.193 3.477c.133-2.663 2.002-3.807 4.6-3.807 2.002 0 4.18.616 4.18 3.652v6.029c0 .528.264.837.814.837.154 0 .33-.045.439-.089v1.167a3.844 3.844 0 0 1-.902.088c-1.408 0-1.627-.793-1.627-1.98h-.045c-.969 1.475-1.957 2.311-4.137 2.311-2.09 0-3.807-1.035-3.807-3.322 0-3.191 3.104-3.301 6.096-3.653 1.145-.132 1.781-.286 1.781-1.54 0-1.871-1.342-2.333-2.971-2.333-1.715 0-2.992.792-3.035 2.641h-1.386zm7.393 1.672h-.043c-.176.33-.793.439-1.166.506-2.355.418-5.281.396-5.281 2.618 0 1.386 1.232 2.245 2.531 2.245 2.111 0 3.982-1.343 3.959-3.564v-1.805zm12.166-1.584c-.373-1.694-1.408-2.729-3.211-2.729-2.664 0-3.982 2.42-3.982 4.84 0 2.421 1.318 4.842 3.982 4.842 1.715 0 3.123-1.343 3.299-3.235h1.387c-.373 2.729-2.156 4.401-4.686 4.401-3.477 0-5.369-2.751-5.369-6.008 0-3.256 1.893-6.006 5.369-6.006 2.42 0 4.289 1.298 4.598 3.895h-1.387zm10.209-.243c-.066-1.716-1.387-2.486-2.971-2.486-1.232 0-2.684.484-2.684 1.958 0 1.232 1.408 1.672 2.354 1.914l1.848.418c1.584.242 3.234 1.167 3.234 3.146 0 2.464-2.441 3.411-4.555 3.411-2.641 0-4.443-1.232-4.664-4.005h1.387c.109 1.87 1.496 2.839 3.344 2.839 1.299 0 3.104-.572 3.104-2.156 0-1.32-1.232-1.762-2.486-2.068l-1.783-.396c-1.805-.484-3.168-1.101-3.168-3.037 0-2.311 2.266-3.19 4.268-3.19 2.268 0 4.07 1.188 4.16 3.652h-1.388z"/>
</svg>
