<svg xmlns="http://www.w3.org/2000/svg" width="147.027" height="48" viewBox="0 0 147.027 48">
  <path opacity=".05" d="M36.063 4.085c5.983 4.148 9.895 11.062 9.895 18.895 0 12.69-10.284 22.978-22.98 22.978-7.832 0-14.745-3.908-18.895-9.894a23.765 23.765 0 0 0 3.861 5.075 23.421 23.421 0 0 0 15.799 6.096c12.975 0 23.491-10.518 23.491-23.489 0-6.08-2.304-11.627-6.096-15.799a23.712 23.712 0 0 0-5.075-3.862zm5.076 3.861C45.074 12.147 47.49 17.789 47.49 24c0 12.974-10.517 23.489-23.491 23.489a23.401 23.401 0 0 1-16.055-6.351C12.194 45.371 18.038 48 24.51 48 37.483 48 48 37.482 48 24.511c0-6.47-2.63-12.317-6.861-16.565z"/>
  <path opacity=".1" d="M41.14 7.946a23.414 23.414 0 0 1 6.097 15.799c0 12.974-10.517 23.489-23.491 23.489a23.417 23.417 0 0 1-15.799-6.096 23.398 23.398 0 0 0 16.055 6.351c12.974 0 23.49-10.518 23.49-23.489A23.404 23.404 0 0 0 41.14 7.946z"/>
  <path opacity=".2" d="M30.896 1.403c8.799 3.222 15.064 11.66 15.064 21.58 0 12.691-10.285 22.979-22.979 22.979-9.915 0-18.354-6.266-21.571-15.064 4.008 12.339 17.26 19.093 29.598 15.085A23.486 23.486 0 0 0 47.242 23.75 23.488 23.488 0 0 0 30.9 1.409l-.004-.006z"/>
  <path fill="#2E3440" d="M23.491 0c12.974 0 23.49 10.517 23.49 23.489 0 12.974-10.517 23.49-23.49 23.49C10.517 46.979 0 36.463 0 23.489 0 10.517 10.517 0 23.491 0z"/>
  <path opacity=".1" d="M39.862 6.67a23.404 23.404 0 0 1 6.097 15.798c0 12.974-10.517 23.489-23.49 23.489a23.418 23.418 0 0 1-15.8-6.095c4.268 4.381 10.225 7.117 16.821 7.117 12.974 0 23.49-10.518 23.49-23.49 0-6.599-2.734-12.552-7.118-16.819z"/>
  <path opacity=".1" d="M14.682 10.724a.882.882 0 0 0-.894.894v24.766c0 .503.391.895.894.895h18.639a.883.883 0 0 0 .894-.895V15.835l-5.106-5.106"/>
  <path opacity=".1" fill-opacity=".2" d="M34.214 20.936V15.83h-5.106"/>
  <path fill="#D8DEE9" d="M13.661 9.702a.883.883 0 0 0-.894.894v24.766c0 .503.391.895.894.895H32.3a.883.883 0 0 0 .893-.895V14.813l-5.106-5.106"/>
  <path fill="#ECEFF4" d="M28.086 9.702v5.106h5.106"/>
  <path fill-opacity=".2" d="M33.193 19.914v-5.105h-5.106"/>
  <path fill="#5E81AC" d="M14.809 33.191h16.342v-2.043H14.809"/>
  <path fill="#4C566A" d="M14.809 28.086h10.214v-2.043H14.809"/>
  <path fill="#81A1C1" d="M14.809 24h13.277v-2.043H14.809"/>
  <path fill="#4C566A" d="M14.809 19.914h8.171v-2.043h-8.171"/>
  <path fill="#88C0D0" d="M14.809 15.83h11.235v-2.043H14.809"/>
  <path fill="none" d="M53 16.204h94.874v21.073H53z"/>
  <path fill="#88C0D0" d="M54.188 16.201h.66l10.738 15.16h.044v-15.16h.44v15.711h-.66L54.672 16.751h-.044v15.161h-.44V16.201zm18.789 4.137c3.301 0 5.083 2.838 5.083 5.919 0 3.103-1.782 5.919-5.105 5.919-3.3 0-5.083-2.816-5.083-5.919 0-3.081 1.782-5.919 5.105-5.919zm0 11.398c3.015 0 4.643-2.619 4.643-5.479 0-2.816-1.628-5.479-4.643-5.479-3.058 0-4.665 2.663-4.665 5.479 0 2.86 1.606 5.479 4.665 5.479zm7.347.176h-.44v-11.31h.44v2.794h.044c.418-1.672 1.738-3.146 4.444-3.059v.44c-3.102-.154-4.488 2.267-4.488 4.731v6.404zm14.059-15.711h.44v15.711h-.44v-3.169h-.044c-.572 1.98-2.222 3.433-4.533 3.433-2.992 0-4.818-2.486-4.818-5.896 0-3.169 1.694-5.941 4.818-5.941 2.398 0 4.005 1.386 4.533 3.433h.044v-7.571zm-4.577 4.577c-3.102 0-4.378 2.883-4.378 5.501 0 2.904 1.452 5.457 4.378 5.457 2.905 0 4.577-2.531 4.577-5.457 0-3.499-1.826-5.501-4.577-5.501z"/>
  <path fill="#2E3440" d="M111.762 30.987c-.021 3.389-1.32 5.457-5.039 5.457-2.266 0-4.51-1.013-4.707-3.433h1.385c.309 1.672 1.783 2.267 3.322 2.267 2.553 0 3.654-1.519 3.654-4.291v-1.54h-.045c-.639 1.387-1.98 2.332-3.609 2.332-3.629 0-5.125-2.596-5.125-5.83 0-3.125 1.848-5.721 5.125-5.721 1.65 0 3.059 1.034 3.609 2.288h.045v-1.958h1.385v10.429zm-1.385-4.883c0-2.223-1.035-4.709-3.654-4.709-2.639 0-3.74 2.354-3.74 4.709 0 2.287 1.189 4.51 3.74 4.51 2.398-.001 3.654-2.201 3.654-4.51zm4.838.505c.021 2.023 1.078 4.467 3.74 4.467 2.025 0 3.125-1.189 3.564-2.905h1.387c-.594 2.575-2.09 4.071-4.951 4.071-3.607 0-5.127-2.773-5.127-6.008 0-2.992 1.52-6.006 5.127-6.006 3.652 0 5.105 3.19 4.994 6.381h-8.734zm7.349-1.166c-.066-2.091-1.365-4.049-3.609-4.049-2.266 0-3.52 1.98-3.74 4.049h7.349zm13.245 6.469h-1.277v-2.156h-.043c-.594 1.474-2.398 2.486-4.049 2.486-3.455 0-5.105-2.795-5.105-6.008 0-3.212 1.65-6.006 5.105-6.006 1.693 0 3.344.858 3.939 2.486h.043v-6.513h1.387v15.711zm-5.37-.836c2.949 0 3.982-2.486 3.982-4.842 0-2.354-1.033-4.84-3.982-4.84-2.641 0-3.719 2.486-3.719 4.84.001 2.356 1.079 4.842 3.719 4.842zm8.03-14.875h1.387v2.223h-1.387v-2.223zm0 4.357h1.387v11.354h-1.387V20.558zm6.248 0h2.311v1.166h-2.311v7.657c0 .902.133 1.431 1.123 1.496.396 0 .791-.021 1.188-.065V32c-.418 0-.814.043-1.232.043-1.848 0-2.486-.615-2.463-2.552v-7.767h-1.98v-1.166h1.98v-3.411h1.385v3.411z"/>
</svg>
