<svg xmlns="http://www.w3.org/2000/svg" width="888" height="200" viewBox="0 0 888 200">
  <path fill="none" d="M327.271 153.966h233.46v33.796h-233.46z"/>
  <path fill="#88C0D0" d="M329.7 153.967h1.35l21.959 31.004h.09v-31.004h.9v32.129h-1.35l-21.959-31.004h-.09v31.004h-.9v-32.129zm38.43 8.46c6.75 0 10.395 5.805 10.395 12.104 0 6.345-3.645 12.104-10.44 12.104-6.75 0-10.395-5.76-10.395-12.104 0-6.3 3.645-12.104 10.44-12.104zm0 23.308c6.165 0 9.495-5.354 9.495-11.204 0-5.76-3.33-11.205-9.495-11.205-6.255 0-9.54 5.445-9.54 11.205 0 5.85 3.285 11.204 9.54 11.204zm15.03.361h-.9v-23.129h.9v5.715h.09c.855-3.42 3.555-6.435 9.09-6.255v.899c-6.345-.314-9.18 4.636-9.18 9.675v13.095zm28.754-32.129h.9v32.129h-.9v-6.479h-.09c-1.17 4.05-4.545 7.02-9.27 7.02-6.12 0-9.855-5.085-9.855-12.06 0-6.479 3.465-12.149 9.855-12.149 4.905 0 8.189 2.835 9.27 7.02h.09v-15.481zm-9.36 9.359c-6.345 0-8.955 5.896-8.955 11.25 0 5.939 2.97 11.159 8.955 11.159 5.939 0 9.359-5.175 9.359-11.159.001-7.154-3.734-11.25-9.359-11.25z"/>
  <path fill="#2E3440" d="M431.354 153.967h22.184v2.61h-19.124v11.609h17.909v2.609h-17.909v12.689h19.349v2.61h-22.409v-32.127zm26.144 8.91h2.609v3.914h.135c1.486-2.789 3.916-4.589 7.605-4.589 3.061 0 5.805 1.484 6.66 4.544 1.395-3.06 4.32-4.544 7.379-4.544 5.086 0 7.695 2.654 7.695 8.145v15.749h-2.836v-15.614c0-3.825-1.439-5.895-5.488-5.895-4.906 0-6.301 4.05-6.301 8.369v13.14h-2.834v-15.749c.045-3.15-1.26-5.76-4.859-5.76-4.906 0-6.885 3.689-6.93 8.55v12.959h-2.836v-23.219zm37.215 7.109c.27-5.444 4.094-7.784 9.404-7.784 4.096 0 8.549 1.26 8.549 7.469v12.33c0 1.08.541 1.71 1.666 1.71.314 0 .674-.09.9-.18v2.385c-.631.135-1.08.18-1.846.18-2.879 0-3.33-1.62-3.33-4.05h-.09c-1.98 3.015-4.004 4.725-8.459 4.725-4.275 0-7.785-2.114-7.785-6.795 0-6.524 6.346-6.749 12.465-7.47 2.34-.27 3.645-.585 3.645-3.149 0-3.825-2.744-4.77-6.074-4.77-3.51 0-6.121 1.619-6.211 5.399h-2.834zm15.119 3.42h-.09c-.359.675-1.619.9-2.385 1.035-4.814.854-10.801.81-10.801 5.354 0 2.835 2.521 4.59 5.176 4.59 4.32 0 8.145-2.745 8.1-7.29v-3.689zm24.885-3.24c-.766-3.465-2.881-5.579-6.57-5.579-5.445 0-8.145 4.949-8.145 9.899 0 4.949 2.699 9.899 8.145 9.899 3.51 0 6.391-2.745 6.75-6.614h2.834c-.764 5.579-4.408 8.999-9.584 8.999-7.109 0-10.979-5.625-10.979-12.284 0-6.66 3.869-12.284 10.979-12.284 4.949 0 8.775 2.654 9.404 7.964h-2.834zm20.879-.495c-.135-3.51-2.834-5.084-6.074-5.084-2.52 0-5.49.989-5.49 4.005 0 2.52 2.881 3.42 4.814 3.914l3.781.855c3.238.495 6.613 2.385 6.613 6.435 0 5.04-4.994 6.975-9.314 6.975-5.398 0-9.09-2.52-9.539-8.189h2.834c.227 3.825 3.061 5.805 6.84 5.805 2.656 0 6.346-1.17 6.346-4.41 0-2.699-2.52-3.6-5.086-4.229l-3.645-.81c-3.689-.99-6.479-2.25-6.479-6.21 0-4.725 4.635-6.524 8.729-6.524 4.635 0 8.324 2.43 8.506 7.469h-2.836z"/>
  <g fill="#2E3440">
    <path d="M466.561 135.966l-43.392-55.545V65.009l48.091 62.172h25.844V39.636h-43.465l-9.396-9.399H506.5v105.729z"/>
    <path d="M421.441 30.237l43.393 55.541v15.41l-48.091-62.167H390.9v87.544h43.463l9.4 9.401h-62.262V30.237z"/>
  </g>
</svg>
