<svg xmlns="http://www.w3.org/2000/svg" width="160.629" height="48" viewBox="0 0 160.629 48">
  <path opacity=".05" d="M36.063 4.085c5.983 4.148 9.895 11.062 9.895 18.895 0 12.69-10.284 22.978-22.98 22.978-7.832 0-14.745-3.908-18.895-9.894a23.765 23.765 0 0 0 3.861 5.075 23.421 23.421 0 0 0 15.799 6.096c12.975 0 23.491-10.518 23.491-23.489 0-6.08-2.304-11.627-6.096-15.799a23.712 23.712 0 0 0-5.075-3.862zm5.076 3.861C45.074 12.147 47.49 17.789 47.49 24c0 12.974-10.517 23.489-23.491 23.489a23.401 23.401 0 0 1-16.055-6.351C12.194 45.371 18.038 48 24.51 48 37.483 48 48 37.482 48 24.511c0-6.47-2.63-12.317-6.861-16.565z"/>
  <path opacity=".1" d="M41.14 7.946a23.414 23.414 0 0 1 6.097 15.799c0 12.974-10.517 23.489-23.491 23.489a23.417 23.417 0 0 1-15.799-6.096 23.398 23.398 0 0 0 16.055 6.351c12.974 0 23.49-10.518 23.49-23.489A23.404 23.404 0 0 0 41.14 7.946z"/>
  <path opacity=".2" d="M30.896 1.403c8.799 3.222 15.064 11.66 15.064 21.58 0 12.691-10.285 22.979-22.979 22.979-9.915 0-18.354-6.266-21.571-15.064 4.008 12.339 17.26 19.093 29.598 15.085A23.486 23.486 0 0 0 47.242 23.75 23.488 23.488 0 0 0 30.9 1.409l-.004-.006z"/>
  <path fill="#2E3440" d="M23.491 0c12.974 0 23.49 10.517 23.49 23.489 0 12.974-10.517 23.49-23.49 23.49C10.517 46.979 0 36.463 0 23.489 0 10.517 10.517 0 23.491 0z"/>
  <path opacity=".1" d="M39.862 6.67a23.404 23.404 0 0 1 6.097 15.798c0 12.974-10.517 23.489-23.49 23.489a23.418 23.418 0 0 1-15.8-6.095c4.268 4.381 10.225 7.117 16.821 7.117 12.974 0 23.49-10.518 23.49-23.49 0-6.599-2.734-12.552-7.118-16.819z"/>
  <path fill="#1D1D1B" fill-opacity=".1" d="M35.867 35.982a46.376 46.376 0 0 0-.33-1.695 35.725 35.725 0 0 0-.345-1.359 3.008 3.008 0 0 0-.097-.279c-.305-.795-.729-1.408-1.275-1.842a2.39 2.39 0 0 0-.279-.199l.069-.025-.294-.766h.796c.328 0 .495-.166.495-.496v-4.659c0-.048-.011-.085-.018-.126l1.171.189.267-1.638a1.981 1.981 0 0 1-.107-.017 1.56 1.56 0 0 1-1.055-.65 1.563 1.563 0 0 1-.284-1.207c.07-.441.289-.792.651-1.055a1.56 1.56 0 0 1 1.206-.284c.035.005.069.013.104.021l.935-5.75c.079-.789-.176-1.542-.765-2.253-.013-.013-.021-.026-.034-.038a5.382 5.382 0 0 0-.364-.387 5.948 5.948 0 0 0-1.62-1.099l-.036-.019a7.064 7.064 0 0 0-.848-.318c-.086-.025-.174-.051-.261-.074a8.426 8.426 0 0 0-1.947-.285c-.091 0-.183-.002-.272 0a7.17 7.17 0 0 0-.592.031.648.648 0 0 1-.039.007 5.93 5.93 0 0 0-1.922.533 4.803 4.803 0 0 0-.429.229c-.015.008-.028.018-.044.027-.795.482-1.283 1.109-1.467 1.881a2.55 2.55 0 0 0-.061.357l-.412-1.075c-.117-.31-.334-.406-.643-.286l-1.316.502c-.309.121-.402.334-.284.643l.13.337-2.482-1.133c-.302-.136-.528-.032-.683.302l-.827 1.821-.417.909-4.289 9.408h-3.299c-.328 0-.495.167-.495.495v4.659c0 .33.167.496.495.496h.724l-1.41 3.092a.804.804 0 0 0-.077.291c.004.014 0 .035 0 .049 0 .012.004.018.006.023a.39.39 0 0 0 .076.195l.87 2.801.391 1.258L14.028 37l2.769-1.219c.021-.008.044-.021.064-.029a.502.502 0 0 0 .134-.115.878.878 0 0 0 .118-.199l2.563-5.621h8.347l-.501 3.088c-.147.096-.297.295-.451.607a3.987 3.987 0 0 0-.374 1.109l.167 3.777c-.082.508.13.803.639.885l.837.135c.509.082.804-.129.886-.637l1.354-3.531c.068-.418.063-1.477-.24-1.889l.525-3.234.502 1.314.143-.055a3.727 3.727 0 0 0-.077.336c-.065.383-.061.785.007 1.205.053.33.145.666.279 1.01.305.795.727 1.408 1.27 1.844a4.853 4.853 0 0 0 1.105.627l2.516 1.021c-.349-.169-.594-.652-.743-1.447zM31.843 24.09l.469.076h-.481l.012-.076zm-4.928.077h-4.664l3.137-6.879.305-.662.32.835-.047.29-.067.42c.035.004.07.008.106.014.123.02.223.078.332.12l.841 2.196a1.563 1.563 0 0 1-1.691.881 1.804 1.804 0 0 1-.106-.02L25.113 23l3.22.521.247.645h-1.665z"/>
  <path fill="#88C0D0" d="M25.915 23.103h-1.68v1.885h-.299v-1.885h-1.68v1.064h-.296v-1.064h-.709l-2.574 5.65h14.434c.328 0 .495-.167.495-.497v-4.658c0-.328-.167-.495-.495-.495h-.966v1.885h-.3v-1.886h-1.68v1.092h-.295v-1.092h-1.681v1.885h-.298v-1.885h-1.679v1.092h-.297v-1.091zm-13.842 0h-.819c-.328 0-.495.167-.495.495v4.658c0 .33.167.497.495.497h.724l2.078-4.559h-.006v-1.092h-1.68v1.885h-.296v-1.884z"/>
  <path fill="#4C566A" d="M14.553 23.103h-.207v.451l.207-.451z"/>
  <path fill="#88C0D0" d="M30.509 30.323a3.727 3.727 0 0 0-.077.336c-.065.383-.061.785.007 1.204.053.33.145.667.279 1.011.305.795.727 1.408 1.27 1.844a4.853 4.853 0 0 0 1.105.627l2.516 1.021c-.348-.17-.593-.652-.741-1.447a46.376 46.376 0 0 0-.33-1.695 35.725 35.725 0 0 0-.345-1.36 3.115 3.115 0 0 0-.097-.279c-.305-.794-.729-1.407-1.275-1.841a2.277 2.277 0 0 0-.279-.199l-2.033.778z"/>
  <path fill="#4C566A" d="M23.405 10.815c-.309.121-.402.334-.284.643l.13.337 2.16.986c.301.138.373.378.221.712l-.826 1.822-.113.246 2.888 7.541h.312v1.885h.298v-1.885h1.681v1.092h.296v-1.092h-.014L25.364 10.6c-.117-.31-.334-.406-.643-.286l-1.316.501zm.83 12.288h-.299v1.885h.299v-1.885zm1.977 0h-.297v1.092h.297v-1.092zm5.934.007h-.3v1.877h.3V23.11zm-19.777-.007h-.296v1.885h.296v-1.885zm1.977 0h-.297v1.092h.006l.291-.641v-.451zm7.911 0h-.297v1.064h.297v-1.064zm8.109 7.275l.143-.055 2.031-.779.069-.025-.294-.766h-2.57l.621 1.625z"/>
  <path fill="#88C0D0" d="M25.632 13.493c.152-.334.08-.574-.221-.712l-2.16-.986-2.482-1.133c-.302-.136-.528-.032-.683.302l-.827 1.821 1.885.859 1.877.854 1.785.816.826-1.821zM14.561 33.698a1.16 1.16 0 0 0-.347.209 1.549 1.549 0 0 0-.078.082l-.004.008h-.003l.005-.006c0-.012 0-.025.002-.037a1.004 1.004 0 0 0-.069-.459 1.028 1.028 0 0 0-.555-.596 1.02 1.02 0 0 0-.816-.027c-.13.047-.244.115-.344.201-.04.037-.075.076-.114.125l-.004.018-.006-.002-.004-.004.022-.043c.005-.029.007-.063.01-.088a.96.96 0 0 0-.067-.461 1.034 1.034 0 0 0-.556-.592 1.023 1.023 0 0 0-.813-.033 1.142 1.142 0 0 0-.329.191c0 .012.004.018.006.023a.393.393 0 0 0 .076.195l.87 2.801c.27.021.551.102.838.234.298.135.548.299.748.498l2.769-1.219c.021-.008.044-.021.064-.029a.502.502 0 0 0 .134-.115 1.599 1.599 0 0 0-.065-.25 1.032 1.032 0 0 0-.555-.592 1.054 1.054 0 0 0-.815-.032z"/>
  <path fill="#3B4252" d="M24.692 15.562l.113-.246-1.785-.816-.417.908 1.784.816.305-.662z"/>
  <path fill="#4C566A" d="M19.259 12.785l-.417.909 1.888.859.414-.909-1.885-.859z"/>
  <path fill="#434C5E" d="M21.144 13.645l-.414.909 1.874.854.417-.908-1.877-.855z"/>
  <path fill="#8FBCBB" d="M20.729 14.554l-1.888-.859-4.289 9.408-.207.451-.291.641-2.078 4.559-1.41 3.092a.804.804 0 0 0-.077.291c.004.014 0 .035 0 .049a1.12 1.12 0 0 1 .329-.191c.271-.1.544-.092.813.033.268.121.451.319.556.592.06.152.083.307.067.461-.002.025-.004.059-.01.088l8.485-18.615z"/>
  <path fill="#81A1C1" d="M22.604 15.407l-1.874-.854-8.484 18.613-.022.043.004.004.006.002.004-.018c.039-.049.074-.088.114-.125.1-.086.214-.154.344-.201.277-.105.549-.094.816.027.269.123.453.32.555.596.06.152.082.305.069.459-.002.012-.002.025-.002.037l-.005.006h.003l.004-.008 8.468-18.581z"/>
  <path fill="#5E81AC" d="M14.214 33.907c.1-.086.214-.158.347-.209.271-.098.545-.09.814.033.267.123.451.318.555.592.032.09.053.174.065.25a.878.878 0 0 0 .118-.199l2.563-5.621 2.574-5.65 3.137-6.879-1.784-.816-8.468 18.582c.026-.03.053-.057.079-.083z"/>
  <path fill="#4C566A" d="M13.028 35.937c-.2-.199-.45-.363-.748-.498a2.458 2.458 0 0 0-.838-.234l.391 1.258 1.195-.526z"/>
  <path fill="#D8DEE9" d="M31.689 17.811c.083-.509-.13-.803-.638-.886l-1.295-.211c-.508-.082-.801.131-.884.64l-.865 5.328 2.487 2.488 1.195-7.359z"/>
  <path fill="#E5E9F0" d="M26.522 31.841c-.147.095-.297.295-.451.606a4.003 4.003 0 0 0-.374 1.11l.167 3.777c-.082.508.13.803.639.885l.837.135c.509.082.804-.129.886-.637l1.354-3.531c.068-.418.063-1.477-.24-1.889l1.156-7.128-2.487-2.488-1.487 9.16z"/>
  <path fill="#81A1C1" d="M35.712 10.828c-.013-.013-.021-.026-.034-.038l-.958 5.914a.74.74 0 0 1-.312.502.744.744 0 0 1-.573.135l-.686-.111a.735.735 0 0 1-.503-.31.746.746 0 0 1-.135-.575l1.146-7.059a7.064 7.064 0 0 0-.848-.318l-1.174 7.234a.74.74 0 0 1-.311.504.739.739 0 0 1-.574.135l-.685-.111a.744.744 0 0 1-.503-.309.75.75 0 0 1-.137-.576L30.6 8.609c-.091 0-.183-.002-.272 0a7.17 7.17 0 0 0-.592.031.648.648 0 0 1-.039.007l-1.146 7.057a.735.735 0 0 1-.31.501.74.74 0 0 1-.575.136l-.685-.11a.742.742 0 0 1-.504-.311.745.745 0 0 1-.135-.573l.959-5.909c-.795.482-1.283 1.109-1.467 1.881a2.55 2.55 0 0 0-.068.42l-.804 4.949-.067.42a1.569 1.569 0 0 1 1.162.664c.261.363.355.766.283 1.207-.07.441-.288.793-.65 1.055a1.563 1.563 0 0 1-1.207.285 1.804 1.804 0 0 1-.106-.02l-.266 1.639 10.646 1.725.267-1.638a1.981 1.981 0 0 1-.107-.017 1.56 1.56 0 0 1-1.055-.65 1.563 1.563 0 0 1-.284-1.207c.07-.441.289-.792.651-1.055a1.56 1.56 0 0 1 1.206-.284c.035.005.069.013.104.021l.935-5.75c.082-.791-.173-1.544-.762-2.255z"/>
  <path fill="#5E81AC" d="M35.678 10.79a5.382 5.382 0 0 0-.364-.387 5.948 5.948 0 0 0-1.62-1.099l-.036-.019-1.146 7.059a.746.746 0 0 0 .135.575.738.738 0 0 0 .503.31l.686.111a.744.744 0 0 0 .573-.135.743.743 0 0 0 .312-.502l.957-5.913zm-3.129-1.896a8.426 8.426 0 0 0-1.947-.285l-1.175 7.236a.75.75 0 0 0 .137.576.748.748 0 0 0 .503.309l.685.111a.739.739 0 0 0 .574-.135.744.744 0 0 0 .311-.504l1.174-7.234a8.558 8.558 0 0 0-.262-.074zm-4.773.286a4.803 4.803 0 0 0-.429.229c-.015.008-.028.018-.044.027l-.959 5.909a.745.745 0 0 0 .135.573.746.746 0 0 0 .504.311l.685.11a.74.74 0 0 0 .575-.136.739.739 0 0 0 .31-.501l1.146-7.057a5.963 5.963 0 0 0-1.923.535z"/>
  <path fill="none" d="M53 16.204h108.499v16.134H53z"/>
  <path fill="#88C0D0" d="M54.188 16.201h.66l10.738 15.16h.044v-15.16h.44v15.711h-.66L54.672 16.751h-.044v15.161h-.44V16.201zm18.789 4.137c3.301 0 5.083 2.838 5.083 5.919 0 3.103-1.782 5.919-5.105 5.919-3.3 0-5.083-2.816-5.083-5.919 0-3.081 1.782-5.919 5.105-5.919zm0 11.398c3.015 0 4.643-2.619 4.643-5.479 0-2.816-1.628-5.479-4.643-5.479-3.058 0-4.665 2.663-4.665 5.479 0 2.86 1.606 5.479 4.665 5.479zm7.347.176h-.44v-11.31h.44v2.794h.044c.418-1.672 1.738-3.146 4.444-3.059v.44c-3.102-.154-4.488 2.267-4.488 4.731v6.404zm14.059-15.711h.44v15.711h-.44v-3.169h-.044c-.572 1.98-2.222 3.433-4.533 3.433-2.992 0-4.818-2.486-4.818-5.896 0-3.169 1.694-5.941 4.818-5.941 2.398 0 4.005 1.386 4.533 3.433h.044v-7.571zm-4.577 4.577c-3.102 0-4.378 2.883-4.378 5.501 0 2.904 1.452 5.457 4.378 5.457 2.905 0 4.577-2.531 4.577-5.457 0-3.499-1.826-5.501-4.577-5.501z"/>
  <path fill="#2E3440" d="M100.915 16.201h1.761l4.443 6.579 4.6-6.579h1.672l-5.369 7.657 5.678 8.054h-1.805l-4.775-6.932-4.84 6.932h-1.695l5.656-8.098-5.326-7.613zm21.89 7.922c-.373-1.694-1.408-2.729-3.211-2.729-2.664 0-3.982 2.42-3.982 4.84 0 2.421 1.318 4.842 3.982 4.842 1.715 0 3.123-1.343 3.299-3.235h1.387c-.373 2.729-2.156 4.401-4.686 4.401-3.477 0-5.369-2.751-5.369-6.008 0-3.256 1.893-6.006 5.369-6.006 2.42 0 4.289 1.298 4.598 3.895h-1.387zm13.574 2.111c0 3.257-1.891 6.008-5.367 6.008s-5.369-2.751-5.369-6.008c0-3.256 1.893-6.006 5.369-6.006s5.367 2.751 5.367 6.006zm-9.35 0c0 2.421 1.318 4.842 3.982 4.842 2.662 0 3.982-2.421 3.982-4.842 0-2.42-1.32-4.84-3.982-4.84-2.663 0-3.982 2.42-3.982 4.84zm21.407 5.678h-1.275v-2.156h-.045c-.594 1.474-2.398 2.486-4.049 2.486-3.453 0-5.104-2.795-5.104-6.008 0-3.212 1.65-6.006 5.104-6.006 1.695 0 3.346.858 3.939 2.486h.045v-6.513h1.385v15.711zm-5.37-.836c2.949 0 3.984-2.486 3.984-4.842 0-2.354-1.035-4.84-3.984-4.84-2.639 0-3.717 2.486-3.717 4.84.001 2.356 1.079 4.842 3.717 4.842zm8.823-4.467c.021 2.023 1.078 4.467 3.74 4.467 2.025 0 3.125-1.189 3.564-2.905h1.387c-.594 2.575-2.09 4.071-4.951 4.071-3.607 0-5.127-2.773-5.127-6.008 0-2.992 1.52-6.006 5.127-6.006 3.652 0 5.105 3.19 4.994 6.381h-8.734zm7.349-1.166c-.066-2.091-1.365-4.049-3.609-4.049-2.266 0-3.52 1.98-3.74 4.049h7.349z"/>
</svg>
