<svg xmlns="http://www.w3.org/2000/svg" width="331.432" height="445.516" viewBox="0 0 331.432 445.516">
  <ellipse fill="#4A3256" cx="157.997" cy="403.399" rx="62.955" ry="42.116"/>
  <path fill="#DD5A6F" d="M265.235 258.875c-9.006-3.192-28.356-1.863-28.356-1.863l1.159-19.855c-.234 3.992.229-1.801-.229-3.15-1.093-3.789-7.967-15.688-24.737-19.146-22.257-4.593-75.6-7.772-105.277 0-20.722 5.429-23.616 7.933-29.64 18.542-1.014 1.785.104 11.82-.392 8.654l17.526 159.334s13.566 38.158 66.56 33.918c52.992-4.24 59.351-33.914 59.351-33.914l3.179-30.033c63.606-21.146 64.609-50.271 65.712-74.186 1.325-28.811-22.779-37.567-24.856-38.301zm6.131 44.305c-2.274 39.037-44.867 47.342-44.867 47.342l6.846-74.783c-.001-.001 40.458-14.442 38.021 27.441z"/>
  <path fill="#AB5A6F" d="M106.621 257.891c20.023 3.967 68.004 6.715 94.703 0 26.688-6.713 26.579-13.654 26.579-19.217 0-5.559-2.252-15.276-22.199-19.231-19.951-3.952-67.766-6.687-94.363 0-26.598 6.69-26.918 13.643-26.918 19.153-.001 5.511 2.178 15.33 22.198 19.295z"/>
  <path fill="#fff" d="M145.57 78.24l-2.865.541s6.636 3.176 8.18 11.659c.997 9.193-5.118 35.516-5.118 35.516l.971-.326s10.253-1.713 16.774-11.4c6.254-9.286-5.231-35.585-5.231-35.585l-15.547-3.306-.028 3.442M59.622 185.946c.427-.048 15.3-3.025 19.238-10.74 3.939-7.716 4.948.225 4.948.225s-6.041 15.39-23.601 16.219c-17.559.83-.585-5.704-.585-5.704"/>
  <path fill-rule="evenodd" clip-rule="evenodd" fill="#fff" d="M132.287 156.53s28.915 12.366 31.947 7.315c3.032-5.052 21.173-20.944 21.173-20.944s-4.42-5.409-8.065 18.215c-3.646 23.625-21.905 32.562-20.698 33.261 1.208.698 18.865 4.333 18.865 4.333l12.426 3.518 5.961-.829s.67 1.208 10.445-1.525c9.769-2.733 5.178 26.639 5.178 26.639l-3.675 12.016s-4.778 3.097-8.359 11.855c-3.58 8.758-95.664-3.525-95.664-3.525s-2.107 4.296-8.383 1.338c-2.201-1.039-5.14-4.09-4.683-10.26.162-2.174 7.779 1.006 7.325-1.102-.226-1.048-14.932-8.016-15.204-8.326-5.721-6.543-2.629-16.348-2.629-16.348l7.903 2.203 5.464-2.202s3.525-.428 3.077-8.184c-.449-7.755 3.455-11.688 3.455-11.688l2.379-1.259 3.577 4.07 1.802.101 2.655-13.877 1.988-9.492 21.74-15.303m91.635 222.258s8.9 3.754 12.1 4.137c3.2.385-6.83-16.566-6.83-16.566l6.074-16.59s3.182-10.451 3.641-13.842c.455-3.39-14.621 10.486-14.984 10.686-.362.199-.001 32.175-.001 32.175"/>
  <path fill-rule="evenodd" clip-rule="evenodd" fill="#4A3256" d="M242.771 337.487s-3.096-2.452-3.864-2.84c-.764-.39 1.053-3.98 1.053-3.98s1.855 2.591 4 4.349"/>
  <path fill-rule="evenodd" clip-rule="evenodd" fill="#fff" d="M227.271 151.912s8.503-10.328 11.461-12.479c1.335-.971 15.544-3.393 28.35-1.698 15.563 2.062 30.089 8.439 30.089 8.439s3.891 29.808 3.803 30.546c-.094.738.42 8.915-1.371 4.223-1.483-4.705-2.293-8.965-3.229-11.258-.938-2.293-1.074-2.561-2.205-3.875-3.372-5.224-6.655-8.305-6.655-8.305l-21.058-9.869-34.871 13.25-4.314-8.974zm37.84 33.112s.401-4.904 11.226-11.469c10.825-6.565 20.915 3.004 20.915 3.004l.779-1.431 4.711 3.339v13.665s-2.181-4.271-7.099-9.583c-2.459-2.649-15.593-3.253-15.593-3.253l-14.939 5.728zm48.659 23.2s.438-5.966.217-6.177c-.223-.212-12.454 10.13-12.454 10.13l3.58 2.646s.574.413.123 3.681m-23.369 124.944c-1.331 2.152 5.628-10.45 7.933-13.212l9.325-11.203-.396-2.156s6.601-.672 6.68-1.697c-4.18-.944-6.328-.141-14.356 2.29-3.695 1.337-11.596 18.161-11.596 18.161s3.737 5.661 2.41 7.817zM170.393 53.341s.714-7.429 6.41-14.068c5.695-6.64 22.672-8.315 22.672-8.086 0 .229 10.585-3.273 10.585-3.273l2.704 2.885s-5.675 4.194-18.924 7.62c-13.246 3.427-21.068 15.346-21.068 15.346l-2.379-.424zm47.114 21.057s.506-.492-8.139 4.216c-8.646 4.708 10.772-14.089 10.772-14.089s24.35 7.499 24.529 7.714c.175.216 5.876 21.416 5.876 21.416l-2.571 9.106s-6.738 8.412-8.211 9.912c-1.475 1.501-9.999-39.148-9.999-39.148l-12.257.873z"/>
  <path fill="#fff" d="M115.858 56.267s6.41-2.107 6.209-11.277l3.228-5.186-3.612 19.82-18.966 6.213-3.431 2.504-2.322 4.2s-.549 2.967-.423 6.099c.072 1.791-2.51-1.853-3.064-5.772-.414-2.934 1.168-6.266 1.168-6.265 0 0 3.766-4.211 4.233-3.93.469.282 9.903-3.668 9.903-3.668m-94.664 82.546s15.462-3.541 22.188-12.408c6.727-8.866 24.135.94 24.135.94l11.498 10.707 2.252 13.732s-.912 9.837 0 14.971c.913 5.133-10.551-29.105-10.551-29.105s-5.669-5.331-12.595-7.871c-6.925-2.541-7.746-1.242-21.699 6.289-13.952 7.532-17.79 5.413-17.79 5.413l2.562-2.668"/>
  <path fill="#AB5A6F" d="M223.536 237.983c0 6.913-5.819 12.517-12.819 12.517-2.978 0-4.068-9.199-4.21-9.617-.19-.562-.098-1.582.013-1.959 1.611-5.503.974-13.457 4.197-13.457 6.999 0 12.819 5.603 12.819 12.516z"/>
  <path fill="#fff" d="M195.269 257.593c-24.424 6.424-68.315 3.796-86.632 0-18.313-3.792-20.307-13.186-20.307-18.458 0-5.271.292-11.922 24.624-18.322 15.074-3.963 37.595-4.465 56.893-3.375-20.66-1.487-44.685-.858-61.302 3.601-24.919 6.69-25.755 13.763-25.922 18.382-.123 3.398.463 12.979 20.075 19.703 18.138 6.221 63.957 7.136 88.972.421 5.028-1.351 8.781-3.13 11.983-4.485-2.413.845-5.183 1.691-8.384 2.533z"/>
  <path fill="#573256" d="M108.806 62.334c-5.811 2.183-11.521 4.338-11.843 10.649.151-.429.327-.844.526-1.252 1.088-2.207 2.839-4.062 5.285-4.83 2.031-.642 4.311-1.159 6.642-1.694 6.806-1.552 14.067-3.207 16.997-8.542 2.999-5.454 1.479-12.142-.034-18.786-.708-3.125-1.417-6.237-1.679-9.242a15.176 15.176 0 0 1 .059-3.272c.556-4.327 2.998-7.66 6.348-9.997 3.29-2.297 7.464-3.62 11.563-3.978a24.765 24.765 0 0 1 5.296.1c1.52.191 2.432-.025 2.816-.384l.103-.133-.03-.09c-.167-.278-.66-.525-1.484-.601a60.896 60.896 0 0 0-4.823-.278c-6.774-.117-12.462 1.026-16.577 3.735-4.051 2.664-6.598 6.89-7.165 12.975-.065.69-.104 1.422-.12 2.187-.041 2.61.293 5.294.633 7.954 1.676 13.258 1.795 20.093-12.513 25.479z"/>
  <path fill="#694863" d="M176.768 79.465c1.964 4.45 6.353 7.577 12.789 7.097 4.202 2.444 9.234 1.742 13.404-1.719 1.311-1.083 2.521-2.327 3.719-3.563 1.897-1.951 3.771-3.876 5.98-5.195 7.085-6.008 14.385-6.684 20.561-4.162 3.121 1.276 5.943 3.362 8.299 5.998 2.345 2.61 4.229 5.766 5.483 9.18 1.812 4.948 2.313 10.445.972 15.662 2.379-2.899 3.885-6.217 4.127-10.364 1.941-3.584 1.994-7.549.532-11.886.725-4.247-.925-8.007-3.14-10.525-1.244-4.567-3.773-7.283-7.294-8.158-2.921-3.421-6.421-5.646-10.52-4.896-5.635-2.454-11.022-2.287-14.908 1.528-3.237.321-5.999 2.015-8.37 5.035-3.036.586-5.499 2.477-7.502 6.033-2.377.251-4.512 1.157-5.697 2.757-1.954-.816-4.732-1.08-6.887-.45-1.063-2.047-2.773-4.27-5.117-5.541-.247-2.816-1.234-5.165-2.525-7.355.666-1.748 1.004-4.126.895-6.587 1.5-2.281 2.305-4.934 2.562-7.025 2.687-4.679 9.394-6.811 15.982-8.741-.607.103-1.223.194-1.846.289-14.253 2.234-27.03 7.706-28.633 19.738-1.366 3.028-1.328 6.824 1.603 12.04-.159 3.887 1.674 7.543 5.531 10.81z"/>
  <path fill="#593256" d="M198.007 35.212c10.153-1.588 20.451-4.261 22.535-15.616 3.37-18.363-18.99-27.333-28.781-11.198-4.453 7.323-2.327 7.96 2.838 1.135 8.568-11.326 26.345-2.125 19.182 11.333-1.472 2.766-4.044 5.167-7.755 6.74-3.664 1.55-7.171 1.982-10.632 2.408-5.835.714-11.513 1.41-17.322 7.792-2.135 2.343-3.918 4.856-5.3 7.517 6.393-7.165 16.262-8.71 25.235-10.111z"/>
  <path fill="#694863" d="M89.517 82.258c-.868 2.497.99 5.597 3.22 6.859.413 2.376 4.394 4.492 5.639 3.862 1.307 1.299 4.282 1.496 6.114.786 1.507 1.161 4.379.61 6.277-.331 1.81.093 3.463-1.062 5.013-2.672 2.092-.771 3.812-2.2 5.129-4.211 1.839-1.175 3.356-2.553 4.653-4.264 2.372-.868 4.685-1.577 7.208-3.588 4.399 1.477 6.24-.823 9.189-.107 4.926 1.184 9.399 4.261 12.708 8.308 5.571 6.805 8.66 16.221 6.215 24.905-1.124 3.979-3.403 7.831-7.157 11.234 5.741-2.496 8.794-5.931 10.942-11.135 3.904-2.009 5.855-5.976 5.743-10.474 1.667-3.85 1.691-7.411.258-10.845.458-3.418-.442-7.303-3.136-9.96-1.477-5.725-4.254-8.989-8.204-9.975-2.838-3.78-6.947-4.893-11.62-4.024-4.058-1.986-8.883-1.715-14.551 1.504-3.421.046-7.18 1.277-10.811 4.282-3.093.795-5.309 2.732-6.78 5.564-1.747.696-3.108 2.137-4.594 4.112-.981.436-2.038.73-3.452 1.88-1.297.164-2.641.276-4.011 1.025-.827-.596-1.923-1.189-4.109-.906-.341-.918-1.17-1.581-2.129-2.298-.104-1.803-.636-3.304-1.468-4.481.199-1.936.085-3.513-.393-4.782.466-7.099 6.41-9.362 12.802-11.768 4.475-1.688 9.002-3.389 11.183-6.993-2.238 2.973-7.776 3.884-13.044 4.752-3.57.591-7.017 1.16-8.942 2.282-.799.362-1.511 1.493-1.713 2.168-1.382.04-2.682 1.277-3.269 3.188-1.32.251-2.315 1.787-2.698 3.607-1.428 1.242-1.875 3.251-1.432 5.944-.905 2.898-.143 5.176 1.22 6.552z"/>
  <path fill="#4A3256" d="M282.695 175.994c3.589.076 7.133.924 10.244 2.6 2.874 1.545 5.384 3.791 7.216 6.767-.172-2.698-.667-5.509-1.515-8.391a23.694 23.694 0 0 0-.37-1.157 9.56 9.56 0 0 0-.239-.684l-.011.025c-3.08-1.85-6.921-3.391-10.943-3.794-3.231-.323-6.581.085-9.731 1.667-4.208 2.109-7.502 4.82-9.978 7.877a23.08 23.08 0 0 1 4.816-2.829 25.169 25.169 0 0 1 10.511-2.081z"/>
  <path fill="#573256" d="M287.086 245.35c4.357-.856 8.909-1.75 12.486-3.368 5.657-2.558 9.071-7.767 11.148-14.27 1.873-5.853 2.676-12.747 3.049-19.727-2.223 3.258-5.014 6.167-8.393 8.658-.41 3.826-1.033 7.542-2.213 10.917-1.27 3.612-3.174 6.825-6.135 9.351-4.064 3.461-9.434 4.729-14.478 5.922-6.387 1.504-12.245 2.887-13.668 8.605-.886 3.577-.633 6.393.376 8.498a7.977 7.977 0 0 0 2.428 2.953c1.024.771 2.23 1.316 3.555 1.643 3.148.783 6.883.334 10.21-1.256.985-.479 1.472-.979 1.581-1.383v-.148l-.09-.078c-.306-.178-.9-.172-1.739.15-2.632 1.012-5.378 1.227-7.739.762-1.72-.333-3.252-1.033-4.401-2.035-1.191-1.047-1.973-2.414-2.152-4.046-.146-1.354.125-2.885.933-4.548 1.94-3.985 8.356-5.245 15.242-6.6z"/>
  <path fill="#694863" d="M233.857 144.387c5.811-3.945 12.252-5.792 18.785-5.942 5.741-.125 11.56 1.059 17.076 3.285 5.515 2.213 10.729 5.464 15.284 9.469 9.764 8.576 16.554 20.627 16.848 33.473l-.057.001c.35 4.389-.125 8.51-1.354 12.151-1.988 5.878-5.937 10.5-11.575 12.991-.693.305-1.371.563-2.036.782-1.208-.05-3.351.314-4.284.894-1.732-1.006-3.415-1.473-6.071-1.498-1.261-1.857-2.871-3.674-4.686-5.359-.153-1.539-.63-4.37-1.372-6.062.903-2.244 1.584-4.846 1.398-7.095 1.637-1.52 3.021-3.292 3.477-5.541 2.095-2.309 4.769-3.986 7.825-4.417.373-.052.73-.095 1.063-.125 4.664-.45 8.695.51 11.685 2.386a12.999 12.999 0 0 1 2.774 2.325c-1.67-2.635-3.921-4.636-6.498-6.024-2.869-1.547-6.143-2.333-9.473-2.401a23.52 23.52 0 0 0-9.813 1.939c-2.629.87-4.75 2.215-6.34 4.237-3.021 2.215-4.923 5.101-4.629 9.088-1.873 3.01-1.516 6.573.097 10.102-.261 3.882 1.095 7.25 4.045 9.791 1.097 3.259 3.044 5.964 7.338 6.912 2.858 2.574 5.821 3.434 8.926 2.791 2.793 1.33 5.442.885 8.124-.654 1.785-.16 3.627-.579 5.378-1.773 10.148-4.275 16.803-11.239 20.22-19.956 3.476-2.698 3.692-8.36 2.735-14.722 2.226-5.201.949-10.962-2.998-15.671 2.162-5.518-1.299-12.113-5.981-14.948.315-6.594-3.942-12.328-10.423-13.237-2.791-6.107-8.018-8.757-14.449-9.015-3.497-2.422-7.979-3.443-15.764-2.312-4.273-.779-8.312-.393-12.161 1.1-4.008-.048-7.528.92-10.522 3.56-4.882 1.701-9.007 5.209-12.592 9.475z"/>
  <path fill="#5C4863" d="M73.939 166.505c-1.252-13.912-4.728-22.568-9.439-27.674-3.824-4.141-8.496-5.938-13.457-6.314.472.144.94.299 1.405.475 2.833 1.082 5.412 2.796 7.013 4.982 5.694 7.745 4.546 17.839 3.376 28.042-.874 7.662-1.752 15.391.338 22.03 1.812 5.75 5.726 9.623 10.517 12.445 4.871 2.868 10.665 4.659 16.089 6.216 1.693.486 2.893 1.566 3.678 3.035.564 1.055.907 2.32 1.059 3.698 4.802-4.634 7.758-12.056 9.584-18.339-2.672-5.21-8.087-6.363-13.353-7.642-5.597-1.358-11.106-2.695-13.653-7.569-2.145-4.112-2.912-8.667-3.129-13.389l-.028.004z"/>
  <path fill="#4A3256" d="M257.622 335.584c-4.487 2.528-9.527 2.073-13.665-.568l-1.193 2.466c4.936 3.488 11.386 3.227 16.336-.078 13.585-9.056-1.428-19.761-6.827-8.826 4.726-7.785 17.745-.627 5.349 7.006z"/>
  <path fill="#4A355C" d="M77.606 176.95c.291.738.614 1.456.981 2.163a8.629 8.629 0 0 0 1.676 2.213c3.798-4.837 5.921-10.967 6.434-17.547.553-7.166-.802-14.85-4.008-21.963-.734-1.632-.384-2.655.708-3.29.84-.482 2.139-.612 3.703-.587 1.887.027 3.403.745 4.76 1.385.608.29 1.182.562 1.702.72.541.158.907.154 1.099.05l.031-.018-.004-.045c-.048-.228-.285-.519-.743-.809-1.198-.76-2.42-1.435-3.694-1.959-1.259-.52-2.565-.897-3.937-1.064-1.111-.138-2.09-.066-2.906.169-.783.228-1.419.617-1.87 1.119a3.282 3.282 0 0 0-.8 1.804c-.07.579-.012 1.216.185 1.89 1.993 6.854 2.949 14.125 2.278 20.768-.563 5.657-2.31 10.864-5.595 15.001z"/>
  <path fill="#744863" d="M295.44 316.119c-3.785.579-7.168 2.229-9.684 5.857-2.136 1.023-3.785 2.75-4.516 5.689-1.18.598-2.64 2.687-2.723 4.383-1.48 1.805-1.926 2.866-2.418 5.599-2.046 1.539-3.012 3.412-2.922 5.6-1.917 1.502-2.821 3.129-2.686 4.883-1.817 1.02-2.62 2.854-2.963 5.02-1.887.777-3.234 2.219-3.386 5.221-2.658 1.455-3.427 3.4-3.935 5.281-1.676.811-2.772 2.307-3.591 3.98-1.985.75-3.421 1.973-4.303 3.625-1.701.115-2.853.75-3.447 1.891-1.676-.287-3.604-.338-5.501.922-1.074-1.488-3.137-1.766-4.97-1.469-1.024-1.725-2.806-3.348-4.889-3.498.129-3.109 1.053-4.875-1.312-7.057.005-3.555 1.214-7.682 3.069-12.277-3.236 6.494-5.717 12.287-6.882 17.17-3.776 14.062 7.51 18.914 17.887 15.162 3.105.822 5.306-.623 7.268-2.623 2.225.188 3.927-.877 5.107-3.176 2.275-.16 3.836-1.508 4.686-4.012 2.701-.51 3.278-2.396 3.93-4.277 2.337-1.049 3.799-3.025 4.37-5.887 1.957-.943 3.057-2.75 3.293-5.396 2.447-1.842 2.981-4.002 3.167-6.189 1.988-1.738 2.415-3.83 2.529-5.932 2.349-1.428 2.435-4.461 2.494-7.27 2.431-8.222 4.977-16.816 12.328-21.22z"/>
  <path fill="#5C4863" d="M331.216 342.409c-.911-7.445-3.304-13.589-6.947-18.15-3.619-4.542-8.482-7.524-14.341-8.671a35.195 35.195 0 0 0-5.266-.628c-13.579 1.397-16.845 12.438-19.932 22.859l-.199.662a133.177 133.177 0 0 1 2.75-4.668c2.895-4.696 6.287-8.197 9.929-10.267v-.002c3.64-2.076 7.522-2.729 11.413-1.744 2.39.609 4.773 1.836 7.094 3.736 3.295 2.7 6.311 6.447 7.921 10.368.392.953.717 1.953.959 2.986.792 3.312.767 6.889-.331 10.008-1.122 3.176-3.341 5.879-6.924 7.352-7.596 3.125-14.326-4.357-14.829-11.488-1.129-8.428 11.948-13.948 14.588-4.133 2.645 9.836 3.053 1.658 2.009-1.453-4.774-14.306-25.646-6.87-22.538 7.555.042.297.086.562.133.791.85 4.541 3.09 8.945 6.418 12.006 3.283 3.029 7.638 4.744 12.774 3.967l.609-.102h.005c5.785-1.09 9.6-3.592 11.917-6.887 2.734-3.902 3.416-8.95 2.788-14.097z"/>
  <linearGradient id="a" gradientUnits="userSpaceOnUse" x1="87.876" y1="226.492" x2="294.289" y2="226.492">
    <stop offset=".043" stop-color="#725B7A"/>
    <stop offset="1" stop-color="#53415A"/>
  </linearGradient>
  <path fill="url(#a)" d="M283.315 152.467c-4.421-3.888-9.474-7.038-14.795-9.182-5.312-2.137-10.898-3.276-16.412-3.152-8.967.203-17.751 3.773-24.84 11.858l-.016-.016c-4.241 6.196-7.736 13.168-11.226 20.141-5.69 11.369-11.393 22.75-20.323 30.985-8.766 8.077-22.208 4.618-29.465-.142 9.037 3.81 20.801 6.035 28.793-1.543-21.39.325-19.74-31.449-16.853-45.126-6.43 7.244-10.726 16.487-12.11 26.083.606-15.545 11.559-30.805 22.985-36.878a817.765 817.765 0 0 1 6.04-3.163c14.46-7.511 33.441-17.386 45.582-30.632l-.021-.019c6.426-6.953 7.057-16.203 4.19-24.005-1.181-3.209-2.95-6.179-5.151-8.635-2.189-2.445-4.806-4.381-7.68-5.554-4.383-1.789-9.407-1.795-14.507.911 2.562-.17 5.031.404 7.099 1.775 2.165 1.447 3.866 3.772 4.724 7.043 3.445 13.143-17.211 22.737-37.87 32.327-12.395 5.758-24.783 11.51-31.718 17.895-8.265 7.603-15.776 16.007-22.206 25.576-6.429 9.56-11.782 20.275-15.732 32.505 3.691-14.772 8.834-24.532 14.334-33.45l.025-.036c-3.848-.947-7.339-3.218-9.119-6.88-2.052-4.221-1.359-9.136.594-13.236 2.621-5.489 8.823-7.885 15.586-10.5l.618-.239c8.637-4.195 13.161-9.865 14.844-15.827 2.294-8.157-.669-17.004-5.894-23.387-1.536-1.879-3.257-3.526-5.068-4.856a15.62 15.62 0 0 1 1.909 3.442c.279.678.517 1.393.726 2.135 1.923 7.047-.717 11.49-5.897 14.675-4.97 3.055-12.269 4.888-20.071 6.826-7.037 1.749-12.651 5.388-16.462 10.474-3.792 5.059-5.811 11.577-5.684 19.106.125 7.216 1.114 14.403 2.104 21.579 1.267 9.153 2.524 18.292 2.018 27.506-.355 6.466-3.395 13.023-6.137 18.642 5.319-4.769 8.909-11.909 10.291-18.75-.276 10.244-5.766 16.98-12.871 23.534-3.003 2.773-6.003 5.545-8.048 8.963-3.136 5.251-1.065 9.385-.931 15.155.138 5.912.084 8.697 4.613 12.135 6.109 4.637 14.74 7.079 25.479 7.726 10.604.759 13.928 1.161 16.922 1.448 10.157.471 22.938.959 33.907.428 15.133-.732 15.469-1.062 18.488-1.385.894.302 4.304 12.094 10.137 13.926 10.991 3.455 20.19 12.224 24.183 22.132 6.579 16.327.584 32.972-6.077 51.463-.698 1.936-1.404 3.9-2.033 5.686-.117.326-.231.666-.346 1.021-2.035 6.367-2.038 12.521.195 17.688 2.225 5.143 6.688 9.328 13.579 11.768.294.104.602.209.936.312-3.463-3.166-3.959-8.018-2.484-14.197 2.177-9.129 8.785-21.221 16.342-35.063a2413.58 2413.58 0 0 0 4.019-7.369l.011.004c5.681-13.224 9.98-27.814 6.112-42.086-3.72-13.761-10.777-23.545-19.366-30.199-11.593-8.982-21.637-10.959-36.516-11.811-9.787-.555-30.575.551-35.408-13.18 8.103 15.127 30.256 10.127 45.157 12.082 5.667-3.889 10.371-9.172 14.329-15.064 3.977-5.925 7.203-12.473 9.899-18.863a1698.36 1698.36 0 0 0 3.823-9.139c9.834-23.606 15.442-37.071 27.505-41.188.372-.129.734-.244 1.092-.35 7.927-2.327 15.771-.613 22.225 3.459 3.417 2.149 6.441 4.955 8.896 8.171-2.807-5.04-6.578-9.624-10.974-13.483z"/>
  <path fill="#5C4863" d="M31.85 237.443c8.754 3.158 15.191-1.158 21.565-5.428 4.431-2.969 8.831-5.916 14.04-6.533 2.849-.342 5.914.152 8.796 1.115 2.907.969 8.488 3.75 10.649 5.309.917-2.582-2.245-4.715 1.827-11.528 1.173-1.97 2.623-3.71 4.196-5.345a12.183 12.183 0 0 0-.271-2.567c-4.167-1.294-8.645-2.029-13.29-2.192-4.642-.168-9.434.229-14.241 1.205-6.059 1.228-9.776 4.464-13.342 7.561-4.022 3.5-7.863 6.845-14.587 7.267-3.572.23-6.276-.845-8.307-2.647-2.468-2.196-3.893-5.45-4.661-8.75-2.61-11.231 2.021-17.052 9.098-20.056 6.857-2.906 15.992-3.073 22.865-3.033 1.403.007 2.743-.05 4.02-.171a32.304 32.304 0 0 0 2.443-.31 23.418 23.418 0 0 1-1.09-2.793 26.564 26.564 0 0 1-.698-2.751c-.818.114-1.665.204-2.536.269a47.624 47.624 0 0 1-3.852.124c-9.832-.086-21.15.822-29.307 5.22-7.992 4.31-12.948 12.061-10.361 25.727.958 5.09 3.045 9.313 5.838 12.639a25.312 25.312 0 0 0 11.191 7.66l.015.008z"/>
  <path fill="#4A3256" d="M19.582 145.154c3.341-1.595 6.203-3.712 9.003-5.788l.76-.562C.31 153.729-8.612 111.339 23 115.033c16.495 1.922 15.084-12.34 2.184-11.755-.147.139-.219.217-.213.229.022.066.289.167.798.292 10.918 1.304 10.927 11.313-2.468 9.29-37.172-5.63-23.277 41.416-3.719 32.065z"/>
  <path fill="#744863" d="M31.882 130.849c-1.918.57-3.486 1.794-4.781 3.401-2.005.702-3.465 1.756-4.365 3.107-1.406.971-2.747 1.855-4.011 2.603-.438.26-.872.492-1.29.702 5.321-.502 9.754-2.662 14.18-4.817 2.216-.377 3.741-1.274 4.993-2.331 2.122.063 3.515-.674 4.628-1.67 2.352.548 2.993-.223 3.78-.818 3.112.994 4.386.427 5.38-.24 5.638.265 10.981 2.183 15.342 6.904 3.586 3.883 6.482 9.664 8.298 17.995.294-1.982.488-4.017.041-6.466.612-2.46.311-4.468-.542-6.201.26-2.271-.355-4.078-1.536-5.606-.314-2.548-1.389-4.407-3.208-5.443-.76-2.21-2.023-3.607-3.799-4.173-1.389-2.292-3.095-3.391-5.124-3.304-1.92-2.112-4.546-2.5-7.759-1.57-1.627-.556-3.297-.99-6.104.662-1.761-.364-3.667.174-5.699 2.106-1.57.29-3.092.82-4.126 2.323-1.709.298-3.227 1.091-4.298 2.836z"/>
  <path fill-rule="evenodd" clip-rule="evenodd" fill="#fff" d="M132.431 175.412a948.58 948.58 0 0 1 4.406-7.045l.002-.04.036-.02c16.445-25.991 25.588-35.959 55.615-49.119-5.646 2.453-10.982 6.566-1.779 14.572-4.367-1.346-7.958-6.484-7.896-8.895-5.485 3.148-1.521 8.823 3.706 12.637-4.558-1.409-8.354-6.555-8.702-9.363-5.756 3.986.195 10.084 5.2 12.781-5.536-1.29-9.926-6.738-9.852-9.463-6.2 4.604-.047 10.622 5.408 13.416-5.251-1.403-9.555-6.758-10.029-9.831-5.421 4.571.242 10.658 5.346 14.757-5.026-1.608-9.292-7.113-10.22-10.621-5.269 5.055 2.262 13.238 6.713 16.656-5.376-2.073-10.04-9.003-10.748-12.919-5.865 5.614.883 13.929 6.41 18.652-5.489-2.307-10.314-9.881-10.999-14.027-6.56 7.217 1.775 16.265 8.429 20.956-6.445-2.539-12.503-11.038-13.4-15.488-6.574 7.539 3.91 18.4 10.257 22.634-7.286-2.875-14.117-12.741-14.673-17.401-5.51 6.726.476 14.579 6.723 19.089-5.39-2.266-10.134-9.598-10.955-13.789-4.957 6.351-3.512 12.777 3.054 18.249-4.28-2.017-7.531-8.547-7.736-12.143a1114.265 1114.265 0 0 0-4.316 5.765zm-26.711-20.891c-1.324-19.826-.434-33.86 16.946-40.882-15.97 10.444-16.392 24.738-16.946 40.882zm-16.966 49.458c-15.237-3.715-26.919-11.333-24.361-29.909 1.109 19.062 9.505 23.411 24.361 29.909zm-52.416 32.857c-18.91-3.076-27.375-28.374-15.637-39.933-9.163 12.503-1.887 34.929 15.637 39.933zm144.57-22.698c31.692-3.222 35.562-52.265 56.428-66.509l.141-.342.052.214c2.338-1.566 4.881-2.7 7.706-3.283-3.946 1.141-9.001 3.791-3.367 8.321-1.684-.541-3.577-2.056-4.453-3.149-2.685 2.597-2.736 5.524 1.948 9.478-2.449-.791-5.252-3.159-6.181-4.598-2.608 5.106-2.233 7.987 3.104 11.275-2.731-.879-5.817-3.361-7.185-5.113-3.54 4.789-1.799 8.242 5.024 12.904-3.3-1.061-7.031-4.045-8.717-6.178-3.555 6.559-.975 11.063 6.73 15.676-4.144-1.33-8.865-5.24-10.635-7.765-2.885 6.028.287 10.359 8.003 16.354-4.589-1.475-9.829-5.839-11.706-8.596-3.371 6.836.98 12.859 9.301 18.207-5.073-1.631-11.098-6.799-13.389-10.051-4.141 7.573.99 13.054 9.959 19.025-5.443-1.747-11.841-7.072-14.743-10.778.14 8.556 5.195 15.193 9.505 20.312-5.5-2.879-10.485-7.677-13.789-14.709-1.546 7.532 4.054 18.267 6.835 21.816-6.38-4.545-8.784-11.059-10.747-17.562-4.497 4.882-1.97 15.024 2.854 22.819-6.061-3.451-10.652-13.07-11.062-18.021-5.686 1.819-3.56 11.738-.615 15.574-3.739-2.587-5.41-10.931-4.523-14.657-2.033.088-4.189-.119-6.478-.664zm13.321 42.771c29.112.183 48.534 34.368 35.492 60.435 7.43-14.844 4.769-24.145 10.689-18.693-.756-1.885-3.039-4.059-4.504-4.912.545-2.861-.839-7.951 5.78-4.481-1.348-1.544-4.237-2.838-5.897-3.146-.614-3.332-1.865-7.277 6.134-5.492-2.104-1.367-5.925-1.946-8.066-1.777-1.015-4.078-1.262-6.445 6.603-7.869-2.999-.66-7.513.223-10.152 1.314-2.822-3.909.475-7.398 7.312-10.295-3.857.215-9.056 2.863-11.769 5.052-5.493-5.12 2.176-9.805 8.873-12.017-5.131.459-12.237 4.76-14.562 7.465-4.982-4.082 2.791-9.604 7.203-12.032-4.604 1.211-10.307 5.919-12.618 9.033-6.673-3.068 1.965-9.833 6.13-11.948-4.707 1.327-10.166 6.748-11.657 9.861-5.376-1.607-2.527-.727-4.349-1.059-1.824-.33-1.17-.418-4.34-.594-3.168-.176-1.474-.412-6.186.672l-.116.483zm53.982-171.043c-.022-2.368.882-4.297 2.01-4.304 1.128-.01 2.066 1.901 2.088 4.271.02 2.368-.885 4.297-2.01 4.305-1.132.007-2.066-1.904-2.088-4.272zm1.252-.004c-.009-1.12.411-2.029.95-2.035.532-.005.973.899.988 2.019.005 1.12-.417 2.031-.957 2.034-.527.002-.971-.9-.981-2.018zm-1.895-9.358c-.753-2.226-.71-4.366.107-4.773.813-.414 2.093 1.062 2.845 3.287.762 2.227.715 4.369-.098 4.78-.819.404-2.093-1.067-2.854-3.294zm.907-.445c-.357-1.048-.336-2.063.047-2.257.389-.192.987.506 1.343 1.556.358 1.053.34 2.061-.043 2.254-.39.197-.989-.503-1.347-1.553zm-6.478-6.235c-1.531-1.806-1.91-4.002-.846-4.912 1.067-.9 3.173-.17 4.703 1.638 1.532 1.811 1.908 4.005.847 4.912-1.066.901-3.171.166-4.704-1.638zm1.181-.995c-.722-.849-.897-1.891-.399-2.316.503-.427 1.499-.085 2.221.77.724.855.903 1.89.401 2.318-.506.426-1.499.085-2.223-.772zm-4.888 4.888c-1.486-1.561-1.953-3.468-1.059-4.257.904-.786 2.833-.158 4.312 1.406 1.48 1.559 1.951 3.462 1.056 4.252-.904.786-2.83.158-4.309-1.401zm1.002-.863c-.704-.743-.931-1.643-.5-2.013.419-.371 1.334-.075 2.029.663.703.733.928 1.638.495 2.009-.418.367-1.328.075-2.024-.659zm4.344 6.64c-1.019-2.002-.97-3.949.111-4.339 1.082-.388 2.789.918 3.808 2.928 1.022 2.006.967 3.945-.114 4.336-1.082.39-2.786-.919-3.805-2.925zm1.201-.425c-.487-.949-.458-1.866.052-2.051.512-.185 1.316.434 1.801 1.38.478.947.451 1.866-.054 2.048-.514.189-1.321-.432-1.799-1.377zm-9.94-14.358c-2.055-1.179-3.154-3.123-2.466-4.331.698-1.209 2.932-1.24 4.982-.06 2.05 1.181 3.155 3.118 2.454 4.331-.695 1.213-2.92 1.239-4.97.06zm.772-1.338c-.972-.56-1.487-1.471-1.164-2.045.328-.569 1.384-.587 2.353-.027.973.555 1.488 1.473 1.16 2.041-.328.578-1.381.587-2.349.031zm-5.292 6.665c-2.459-.854-4.047-2.724-3.547-4.176.501-1.454 2.906-1.941 5.366-1.089 2.46.851 4.05 2.722 3.546 4.174-.501 1.457-2.903 1.941-5.365 1.091zm.561-1.608c-1.16-.4-1.913-1.287-1.673-1.97.237-.688 1.37-.917 2.536-.517 1.161.403 1.909 1.29 1.677 1.971-.239.689-1.378.921-2.54.516zm-6.33-4.534c-2.98-.068-5.362-1.55-5.331-3.312.044-1.765 2.493-3.136 5.475-3.071 2.983.072 5.368 1.556 5.329 3.319-.039 1.76-2.492 3.132-5.473 3.064zm.049-1.949c-1.401-.029-2.531-.73-2.514-1.566.019-.829 1.178-1.478 2.588-1.442 1.407.027 2.537.731 2.515 1.564-.019.826-1.17 1.476-2.589 1.444zm-3.668 8.299c-2.363.154-4.271-.9-4.244-2.363.02-1.455 1.967-2.768 4.332-2.925 2.366-.158 4.266.897 4.243 2.355-.027 1.458-1.968 2.777-4.331 2.933zm.037-1.619c-1.121.074-2.018-.426-2.01-1.112.013-.69.928-1.306 2.043-1.382 1.121-.077 2.017.422 2.007 1.113-.011.689-.926 1.308-2.04 1.381zm-6.531-2.179c-2.243.696-4.052.011-4.044-1.53.003-1.541 1.827-3.356 4.067-4.051 2.244-.7 4.055-.014 4.048 1.525 0 1.542-1.824 3.36-4.071 4.056zm.018-1.71c-1.063.332-1.913.009-1.91-.723-.003-.723.862-1.581 1.92-1.911 1.059-.332 1.913-.005 1.913.722-.005.724-.864 1.586-1.923 1.912zm-3.111 9.569c-2.238.698-4.058.011-4.047-1.528.003-1.542 1.824-3.355 4.07-4.053 2.241-.699 4.049-.016 4.049 1.523-.007 1.543-1.831 3.359-4.072 4.058zm.013-1.704c-1.058.328-1.916.003-1.913-.727.006-.725.866-1.582 1.924-1.917 1.061-.327 1.912-.004 1.91.726-.003.724-.863 1.586-1.921 1.918zm-5.029-2.27c-1.817 1.265-3.427 1.5-3.604.531-.176-.972 1.157-2.79 2.968-4.057 1.816-1.265 3.427-1.5 3.606-.529.17.972-1.162 2.787-2.97 4.055zm-.191-1.081c-.854.598-1.615.71-1.696.253-.091-.461.542-1.319 1.395-1.914.857-.598 1.618-.711 1.701-.25.085.454-.542 1.315-1.4 1.911zm-1.615 11.015c-1.77.816-3.495.264-3.864-1.24-.365-1.496.761-3.378 2.529-4.194 1.76-.816 3.493-.261 3.863 1.24.364 1.495-.767 3.375-2.528 4.194zm-.404-1.663c-.834.388-1.652.124-1.827-.584-.177-.705.362-1.597 1.193-1.984.834-.384 1.652-.12 1.824.591.175.707-.359 1.595-1.19 1.977zm-4.521-3.766c-1.608.732-3.028.651-3.185-.187-.148-.836 1.026-2.11 2.638-2.846 1.604-.735 3.032-.651 3.184.188.151.839-1.03 2.11-2.637 2.845zm-.161-.925c-.762.348-1.435.309-1.507-.088-.064-.395.489-1 1.248-1.344.756-.346 1.431-.31 1.504.087.067.394-.492.993-1.245 1.345zm-3.876 11.419c-2.77.002-4.948-1.473-4.867-3.28.08-1.802 2.395-3.263 5.157-3.261 2.767.005 4.945 1.473 4.862 3.28-.084 1.805-2.39 3.267-5.152 3.261zm.094-1.995c-1.304-.004-2.333-.698-2.299-1.55.039-.852 1.131-1.546 2.437-1.543 1.305.006 2.338.697 2.301 1.551-.036.852-1.133 1.542-2.439 1.542zm-5.108-6.631c-2.29-.466-3.641-1.516-3.012-2.339.626-.825 2.983-1.118 5.274-.649 2.288.474 3.637 1.521 3.013 2.346-.623.823-2.99 1.11-5.275.642zm.695-.912c-1.072-.217-1.717-.718-1.42-1.104.297-.393 1.407-.529 2.487-.307 1.083.223 1.722.718 1.427 1.105-.296.393-1.409.529-2.494.306zm-8.466 7.222c-2.471-1.369-3.69-3.759-2.729-5.332.967-1.575 3.746-1.739 6.219-.366 2.471 1.365 3.689 3.756 2.729 5.324-.966 1.579-3.747 1.744-6.219.374zm1.072-1.737c-1.164-.65-1.742-1.774-1.285-2.523.454-.739 1.771-.821 2.933-.174 1.172.649 1.746 1.778 1.294 2.52-.459.744-1.774.821-2.942.177zm-1.511-9.905c-1.462-1.581-2.075-3.161-1.368-3.532.706-.372 2.462.606 3.926 2.188 1.46 1.583 2.069 3.161 1.369 3.53-.707.374-2.467-.603-3.927-2.186zm.783-.405c-.691-.747-.979-1.495-.643-1.667.33-.176 1.158.286 1.852 1.032.687.747.981 1.493.644 1.67-.329.174-1.165-.286-1.853-1.035zm-8.524 2.407c-1.409-2.419-1.391-5.083.049-5.953 1.439-.87 3.749.388 5.168 2.798 1.409 2.417 1.386 5.087-.057 5.958-1.437.868-3.746-.388-5.16-2.803zm1.597-.954c-.665-1.143-.655-2.401.021-2.812.676-.413 1.774.178 2.437 1.324.671 1.138.661 2.397-.022 2.806-.678.41-1.771-.178-2.436-1.318zm2.402-9.264c-.454-1.837-.301-3.325.347-3.305.644.016 1.546 1.525 2.003 3.372.462 1.84.307 3.322-.343 3.304-.646-.021-1.544-1.528-2.007-3.371zm.719.027c-.215-.872-.143-1.568.162-1.562.312.008.732.721.953 1.589.213.874.14 1.574-.167 1.563-.303-.006-.729-.724-.948-1.59zm-7.934-1.215c-.171-2.458.887-4.555 2.364-4.679 1.477-.126 2.812 1.772 2.983 4.234.173 2.465-.891 4.558-2.365 4.686-1.48.123-2.815-1.773-2.982-4.241zm1.631-.128c-.077-1.165.419-2.149 1.12-2.211.699-.057 1.332.837 1.409 2.003.079 1.165-.42 2.149-1.115 2.208-.701.06-1.334-.835-1.414-2zm5.385-7.192c.179-1.645.749-2.818 1.274-2.604.529.205.812 1.714.635 3.366-.179 1.652-.748 2.822-1.272 2.614-.529-.213-.813-1.724-.637-3.376zm.585.243c.083-.782.348-1.337.6-1.238.246.098.385.812.301 1.593-.082.775-.354 1.335-.599 1.232-.252-.097-.386-.813-.302-1.587zm-5.766-2.634c.596-1.957 2.042-3.272 3.229-2.93 1.183.342 1.659 2.212 1.062 4.171-.596 1.966-2.041 3.276-3.224 2.939-1.185-.346-1.663-2.21-1.067-4.18zm1.311.386c.279-.92.962-1.545 1.521-1.379.559.158.785 1.038.504 1.968-.279.927-.962 1.548-1.523 1.383-.559-.159-.784-1.041-.502-1.972zm5.471-4.97c.54-1.397 1.32-2.28 1.728-1.971.41.303.299 1.686-.246 3.082-.543 1.394-1.318 2.278-1.729 1.971-.41-.305-.3-1.688.247-3.082zm.449.341c.257-.658.624-1.079.818-.933.19.146.142.8-.116 1.46-.257.657-.625 1.076-.816.931-.196-.146-.142-.798.114-1.458zm-2.655-2.608c1.054-1.284 2.174-1.943 2.497-1.477.328.463-.261 1.878-1.319 3.161-1.056 1.283-2.178 1.939-2.499 1.478-.325-.467.264-1.882 1.321-3.162zm.357.514c.495-.603 1.027-.915 1.181-.698.152.22-.123.893-.625 1.498-.499.603-1.028.913-1.18.697-.15-.221.124-.89.624-1.497zm5.169-3.799c.979-.666 1.886-.895 2.014-.511.129.387-.565 1.238-1.547 1.905-.986.666-1.886.893-2.014.509-.135-.388.56-1.24 1.547-1.903zm.138.427c.466-.318.893-.418.951-.239.062.182-.268.585-.732.896-.468.315-.89.424-.949.242-.063-.182.266-.587.73-.899zm-29.095 41.154c-2.055-1.898-2.811-4.454-1.69-5.708 1.126-1.252 3.698-.73 5.753 1.169 2.059 1.897 2.812 4.457 1.695 5.707-1.124 1.251-3.699.731-5.758-1.168zm1.246-1.379c-.968-.895-1.322-2.105-.797-2.695.534-.592 1.749-.348 2.72.549.97.897 1.327 2.104.797 2.693-.529.593-1.75.348-2.72-.547zm4.552-2.813c-1.69-1.984-2.409-4.547-1.608-5.723.801-1.186 2.827-.533 4.519 1.454 1.688 1.979 2.408 4.544 1.604 5.725-.802 1.177-2.822.526-4.515-1.456zm.892-1.303c-.799-.935-1.138-2.146-.759-2.702.38-.556 1.333-.248 2.131.686.804.938 1.14 2.147.761 2.702-.381.56-1.332.251-2.133-.686zm3.558 9.982c-.936-2.082-.917-4.415.045-5.21.963-.793 2.506.246 3.447 2.33.941 2.079.918 4.416-.045 5.212-.969.795-2.508-.247-3.447-2.332zm1.072-.873c-.446-.982-.434-2.089.019-2.46.455-.378 1.181.115 1.626 1.097.447.99.436 2.089-.02 2.464-.455.373-1.182-.117-1.625-1.101zm-5.622 4.477c-.939-2.079-.918-4.411.047-5.208.961-.797 2.505.246 3.444 2.325.938 2.084.919 4.418-.045 5.215-.961.797-2.507-.245-3.446-2.332zm1.071-.873c-.442-.983-.433-2.085.021-2.459.457-.377 1.181.117 1.628 1.1.438.984.433 2.084-.022 2.463-.456.378-1.184-.119-1.627-1.104zm5.601 5.666c-.098-2.247.541-4.255 1.428-4.484.885-.224 1.68 1.416 1.777 3.664.101 2.251-.54 4.257-1.423 4.483-.881.229-1.68-1.411-1.782-3.663zm.979-.241c-.043-1.062.253-2.011.675-2.117.416-.109.795.667.842 1.728.045 1.062-.254 2.011-.675 2.119-.422.103-.795-.67-.842-1.73zm-4.919 3.258c-.093-2.252.541-4.259 1.426-4.487.883-.224 1.684 1.416 1.782 3.662.097 2.251-.54 4.259-1.422 4.487-.888.222-1.684-1.416-1.786-3.662zm.98-.244c-.044-1.064.256-2.015.674-2.119.419-.11.791.665.84 1.73.046 1.061-.255 2.006-.673 2.114-.417.11-.794-.661-.841-1.725zm1.046 6.379c.871-2.074 2.309-3.617 3.207-3.438.898.168.917 1.997.044 4.071-.876 2.073-2.311 3.614-3.206 3.444-.896-.178-.917-2.003-.045-4.077zm.993.199c.405-.981 1.088-1.705 1.511-1.627.422.082.433.947.023 1.926-.415.98-1.095 1.707-1.515 1.624-.424-.082-.433-.941-.019-1.923zm-19.938-27.527c-2.386-1.065-3.818-3.107-3.199-4.552.621-1.444 3.056-1.751 5.445-.684 2.385 1.066 3.818 3.106 3.2 4.55-.616 1.443-3.057 1.752-5.446.686zm.695-1.599c-1.124-.502-1.805-1.464-1.512-2.149.289-.68 1.446-.827 2.569-.323 1.131.506 1.804 1.466 1.513 2.147-.29.684-1.443.833-2.57.325zm5.853-2.678c-2.479-.917-4.312-2.851-4.087-4.323.229-1.466 2.427-1.909 4.908-.997 2.488.918 4.315 2.855 4.092 4.327-.228 1.463-2.428 1.91-4.913.993zm.259-1.622c-1.174-.431-2.037-1.347-1.928-2.04.104-.692 1.141-.909 2.316-.473 1.176.43 2.037 1.347 1.929 2.042-.103.693-1.142.907-2.317.471zm-16.753 4.415c-2.589.164-4.677-.737-4.667-2.006.013-1.269 2.124-2.431 4.713-2.594 2.588-.159 4.682.737 4.664 2.013-.016 1.263-2.122 2.428-4.71 2.587zm.019-1.408c-1.222.081-2.206-.342-2.204-.941.008-.602 1.004-1.152 2.229-1.226 1.222-.079 2.207.348 2.201.945-.006.601-1 1.15-2.226 1.222zm2.995-4.261c-3.401.479-6.001.1-5.81-.839.189-.941 3.105-2.099 6.507-2.576 3.403-.479 6.005-.104 5.811.839-.19.945-3.109 2.099-6.508 2.576zm.225-1.046c-1.612.226-2.837.048-2.748-.398.093-.443 1.471-.991 3.076-1.217 1.604-.224 2.834-.046 2.743.399-.092.446-1.467.99-3.071 1.216zm-11.916 9.204c-1.969.788-3.82.621-4.133-.368-.314-.992 1.029-2.432 2.998-3.214 1.971-.786 3.822-.617 4.139.37.311.984-1.03 2.429-3.004 3.212zm-.342-1.097c-.924.372-1.803.292-1.95-.174-.151-.466.49-1.147 1.411-1.516.938-.376 1.807-.295 1.955.174.152.465-.485 1.147-1.416 1.516zm.783-4.095c-1.935.852-3.701.938-3.958.187-.257-.747 1.098-2.046 3.027-2.9 1.925-.854 3.695-.939 3.946-.191.259.749-1.093 2.05-3.015 2.904zm-.283-.833c-.91.408-1.745.445-1.865.09-.124-.355.515-.967 1.426-1.371.91-.403 1.746-.443 1.868-.09.116.354-.52.968-1.429 1.371zm-6.162 10.414c-1.35.747-2.725.553-3.078-.419-.361-.978.445-2.365 1.786-3.105 1.348-.737 2.722-.547 3.077.425.356.972-.447 2.363-1.785 3.099zm-.396-1.079c-.63.353-1.282.262-1.45-.198-.166-.461.209-1.114.846-1.467.641-.348 1.286-.259 1.455.202.168.458-.216 1.118-.851 1.463zm-.358-3.84c-1.344.741-2.727.553-3.078-.421-.354-.974.447-2.364 1.789-3.102 1.343-.741 2.719-.551 3.075.423.357.969-.444 2.361-1.786 3.1zm-.394-1.076c-.631.352-1.282.257-1.451-.201-.165-.461.21-1.114.844-1.464.638-.354 1.289-.262 1.453.198.169.46-.209 1.115-.846 1.467zm-2.745 10.562c-1.112.686-2.289.45-2.628-.53-.335-.979.296-2.329 1.414-3.016 1.113-.688 2.292-.45 2.625.526.335.978-.297 2.332-1.411 3.02zm-.366-1.091c-.526.328-1.082.218-1.243-.246-.16-.462.14-1.1.668-1.423.526-.325 1.082-.215 1.239.25.162.461-.137 1.101-.664 1.419zm-1.343-3.477c-1.118.687-2.297.45-2.631-.526-.339-.981.293-2.333 1.41-3.021 1.116-.685 2.294-.448 2.626.535.338.978-.297 2.33-1.405 3.012zm-.372-1.084c-.527.322-1.082.214-1.241-.253-.156-.459.141-1.097.666-1.42.528-.327 1.081-.215 1.241.25.161.461-.14 1.1-.666 1.423zm-3.005 9.058c-1.057.447-2.052-.016-2.223-1.037-.172-1.017.542-2.208 1.601-2.653 1.056-.447 2.053.015 2.223 1.033.17 1.021-.543 2.212-1.601 2.657zm-.187-1.132c-.502.217-.972-.009-1.049-.488-.083-.479.255-1.041.755-1.254.499-.212.969.009 1.047.491.085.481-.256 1.043-.753 1.251zm-1.106-2.746c-1.059.445-2.051-.019-2.223-1.037-.173-1.019.541-2.213 1.6-2.659 1.061-.445 2.051.019 2.227 1.037.169 1.019-.548 2.215-1.604 2.659zm-.187-1.129c-.497.208-.972-.009-1.049-.49-.081-.482.254-1.042.756-1.255.498-.21.969.009 1.045.492.086.48-.257 1.042-.752 1.253zm-4.325 2.551c-1.123.162-2.169-.523-2.335-1.523-.166-1.005.604-1.946 1.729-2.112 1.122-.165 2.164.524 2.336 1.529.168 1.003-.606 1.95-1.73 2.106zm-.182-1.11c-.53.079-1.026-.244-1.105-.718-.078-.476.288-.923.816-.997.53-.077 1.028.246 1.105.721.078.471-.288.92-.816.994zm1.152 5.288c-1.123.158-2.169-.525-2.335-1.53-.167-1.002.603-1.944 1.727-2.106 1.124-.162 2.17.526 2.336 1.525.168 1.006-.607 1.95-1.728 2.111zm-.181-1.113c-.535.076-1.026-.245-1.104-.719-.077-.476.286-.917.818-.995.527-.079 1.021.245 1.1.718.082.477-.287.921-.814.996zm-5.635-3.208c-1.142.002-2.198-.793-2.365-1.773-.163-.982.628-1.777 1.772-1.781 1.146.005 2.206.792 2.369 1.774.162.98-.633 1.776-1.776 1.78zm-.175-1.084c-.541-.006-1.042-.375-1.118-.84-.077-.462.3-.838.836-.838.54-.005 1.042.375 1.117.834.078.466-.298.842-.835.844zm.573 5.027c-1.198-.083-2.256-.732-2.361-1.457-.103-.73.788-1.256 1.989-1.176 1.204.076 2.263.724 2.365 1.452.101.729-.789 1.257-1.993 1.181zm-.111-.808c-.565-.036-1.064-.342-1.115-.685-.044-.343.378-.592.943-.56.566.041 1.069.346 1.116.69.046.342-.374.594-.944.555zm-5.38-5.187c-1.151-.279-2.169-1.309-2.266-2.302-.095-.996.765-1.58 1.919-1.292 1.154.278 2.166 1.313 2.266 2.305.094.989-.764 1.574-1.919 1.289zm-.104-1.1c-.545-.125-1.022-.616-1.066-1.085-.048-.471.359-.742.904-.611.545.129 1.021.621 1.071 1.089.043.465-.36.743-.909.607zm-.407 5.032c-1.018-.647-1.625-1.733-1.362-2.415.258-.687 1.293-.717 2.312-.065 1.01.647 1.624 1.729 1.36 2.414-.263.683-1.298.715-2.31.066zm.29-.755c-.479-.307-.768-.818-.642-1.143.122-.323.611-.336 1.09-.031.478.307.767.817.645 1.141-.126.321-.614.339-1.093.033zm-3.814-8.094c-.757-.911-.959-2.346-.45-3.2.52-.858 1.548-.812 2.312.101.762.91.962 2.347.452 3.199-.513.855-1.551.816-2.314-.1zm.573-.943c-.359-.431-.458-1.107-.212-1.511.243-.407.729-.384 1.09.043.361.436.457 1.112.212 1.516-.24.404-.728.381-1.09-.048zM91.68 86.75c-.708-.926-1.114-2.311-.904-3.097.206-.784.949-.672 1.656.246.71.927 1.116 2.316.915 3.102-.214.783-.954.672-1.667-.251zm.232-.868c-.332-.432-.524-1.091-.425-1.464.097-.365.449-.313.783.119.337.436.528 1.094.43 1.464-.101.37-.453.321-.788-.119zm-.375-9.544c-.37-.996-.112-2.262.577-2.828.685-.563 1.543-.217 1.913.779.366.996.111 2.258-.58 2.826-.686.563-1.543.217-1.91-.777zm.762-.622c-.174-.47-.054-1.068.272-1.339.325-.265.728-.099.901.371.174.467.052 1.066-.271 1.333-.326.266-.732.104-.902-.365zm-3.051 3.74c-.327-1.008-.233-2.234.206-2.743.438-.508 1.061-.106 1.387.901.331.999.237 2.228-.199 2.734-.444.507-1.068.107-1.394-.892zm.488-.561c-.157-.476-.108-1.057.096-1.293.208-.242.501-.05.657.419.154.476.111 1.059-.099 1.297-.204.239-.497.052-.654-.423zm-.372-5.861c-.043-1.056.361-2.208.906-2.567.545-.368 1.024.192 1.068 1.245.044 1.055-.359 2.206-.909 2.569-.543.365-1.021-.198-1.065-1.247zm.601-.402c-.02-.499.174-1.041.433-1.218.256-.167.484.095.502.596.023.499-.167 1.042-.428 1.213-.26.169-.485-.091-.507-.591zm2.061-1.76c-.15-1.044.35-2.364 1.114-2.951.773-.584 1.52-.209 1.673.833.15 1.048-.354 2.368-1.12 2.953-.768.587-1.51.209-1.667-.835zm.85-.644c-.07-.492.167-1.116.53-1.395.36-.273.714-.097.786.395.074.495-.162 1.118-.526 1.392-.364.277-.719.103-.79-.392zm1.532-4.181c-.09-.764.513-1.65 1.34-1.975.834-.326 1.571.025 1.659.795.088.761-.513 1.646-1.34 1.973-.833.328-1.573-.028-1.659-.793zm.916-.36c-.042-.357.241-.78.637-.933.39-.156.736.012.784.373.036.362-.25.777-.637.933-.393.16-.743-.013-.784-.373zm2.352-2.621c-.021-.606.84-1.385 1.925-1.74s1.988-.156 2.007.445c.021.604-.841 1.385-1.926 1.74-1.084.357-1.977.159-2.006-.445zm1.201-.393c-.009-.285.395-.653.911-.824.51-.168.936-.073.948.212.012.288-.395.653-.914.82-.508.169-.932.075-.945-.208zm3.844-1.753c.055-.526.891-1.082 1.866-1.247.976-.17 1.721.113 1.665.635-.055.519-.893 1.074-1.866 1.245-.98.169-1.721-.116-1.665-.633zm1.078-.187c.027-.249.422-.511.883-.586.455-.084.809.05.782.298-.023.244-.42.508-.879.585-.458.082-.81-.052-.786-.297zm149.187 76.234c-2.324.366-4.229-.03-4.258-.873-.026-.854 1.845-1.843 4.169-2.206 2.327-.368 4.234.023 4.259.877.025.849-1.84 1.836-4.17 2.202zm-.021-.94c-1.095.169-2.002-.015-2.012-.415-.014-.407.873-.874 1.973-1.046 1.097-.167 1.998.016 2.009.418.011.404-.873.869-1.97 1.043zm11.708.494c-2.702-.091-5.149-1.145-5.47-2.349-.308-1.209 1.631-2.109 4.336-2.021 2.705.093 5.151 1.145 5.465 2.354.313 1.201-1.626 2.106-4.331 2.016zm-.339-1.336c-1.28-.041-2.432-.541-2.58-1.108-.153-.57.769-.998 2.043-.955 1.277.043 2.432.54 2.58 1.113.146.566-.763.995-2.043.95zm10.39 6.292c-2.874-1.018-5.149-2.975-5.074-4.372.068-1.4 2.45-1.713 5.324-.7 2.874 1.015 5.144 2.971 5.074 4.372-.068 1.402-2.456 1.712-5.324.7zm.081-1.546c-1.355-.479-2.43-1.402-2.398-2.065.043-.664 1.16-.809 2.521-.335 1.353.483 2.427 1.41 2.393 2.07-.035.661-1.158.807-2.516.33zm1.214-4.654c-2.746-.459-4.823-1.6-4.644-2.542.172-.945 2.535-1.336 5.284-.879 2.739.463 4.818 1.599 4.644 2.542-.177.944-2.543 1.337-5.284.879zm.2-1.044c-1.292-.217-2.279-.755-2.193-1.2.081-.445 1.198-.63 2.498-.414 1.296.216 2.275.754 2.194 1.201-.086.442-1.203.63-2.499.413zm10.077 15.335c-3.324-1.617-6.03-4.521-6.046-6.485-.013-1.96 2.675-2.241 5.994-.625 3.317 1.615 6.027 4.521 6.046 6.485.013 1.961-2.67 2.244-5.994.625zm-.004-2.165c-1.569-.768-2.846-2.135-2.856-3.066-.005-.926 1.259-1.057 2.833-.298 1.565.768 2.843 2.145 2.851 3.066.004.927-1.262 1.062-2.828.298zm4.117-4.172c-3.325-1.624-6.027-4.524-6.045-6.487-.012-1.964 2.67-2.247 5.992-.628 3.323 1.618 6.03 4.52 6.046 6.486.011 1.962-2.671 2.242-5.993.629zm-.005-2.172c-1.569-.764-2.846-2.135-2.856-3.064-.005-.927 1.262-1.058 2.83-.292 1.571.763 2.846 2.137 2.855 3.061.003.928-1.258 1.063-2.829.295zm11.347 12.962c-2.729-1.746-4.67-5.079-4.333-7.438.336-2.359 2.819-2.854 5.545-1.109 2.729 1.749 4.665 5.081 4.331 7.442-.33 2.357-2.817 2.854-5.543 1.105zm.374-2.605c-1.284-.824-2.197-2.399-2.04-3.511.156-1.12 1.328-1.352 2.618-.526 1.288.823 2.208 2.396 2.046 3.516-.159 1.109-1.329 1.35-2.624.521zm-5.911 10.426c-2.864-1.838-4.906-5.346-4.553-7.829.352-2.479 2.96-3.002 5.827-1.165 2.871 1.843 4.912 5.346 4.561 7.826-.351 2.484-2.963 3.008-5.835 1.168zm.402-2.742c-1.355-.868-2.316-2.522-2.155-3.693.17-1.176 1.399-1.422 2.755-.555 1.357.868 2.322 2.528 2.155 3.699-.167 1.173-1.398 1.417-2.755.549zm11.294 7.904c-2.051-2.51-2.851-6.283-1.798-8.417 1.05-2.137 3.565-1.833 5.615.678 2.043 2.51 2.852 6.281 1.796 8.419-1.05 2.14-3.57 1.834-5.613-.68zm1.173-2.356c-.973-1.186-1.35-2.967-.85-3.977.497-1.009 1.68-.863 2.65.317.964 1.191 1.342 2.969.85 3.979-.498 1.009-1.689.867-2.65-.319zm-7.446 9.2c-2.046-2.511-2.854-6.281-1.801-8.417s3.569-1.832 5.618.674c2.046 2.513 2.849 6.289 1.793 8.421-1.049 2.138-3.564 1.838-5.61-.678zm1.17-2.359c-.967-1.182-1.35-2.967-.844-3.976.492-1.006 1.676-.866 2.645.324.964 1.182 1.35 2.965.85 3.972-.497 1.015-1.684.869-2.651-.32zm7.589 9.542c-1.343-2.942-1.168-6.799.393-8.597 1.562-1.805 3.914-.873 5.262 2.076 1.342 2.953 1.17 6.805-.396 8.604-1.562 1.798-3.915.868-5.259-2.083zm1.727-1.982c-.63-1.392-.552-3.215.188-4.063.734-.849 1.853-.409 2.483.986.638 1.391.556 3.211-.183 4.06-.739.849-1.855.413-2.488-.983zm-8.482 8.348c-1.34-2.948-1.165-6.8.396-8.599 1.559-1.801 3.911-.87 5.256 2.081 1.345 2.949 1.168 6.799-.391 8.597-1.558 1.8-3.913.87-5.261-2.079zm1.736-1.982c-.642-1.39-.559-3.215.185-4.062.732-.848 1.847-.409 2.483.981.63 1.392.552 3.212-.188 4.06-.737.852-1.842.409-2.48-.979zm5.172 10.406c-.172-3.212 1.026-6.823 2.669-8.053 1.642-1.234 3.116.364 3.288 3.576.172 3.216-1.023 6.82-2.671 8.051-1.639 1.237-3.114-.364-3.286-3.574zm1.82-1.36c-.084-1.516.487-3.22 1.259-3.803.778-.579 1.474.178 1.558 1.69.078 1.518-.487 3.22-1.259 3.803-.783.585-1.475-.173-1.558-1.69zm-10.463 4.186c.114-2.953 1.84-6.016 3.846-6.84 2.015-.828 3.544.904 3.435 3.856-.119 2.95-1.845 6.012-3.852 6.835-2.009.826-3.543-.9-3.429-3.851zm2.225-.906c.058-1.394.867-2.838 1.821-3.227.943-.391 1.667.423 1.616 1.819-.058 1.396-.873 2.842-1.824 3.231-.943.387-1.668-.429-1.613-1.823zm1.233 8.407c1.17-2.544 3.56-4.835 5.326-5.117 1.771-.287 2.257 1.548 1.084 4.089-1.17 2.547-3.557 4.841-5.321 5.122-1.775.283-2.254-1.547-1.089-4.094zm1.957-.305c.552-1.2 1.678-2.286 2.515-2.42.831-.133 1.068.733.513 1.933-.553 1.205-1.678 2.284-2.514 2.42-.837.137-1.067-.728-.514-1.933zm-11.154 1.297c1.081-2.277 3.453-4.093 5.3-4.069 1.849.028 2.481 1.892 1.4 4.169-1.076 2.271-3.447 4.094-5.301 4.067-1.847-.028-2.475-1.893-1.399-4.167zm2.046.037c.511-1.074 1.629-1.932 2.504-1.923.867.011 1.17.896.657 1.967-.503 1.072-1.629 1.938-2.497 1.924-.876-.014-1.169-.895-.664-1.968zm.294 6.107c1.59-1.712 4.076-2.906 5.556-2.669 1.473.238 1.384 1.818-.206 3.523-1.589 1.717-4.075 2.908-5.553 2.677-1.475-.238-1.388-1.819.203-3.531zm1.626.268c.754-.807 1.926-1.373 2.63-1.258.695.108.654.853-.099 1.662-.756.808-1.924 1.375-2.623 1.263-.7-.114-.655-.858.092-1.667zm-11.204-1.882c.961-1.509 3.046-2.352 4.653-1.878 1.613.472 2.145 2.079 1.19 3.589-.961 1.514-3.043 2.358-4.661 1.884-1.608-.473-2.142-2.085-1.182-3.595zm1.779.53c.457-.717 1.441-1.114 2.2-.889.766.222 1.014.982.562 1.699-.453.716-1.436 1.109-2.199.886-.761-.225-1.011-.983-.563-1.696zm.37 4.751c.793-1.255 2.528-1.955 3.867-1.561 1.337.39 1.783 1.729.982 2.988-.791 1.257-2.524 1.952-3.864 1.56-1.342-.389-1.782-1.726-.985-2.987zm1.481.438c.377-.59 1.188-.92 1.823-.737.634.189.843.818.47 1.412-.381.594-1.194.924-1.83.739-.633-.185-.839-.82-.463-1.414zm-10.035-3.929c1.075-1.06 2.944-1.29 4.182-.504 1.232.791 1.368 2.293.292 3.36-1.078 1.063-2.952 1.289-4.186.502-1.232-.783-1.365-2.285-.288-3.358zm1.367.875c.501-.502 1.387-.61 1.968-.235.586.37.646 1.08.141 1.581-.509.506-1.395.615-1.976.244-.583-.372-.644-1.083-.133-1.59zm.67 4.391c1.019-.902 2.744-1.13 3.864-.512 1.121.618 1.207 1.854.183 2.759-1.012.904-2.744 1.135-3.858.516-1.122-.622-1.205-1.858-.189-2.763zm1.238.691c.476-.427 1.295-.539 1.824-.244.525.292.564.873.088 1.302-.484.432-1.304.539-1.826.246-.531-.293-.566-.878-.086-1.304zm-10.903-7.082c1.242-.874 3.403-.689 4.811.421 1.415 1.09 1.543 2.692.292 3.568-1.251.871-3.409.683-4.816-.417-1.418-1.103-1.543-2.703-.287-3.572zm1.554 1.22c.588-.412 1.607-.324 2.274.2.664.517.724 1.273.141 1.687-.6.409-1.613.319-2.279-.196-.669-.525-.728-1.278-.136-1.691zm-.621 4.081c1.358-.378 3.588.097 4.964 1.059 1.379.965 1.395 2.059.024 2.437-1.366.38-3.589-.098-4.967-1.056-1.382-.969-1.392-2.059-.021-2.44zm1.513 1.068c.647-.176 1.7.046 2.354.5.646.454.648.971.01 1.15-.646.183-1.697-.043-2.346-.497-.653-.455-.656-.97-.018-1.153zm-7.965-12.065c1.511-.165 3.319 1.032 4.025 2.673.714 1.646.06 3.112-1.454 3.278-1.515.165-3.323-1.034-4.031-2.679-.711-1.641-.057-3.103 1.46-3.272zm.779 1.818c.717-.079 1.566.488 1.902 1.267.339.775.031 1.469-.683 1.544-.722.079-1.568-.49-1.91-1.261-.336-.777-.028-1.467.691-1.55zm-1.423 4.179c1.139.183 2.804 1.511 3.719 2.959.922 1.444.745 2.468-.388 2.28-1.134-.185-2.8-1.507-3.717-2.955-.92-1.444-.742-2.47.386-2.284zm1.021 1.599c.529.086 1.318.714 1.754 1.4.433.68.352 1.166-.183 1.078-.539-.086-1.323-.714-1.759-1.396-.435-.685-.351-1.166.188-1.082zm-1.946-15.626c1.472.709 2.435 2.828 2.15 4.729-.287 1.898-1.716 2.857-3.19 2.151-1.473-.716-2.428-2.834-2.145-4.732.288-1.899 1.708-2.864 3.185-2.148zm-.323 2.099c.696.338 1.149 1.337 1.017 2.23-.136.896-.811 1.352-1.506 1.017-.694-.334-1.147-1.336-1.015-2.234.133-.894.813-1.35 1.504-1.013zm-3.116 4.105c.692.285 1.59 1.789 1.993 3.358.409 1.562.177 2.601-.514 2.314-.689-.291-1.584-1.792-1.992-3.36-.41-1.564-.178-2.603.513-2.312zm.45 1.731c.328.138.748.843.941 1.584.192.742.086 1.232-.246 1.093-.322-.133-.744-.847-.938-1.583-.189-.739-.085-1.23.243-1.094zm4.826-15.753c1.045 1.265 1.037 3.586-.013 5.197-1.053 1.605-2.752 1.883-3.794.624-1.043-1.261-1.032-3.589.016-5.193 1.055-1.611 2.752-1.889 3.791-.628zm-1.165 1.776c.495.592.487 1.694-.01 2.453-.493.759-1.293.89-1.788.296-.495-.596-.486-1.695.008-2.452.498-.76 1.296-.895 1.79-.297zm-4.948 2.25c.55.32.889 1.957.761 3.645-.125 1.694-.677 2.804-1.224 2.481-.546-.321-.882-1.956-.762-3.646.13-1.693.683-2.8 1.225-2.48zm-.141 1.873c.258.15.417.921.357 1.718-.058.8-.318 1.324-.576 1.174-.258-.149-.42-.923-.356-1.723.057-.798.322-1.323.575-1.169zm10.067-11.439c.362 1.268-.555 3.003-2.051 3.886-1.496.877-2.994.57-3.358-.691-.365-1.261.555-2.994 2.05-3.879 1.492-.878 2.991-.572 3.359.684zm-1.655.978c.172.592-.264 1.411-.97 1.832-.704.416-1.415.272-1.587-.323-.167-.598.264-1.421.967-1.835.709-.417 1.412-.274 1.59.326zm-5.256.091c.346.535-.082 2.146-.959 3.597-.865 1.457-1.855 2.205-2.2 1.67-.344-.531.083-2.146.959-3.599.87-1.45 1.853-2.2 2.2-1.668zm-.962 1.606c.156.255-.044 1.018-.457 1.703-.413.685-.874 1.04-1.041.787-.157-.253.044-1.015.452-1.701.411-.685.879-1.039 1.046-.789zm12.777-6.819c-.081 1.148-1.319 2.364-2.768 2.72-1.446.353-2.554-.289-2.476-1.434.078-1.148 1.321-2.365 2.768-2.721 1.441-.356 2.557.288 2.476 1.435zm-1.6.388c-.043.543-.626 1.117-1.309 1.284-.686.17-1.209-.136-1.167-.677.039-.543.62-1.114 1.308-1.285.678-.164 1.207.138 1.168.678zm8.039-1.919c-.168.703-1.471 1.35-2.913 1.443-1.441.097-2.476-.398-2.308-1.1.17-.699 1.471-1.347 2.917-1.44 1.438-.092 2.473.4 2.304 1.097zm-1.59.106c-.081.329-.699.635-1.382.678-.68.047-1.17-.188-1.086-.517.078-.334.695-.638 1.373-.684.68-.042 1.168.19 1.095.523zM73.52 147.184c-.064 1.099-.519 1.469-1.016.832-.489-.634-.839-2.041-.776-3.137.066-1.102.519-1.473 1.015-.833.493.633.843 2.041.777 3.138zm-.548-.708c-.03.516-.245.696-.476.393-.233-.3-.4-.967-.369-1.486.032-.516.243-.692.479-.389.233.297.395.963.366 1.482zm-.402-5.049c.065 1.095-.342 1.523-.909.949-.565-.574-1.078-1.932-1.148-3.031-.064-1.094.345-1.518.91-.946.561.575 1.079 1.93 1.147 3.028zm-.633-.637c.034.515-.152.716-.425.447-.271-.275-.513-.912-.54-1.43-.032-.521.156-.721.425-.447.265.273.508.908.54 1.43zm-1.494-4.65c.253 1.051-.099 1.462-.779.917-.689-.543-1.453-1.843-1.706-2.899-.253-1.051.098-1.458.782-.915.684.541 1.444 1.842 1.703 2.897zm-.762-.61c.12.498-.043.694-.368.433-.321-.259-.681-.869-.8-1.365-.122-.5.043-.693.366-.433.324.258.683.868.802 1.365zm.153 4.56c.327 1.349-.036 1.855-.8 1.127-.766-.729-1.648-2.413-1.973-3.764-.319-1.351.036-1.86.802-1.133.768.729 1.651 2.414 1.971 3.77zm-.846-.811c.155.639-.019.875-.379.533-.359-.344-.775-1.141-.933-1.778-.152-.641.02-.881.38-.534.361.343.777 1.141.932 1.779zm-1.675-7.65c.438.987.166 1.455-.604 1.042-.774-.415-1.752-1.557-2.19-2.551-.438-.988-.169-1.454.604-1.039.772.416 1.752 1.554 2.19 2.548zm-.856-.461c.208.467.083.688-.284.488-.366-.193-.829-.733-1.037-1.2-.205-.468-.074-.689.285-.498.37.201.831.741 1.036 1.21zm-.18 2.932c.287 1.026-.343 1.577-1.399 1.234-1.061-.354-2.155-1.466-2.438-2.494-.288-1.028.344-1.579 1.398-1.228 1.063.346 2.155 1.465 2.439 2.488zm-1.172-.388c.138.487-.16.743-.662.583-.502-.168-1.017-.693-1.152-1.179-.133-.485.164-.748.664-.58.5.165 1.012.694 1.15 1.176zm-1.971-6.288c.75.784.652 1.312-.212 1.186-.866-.127-2.18-.86-2.928-1.648-.749-.78-.651-1.312.215-1.187.866.128 2.178.867 2.925 1.649zm-.956-.141c.346.365.304.62-.103.555-.409-.059-1.03-.407-1.385-.776-.352-.369-.307-.619.101-.56.409.063 1.03.408 1.387.781zm-.454 2.764c.599.935.135 1.713-1.026 1.749-1.163.031-2.585-.696-3.187-1.629-.59-.933-.129-1.715 1.032-1.746 1.161-.033 2.587.697 3.181 1.626zm-1.285.036c.274.44.059.811-.484.824-.557.014-1.226-.33-1.507-.77-.281-.441-.062-.81.486-.822.549-.018 1.222.323 1.505.768zm-4.501-1.907c.58.864.146 1.762-.969 1.995-1.116.24-2.49-.267-3.069-1.136-.582-.864-.146-1.758.971-1.999 1.113-.234 2.489.274 3.067 1.14zm-1.234.26c.271.407.066.833-.461.944-.521.113-1.171-.128-1.447-.537-.275-.411-.068-.831.459-.943.529-.115 1.176.127 1.449.536zm2.796-3.633c.6.671-.007 1.312-1.354 1.438-1.353.124-2.932-.317-3.533-.988-.603-.669.008-1.312 1.356-1.442 1.35-.121 2.935.32 3.531.992zm-1.494.135c.285.316.002.621-.643.683-.637.059-1.383-.151-1.665-.466-.285-.316.004-.625.637-.681.639-.06 1.39.147 1.671.464zm-6.068 2.23c.847.734.736 1.823-.233 2.44-.975.613-2.455.517-3.297-.215-.842-.734-.733-1.826.237-2.441.976-.615 2.454-.519 3.293.216zm-1.079.672c.395.348.346.869-.113 1.157-.456.291-1.157.246-1.557-.104-.395-.343-.345-.863.114-1.15.464-.29 1.159-.247 1.556.097zm2.29-3.356c.511.56.014 1.223-1.114 1.479-1.125.257-2.454.011-2.965-.551-.513-.563-.017-1.223 1.112-1.481 1.123-.256 2.453-.007 2.967.553zm-1.246.282c.239.264.004.576-.526.696-.532.124-1.158.009-1.399-.26-.246-.262-.011-.574.517-.696.534-.124 1.166-.007 1.408.26zm-5.443 3.19c.777.456.625 1.36-.341 2.02-.964.66-2.375.827-3.154.376-.776-.454-.624-1.356.337-2.016.969-.662 2.379-.831 3.158-.38zm-1.071.732c.37.213.296.642-.158.953-.457.314-1.125.395-1.487.178-.373-.212-.301-.642.152-.953.459-.315 1.126-.39 1.493-.178zm1.717-3.601c.653.376.524 1.13-.287 1.685-.804.556-1.99.694-2.643.319-.649-.381-.528-1.14.287-1.688.807-.556 1.99-.7 2.643-.316zm-.897.606c.307.181.248.543-.135.8-.379.262-.937.329-1.247.15-.307-.179-.251-.536.131-.8.384-.258.946-.325 1.251-.15zm-4.523 4.119c.513.451.113 1.324-.884 1.949-.997.623-2.221.766-2.734.316-.511-.45-.113-1.33.888-1.951.999-.626 2.217-.764 2.73-.314zm-1.105.687c.24.217.052.628-.417.923-.474.296-1.053.36-1.293.148-.243-.215-.052-.622.415-.924.475-.292 1.054-.358 1.295-.147zm1.846-3.493c.403.355.088 1.046-.704 1.542-.788.493-1.754.606-2.16.245-.404-.351-.088-1.043.701-1.54.788-.496 1.757-.604 2.163-.247zm-.874.548c.187.168.04.494-.335.725-.374.233-.83.288-1.021.117-.19-.167-.045-.493.333-.726.369-.234.833-.289 1.023-.116zm-4.395 4.373c.452.404.103 1.177-.788 1.728-.885.553-1.97.678-2.42.278-.457-.397-.104-1.169.781-1.726.89-.552 1.975-.678 2.427-.28zm-.98.612c.212.192.047.554-.373.816-.419.262-.933.321-1.145.13-.213-.186-.046-.552.373-.816.417-.255.93-.316 1.145-.13zm2.126-3.396c.386.275.063.92-.727 1.442-.776.523-1.728.72-2.113.447-.384-.276-.061-.922.723-1.444.784-.52 1.735-.719 2.117-.445zm-.867.578c.181.127.028.432-.341.678s-.816.339-1.001.209c-.181-.126-.03-.434.343-.678.368-.249.815-.342.999-.209zm-4.533 4.182c.397.344.092 1.015-.676 1.494-.761.478-1.702.585-2.09.24-.394-.346-.091-1.015.676-1.494.769-.479 1.703-.585 2.09-.24zm-.841.529c.181.161.038.475-.323.705-.365.226-.808.278-.988.113-.188-.165-.043-.481.321-.707.359-.226.8-.276.99-.111zm-2.903 1.426c.375.21.029.804-.768 1.336-.8.526-1.753.79-2.129.582-.375-.203-.029-.802.773-1.331.797-.531 1.75-.792 2.124-.587zm-.886.588c.178.1.014.378-.366.628-.374.25-.826.376-1.001.278-.179-.097-.015-.38.364-.632.377-.25.829-.372 1.003-.274zm203.574 232.821c-.661-.916-.859-2.967-.438-4.57.422-1.611 1.295-2.166 1.957-1.248.665.918.857 2.969.438 4.574-.422 1.607-1.297 2.164-1.957 1.244zm.467-1.776c-.312-.434-.406-1.402-.205-2.16.197-.756.609-1.02.922-.586s.403 1.402.208 2.158c-.2.758-.617 1.022-.925.588zm.039 9.754c-1.024-.832-1.568-2.799-1.22-4.389.347-1.59 1.46-2.207 2.481-1.371 1.026.834 1.576 2.801 1.227 4.393-.345 1.586-1.467 2.203-2.488 1.367zm.392-1.756c-.485-.395-.743-1.324-.582-2.076.167-.748.696-1.033 1.176-.646.49.396.747 1.328.579 2.076-.163.748-.686 1.037-1.173.646zm4.015 5.326c-1.432-1.098-2.025-3.09-1.327-4.455.701-1.365 2.427-1.584 3.859-.49 1.423 1.094 2.02 3.088 1.318 4.455-.694 1.365-2.423 1.59-3.85.49zm.776-1.509c-.677-.514-.953-1.457-.623-2.1.327-.646 1.145-.748 1.821-.232.669.518.952 1.461.621 2.104-.334.64-1.144.747-1.819.228zm-.25-5.225c-.948-.129-1.923-1.051-2.176-2.049-.25-1.004.318-1.705 1.265-1.574.951.137 1.92 1.053 2.178 2.057.244 1-.316 1.701-1.267 1.566zm-.276-1.105c-.449-.062-.907-.496-1.024-.971-.117-.477.148-.803.594-.742.449.066.907.498 1.024.975.12.47-.146.802-.594.738zm6.343 8.447c-1.338-.693-1.786-2.084-1.012-3.107.781-1.025 2.494-1.299 3.828-.605 1.334.688 1.79 2.082 1.012 3.105-.777 1.027-2.494 1.298-3.828.607zm.864-1.133c-.628-.326-.847-.986-.477-1.469.364-.484 1.173-.613 1.806-.285s.848.982.478 1.469c-.362.484-1.176.609-1.807.285zm-.563-3.541c-1.352.178-3.134-.373-3.979-1.221-.839-.854-.424-1.688.931-1.863 1.355-.18 3.135.371 3.979 1.225.842.851.422 1.683-.931 1.859zm-.924-.943c-.645.086-1.486-.176-1.885-.578-.396-.4-.198-.797.44-.877.639-.086 1.482.176 1.882.578.399.4.202.795-.437.877zm6.921 4.4c-1.282-.455-1.681-1.623-.892-2.609.782-.99 2.463-1.424 3.742-.971s1.674 1.619.891 2.605c-.789.993-2.461 1.428-3.741.975zm.876-1.09c-.607-.215-.796-.77-.425-1.238.372-.459 1.162-.668 1.769-.459.603.217.793.771.425 1.232-.376.469-1.171.678-1.769.465zm-.712-3.082c-1.285.477-2.924.539-3.658.148-.738-.396-.29-1.109.993-1.574 1.287-.484 2.923-.547 3.658-.156.74.397.289 1.108-.993 1.582zm-.811-.437c-.609.225-1.381.254-1.73.068-.344-.186-.133-.52.472-.748.609-.223 1.381-.258 1.732-.072.345.191.133.525-.474.752zm6.585 2.142c-1.117-.217-1.598-1.141-1.071-2.059.531-.92 1.864-1.49 2.987-1.271 1.117.213 1.6 1.135 1.068 2.051-.527.922-1.866 1.494-2.984 1.279zm.587-1.021c-.526-.1-.754-.529-.506-.969.253-.432.881-.705 1.409-.604.529.102.759.537.506.971-.25.434-.878.707-1.409.602zm-3.01-1.783c-1.048.098-1.432-.434-.865-1.182.562-.754 1.876-1.438 2.921-1.539 1.047-.094 1.436.438.864 1.186-.562.749-1.873 1.441-2.92 1.535zm.63-.832c-.494.049-.677-.205-.411-.557.272-.355.892-.68 1.386-.727.495-.047.678.205.412.562-.273.352-.893.681-1.387.722zm6.299.695c-1.095-.094-1.563-.984-1.056-1.988.506-1.006 1.809-1.742 2.901-1.648 1.088.092 1.56.982 1.05 1.99-.508 1.003-1.808 1.738-2.895 1.646zm.563-1.111c-.508-.043-.734-.463-.494-.941.238-.473.849-.82 1.367-.777.516.045.738.465.498.941-.24.47-.856.821-1.371.777zm3.408-2.85c-1.047-.102-1.401-1.021-.784-2.051.614-1.027 1.963-1.779 3.013-1.674 1.055.1 1.404 1.018.789 2.047-.618 1.033-1.965 1.781-3.018 1.678zm.683-1.137c-.493-.047-.657-.484-.37-.971.291-.484.93-.838 1.425-.789.495.047.662.484.367.967-.289.489-.923.842-1.422.793zm-7.507 2.334c-1.02-.037-1.438-.752-.933-1.609.511-.855 1.74-1.531 2.765-1.502 1.019.027 1.433.748.927 1.605-.505.854-1.735 1.53-2.759 1.506zm.563-.953c-.48-.014-.679-.355-.441-.76.237-.402.821-.721 1.303-.707.488.016.679.35.446.756-.245.408-.826.723-1.308.711zm3.674-2.623c-.978.156-1.387-.521-.91-1.504.472-.984 1.65-1.904 2.63-2.057.975-.156 1.381.518.912 1.5-.483.985-1.663 1.911-2.632 2.061zm.528-1.088c-.464.07-.656-.248-.43-.711.219-.465.777-.9 1.24-.971.464-.074.654.244.428.705-.221.465-.779.903-1.238.977zm6.377-.791c-1.121.209-1.504-.787-.865-2.234.631-1.445 2.051-2.799 3.171-3.012 1.121-.213 1.507.785.876 2.234-.644 1.45-2.065 2.801-3.182 3.012zm.706-1.603c-.521.104-.711-.373-.409-1.057.303-.682.972-1.316 1.499-1.422.528-.1.711.375.414 1.059-.303.685-.976 1.32-1.504 1.42zm-3.901-.764c-1.068.428-1.521-.285-1.016-1.604.51-1.307 1.787-2.723 2.858-3.154 1.068-.432 1.527.283 1.021 1.596-.51 1.312-1.789 2.726-2.863 3.162zm.568-1.457c-.503.205-.719-.135-.477-.756.234-.619.84-1.287 1.347-1.492.503-.203.722.137.478.758-.234.617-.839 1.285-1.348 1.49zm3.774-4.135c-.975.463-1.704-.102-1.626-1.258.083-1.158.938-2.469 1.91-2.932.979-.467 1.704.098 1.626 1.254-.075 1.159-.934 2.473-1.91 2.936zm.091-1.285c-.461.223-.806-.043-.769-.592.039-.545.446-1.166.904-1.385.465-.215.8.053.764.594-.031.549-.438 1.166-.899 1.383zm3.218 3.289c-1.103.525-1.923-.115-1.83-1.42.087-1.297 1.052-2.779 2.155-3.301 1.104-.523 1.922.113 1.83 1.418-.088 1.301-1.055 2.783-2.155 3.303zm.099-1.443c-.516.248-.906-.055-.86-.67.04-.617.499-1.316 1.012-1.561.524-.246.912.051.873.668-.045.617-.501 1.32-1.025 1.563zm3.377-4.297c-1.102.521-1.923-.111-1.834-1.414.084-1.309 1.053-2.787 2.155-3.309 1.104-.523 1.923.113 1.831 1.418-.088 1.301-1.056 2.783-2.152 3.305zm.097-1.44c-.516.242-.906-.059-.865-.674.044-.621.501-1.318 1.017-1.566.523-.24.912.057.867.676-.039.615-.498 1.316-1.019 1.564zm-3.536-.031c-.976.461-1.702-.1-1.624-1.256.078-1.16.938-2.471 1.91-2.936.975-.461 1.704.1 1.621 1.258-.076 1.157-.933 2.469-1.907 2.934zm.088-1.283c-.458.221-.8-.047-.764-.592.034-.545.44-1.166.899-1.383.458-.217.805.045.769.594-.038.545-.44 1.162-.904 1.381zm6.205-3.348c-1.017.484-1.771-.1-1.688-1.301.075-1.199.967-2.561 1.982-3.047 1.014-.477 1.764.111 1.682 1.307-.079 1.201-.965 2.563-1.976 3.041zm.088-1.328c-.479.23-.837-.047-.797-.613.042-.568.461-1.213.933-1.441.484-.223.842.051.8.621-.039.564-.454 1.208-.936 1.433zm-3.534.774c-.953.455-1.664-.1-1.588-1.23.077-1.131.917-2.42 1.868-2.871.958-.451 1.673.102 1.595 1.23-.082 1.132-.918 2.419-1.875 2.871zm.087-1.25c-.445.211-.782-.053-.751-.584.04-.535.436-1.139.886-1.354.454-.215.79.045.751.582-.031.531-.43 1.141-.886 1.356zm5.819-3.553c-.913.459-1.608-.059-1.557-1.152.052-1.092.829-2.348 1.739-2.805.908-.455 1.612.059 1.56 1.146-.051 1.094-.831 2.354-1.742 2.811zm.054-1.213c-.424.217-.75-.025-.729-.543.018-.514.388-1.107.823-1.324.424-.217.76.027.732.545-.023.513-.387 1.105-.826 1.322zm-3.09.652c-.914.457-1.61-.057-1.563-1.148.049-1.094.831-2.35 1.743-2.801.912-.463 1.607.053 1.561 1.146-.055 1.09-.832 2.346-1.741 2.803zm.055-1.209c-.428.215-.759-.029-.734-.543.022-.512.39-1.111.82-1.326.436-.217.758.029.735.545-.021.512-.391 1.107-.821 1.324zm4.886-3.681c-.795.672-1.524.305-1.623-.828-.095-1.135.477-2.593 1.279-3.264.808-.675 1.535-.306 1.629.827.096 1.13-.478 2.593-1.285 3.265zm-.099-1.25c-.379.314-.725.137-.767-.396-.05-.529.225-1.218.6-1.536.381-.322.727-.146.771.389.044.532-.224 1.224-.604 1.543zm-2.843.584c-.61.463-1.077.018-1.037-.98.038-.997.562-2.182 1.17-2.64.609-.461 1.072-.021 1.037.979-.039 1.001-.563 2.182-1.17 2.641zm.044-1.108c-.292.219-.512.008-.493-.462.019-.471.269-1.031.553-1.248.292-.215.511-.01.493.463-.022.471-.266 1.032-.553 1.247zm4.742-3.846c-.659.558-1.264.25-1.342-.681-.083-.933.391-2.136 1.056-2.696.659-.55 1.264-.244 1.337.684.08.929-.391 2.141-1.051 2.693zm-.088-1.031c-.311.261-.598.117-.634-.324-.033-.438.188-1.013.504-1.269.307-.266.591-.119.63.322.038.438-.182 1.007-.5 1.271zm-2.598 1.958c-.614.457-1.073.018-1.037-.982.04-.997.565-2.185 1.173-2.645.609-.455 1.068-.018 1.034.98-.041 1-.566 2.182-1.17 2.647zm.047-1.111c-.294.217-.513.008-.492-.463.018-.472.266-1.031.55-1.244.29-.218.508-.01.487.459-.016.476-.266 1.032-.545 1.248zm3.623-4.871c-.824.625-1.441.436-1.382-.414.064-.85.787-2.051 1.61-2.677.826-.617 1.441-.434 1.379.416-.065.853-.785 2.052-1.607 2.675zm.072-.945c-.389.292-.683.208-.654-.194.033-.406.37-.969.759-1.267.394-.294.68-.204.651.198-.028.401-.367.966-.756 1.263zm-116.27-134.626c3.757.853 7.273.683 10.636-.155-.349-.597-.465-1.085-.66-1.677-2.769 1.823-6.725 2.081-9.976 1.832zm-47.128-36.204c-8.185-.061-13.947-5.525-15.42-12.899-1.168 10.454 7.454 15.133 15.42 12.899zm-27.601 41.997c-3.884 3.064-9.434 4.106-12.209 3.235 3.101 3.171 7.806.823 12.209-3.235zm-2.889-.84c-4.331 2.751-10.453 3.412-13.479 2.362 3.331 3.333 8.55 1.341 13.479-2.362zm-2.445-1.478c-4.34 2.756-10.461 3.409-13.48 2.364 3.326 3.324 8.55 1.334 13.48-2.364zm-3.683-1.366c-3.931 2.659-9.542 3.196-12.347 2.099 3.13 3.378 7.889 1.49 12.347-2.099zm-3.597-1.272c-3.319 2.517-8.162 2.875-10.616 1.7 2.805 3.451 6.866 1.732 10.616-1.7zm-3.204-1.534c-2.806 2.398-6.991 2.608-9.156 1.361 2.537 3.512 6.007 1.928 9.156-1.361zm-2.574-1.937c-2.396 2.05-5.973 2.226-7.832 1.164 2.178 2.999 5.149 1.645 7.832-1.164zm-1.441-1.547c-2.692 1.632-6.25 1.234-7.911-.12 1.664 3.312 4.807 2.458 7.911.12zm-1.743-2.949c-2.427 1.573-5.7 1.107-7.242-.271 1.586 3.327 4.451 2.533 7.242.271zm-1.148-3.084c-2.113 1.492-5.02.943-6.42-.466 1.493 3.348 3.999 2.641 6.42.466zm-43.657 51.33c2.427 1.168 6.951-1.39 9.655-4.443-3.715 6.197-7.09 6.512-9.655 4.443zm-3.242-2.649c2.015 1.563 6.274-.154 8.984-2.672-3.941 5.418-6.942 5.144-8.984 2.672zM21.85 227.4c1.544 1.835 5.272.75 7.773-1.347-3.795 4.791-6.288 4.088-7.773 1.347zm-2.126-3.693c1.096 2.13 4.971 1.904 7.874.416-4.767 3.827-7.043 2.584-7.874-.416zm-2.139-4.072c.705 2.294 4.562 2.755 7.681 1.798-5.362 2.924-7.385 1.303-7.681-1.798zm-1.225-4.293c.289 2.382 4.006 3.51 7.247 3.125-5.801 1.93-7.503-.024-7.247-3.125zm-.219-4.256c-.211 2.388 3.187 4.267 6.44 4.56-6.072.686-7.336-1.58-6.44-4.56zm.228-4.778c-.705 2.292 2.223 4.845 5.341 5.805-6.082-.601-6.838-3.08-5.341-5.805zm.759-3.161c-.753 1.767 1.367 4.03 3.755 5.062-4.774-.987-5.17-3.021-3.755-5.062zm1.197-2.877c-.87 1.244.408 3.348 2.095 4.531-3.548-1.542-3.525-3.177-2.095-4.531zm100.552-50.817c-6.567-.445-11.439-6.114-12.955-13.476-.452 10.29 6.673 15.315 12.955 13.476zm-.259-5.016c-6.446-1.304-10.525-7.569-11.061-15.07-1.804 10.14 4.593 16.064 11.061 15.07zm.412-4.982c-6.108-2.435-9.013-9.322-8.204-16.794-3.582 9.654 1.667 16.62 8.204 16.794zm.379-5.502c-4.932-2.986-6.862-9.261-4.164-15.377-5.454 6.15-1.468 14.281 4.164 15.377zm3.078-4.345c-4.847-2.602-6.631-8.258-3.816-13.876-5.557 5.709-1.759 13.008 3.816 13.876z"/>
  <path fill="#fff" d="M114.16 320.524a14.13 14.13 0 0 1-.345.921 3.998 3.998 0 0 1-.442.807c-.166.23-.352.402-.556.518a.776.776 0 0 1-.653.058c-.307-.051-.479-.274-.518-.671a2.837 2.837 0 0 1 .134-1.172c.18-.613.441-1.426.787-2.437s.742-2.117 1.19-3.319c.447-1.203.921-2.451 1.419-3.742.5-1.293.979-2.527 1.44-3.704.46-1.177.883-2.245 1.267-3.205.383-.96.678-1.708.883-2.245a.986.986 0 0 1 .345-.383.839.839 0 0 1 .48-.154.94.94 0 0 1 .499.154c.166.102.3.268.402.498.205.537.218 1.062.039 1.574a54.665 54.665 0 0 0-.768 1.899c-.333.857-.71 1.823-1.132 2.897a468.99 468.99 0 0 0-1.324 3.416c-.46 1.203-.896 2.348-1.305 3.436-.41 1.088-.78 2.066-1.113 2.936-.333.87-.576 1.509-.729 1.918zm20.457-9.633a134.27 134.27 0 0 0-1.67-1.229c-.601-.435-1.234-.883-1.9-1.343a76.744 76.744 0 0 0 1.382 4.452c.077.307.045.576-.096.807-.141.229-.314.346-.518.346-.333-.052-.672-.205-1.018-.461-.345-.256-.582-.563-.71-.922-.102-.229-.23-.601-.383-1.112l-.538-1.804c-.435.64-.838 1.266-1.209 1.881-.371.613-.723 1.202-1.056 1.766-.205.28-.435.44-.69.479-.256.039-.448-.02-.576-.172-.18-.281-.288-.646-.327-1.094-.038-.448.032-.826.211-1.133l.691-1.113c.333-.537.742-1.164 1.228-1.881-.538.129-1.062.263-1.574.403s-1.023.275-1.535.403c-.307.051-.576 0-.806-.154-.23-.152-.333-.332-.307-.537.077-.332.25-.633.518-.901.269-.269.583-.454.941-.557.256-.077.671-.185 1.247-.326l1.977-.479a62.212 62.212 0 0 1-1.516-.94c-.499-.32-1.004-.62-1.516-.901-.281-.18-.441-.41-.479-.691s.019-.486.172-.613c.282-.18.621-.263 1.018-.25.396.013.748.121 1.055.326.256.127.614.346 1.075.652a27.044 27.044 0 0 1-.192-1.247 20.607 20.607 0 0 1-.115-1.132 1.022 1.022 0 0 1 .192-.73c.154-.203.333-.319.538-.345.179-.052.396.006.652.173.256.166.448.479.576.939.102.486.218.986.346 1.497.127.513.256 1.062.383 1.65a81.29 81.29 0 0 1 1.497-1.958 18.08 18.08 0 0 1 1.382-1.572c.205-.205.435-.32.691-.346.256-.026.46.038.614.191.128.103.224.307.288.614.063.308-.045.652-.326 1.036s-.602.812-.96 1.285c-.358.474-.729.979-1.113 1.518a21.588 21.588 0 0 1 1.958-.289 37.38 37.38 0 0 1 1.804-.135c.281 0 .525.052.729.154.205.103.32.256.346.461.026.179-.051.396-.23.652-.179.256-.499.422-.96.498-.435.077-.902.154-1.4.23-.5.077-1.005.166-1.517.27.589.435 1.139.863 1.65 1.285.512.422.985.825 1.42 1.209.205.205.338.416.403.633a.66.66 0 0 1-.096.596c-.128.127-.346.217-.653.269-.307.05-.64-.053-.998-.308zm15.582 0a109.146 109.146 0 0 0-3.57-2.572 76.744 76.744 0 0 0 1.382 4.452c.077.307.045.576-.096.807-.141.229-.314.346-.518.346-.333-.052-.672-.205-1.017-.461-.346-.256-.583-.563-.71-.922-.102-.229-.23-.601-.384-1.112l-.537-1.804c-.435.64-.838 1.266-1.209 1.881-.371.613-.723 1.202-1.056 1.766-.205.28-.435.44-.69.479-.256.039-.448-.02-.576-.172-.179-.281-.288-.646-.326-1.094-.039-.448.032-.826.211-1.133l.691-1.113c.333-.537.742-1.164 1.228-1.881-.538.129-1.062.263-1.574.403s-1.023.275-1.535.403c-.307.051-.576 0-.806-.154-.23-.152-.333-.332-.307-.537.077-.332.25-.633.519-.901a2.15 2.15 0 0 1 .94-.557c.256-.077.671-.185 1.248-.326l1.977-.479a62.212 62.212 0 0 1-1.516-.94c-.499-.32-1.004-.62-1.516-.901-.281-.18-.441-.41-.48-.691-.038-.281.02-.486.173-.613.282-.18.621-.263 1.018-.25.396.013.748.121 1.055.326.256.127.614.346 1.075.652a27.044 27.044 0 0 1-.192-1.247 20.607 20.607 0 0 1-.115-1.132 1.022 1.022 0 0 1 .192-.73c.154-.203.333-.319.538-.345.179-.052.396.006.652.173.256.166.448.479.576.939.103.486.218.986.345 1.497.128.513.256 1.062.384 1.65a81.29 81.29 0 0 1 1.497-1.958 18.08 18.08 0 0 1 1.382-1.572c.205-.205.435-.32.691-.346.256-.026.46.038.614.191.128.103.224.307.288.614s-.045.652-.326 1.036-.601.812-.959 1.285c-.358.474-.729.979-1.113 1.518a21.536 21.536 0 0 1 1.958-.289 37.38 37.38 0 0 1 1.804-.135c.282 0 .525.052.729.154.205.103.32.256.346.461.026.179-.051.396-.23.652-.179.256-.499.422-.959.498-.436.077-.902.154-1.401.23-.5.077-1.004.166-1.517.27.589.435 1.139.863 1.651 1.285.511.422.985.825 1.42 1.209.205.205.339.416.403.633a.658.658 0 0 1-.096.596c-.127.127-.345.217-.652.269-.313.05-.646-.053-1.004-.308zm-18.738 59.448c7.488 0 12.708-4.752 12.708-12.023 0-7.2-5.22-11.987-12.744-11.987h-9.468v24.011h9.504zm-.036-4.5h-4.355v-15.012h4.392c4.896 0 7.488 3.276 7.488 7.488-.001 4.104-2.773 7.524-7.525 7.524zm27.791 4.932c7.236 0 12.528-5.184 12.528-12.42 0-7.235-5.292-12.419-12.528-12.419-7.271 0-12.563 5.184-12.563 12.419 0 7.236 5.291 12.42 12.563 12.42zm0-4.536c-4.463 0-7.307-3.42-7.307-7.885 0-4.5 2.844-7.883 7.307-7.883 4.428 0 7.272 3.383 7.272 7.883 0 4.465-2.844 7.885-7.272 7.885zm27.791 4.536c5.256 0 8.314-2.916 10.008-5.904l-4.393-2.123c-1.008 1.943-3.168 3.492-5.615 3.492-4.393 0-7.561-3.349-7.561-7.885 0-4.535 3.168-7.883 7.561-7.883 2.447 0 4.607 1.548 5.615 3.492l4.393-2.16c-1.693-3.024-4.752-5.868-10.008-5.868-7.236 0-12.816 5.003-12.816 12.419 0 7.38 5.58 12.42 12.816 12.42zm-58.399-29.053c4.997 0 7.474-2.643 7.474-5.864 0-7.68-12.553-4.624-12.553-9.62 0-2.065 1.858-3.634 4.955-3.634 2.643 0 4.79 1.074 5.946 2.643l1.198-1.527c-1.445-1.611-3.716-2.932-7.144-2.932-4.5 0-7.102 2.477-7.102 5.532 0 7.185 12.594 4.088 12.594 9.538 0 2.312-1.982 4.047-5.327 4.047-2.808 0-5.162-1.32-6.442-2.932l-1.28 1.569c1.983 2.231 4.46 3.18 7.681 3.18zm27.831-.495v-14.039c0-4.461-3.221-6.4-7.268-6.4-3.303 0-5.616 1.114-7.68 3.344l1.197 1.486c1.817-2.064 3.758-2.932 6.277-2.932 2.932 0 5.326 1.611 5.326 4.584v4.047c-1.734-1.941-4.005-2.85-6.771-2.85-3.469 0-6.979 2.271-6.979 6.606 0 4.295 3.551 6.647 6.979 6.647 2.767 0 4.996-.907 6.771-2.848v2.354h2.148zm-8.176-1.198c-3.262 0-5.451-2.106-5.451-4.914 0-2.85 2.188-4.955 5.451-4.955 2.395 0 4.625.908 6.028 2.766v4.377c-1.403 1.817-3.633 2.726-6.028 2.726zm20.811 1.693c4.997 0 7.475-2.643 7.475-5.864 0-7.68-12.554-4.624-12.554-9.62 0-2.065 1.858-3.634 4.956-3.634 2.643 0 4.789 1.074 5.945 2.643l1.197-1.527c-1.445-1.611-3.716-2.932-7.143-2.932-4.502 0-7.103 2.477-7.103 5.532 0 7.185 12.594 4.088 12.594 9.538 0 2.312-1.981 4.047-5.327 4.047-2.807 0-5.161-1.32-6.44-2.932l-1.28 1.569c1.981 2.231 4.459 3.18 7.68 3.18zm18.953 0c4.997 0 7.475-2.643 7.475-5.864 0-7.68-12.553-4.624-12.553-9.62 0-2.065 1.857-3.634 4.955-3.634 2.643 0 4.789 1.074 5.945 2.643l1.197-1.527c-1.445-1.611-3.716-2.932-7.143-2.932-4.501 0-7.103 2.477-7.103 5.532 0 7.185 12.595 4.088 12.595 9.538 0 2.312-1.982 4.047-5.327 4.047-2.808 0-5.161-1.32-6.442-2.932l-1.279 1.569c1.983 2.231 4.459 3.18 7.68 3.18z"/>
</svg>
